<svg viewBox="-250 -250 500 500" width="500" height="500" xmlns="http://www.w3.org/2000/svg"><path d="M20.361278939402876,-31.13193317796641L-7.2306258835966135,-9.44214002390802L20.49099435103496,-31.04287685082388zM20.49099435103496,-31.04287685082388L-7.088778198246338,-9.443435110071103L20.613877196828376,-30.95851711080596zM20.613877196828376,-30.95851711080596L-6.954857089713644,-9.44465803800112L20.729541191004177,-30.87910820834773zM20.729541191004177,-30.87910820834773L-6.829361428611471,-9.445803848487218L20.837610577087382,-30.80491474375009zM20.837610577087382,-30.80491474375009L-6.712799408655698,-9.44686825759798L20.937722470140944,-30.736185255809534zM20.937722470140944,-30.736185255809534L-6.605653225887436,-9.447846474219075L21.02951723235488,-30.673162368279122zM21.02951723235488,-30.673162368279122L-6.508387046727862,-9.44873472289548L21.112660289268305,-30.61608333472306z" style="fill:rgb(82,237,172)"/><path d="M36.05624597862988,-28.054397710132505L34.632806785878444,-31.70587820786259L30.89096661191995,-28.771959588667873z" style="fill:rgb(217,127,217)"/><path d="M21.112660289268305,-30.61608333472306L-6.421449206260256,-9.449528553555098L21.18681987439599,-30.565172292214037zM21.18681987439599,-30.565172292214037L-6.345271191824453,-9.450224026331496L21.251684736143762,-30.5206358445099zM21.251684736143762,-30.5206358445099L-6.280257618255577,-9.45081771278894L21.30696045391588,-30.4826899712582zM21.30696045391588,-30.4826899712582L-6.226780424319174,-9.451306019953511L21.352365490310156,-30.451518550675793zM21.352365490310156,-30.451518550675793L-6.185190190642902,-9.451685698831383L21.38764083124309,-30.427301083737945zM21.38764083124309,-30.427301083737945L-6.15580158458423,-9.451954014605372L21.412548994937925,-30.410200525417906zM21.412548994937925,-30.410200525417906L-6.138893633767002,-9.45210840888287L21.426870410596866,-30.40036788099103z" style="fill:rgb(82,237,172)"/><path d="M34.632806785878444,-31.70587820786259L34.21009681279837,-32.790240510240395L30.497381092104725,-29.776729101113553zM36.05624597862988,-28.054397710132505L30.89096661191995,-28.771959588667873L32.35715437226701,-25.02900652674034zM34.632806785878444,-31.70587820786259L30.497381092104725,-29.776729101113553L30.89096661191995,-28.771959588667873zM30.89096661191995,-28.771959588667873L28.630739129904075,-21.981263438747273L32.35715437226701,-25.02900652674034zM30.497381092104725,-29.776729101113553L27.121206109962483,-25.81614676624944L30.89096661191995,-28.771959588667873zM30.89096661191995,-28.771959588667873L27.121206109962483,-25.81614676624944L28.630739129904075,-21.981263438747273zM30.497381092104725,-29.776729101113553L26.75719036321451,-26.740914657830672L27.121206109962483,-25.81614676624944z" style="fill:rgb(217,127,217)"/><path d="M20.361278939402876,-31.13193317796641L-7.379874287068186,-9.440777230126706L-7.2306258835966135,-9.44214002390802zM20.49099435103496,-31.04287685082388L-7.2306258835966135,-9.44214002390802L-7.088778198246338,-9.443435110071103zM20.613877196828376,-30.95851711080596L-7.088778198246338,-9.443435110071103L-6.954857089713644,-9.44465803800112zM20.729541191004177,-30.87910820834773L-6.954857089713644,-9.44465803800112L-6.829361428611471,-9.445803848487218zM20.837610577087382,-30.80491474375009L-6.829361428611471,-9.445803848487218L-6.712799408655698,-9.44686825759798zM20.937722470140944,-30.736185255809534L-6.712799408655698,-9.44686825759798L-6.605653225887436,-9.447846474219075zM21.02951723235488,-30.673162368279122L-6.605653225887436,-9.447846474219075L-6.508387046727862,-9.44873472289548zM21.112660289268305,-30.61608333472306L-6.508387046727862,-9.44873472289548L-6.421449206260256,-9.449528553555098zM21.18681987439599,-30.565172292214037L-6.421449206260256,-9.449528553555098L-6.345271191824453,-9.450224026331496zM21.251684736143762,-30.5206358445099L-6.345271191824453,-9.450224026331496L-6.280257618255577,-9.45081771278894zM21.30696045391588,-30.4826899712582L-6.280257618255577,-9.45081771278894L-6.226780424319174,-9.451306019953511zM21.352365490310156,-30.451518550675793L-6.226780424319174,-9.451306019953511L-6.185190190642902,-9.451685698831383zM21.38764083124309,-30.427301083737945L-6.185190190642902,-9.451685698831383L-6.15580158458423,-9.451954014605372zM21.412548994937925,-30.410200525417906L-6.15580158458423,-9.451954014605372L-6.138893633767002,-9.45210840888287zM21.426870410596866,-30.40036788099103L5.588908026190405,-9.559193054012901L26.75719036321451,-26.740914657830672zM-46.498982855649054,-3.847726855390824L-49.77977855170174,23.712241408814883L-46.32236654397339,-3.8484099435702315zM-46.32236654397339,-3.8484099435702315L-49.77977855170174,23.712241408814883L-46.1404277389737,-3.8491136880205836zM-46.1404277389737,-3.8491136880205836L-49.77977855170174,23.712241408814883L-45.95384012393229,-3.84983528988802zM-45.95384012393229,-3.84983528988802L-49.77977855170174,23.712241408814883L-45.76328308504757,-3.850572349858817zM-45.76328308504757,-3.850572349858817L-49.77977855170174,23.712241408814883L-45.56941554382232,-3.851322196425097zM-45.56941554382232,-3.851322196425097L-49.77977855170174,23.712241408814883L-45.37289819453536,-3.8520822214452846zM-45.37289819453536,-3.8520822214452846L-49.77977855170174,23.712241408814883L-45.174386014169194,-3.852850014678988zM-45.174386014169194,-3.852850014678988L-49.77977855170174,23.712241408814883L-44.97452430716336,-3.8536230275290437zM-44.97452430716336,-3.8536230275290437L-49.77977855170174,23.712241408814883L-44.77395188059134,-3.8543988420270012zM21.426870410596866,-30.40036788099103L-6.138893633767002,-9.45210840888287L5.588908026190405,-9.559193054012901zM-44.77395188059134,-3.8543988420270012L-49.77977855170174,23.712241408814883L-44.57328048365601,-3.85517496896306zM-44.57328048365601,-3.85517496896306L-49.77977855170174,23.712241408814883L-44.373133526986685,-3.8559490498969407z" style="fill:rgb(82,237,172)"/><path d="M27.121206109962483,-25.81614676624944L7.541377828209205,-4.732809854968955L28.630739129904075,-21.981263438747273z" style="fill:rgb(217,127,217)"/><path d="M-44.373133526986685,-3.8559490498969407L-49.77977855170174,23.712241408814883L-44.174114201651776,-3.8567188574369697zM-44.174114201651776,-3.8567188574369697L-49.77977855170174,23.712241408814883L-43.97680233832058,-3.8574820257727174zM-43.97680233832058,-3.8574820257727174L-49.77977855170174,23.712241408814883L-43.781775673569975,-3.8582363203490746zM-43.781775673569975,-3.8582363203490746L-49.77977855170174,23.712241408814883L-43.5895999207815,-3.8589795707250207zM-43.5895999207815,-3.8589795707250207L-49.77977855170174,23.712241408814883L-43.4008249170569,-3.8597097383362744zM-43.4008249170569,-3.8597097383362744L-49.77977855170174,23.712241408814883L-43.21599062585435,-3.8604246466967345zM-43.21599062585435,-3.8604246466967345L-49.77977855170174,23.712241408814883L-43.03561190899298,-3.861122251582996zM-43.03561190899298,-3.861122251582996L-49.77977855170174,23.712241408814883L-42.860211073763885,-3.861800709048515zM-42.860211073763885,-3.861800709048515L-49.77977855170174,23.712241408814883L-42.69027228427598,-3.8624579702588835z" style="fill:rgb(82,237,172)"/><path d="M26.75719036321451,-26.740914657830672L5.781228430235889,-9.08378936649064L27.121206109962483,-25.81614676624944z" style="fill:rgb(217,127,217)"/><path d="M-42.69027228427598,-3.8624579702588835L-49.77977855170174,23.712241408814883L-42.52628319845257,-3.863092254823775zM-42.52628319845257,-3.863092254823775L-49.77977855170174,23.712241408814883L-42.368712170216604,-3.8637016454941597zM-9.355017442034917,-9.422742474281552L-9.550482309911297,-9.420957738920071L-12.85167141650161,-6.702068545694585zM-9.160342688434739,-9.424520143811902L-9.355017442034917,-9.422742474281552L-12.672824607396945,-6.703233997236629zM-8.967017082414035,-9.426285351255117L-9.160342688434739,-9.424520143811902L-12.49470475022302,-6.704394688780835zM-8.775598654349096,-9.428033197656323L-8.967017082414035,-9.426285351255117L-12.317825685562589,-6.7055473706663475zM-8.586649408916827,-9.429758439980995L-8.775598654349096,-9.428033197656323L-12.142694725749323,-6.706688668605633zM-8.400727646893955,-9.431455996378064L-8.586649408916827,-9.429758439980995L-11.969827817182253,-6.707815083574086zM-8.21839082329051,-9.433120946754551L-8.400727646893955,-9.431455996378064L-11.799738719686676,-6.708923472892247zM-9.355017442034917,-9.422742474281552L-12.85167141650161,-6.702068545694585L-12.672824607396945,-6.703233997236629zM-8.040196808781435,-9.434748027368629L-8.21839082329051,-9.433120946754551L-11.632933222263985,-6.710010449348053zM-9.160342688434739,-9.424520143811902L-12.672824607396945,-6.703233997236629L-12.49470475022302,-6.704394688780835zM-7.866700228865812,-9.436332136815897L-8.040196808781435,-9.434748027368629L-11.469922593772372,-6.711072742092324zM-8.967017082414035,-9.426285351255117L-12.49470475022302,-6.704394688780835L-12.317825685562589,-6.7055473706663475zM-7.698448905589039,-9.437868336752597L-7.866700228865812,-9.436332136815897L-11.31121145708203,-6.7121069562517235zM-8.775598654349096,-9.428033197656323L-12.317825685562589,-6.7055473706663475L-12.142694725749323,-6.706688668605633zM-7.535992961988882,-9.439351683811674L-7.698448905589039,-9.437868336752597L-11.157307699543638,-6.713109934317526zM-8.586649408916827,-9.429758439980995L-12.142694725749323,-6.706688668605633L-11.969827817182253,-6.707815083574086zM-7.379874287068186,-9.440777230126706L-7.535992961988882,-9.439351683811674L-11.008704096037354,-6.714078274901514zM-7.2306258835966135,-9.44214002390802L-7.379874287068186,-9.440777230126706L-10.865900078753878,-6.715008814733376zM-8.400727646893955,-9.431455996378064L-11.969827817182253,-6.707815083574086L-11.799738719686676,-6.708923472892247zM-7.088778198246338,-9.443435110071103L-7.2306258835966135,-9.44214002390802L-10.72938628424593,-6.715898508808154zM-8.21839082329051,-9.433120946754551L-11.799738719686676,-6.708923472892247L-11.632933222263985,-6.710010449348053zM-6.954857089713644,-9.44465803800112L-7.088778198246338,-9.443435110071103L-10.599648390503587,-6.7167439486335505zM-8.040196808781435,-9.434748027368629L-11.632933222263985,-6.710010449348053L-11.469922593772372,-6.711072742092324zM-6.829361428611471,-9.445803848487218L-6.954857089713644,-9.44465803800112L-10.477154194235734,-6.717542085764741zM-7.866700228865812,-9.436332136815897L-11.469922593772372,-6.711072742092324L-11.31121145708203,-6.7121069562517235zM-6.712799408655698,-9.44686825759798L-6.829361428611471,-9.445803848487218L-10.362377854472694,-6.71829011204748zM-6.605653225887436,-9.447846474219075L-6.712799408655698,-9.44686825759798L-10.255768503215897,-6.718984857064434zM-7.698448905589039,-9.437868336752597L-11.31121145708203,-6.7121069562517235L-11.157307699543638,-6.713109934317526zM-6.508387046727862,-9.44873472289548L-6.605653225887436,-9.447846474219075L-10.157774477958627,-6.719623391578794zM-6.421449206260256,-9.449528553555098L-6.508387046727862,-9.44873472289548L-10.06881769519198,-6.720203148950715zM-7.535992961988882,-9.439351683811674L-11.157307699543638,-6.713109934317526L-11.008704096037354,-6.714078274901514zM-6.345271191824453,-9.450224026331496L-6.421449206260256,-9.449528553555098L-9.989307662050992,-6.7207212016497655zM-6.280257618255577,-9.45081771278894L-6.345271191824453,-9.450224026331496L-9.919641674624057,-6.721175227287442zM-7.379874287068186,-9.440777230126706L-11.008704096037354,-6.714078274901514L-10.865900078753878,-6.715008814733376zM-6.226780424319174,-9.451306019953511L-6.280257618255577,-9.45081771278894L-9.860181254805035,-6.721562664322775zM-6.185190190642902,-9.451685698831383L-6.226780424319174,-9.451306019953511L-9.81127634214711,-6.721881316160951zM-6.15580158458423,-9.451954014605372L-6.185190190642902,-9.451685698831383L-9.773243399990177,-6.722129231040164zM-7.2306258835966135,-9.44214002390802L-10.865900078753878,-6.715008814733376L-10.72938628424593,-6.715898508808154zM-6.138893633767002,-9.45210840888287L-6.15580158458423,-9.451954014605372L-9.746365979129415,-6.722304340245024zM-7.088778198246338,-9.443435110071103L-10.72938628424593,-6.715898508808154L-10.599648390503587,-6.7167439486335505zM-16.012697483568154,-3.9656398680274823L-12.672824607396945,-6.703233997236629L-12.85167141650161,-6.702068545694585zM-6.954857089713644,-9.44465803800112L-10.599648390503587,-6.7167439486335505L-10.477154194235734,-6.717542085764741zM-6.829361428611471,-9.445803848487218L-10.477154194235734,-6.717542085764741L-10.362377854472694,-6.71829011204748zM-15.851137333609739,-3.9662647178489414L-12.49470475022302,-6.704394688780835L-12.672824607396945,-6.703233997236629zM-6.712799408655698,-9.44686825759798L-10.362377854472694,-6.71829011204748L-10.255768503215897,-6.718984857064434zM-6.605653225887436,-9.447846474219075L-10.255768503215897,-6.718984857064434L-10.157774477958627,-6.719623391578794zM-15.690705281205965,-3.9668851999508656L-12.317825685562589,-6.7055473706663475L-12.49470475022302,-6.704394688780835zM-6.508387046727862,-9.44873472289548L-10.157774477958627,-6.719623391578794L-10.06881769519198,-6.720203148950715zM-15.531870585434632,-3.967499526519161L-12.142694725749323,-6.706688668605633L-12.317825685562589,-6.7055473706663475zM-6.421449206260256,-9.449528553555098L-10.06881769519198,-6.720203148950715L-9.989307662050992,-6.7207212016497655zM-6.345271191824453,-9.450224026331496L-9.989307662050992,-6.7207212016497655L-9.919641674624057,-6.721175227287442zM-6.280257618255577,-9.45081771278894L-9.919641674624057,-6.721175227287442L-9.860181254805035,-6.721562664322775zM-15.375090193239515,-3.968105907576692L-11.969827817182253,-6.707815083574086L-12.142694725749323,-6.706688668605633zM-6.226780424319174,-9.451306019953511L-9.860181254805035,-6.721562664322775L-9.81127634214711,-6.721881316160951zM-6.185190190642902,-9.451685698831383L-9.81127634214711,-6.721881316160951L-9.773243399990177,-6.722129231040164zM-6.15580158458423,-9.451954014605372L-9.773243399990177,-6.722129231040164L-9.746365979129415,-6.722304340245024zM-6.138893633767002,-9.45210840888287L-9.746365979129415,-6.722304340245024L-9.73090137161292,-6.722405062361855zM-15.220832127259401,-3.968702551045998L-11.799738719686676,-6.708923472892247L-11.969827817182253,-6.707815083574086zM-15.069559081186267,-3.9692876628282368L-11.632933222263985,-6.710010449348053L-11.799738719686676,-6.708923472892247zM-16.012697483568154,-3.9656398680274823L-12.85167141650161,-6.702068545694585L-16.174920556526022,-3.965012436091004zM-14.92173307491362,-3.969859446898418L-11.469922593772372,-6.711072742092324L-11.632933222263985,-6.710010449348053zM-15.851137333609739,-3.9662647178489414L-12.672824607396945,-6.703233997236629L-16.012697483568154,-3.9656398680274823zM-14.777808131763166,-3.9704160339671857L-11.31121145708203,-6.7121069562517235L-11.469922593772372,-6.711072742092324zM-15.690705281205965,-3.9668851999508656L-12.49470475022302,-6.704394688780835L-15.851137333609739,-3.9662647178489414zM-14.63824562590911,-3.97095583885755L-11.157307699543638,-6.713109934317526L-11.31121145708203,-6.7121069562517235zM-15.531870585434632,-3.967499526519161L-12.317825685562589,-6.7055473706663475L-15.690705281205965,-3.9668851999508656zM-14.503492457540505,-3.9714770606154044L-11.008704096037354,-6.714078274901514L-11.157307699543638,-6.713109934317526zM-15.375090193239515,-3.968105907576692L-12.142694725749323,-6.706688668605633L-15.531870585434632,-3.967499526519161zM-14.374005249428297,-3.9719778968964334L-10.865900078753878,-6.715008814733376L-11.008704096037354,-6.714078274901514zM-14.250223613170819,-3.9724566156652097L-10.72938628424593,-6.715898508808154L-10.865900078753878,-6.715008814733376zM-15.220832127259401,-3.968702551045998L-11.969827817182253,-6.707815083574086L-15.375090193239515,-3.968105907576692zM-14.132585569159726,-3.9729116270090246L-10.599648390503587,-6.7167439486335505L-10.72938628424593,-6.715898508808154zM-15.069559081186267,-3.9692876628282368L-11.799738719686676,-6.708923472892247L-15.220832127259401,-3.968702551045998zM-14.021521776243787,-3.97334119727182L-10.477154194235734,-6.717542085764741L-10.599648390503587,-6.7167439486335505zM-14.92173307491362,-3.969859446898418L-11.632933222263985,-6.710010449348053L-15.069559081186267,-3.9692876628282368zM-13.917452729832393,-3.973743663813196L-10.362377854472694,-6.71829011204748L-10.477154194235734,-6.717542085764741zM-13.820798566662512,-3.9741175784704956L-10.255768503215897,-6.718984857064434L-10.362377854472694,-6.71829011204748zM-14.777808131763166,-3.9704160339671857L-11.469922593772372,-6.711072742092324L-14.92173307491362,-3.969859446898418z" style="fill:rgb(82,237,172)"/><path d="M27.121206109962483,-25.81614676624944L5.781228430235889,-9.08378936649064L7.541377828209205,-4.732809854968955z" style="fill:rgb(217,127,217)"/><path d="M-13.731950284529725,-3.974461206809351L-10.157774477958627,-6.719623391578794L-10.255768503215897,-6.718984857064434zM-14.63824562590911,-3.97095583885755L-11.31121145708203,-6.7121069562517235L-14.777808131763166,-3.9704160339671857zM-13.651297463525708,-3.974773100964675L-10.06881769519198,-6.720203148950715L-10.157774477958627,-6.719623391578794zM-13.579215959285687,-3.9750519568788705L-9.989307662050992,-6.7207212016497655L-10.06881769519198,-6.720203148950715zM-14.503492457540505,-3.9714770606154044L-11.157307699543638,-6.713109934317526L-14.63824562590911,-3.97095583885755zM-13.516052292452956,-3.975296184872341L-9.919641674624057,-6.721175227287442L-9.989307662050992,-6.7207212016497655zM-13.462148549674401,-3.9755046976766764L-9.860181254805035,-6.721562664322775L-9.919641674624057,-6.721175227287442zM-14.374005249428297,-3.9719778968964334L-11.008704096037354,-6.714078274901514L-14.503492457540505,-3.9714770606154044zM-13.417810551157695,-3.9756761945408314L-9.81127634214711,-6.721881316160951L-9.860181254805035,-6.721562664322775zM-13.38333011325143,-3.975809519576529L-9.773243399990177,-6.722129231040164L-9.81127634214711,-6.721881316160951zM-13.358965525447317,-3.975903805332556L-9.746365979129415,-6.722304340245024L-9.773243399990177,-6.722129231040164zM-13.34494566655831,-3.975957971512698L-9.73090137161292,-6.722405062361855L-9.746365979129415,-6.722304340245024zM-14.250223613170819,-3.9724566156652097L-10.865900078753878,-6.715008814733376L-14.374005249428297,-3.9719778968964334zM-14.132585569159726,-3.9729116270090246L-10.72938628424593,-6.715898508808154L-14.250223613170819,-3.9724566156652097zM-14.021521776243787,-3.97334119727182L-10.599648390503587,-6.7167439486335505L-14.132585569159726,-3.9729116270090246z" style="fill:rgb(82,237,172)"/><path d="M26.75719036321451,-26.740914657830672L5.588908026190405,-9.559193054012901L5.781228430235889,-9.08378936649064z" style="fill:rgb(217,127,217)"/><path d="M-13.917452729832393,-3.973743663813196L-10.477154194235734,-6.717542085764741L-14.021521776243787,-3.97334119727182zM-13.820798566662512,-3.9741175784704956L-10.362377854472694,-6.71829011204748L-13.917452729832393,-3.973743663813196zM-13.731950284529725,-3.974461206809351L-10.255768503215897,-6.718984857064434L-13.820798566662512,-3.9741175784704956zM-13.651297463525708,-3.974773100964675L-10.157774477958627,-6.719623391578794L-13.731950284529725,-3.974461206809351zM5.588908026190405,-9.559193054012901L-6.138893633767002,-9.45210840888287L-9.73090137161292,-6.722405062361855zM-13.579215959285687,-3.9750519568788705L-10.06881769519198,-6.720203148950715L-13.651297463525708,-3.974773100964675zM-13.516052292452956,-3.975296184872341L-9.989307662050992,-6.7207212016497655L-13.579215959285687,-3.9750519568788705zM-13.462148549674401,-3.9755046976766764L-9.919641674624057,-6.721175227287442L-13.516052292452956,-3.975296184872341zM-13.417810551157695,-3.9756761945408314L-9.860181254805035,-6.721562664322775L-13.462148549674401,-3.9755046976766764zM-13.38333011325143,-3.975809519576529L-9.81127634214711,-6.721881316160951L-13.417810551157695,-3.9756761945408314zM-13.358965525447317,-3.975903805332556L-9.773243399990177,-6.722129231040164L-13.38333011325143,-3.975809519576529zM-13.34494566655831,-3.975957971512698L-9.746365979129415,-6.722304340245024L-13.358965525447317,-3.975903805332556zM-42.368712170216604,-3.8637016454941597L-49.77977855170174,23.712241408814883L-16.174920556526022,-3.965012436091004zM-1.2320473430315124,-4.022807555114005L-9.73090137161292,-6.722405062361855L-13.34494566655831,-3.975957971512698zM5.588908026190405,-9.559193054012901L-9.73090137161292,-6.722405062361855L2.189625152285911,-6.800085510448567z" style="fill:rgb(82,237,172)"/><path d="M7.541377828209205,-4.732809854968955L5.781228430235889,-9.08378936649064L2.353684178066632,-6.396303743211055z" style="fill:rgb(217,127,217)"/><path d="M-1.2320473430315124,-4.022807555114005L2.189625152285911,-6.800085510448567L-9.73090137161292,-6.722405062361855z" style="fill:rgb(82,237,172)"/><path d="M7.541377828209205,-4.732809854968955L2.353684178066632,-6.396303743211055L4.154919823125092,-1.9631103201898565zM5.781228430235889,-9.08378936649064L5.588908026190405,-9.559193054012901L2.189625152285911,-6.800085510448567zM5.781228430235889,-9.08378936649064L2.189625152285911,-6.800085510448567L2.353684178066632,-6.396303743211055zM0.7461989060877531,0.8247948445520298L4.154919823125092,-1.9631103201898565L2.353684178066632,-6.396303743211055z" style="fill:rgb(217,127,217)"/><path d="M-16.174920556526022,-3.965012436091004L-49.77977855170174,23.712241408814883L-16.012697483568154,-3.9656398680274823zM-16.012697483568154,-3.9656398680274823L-49.77977855170174,23.712241408814883L-15.851137333609739,-3.9662647178489414zM-15.851137333609739,-3.9662647178489414L-49.77977855170174,23.712241408814883L-15.690705281205965,-3.9668851999508656zM-15.690705281205965,-3.9668851999508656L-49.77977855170174,23.712241408814883L-15.531870585434632,-3.967499526519161zM-15.531870585434632,-3.967499526519161L-49.77977855170174,23.712241408814883L-15.375090193239515,-3.968105907576692zM-15.375090193239515,-3.968105907576692L-49.77977855170174,23.712241408814883L-15.220832127259401,-3.968702551045998zM-15.220832127259401,-3.968702551045998L-49.77977855170174,23.712241408814883L-15.069559081186267,-3.9692876628282368zM-15.069559081186267,-3.9692876628282368L-49.77977855170174,23.712241408814883L-14.92173307491362,-3.969859446898418zM-14.92173307491362,-3.969859446898418L-49.77977855170174,23.712241408814883L-14.777808131763166,-3.9704160339671857zM-14.777808131763166,-3.9704160339671857L-49.77977855170174,23.712241408814883L-14.63824562590911,-3.97095583885755z" style="fill:rgb(82,237,172)"/><path d="M-1.0966279678557151,-3.6909684263404854L2.353684178066632,-6.396303743211055L2.189625152285911,-6.800085510448567z" style="fill:rgb(217,127,217)"/><path d="M-14.63824562590911,-3.97095583885755L-49.77977855170174,23.712241408814883L-14.503492457540505,-3.9714770606154044zM-14.503492457540505,-3.9714770606154044L-49.77977855170174,23.712241408814883L-14.374005249428297,-3.9719778968964334zM-14.374005249428297,-3.9719778968964334L-49.77977855170174,23.712241408814883L-14.250223613170819,-3.9724566156652097zM-14.250223613170819,-3.9724566156652097L-49.77977855170174,23.712241408814883L-14.132585569159726,-3.9729116270090246zM-14.132585569159726,-3.9729116270090246L-49.77977855170174,23.712241408814883L-14.021521776243787,-3.97334119727182zM-14.021521776243787,-3.97334119727182L-49.77977855170174,23.712241408814883L-13.917452729832393,-3.973743663813196zM-13.917452729832393,-3.973743663813196L-49.77977855170174,23.712241408814883L-13.820798566662512,-3.9741175784704956z" style="fill:rgb(82,237,172)"/><path d="M0.7461989060877531,0.8247948445520298L2.353684178066632,-6.396303743211055L-1.0966279678557151,-3.6909684263404854z" style="fill:rgb(217,127,217)"/><path d="M-13.820798566662512,-3.9741175784704956L-49.77977855170174,23.712241408814883L-13.731950284529725,-3.974461206809351zM-13.731950284529725,-3.974461206809351L-49.77977855170174,23.712241408814883L-13.651297463525708,-3.974773100964675zM-13.651297463525708,-3.974773100964675L-49.77977855170174,23.712241408814883L-13.579215959285687,-3.9750519568788705zM-13.579215959285687,-3.9750519568788705L-49.77977855170174,23.712241408814883L-13.516052292452956,-3.975296184872341zM-13.516052292452956,-3.975296184872341L-49.77977855170174,23.712241408814883L-13.462148549674401,-3.9755046976766764zM-13.462148549674401,-3.9755046976766764L-49.77977855170174,23.712241408814883L-13.417810551157695,-3.9756761945408314zM-13.417810551157695,-3.9756761945408314L-49.77977855170174,23.712241408814883L-13.38333011325143,-3.975809519576529zM-13.38333011325143,-3.975809519576529L-49.77977855170174,23.712241408814883L-13.358965525447317,-3.975903805332556zM-13.358965525447317,-3.975903805332556L-49.77977855170174,23.712241408814883L-13.34494566655831,-3.975957971512698z" style="fill:rgb(82,237,172)"/><path d="M-1.0966279678557151,-3.6909684263404854L2.189625152285911,-6.800085510448567L-1.2320473430315124,-4.022807555114005z" style="fill:rgb(217,127,217)"/><path d="M-13.34494566655831,-3.975957971512698L-17.10915033628219,8.864209655902876L-1.2320473430315124,-4.022807555114005z" style="fill:rgb(82,237,172)"/><path d="M-1.0966279678557151,-3.6909684263404854L-15.070250732029136,13.760668922705714L0.7461989060877531,0.8247948445520298zM-1.2320473430315124,-4.022807555114005L-17.10915033628219,8.864209655902876L-1.0966279678557151,-3.6909684263404854z" style="fill:rgb(217,127,217)"/><path d="M-13.34494566655831,-3.975957971512698L-49.77977855170174,23.712241408814883L-17.10915033628219,8.864209655902876z" style="fill:rgb(82,237,172)"/><path d="M-1.0966279678557151,-3.6909684263404854L-17.10915033628219,8.864209655902876L-15.070250732029136,13.760668922705714z" style="fill:rgb(217,127,217)"/><path d="M-56.498667101895556,29.43642627025019L-55.19092667981795,29.444706743168172L-57.30385245685272,24.58634976055852zM-56.498667101895556,29.43642627025019L-57.30385245685272,24.58634976055852L-58.611453039819324,24.584164242442526z" style="fill:rgb(52,63,208)"/><path d="M-55.923420351454844,24.529275495671218L-55.19092667981795,29.444706743168172L-53.810642352999714,29.393500909425963zM-55.923420351454844,24.529275495671218L-57.30385245685272,24.58634976055852L-55.19092667981795,29.444706743168172z" style="fill:rgb(57,64,213)"/><path d="M-55.923420351454844,24.529275495671218L-53.810642352999714,29.393500909425963L-52.36290733223135,29.282800860179435z" style="fill:rgb(63,64,218)"/><path d="M-16.293950595976945,14.7281547637477L-15.070250732029136,13.760668922705714L-17.10915033628219,8.864209655902876z" style="fill:rgb(215,125,219)"/><path d="M-55.923420351454844,24.529275495671218L-52.36290733223135,29.282800860179435L-54.47523993770039,24.412949571909056z" style="fill:rgb(63,64,218)"/><path d="M-49.77977855170174,23.712241408814883L-58.611453039819324,24.584164242442526L-57.30385245685272,24.58634976055852z" style="fill:rgb(82,237,172)"/><path d="M-50.85313052928931,29.112833588901182L-54.47523993770039,24.412949571909056L-52.36290733223135,29.282800860179435z" style="fill:rgb(70,65,222)"/><path d="M-16.293950595976945,14.7281547637477L-17.10915033628219,8.864209655902876L-18.337423805640025,9.828259670605291z" style="fill:rgb(215,125,219)"/><path d="M-19.643983968699196,10.790023920996697L-17.595946327728,15.692960477297985L-16.293950595976945,14.7281547637477z" style="fill:rgb(210,121,224)"/><path d="M-49.77977855170174,23.712241408814883L-57.30385245685272,24.58634976055852L-55.923420351454844,24.529275495671218z" style="fill:rgb(82,237,172)"/><path d="M-50.85313052928931,29.112833588901182L-52.96472692759361,24.237624189420604L-54.47523993770039,24.412949571909056z" style="fill:rgb(70,65,222)"/><path d="M-19.643983968699196,10.790023920996697L-16.293950595976945,14.7281547637477L-18.337423805640025,9.828259670605291z" style="fill:rgb(210,121,224)"/><path d="M-50.85313052928931,29.112833588901182L-49.287015244434514,28.884083649684207L-51.39758403424138,24.003806426048687z" style="fill:rgb(76,66,226)"/><path d="M-19.643983968699196,10.790023920996697L-18.9713876548037,16.65131694923399L-17.595946327728,15.692960477297985z" style="fill:rgb(204,117,228)"/><path d="M-49.77977855170174,23.712241408814883L-55.923420351454844,24.529275495671218L-54.47523993770039,24.412949571909056z" style="fill:rgb(82,237,172)"/><path d="M-50.85313052928931,29.112833588901182L-51.39758403424138,24.003806426048687L-52.96472692759361,24.237624189420604z" style="fill:rgb(76,66,226)"/><path d="M-49.77977855170174,23.712241408814883L-18.337423805640025,9.828259670605291L-17.10915033628219,8.864209655902876z" style="fill:rgb(82,237,172)"/><path d="M-49.77977855170174,23.712241408814883L-49.287015244434514,28.884083649684207L-47.6705221708786,28.597279158310457z" style="fill:rgb(83,67,230)"/><path d="M-49.77977855170174,23.712241408814883L-54.47523993770039,24.412949571909056L-52.96472692759361,24.237624189420604z" style="fill:rgb(82,237,172)"/><path d="M-19.643983968699196,10.790023920996697L-21.023965823678378,11.745740052412874L-18.9713876548037,16.65131694923399z" style="fill:rgb(204,117,228)"/><path d="M-49.77977855170174,23.712241408814883L-19.643983968699196,10.790023920996697L-18.337423805640025,9.828259670605291z" style="fill:rgb(82,237,172)"/><path d="M-18.9713876548037,16.65131694923399L-22.472160650494413,12.69164614538165L-20.415084335857387,17.599448623233755z" style="fill:rgb(199,114,232)"/><path d="M-49.77977855170174,23.712241408814883L-51.39758403424138,24.003806426048687L-49.287015244434514,28.884083649684207z" style="fill:rgb(83,67,230)"/><path d="M-49.77977855170174,23.712241408814883L-47.6705221708786,28.597279158310457L-46.00986670103248,28.253395050950484z" style="fill:rgb(89,68,234)"/><path d="M-18.9713876548037,16.65131694923399L-21.023965823678378,11.745740052412874L-22.472160650494413,12.69164614538165z" style="fill:rgb(199,114,232)"/><path d="M-49.77977855170174,23.712241408814883L-52.96472692759361,24.237624189420604L-51.39758403424138,24.003806426048687z" style="fill:rgb(82,237,172)"/><path d="M-22.472160650494413,12.69164614538165L-21.921542881233435,18.53361015920222L-20.415084335857387,17.599448623233755z" style="fill:rgb(193,110,235)"/><path d="M-49.77977855170174,23.712241408814883L-21.023965823678378,11.745740052412874L-19.643983968699196,10.790023920996697z" style="fill:rgb(82,237,172)"/><path d="M-48.11752992481274,23.363922931705314L-46.00986670103248,28.253395050950484L-44.311473737799865,27.85364924543642z" style="fill:rgb(96,70,237)"/><path d="M-49.77977855170174,23.712241408814883L-46.00986670103248,28.253395050950484L-48.11752992481274,23.363922931705314z" style="fill:rgb(89,68,234)"/><path d="M-49.77977855170174,23.712241408814883L-22.472160650494413,12.69164614538165L-21.023965823678378,11.745740052412874z" style="fill:rgb(82,237,172)"/><path d="M-22.472160650494413,12.69164614538165L-23.98305436316103,13.624006017378052L-21.921542881233435,18.53361015920222z" style="fill:rgb(193,110,235)"/><path d="M-25.550842141282313,14.539119843808678L-23.48497499852796,19.450092667574985L-21.921542881233435,18.53361015920222z" style="fill:rgb(187,106,238)"/><path d="M-42.58195973220717,27.399503114205775L-46.4172702157853,22.960089933722415L-44.311473737799865,27.85364924543642z" style="fill:rgb(103,71,239)"/><path d="M-49.77977855170174,23.712241408814883L-23.98305436316103,13.624006017378052L-22.472160650494413,12.69164614538165z" style="fill:rgb(82,237,172)"/><path d="M-48.11752992481274,23.363922931705314L-44.311473737799865,27.85364924543642L-46.4172702157853,22.960089933722415z" style="fill:rgb(96,70,237)"/><path d="M-25.550842141282313,14.539119843808678L-21.921542881233435,18.53361015920222L-23.98305436316103,13.624006017378052z" style="fill:rgb(187,106,238)"/><path d="M-49.77977855170174,23.712241408814883L-48.11752992481274,23.363922931705314L-46.4172702157853,22.960089933722415z" style="fill:rgb(82,237,172)"/><path d="M-27.169449847970256,15.433345695998955L-25.09932591043108,20.345254383063914L-23.48497499852796,19.450092667574985z" style="fill:rgb(180,103,240)"/><path d="M-49.77977855170174,23.712241408814883L-25.550842141282313,14.539119843808678L-23.98305436316103,13.624006017378052z" style="fill:rgb(82,237,172)"/><path d="M-42.58195973220717,27.399503114205775L-40.82808612091212,26.892656055263974L-42.92935495524845,21.99203412425474z" style="fill:rgb(110,73,242)"/><path d="M-27.169449847970256,15.433345695998955L-26.758304204642695,21.21552594515223L-25.09932591043108,20.345254383063914z" style="fill:rgb(174,99,242)"/><path d="M-49.77977855170174,23.712241408814883L-46.4172702157853,22.960089933722415L-44.6856161225595,22.50222641522068z" style="fill:rgb(82,237,172)"/><path d="M-42.58195973220717,27.399503114205775L-44.6856161225595,22.50222641522068L-46.4172702157853,22.960089933722415z" style="fill:rgb(103,71,239)"/><path d="M-27.169449847970256,15.433345695998955L-23.48497499852796,19.450092667574985L-25.550842141282313,14.539119843808678z" style="fill:rgb(180,103,240)"/><path d="M-49.77977855170174,23.712241408814883L-27.169449847970256,15.433345695998955L-25.550842141282313,14.539119843808678z" style="fill:rgb(82,237,172)"/><path d="M-42.92935495524845,21.99203412425474L-40.82808612091212,26.892656055263974L-39.05675713387344,26.33503201616867z" style="fill:rgb(118,76,243)"/><path d="M-28.455416673890735,22.057431326967816L-26.758304204642695,21.21552594515223L-28.83257216080185,16.30312371402186z" style="fill:rgb(167,96,244)"/><path d="M-49.77977855170174,23.712241408814883L-44.6856161225595,22.50222641522068L-42.92935495524845,21.99203412425474z" style="fill:rgb(82,237,172)"/><path d="M-42.58195973220717,27.399503114205775L-42.92935495524845,21.99203412425474L-44.6856161225595,22.50222641522068z" style="fill:rgb(110,73,242)"/><path d="M-49.77977855170174,23.712241408814883L-28.83257216080185,16.30312371402186L-27.169449847970256,15.433345695998955z" style="fill:rgb(82,237,172)"/><path d="M-39.05675713387344,26.33503201616867L-37.27495072103606,25.728785217556986L-39.370699742483254,20.822665938293916z" style="fill:rgb(125,78,245)"/><path d="M-49.77977855170174,23.712241408814883L-42.92935495524845,21.99203412425474L-41.15538080692325,21.431462471364075z" style="fill:rgb(82,237,172)"/><path d="M-27.169449847970256,15.433345695998955L-28.83257216080185,16.30312371402186L-26.758304204642695,21.21552594515223z" style="fill:rgb(174,99,242)"/><path d="M-28.455416673890735,22.057431326967816L-32.26612238221289,17.955556747051098L-30.183989864203284,22.867616142022094z" style="fill:rgb(160,92,245)"/><path d="M-49.77977855170174,23.712241408814883L-30.53369070740371,17.144979639340526L-28.83257216080185,16.30312371402186z" style="fill:rgb(82,237,172)"/><path d="M-39.370699742483254,20.822665938293916L-37.27495072103606,25.728785217556986L-35.4897108372301,25.076263247228166z" style="fill:rgb(132,81,246)"/><path d="M-31.937196387173884,23.642841175508146L-30.183989864203284,22.867616142022094L-32.26612238221289,17.955556747051098z" style="fill:rgb(153,89,246)"/><path d="M-49.77977855170174,23.712241408814883L-41.15538080692325,21.431462471364075L-39.370699742483254,20.822665938293916zM-49.77977855170174,23.712241408814883L-32.26612238221289,17.955556747051098L-30.53369070740371,17.144979639340526z" style="fill:rgb(82,237,172)"/><path d="M-35.79744361976838,19.47008457356569L-35.4897108372301,25.076263247228166L-33.70810901734769,24.38003236761948z" style="fill:rgb(139,83,246)"/><path d="M-35.79744361976838,19.47008457356569L-33.70810901734769,24.38003236761948L-31.937196387173884,23.642841175508146z" style="fill:rgb(146,86,246)"/><path d="M-42.92935495524845,21.99203412425474L-39.05675713387344,26.33503201616867L-41.15538080692325,21.431462471364075z" style="fill:rgb(118,76,243)"/><path d="M-49.77977855170174,23.712241408814883L-39.370699742483254,20.822665938293916L-37.58236071166077,20.168016073865942zM-49.77977855170174,23.712241408814883L-34.02302101793358,18.73162121418859L-32.26612238221289,17.955556747051098z" style="fill:rgb(82,237,172)"/><path d="M-28.455416673890735,22.057431326967816L-28.83257216080185,16.30312371402186L-30.53369070740371,17.144979639340526z" style="fill:rgb(167,96,244)"/><path d="M-49.77977855170174,23.712241408814883L-37.58236071166077,20.168016073865942L-35.79744361976838,19.47008457356569zM-49.77977855170174,23.712241408814883L-35.79744361976838,19.47008457356569L-34.02302101793358,18.73162121418859z" style="fill:rgb(82,237,172)"/><path d="M-39.05675713387344,26.33503201616867L-39.370699742483254,20.822665938293916L-41.15538080692325,21.431462471364075z" style="fill:rgb(125,78,245)"/><path d="M-28.455416673890735,22.057431326967816L-30.53369070740371,17.144979639340526L-32.26612238221289,17.955556747051098z" style="fill:rgb(160,92,245)"/><path d="M-39.370699742483254,20.822665938293916L-35.4897108372301,25.076263247228166L-37.58236071166077,20.168016073865942z" style="fill:rgb(132,81,246)"/><path d="M-31.937196387173884,23.642841175508146L-32.26612238221289,17.955556747051098L-34.02302101793358,18.73162121418859z" style="fill:rgb(153,89,246)"/><path d="M-35.79744361976838,19.47008457356569L-37.58236071166077,20.168016073865942L-35.4897108372301,25.076263247228166z" style="fill:rgb(139,83,246)"/><path d="M-35.79744361976838,19.47008457356569L-31.937196387173884,23.642841175508146L-34.02302101793358,18.73162121418859z" style="fill:rgb(146,86,246)"/></svg>