<svg viewBox="-250 -250 500 500" width="500" height="500" xmlns="http://www.w3.org/2000/svg"><path d="M-86.51230902381283,74.8881170955504L-84.13191398850793,72.60428299898385L-84.28879729096599,72.25885715312981zM-86.61094748129575,74.43676926210401L-84.28879729096599,72.25885715312981L-84.47735476227069,71.84366986734102zM-86.72873262103386,73.89776941075505L-84.47735476227069,71.84366986734102L-84.68092664072934,71.39544255782475zM-86.85497943172082,73.32012193956987L-84.68092664072934,71.39544255782475L-84.88215310542301,70.95235159608343zM-86.97883630979591,72.75335724034547L-84.88215310542301,70.95235159608343L-85.06387616615882,70.55222293046423zM-87.08988650954421,72.24516846305146L-85.06387616615882,70.55222293046423L-85.20986161634022,70.23079074188517zM-86.51230902381283,74.8881170955504L-84.28879729096599,72.25885715312981L-86.61094748129575,74.43676926210401zM-87.17856468374414,71.83937958855822L-85.20986161634022,70.23079074188517L-85.30585150749201,70.01943134348065zM-86.61094748129575,74.43676926210401L-84.47735476227069,71.84366986734102L-86.72873262103386,73.89776941075505zM-87.23662474501845,71.57374363561685L-85.30585150749201,70.01943134348065L-85.3408665510122,69.94232623693188zM-87.25774705539119,71.47707497017133L-85.3408665510122,69.94232623693188L-85.42760655315337,69.75134827611834zM-77.25359780351023,69.61360097400512L-77.38694613734077,69.31783166077022L-80.79272747532933,72.52282071367051zM-86.72873262103386,73.89776941075505L-84.68092664072934,71.39544255782475L-86.85497943172082,73.32012193956987zM-77.38694613734077,69.31783166077022L-77.5472165015505,68.96234488215588L-80.98138608322691,72.10616086197378zM-86.85497943172082,73.32012193956987L-84.88215310542301,70.95235159608343L-86.97883630979591,72.75335724034547zM-78.45671852089362,87.82227429897121L-78.8751254860522,88.17277790230021L-79.00840026768148,88.45306848905916zM-86.97883630979591,72.75335724034547L-85.06387616615882,70.55222293046423L-87.08988650954421,72.24516846305146zM-77.5472165015505,68.96234488215588L-77.72022151809362,68.57859248036353L-81.18505757547659,71.65634260369934z" style="fill:rgb(217,127,217)"/><path d="M-80.13807415099139,66.97928166770065L-81.93214122627694,70.00640995836808L-78.3862142513622,67.10135815617619z" style="fill:rgb(82,237,172)"/><path d="M-87.08988650954421,72.24516846305146L-85.20986161634022,70.23079074188517L-87.17856468374414,71.83937958855822zM-87.17856468374414,71.83937958855822L-85.30585150749201,70.01943134348065L-87.23662474501845,71.57374363561685zM-77.72022151809362,68.57859248036353L-77.89124561169436,68.19925007315523L-81.38640232803571,71.2116795856673zM-87.23662474501845,71.57374363561685L-85.3408665510122,69.94232623693188L-87.25774705539119,71.47707497017133zM-87.25774705539119,71.47707497017133L-85.42760655315337,69.75134827611834L-87.3006656014332,71.28069393773109zM-77.89124561169436,68.19925007315523L-78.04567558589456,67.85670998141083L-81.5682235558078,70.81013022677149z" style="fill:rgb(217,127,217)"/><path d="M-80.13807415099139,66.97928166770065L-83.99755380012923,69.85569850691823L-81.93214122627694,70.00640995836808z" style="fill:rgb(82,237,172)"/><path d="M-78.04567558589456,67.85670998141083L-78.16973350878914,67.58154708086059L-81.71428802286607,70.48755642161697zM-78.16973350878914,67.58154708086059L-78.25129630084562,67.40062391091689L-81.81032994544888,70.27544617993455zM-78.25129630084562,67.40062391091689L-78.28105006282979,67.33462209192177L-81.84536398380882,70.19806712800772z" style="fill:rgb(217,127,217)"/><path d="M-85.42760655315337,69.75134827611834L-86.03631872476349,71.37516063520117L-83.99755380012923,69.85569850691823z" style="fill:rgb(82,237,172)"/><path d="M-78.28105006282979,67.33462209192177L-78.3862142513622,67.10135815617619L-81.93214122627694,70.00640995836808zM-79.7719057450613,90.0587878475481L-78.8751254860522,88.17277790230021L-79.98098628429578,89.09918135516655zM-77.25359780351023,69.61360097400512L-80.79272747532933,72.52282071367051L-80.6357602013292,72.86947130846724z" style="fill:rgb(217,127,217)"/><path d="M-85.42760655315337,69.75134827611834L-87.3006656014332,71.28069393773109L-86.03631872476349,71.37516063520117z" style="fill:rgb(82,237,172)"/><path d="M-79.54212067205077,91.1134931077095L-79.57932783319481,90.1837343674372L-79.6586047804707,90.57883859219925zM-79.6586047804707,90.57883859219925L-79.395346833517,89.26685547694082L-79.7719057450613,90.0587878475481zM-77.38694613734077,69.31783166077022L-80.98138608322691,72.10616086197378L-80.79272747532933,72.52282071367051zM-77.5472165015505,68.96234488215588L-81.18505757547659,71.65634260369934L-80.98138608322691,72.10616086197378zM-77.72022151809362,68.57859248036353L-81.38640232803571,71.2116795856673L-81.18505757547659,71.65634260369934zM-77.89124561169436,68.19925007315523L-81.5682235558078,70.81013022677149L-81.38640232803571,71.2116795856673zM-78.04567558589456,67.85670998141083L-81.71428802286607,70.48755642161697L-81.5682235558078,70.81013022677149zM-78.16973350878914,67.58154708086059L-81.81032994544888,70.27544617993455L-81.71428802286607,70.48755642161697zM-78.25129630084562,67.40062391091689L-81.84536398380882,70.19806712800772L-81.81032994544888,70.27544617993455zM-78.28105006282979,67.33462209192177L-81.93214122627694,70.00640995836808L-81.84536398380882,70.19806712800772zM-83.01743738700496,75.16222779244403L-80.6357602013292,72.86947130846724L-80.79272747532933,72.52282071367051z" style="fill:rgb(217,127,217)"/><path d="M-83.99755380012923,69.85569850691823L-86.03631872476349,71.37516063520117L-83.8062297285317,71.54178353468052z" style="fill:rgb(82,237,172)"/><path d="M-83.11612941645096,74.70925116446539L-80.79272747532933,72.52282071367051L-80.98138608322691,72.10616086197378z" style="fill:rgb(217,127,217)"/><path d="M-83.99755380012923,69.85569850691823L-83.8062297285317,71.54178353468052L-81.93214122627694,70.00640995836808z" style="fill:rgb(82,237,172)"/><path d="M-83.23398935098851,74.16830726237373L-80.98138608322691,72.10616086197378L-81.18505757547659,71.65634260369934zM-83.36029597816865,73.5885745432109L-81.18505757547659,71.65634260369934L-81.38640232803571,71.2116795856673zM-83.48422132531607,73.01976405603877L-81.38640232803571,71.2116795856673L-81.5682235558078,70.81013022677149zM-83.59534287677904,72.50974117229815L-81.5682235558078,70.81013022677149L-81.71428802286607,70.48755642161697zM-83.01743738700496,75.16222779244403L-80.79272747532933,72.52282071367051L-83.11612941645096,74.70925116446539zM-83.68407019969588,72.10248698849055L-81.71428802286607,70.48755642161697L-81.81032994544888,70.27544617993455zM-83.11612941645096,74.70925116446539L-80.98138608322691,72.10616086197378L-83.23398935098851,74.16830726237373zM-83.74215258751637,71.83589106490547L-81.81032994544888,70.27544617993455L-81.84536398380882,70.19806712800772zM-83.76329576468726,71.7388732565729L-81.84536398380882,70.19806712800772L-81.93214122627694,70.00640995836808zM-83.23398935098851,74.16830726237373L-81.18505757547659,71.65634260369934L-83.36029597816865,73.5885745432109zM-83.36029597816865,73.5885745432109L-81.38640232803571,71.2116795856673L-83.48422132531607,73.01976405603877zM-83.48422132531607,73.01976405603877L-81.5682235558078,70.81013022677149L-83.59534287677904,72.50974117229815zM-83.59534287677904,72.50974117229815L-81.71428802286607,70.48755642161697L-83.68407019969588,72.10248698849055zM-83.68407019969588,72.10248698849055L-81.81032994544888,70.27544617993455L-83.74215258751637,71.83589106490547zM-83.74215258751637,71.83589106490547L-81.84536398380882,70.19806712800772L-83.76329576468726,71.7388732565729zM-83.76329576468726,71.7388732565729L-81.93214122627694,70.00640995836808L-83.8062297285317,71.54178353468052z" style="fill:rgb(217,127,217)"/><path d="M-76.48366742271617,71.3213680826636L-58.69032180242104,72.40677759905785L-76.58893249934317,71.08789396038215zM-76.58893249934317,71.08789396038215L-58.69032180242104,72.40677759905785L-76.71938062203556,70.79854568102326zM-76.71938062203556,70.79854568102326L-58.69032180242104,72.40677759905785L-76.86340549252324,70.47909568332331z" style="fill:rgb(49,63,205)"/><path d="M-89.5145167398172,71.11528358368612L-101.85983206215073,83.16820450021368L-87.3006656014332,71.28069393773109z" style="fill:rgb(82,237,172)"/><path d="M-86.61094748129575,74.43676926210401L-100.9321392525815,88.72299627714564L-86.51230902381283,74.8881170955504z" style="fill:rgb(217,127,217)"/><path d="M-76.86340549252324,70.47909568332331L-58.69032180242104,72.40677759905785L-77.00869751447956,70.15682263820929zM-77.00869751447956,70.15682263820929L-58.69032180242104,72.40677759905785L-77.14285650786822,69.85923252755171zM-77.14285650786822,69.85923252755171L-58.69032180242104,72.40677759905785L-77.25396960565581,69.61277003046277zM-77.25396960565581,69.61277003046277L-58.69032180242104,72.40677759905785L-77.33132511670387,69.44120016845592zM-77.33132511670387,69.44120016845592L-58.69032180242104,72.40677759905785L-77.36633426055474,69.36354213874368z" style="fill:rgb(49,63,205)"/><path d="M-86.72873262103386,73.89776941075505L-101.64091659313812,88.5332027301279L-86.61094748129575,74.43676926210401z" style="fill:rgb(217,127,217)"/><path d="M-78.3862142513622,67.10135815617619L-62.12577337895046,68.23444931163115L-76.93885306975814,65.9155805328372z" style="fill:rgb(82,237,172)"/><path d="M-86.85497943172082,73.32012193956987L-102.25703168403436,88.06540398085016L-86.72873262103386,73.89776941075505z" style="fill:rgb(217,127,217)"/><path d="M-78.3862142513622,67.10135815617619L-77.36633426055474,69.36354213874368L-58.69032180242104,72.40677759905785z" style="fill:rgb(49,63,205)"/><path d="M-87.3006656014332,71.28069393773109L-101.85983206215073,83.16820450021368L-87.25774705539119,71.47707497017133zM-86.97883630979591,72.75335724034547L-102.7197925470187,87.36514199010874L-86.85497943172082,73.32012193956987zM-87.25774705539119,71.47707497017133L-102.43094657263559,83.80552466678971L-87.23662474501845,71.57374363561685zM-87.08988650954421,72.24516846305146L-102.98347457085131,86.5010522473457L-86.97883630979591,72.75335724034547zM-87.23662474501845,71.57374363561685L-102.83153731243631,84.6291066431495L-87.17856468374414,71.83937958855822zM-87.17856468374414,71.83937958855822L-103.02199313806496,85.55808548248149L-87.08988650954421,72.24516846305146z" style="fill:rgb(217,127,217)"/><path d="M-87.3006656014332,71.28069393773109L-101.85983206215073,83.16820450021368L-86.03631872476349,71.37516063520117z" style="fill:rgb(82,237,172)"/><path d="M-68.9963779194839,90.2463647708169L-62.232995804263496,75.3782222893038L-69.54899869752548,90.31172538227003z" style="fill:rgb(49,63,205)"/><path d="M-97.44588573698886,89.05191380803342L-79.42316491430603,92.93208885645855L-79.13993374887443,92.95945175159218z" style="fill:rgb(107,3,147)"/><path d="M-68.6071971894056,89.94347518799268L-62.232995804263496,75.3782222893038L-68.9963779194839,90.2463647708169zM-75.860842040419,83.41485783206365L-62.232995804263496,75.3782222893038L-80.01753624891113,74.23481002472086z" style="fill:rgb(49,63,205)"/><path d="M-83.01743738700496,75.16222779244403L-97.44588573698886,89.05191380803342L-79.13993374887443,92.95945175159218z" style="fill:rgb(217,127,217)"/><path d="M-78.3862142513622,67.10135815617619L-80.47560510623445,68.81311564034854L-65.67940566953095,71.19236491005768z" style="fill:rgb(82,237,172)"/><path d="M-80.01753624891113,74.23481002472086L-62.232995804263496,75.3782222893038L-80.12346798458857,74.00087295062255z" style="fill:rgb(49,63,205)"/><path d="M-89.5145167398172,71.11528358368612L-105.31981155477816,82.86190224502045L-101.85983206215073,83.16820450021368z" style="fill:rgb(82,237,172)"/><path d="M-80.12346798458857,74.00087295062255L-62.232995804263496,75.3782222893038L-80.25474234174155,73.7109507117857zM-80.25474234174155,73.7109507117857L-62.232995804263496,75.3782222893038L-80.3996697303005,73.39086616823526zM-80.3996697303005,73.39086616823526L-62.232995804263496,75.3782222893038L-80.54589205991904,73.06795398159139zM-80.54589205991904,73.06795398159139L-62.232995804263496,75.3782222893038L-80.68090111372291,72.76977283899174zM-80.68090111372291,72.76977283899174L-62.232995804263496,75.3782222893038L-80.79272747532933,72.52282071367051zM-80.79272747532933,72.52282071367051L-62.232995804263496,75.3782222893038L-80.87056407351164,72.3509098916954zM-80.87056407351164,72.3509098916954L-62.232995804263496,75.3782222893038L-80.90579509728913,72.27309750696512z" style="fill:rgb(49,63,205)"/><path d="M-86.03631872476349,71.37516063520117L-98.37417776317109,83.47677967381699L-83.8062297285317,71.54178353468052zM-81.93214122627694,70.00640995836808L-65.67940566953095,71.19236491005768L-80.47560510623445,68.81311564034854z" style="fill:rgb(82,237,172)"/><path d="M-83.11612941645096,74.70925116446539L-97.44588573698886,89.05191380803342L-83.01743738700496,75.16222779244403z" style="fill:rgb(217,127,217)"/><path d="M-81.93214122627694,70.00640995836808L-80.90579509728913,72.27309750696512L-62.232995804263496,75.3782222893038z" style="fill:rgb(49,63,205)"/><path d="M-83.23398935098851,74.16830726237373L-98.15512105669221,88.8616210647733L-83.11612941645096,74.70925116446539zM-83.36029597816865,73.5885745432109L-98.7716369036866,88.39226374457407L-83.23398935098851,74.16830726237373zM-83.8062297285317,71.54178353468052L-98.37417776317109,83.47677967381699L-83.76329576468726,71.7388732565729zM-83.48422132531607,73.01976405603877L-99.23469023981676,87.68953361313976L-83.36029597816865,73.5885745432109zM-86.61094748129575,74.43676926210401L-101.64091659313812,88.5332027301279L-100.9321392525815,88.72299627714564zM-83.76329576468726,71.7388732565729L-98.94565609427474,84.116621125405L-83.74215258751637,71.83589106490547zM-83.59534287677904,72.50974117229815L-99.49854620465884,86.82231053228571L-83.48422132531607,73.01976405603877zM-83.74215258751637,71.83589106490547L-99.34650828838791,84.94337002171814L-83.68407019969588,72.10248698849055zM-83.68407019969588,72.10248698849055L-99.53709936297781,85.87585239677333L-83.59534287677904,72.50974117229815zM-86.72873262103386,73.89776941075505L-102.25703168403436,88.06540398085016L-101.64091659313812,88.5332027301279zM-87.25774705539119,71.47707497017133L-101.85983206215073,83.16820450021368L-102.43094657263559,83.80552466678971zM-86.85497943172082,73.32012193956987L-102.7197925470187,87.36514199010874L-102.25703168403436,88.06540398085016zM-87.23662474501845,71.57374363561685L-102.43094657263559,83.80552466678971L-102.83153731243631,84.6291066431495z" style="fill:rgb(217,127,217)"/><path d="M-97.44588573698886,89.05191380803342L-100.9321392525815,88.72299627714564L-79.42316491430603,92.93208885645855z" style="fill:rgb(107,3,147)"/><path d="M-86.97883630979591,72.75335724034547L-102.98347457085131,86.5010522473457L-102.7197925470187,87.36514199010874zM-87.17856468374414,71.83937958855822L-102.83153731243631,84.6291066431495L-103.02199313806496,85.55808548248149zM-87.08988650954421,72.24516846305146L-103.02199313806496,85.55808548248149L-102.98347457085131,86.5010522473457z" style="fill:rgb(217,127,217)"/><path d="M-101.64091659313812,88.5332027301279L-105.1010512418937,88.2072037986436L-104.39274435784935,88.39650033032768z" style="fill:rgb(104,4,150)"/><path d="M-78.3862142513622,67.10135815617619L-58.69032180242104,72.40677759905785L-62.12577337895046,68.23444931163115z" style="fill:rgb(49,63,205)"/><path d="M-86.03631872476349,71.37516063520117L-101.85983206215073,83.16820450021368L-98.37417776317109,83.47677967381699z" style="fill:rgb(82,237,172)"/><path d="M-105.71675475354385,87.74095343134078L-105.1010512418937,88.2072037986436L-101.64091659313812,88.5332027301279z" style="fill:rgb(78,20,176)"/><path d="M-102.43094657263559,83.80552466678971L-105.31981155477816,82.86190224502045L-105.89055208506129,83.49672084403696z" style="fill:rgb(70,226,184)"/><path d="M-102.43094657263559,83.80552466678971L-105.89055208506129,83.49672084403696L-106.29086425399198,84.31715929659855z" style="fill:rgb(51,196,203)"/><path d="M-105.71675475354385,87.74095343134078L-102.7197925470187,87.36514199010874L-106.17919473347574,87.04314080868423z" style="fill:rgb(57,47,197)"/><path d="M-101.64091659313812,88.5332027301279L-104.39274435784935,88.39650033032768L-100.9321392525815,88.72299627714564z" style="fill:rgb(104,4,150)"/><path d="M-78.3862142513622,67.10135815617619L-65.67940566953095,71.19236491005768L-62.12577337895046,68.23444931163115z" style="fill:rgb(82,237,172)"/><path d="M-106.44270827878599,86.18216262568271L-106.17919473347574,87.04314080868423L-102.7197925470187,87.36514199010874z" style="fill:rgb(43,81,211)"/><path d="M-103.02199313806496,85.55808548248149L-106.29086425399198,84.31715929659855L-106.48120179421106,85.24266232138221z" style="fill:rgb(40,160,214)"/><path d="M-106.44270827878599,86.18216262568271L-103.02199313806496,85.55808548248149L-106.48120179421106,85.24266232138221z" style="fill:rgb(37,120,217)"/><path d="M-83.11612941645096,74.70925116446539L-98.15512105669221,88.8616210647733L-97.44588573698886,89.05191380803342z" style="fill:rgb(217,127,217)"/><path d="M-102.43094657263559,83.80552466678971L-101.85983206215073,83.16820450021368L-105.31981155477816,82.86190224502045z" style="fill:rgb(70,226,184)"/><path d="M-105.71675475354385,87.74095343134078L-101.64091659313812,88.5332027301279L-102.25703168403436,88.06540398085016z" style="fill:rgb(78,20,176)"/><path d="M-62.428173887539,75.90909968483821L-62.232995804263496,75.3782222893038L-68.6071971894056,89.94347518799268z" style="fill:rgb(49,63,205)"/><path d="M-105.71675475354385,87.74095343134078L-102.25703168403436,88.06540398085016L-102.7197925470187,87.36514199010874z" style="fill:rgb(57,47,197)"/><path d="M-83.23398935098851,74.16830726237373L-98.7716369036866,88.39226374457407L-98.15512105669221,88.8616210647733z" style="fill:rgb(217,127,217)"/><path d="M-102.43094657263559,83.80552466678971L-106.29086425399198,84.31715929659855L-102.83153731243631,84.6291066431495z" style="fill:rgb(51,196,203)"/><path d="M-83.76329576468726,71.7388732565729L-98.37417776317109,83.47677967381699L-98.94565609427474,84.116621125405zM-83.36029597816865,73.5885745432109L-99.23469023981676,87.68953361313976L-98.7716369036866,88.39226374457407z" style="fill:rgb(217,127,217)"/><path d="M-103.02199313806496,85.55808548248149L-102.83153731243631,84.6291066431495L-106.29086425399198,84.31715929659855z" style="fill:rgb(40,160,214)"/><path d="M-106.44270827878599,86.18216262568271L-102.7197925470187,87.36514199010874L-102.98347457085131,86.5010522473457z" style="fill:rgb(43,81,211)"/><path d="M-106.44270827878599,86.18216262568271L-102.98347457085131,86.5010522473457L-103.02199313806496,85.55808548248149z" style="fill:rgb(37,120,217)"/><path d="M-83.74215258751637,71.83589106490547L-98.94565609427474,84.116621125405L-99.34650828838791,84.94337002171814zM-83.48422132531607,73.01976405603877L-99.49854620465884,86.82231053228571L-99.23469023981676,87.68953361313976zM-83.68407019969588,72.10248698849055L-99.34650828838791,84.94337002171814L-99.53709936297781,85.87585239677333zM-83.59534287677904,72.50974117229815L-99.53709936297781,85.87585239677333L-99.49854620465884,86.82231053228571z" style="fill:rgb(217,127,217)"/><path d="M-81.93214122627694,70.00640995836808L-62.232995804263496,75.3782222893038L-65.67940566953095,71.19236491005768z" style="fill:rgb(49,63,205)"/><path d="M-58.69032180242104,72.40677759905785L-55.36904912790632,69.98586472044872L-55.170311411225605,69.45434992215547z" style="fill:rgb(223,49,159)"/><path d="M-57.915866005209644,65.4618298904852L-58.594884451534746,65.29546476277274L-62.12577337895046,68.23444931163115z" style="fill:rgb(97,236,186)"/><path d="M-98.15512105669221,88.8616210647733L-101.64091659313812,88.5332027301279L-100.9321392525815,88.72299627714564z" style="fill:rgb(104,4,150)"/><path d="M-58.69032180242104,72.40677759905785L-55.170311411225605,69.45434992215547L-55.19652460522646,68.76425454509098z" style="fill:rgb(228,77,187)"/><path d="M-102.25703168403436,88.06540398085016L-101.64091659313812,88.5332027301279L-98.15512105669221,88.8616210647733z" style="fill:rgb(78,20,176)"/><path d="M-58.69032180242104,72.40677759905785L-58.88728852654545,72.93798121204001L-55.36904912790632,69.98586472044872z" style="fill:rgb(223,49,159)"/><path d="M-57.915866005209644,65.4618298904852L-60.72211219804819,68.8057906959408L-57.19214710551076,65.86200254261165z" style="fill:rgb(128,225,208)"/><path d="M-58.96989046374598,70.93383005924136L-55.19652460522646,68.76425454509098L-55.44548208845363,67.98317885271702z" style="fill:rgb(223,110,209)"/><path d="M-98.94565609427474,84.116621125405L-101.85983206215073,83.16820450021368L-102.43094657263559,83.80552466678971z" style="fill:rgb(70,226,184)"/><path d="M-60.72211219804819,68.8057906959408L-56.49493479820699,66.45686599416372L-57.19214710551076,65.86200254261165z" style="fill:rgb(159,205,223)"/><path d="M-58.96989046374598,70.93383005924136L-55.44548208845363,67.98317885271702L-55.89294177731162,67.18793451488126z" style="fill:rgb(209,144,223)"/><path d="M-98.94565609427474,84.116621125405L-102.43094657263559,83.80552466678971L-102.83153731243631,84.6291066431495z" style="fill:rgb(51,196,203)"/><path d="M-102.25703168403436,88.06540398085016L-99.23469023981676,87.68953361313976L-102.7197925470187,87.36514199010874z" style="fill:rgb(57,47,197)"/><path d="M-59.41955084926706,70.13667193917364L-55.89294177731162,67.18793451488126L-56.49493479820699,66.45686599416372z" style="fill:rgb(187,177,228)"/><path d="M-98.15512105669221,88.8616210647733L-100.9321392525815,88.72299627714564L-97.44588573698886,89.05191380803342z" style="fill:rgb(104,4,150)"/><path d="M-102.98347457085131,86.5010522473457L-102.7197925470187,87.36514199010874L-99.23469023981676,87.68953361313976z" style="fill:rgb(43,81,211)"/><path d="M-57.915866005209644,65.4618298904852L-62.12577337895046,68.23444931163115L-61.44664464032745,68.40307255090504z" style="fill:rgb(97,236,186)"/><path d="M-58.69032180242104,72.40677759905785L-55.19652460522646,68.76425454509098L-58.71865577891369,71.71617764886379z" style="fill:rgb(228,77,187)"/><path d="M-99.53709936297781,85.87585239677333L-102.83153731243631,84.6291066431495L-103.02199313806496,85.55808548248149z" style="fill:rgb(40,160,214)"/><path d="M-102.98347457085131,86.5010522473457L-99.53709936297781,85.87585239677333L-103.02199313806496,85.55808548248149z" style="fill:rgb(37,120,217)"/><path d="M-57.915866005209644,65.4618298904852L-61.44664464032745,68.40307255090504L-60.72211219804819,68.8057906959408z" style="fill:rgb(128,225,208)"/><path d="M-58.96989046374598,70.93383005924136L-58.71865577891369,71.71617764886379L-55.19652460522646,68.76425454509098z" style="fill:rgb(223,110,209)"/><path d="M-98.94565609427474,84.116621125405L-98.37417776317109,83.47677967381699L-101.85983206215073,83.16820450021368z" style="fill:rgb(70,226,184)"/><path d="M-102.25703168403436,88.06540398085016L-98.15512105669221,88.8616210647733L-98.7716369036866,88.39226374457407z" style="fill:rgb(78,20,176)"/><path d="M-60.72211219804819,68.8057906959408L-60.02345945043309,69.40323753605085L-56.49493479820699,66.45686599416372z" style="fill:rgb(159,205,223)"/><path d="M-58.96989046374598,70.93383005924136L-55.89294177731162,67.18793451488126L-59.41955084926706,70.13667193917364z" style="fill:rgb(209,144,223)"/><path d="M-59.41955084926706,70.13667193917364L-56.49493479820699,66.45686599416372L-60.02345945043309,69.40323753605085z" style="fill:rgb(187,177,228)"/><path d="M-102.25703168403436,88.06540398085016L-98.7716369036866,88.39226374457407L-99.23469023981676,87.68953361313976z" style="fill:rgb(57,47,197)"/><path d="M-58.69032180242104,72.40677759905785L-61.44664464032745,68.40307255090504L-62.12577337895046,68.23444931163115z" style="fill:rgb(49,63,205)"/><path d="M-98.94565609427474,84.116621125405L-102.83153731243631,84.6291066431495L-99.34650828838791,84.94337002171814z" style="fill:rgb(51,196,203)"/><path d="M-58.69032180242104,72.40677759905785L-60.72211219804819,68.8057906959408L-61.44664464032745,68.40307255090504zM-58.69032180242104,72.40677759905785L-58.71865577891369,71.71617764886379L-58.96989046374598,70.93383005924136z" style="fill:rgb(49,63,205)"/><path d="M-99.53709936297781,85.87585239677333L-99.34650828838791,84.94337002171814L-102.83153731243631,84.6291066431495z" style="fill:rgb(40,160,214)"/><path d="M-102.98347457085131,86.5010522473457L-99.23469023981676,87.68953361313976L-99.49854620465884,86.82231053228571z" style="fill:rgb(43,81,211)"/><path d="M-102.98347457085131,86.5010522473457L-99.49854620465884,86.82231053228571L-99.53709936297781,85.87585239677333z" style="fill:rgb(37,120,217)"/><path d="M-58.69032180242104,72.40677759905785L-60.02345945043309,69.40323753605085L-60.72211219804819,68.8057906959408zM-58.69032180242104,72.40677759905785L-58.96989046374598,70.93383005924136L-59.41955084926706,70.13667193917364zM-58.69032180242104,72.40677759905785L-59.41955084926706,70.13667193917364L-60.02345945043309,69.40323753605085z" style="fill:rgb(49,63,205)"/><path d="M-62.232995804263496,75.3782222893038L-58.88728852654545,72.93798121204001L-58.69032180242104,72.40677759905785z" style="fill:rgb(223,49,159)"/><path d="M-61.44664464032745,68.40307255090504L-62.12577337895046,68.23444931163115L-65.67940566953095,71.19236491005768z" style="fill:rgb(97,236,186)"/><path d="M-62.232995804263496,75.3782222893038L-58.69032180242104,72.40677759905785L-58.71865577891369,71.71617764886379z" style="fill:rgb(228,77,187)"/><path d="M-62.232995804263496,75.3782222893038L-62.428173887539,75.90909968483821L-58.88728852654545,72.93798121204001z" style="fill:rgb(223,49,159)"/><path d="M-61.44664464032745,68.40307255090504L-64.27483674277518,71.76855892526942L-60.72211219804819,68.8057906959408z" style="fill:rgb(128,225,208)"/><path d="M-62.51702282652399,73.90350589456911L-58.71865577891369,71.71617764886379L-58.96989046374598,70.93383005924136z" style="fill:rgb(223,110,209)"/><path d="M-64.27483674277518,71.76855892526942L-60.02345945043309,69.40323753605085L-60.72211219804819,68.8057906959408z" style="fill:rgb(159,205,223)"/><path d="M-62.51702282652399,73.90350589456911L-58.96989046374598,70.93383005924136L-59.41955084926706,70.13667193917364z" style="fill:rgb(209,144,223)"/><path d="M-62.96890771129409,73.10442580456426L-59.41955084926706,70.13667193917364L-60.02345945043309,69.40323753605085z" style="fill:rgb(187,177,228)"/><path d="M-61.44664464032745,68.40307255090504L-65.67940566953095,71.19236491005768L-65.0001781967841,71.36327073142199z" style="fill:rgb(97,236,186)"/><path d="M-62.232995804263496,75.3782222893038L-58.71865577891369,71.71617764886379L-62.26348670656527,74.68712557734439z" style="fill:rgb(228,77,187)"/><path d="M-61.44664464032745,68.40307255090504L-65.0001781967841,71.36327073142199L-64.27483674277518,71.76855892526942z" style="fill:rgb(128,225,208)"/><path d="M-62.51702282652399,73.90350589456911L-62.26348670656527,74.68712557734439L-58.71865577891369,71.71617764886379z" style="fill:rgb(223,110,209)"/><path d="M-64.27483674277518,71.76855892526942L-63.57474820195197,72.36860951105113L-60.02345945043309,69.40323753605085z" style="fill:rgb(159,205,223)"/><path d="M-62.51702282652399,73.90350589456911L-59.41955084926706,70.13667193917364L-62.96890771129409,73.10442580456426z" style="fill:rgb(209,144,223)"/><path d="M-62.96890771129409,73.10442580456426L-60.02345945043309,69.40323753605085L-63.57474820195197,72.36860951105113z" style="fill:rgb(187,177,228)"/><path d="M-62.232995804263496,75.3782222893038L-65.0001781967841,71.36327073142199L-65.67940566953095,71.19236491005768zM-62.232995804263496,75.3782222893038L-64.27483674277518,71.76855892526942L-65.0001781967841,71.36327073142199zM-62.232995804263496,75.3782222893038L-62.26348670656527,74.68712557734439L-62.51702282652399,73.90350589456911zM-62.232995804263496,75.3782222893038L-63.57474820195197,72.36860951105113L-64.27483674277518,71.76855892526942zM-62.232995804263496,75.3782222893038L-62.51702282652399,73.90350589456911L-62.96890771129409,73.10442580456426zM-62.232995804263496,75.3782222893038L-62.96890771129409,73.10442580456426L-63.57474820195197,72.36860951105113z" style="fill:rgb(49,63,205)"/></svg>