<svg viewBox="-250 -250 500 500" width="500" height="500" xmlns="http://www.w3.org/2000/svg"><path d="M-164.17286718849476,63.56084550175157L-175.24347712416096,16.571170907639562L-169.37252562274713,41.68777758415932z" style="fill:rgb(5,98,148)"/><path d="M-62.717156489132854,164.57069483229526L-104.9003463654396,141.36821309536708L-84.52763962474782,153.0956576300306z" style="fill:rgb(67,17,151)"/><path d="M-164.17286718849476,63.56084550175157L-151.8677100432133,86.52507353209302L-140.08145854229235,106.58741491972778z" style="fill:rgb(18,66,150)"/><path d="M-104.9003463654396,141.36821309536708L-140.08145854229235,106.58741491972778L-122.6126650992091,124.91810030299686z" style="fill:rgb(39,38,152)"/><path d="M155.6352295272691,78.8470833473781L148.82027877765557,93.79252713916262L159.36537970731942,71.47399701488499z" style="fill:rgb(241,74,149)"/><path d="M1.034088956838693,-174.1508227822036L22.657933501488095,-174.41588981424002L2.1839405784581247,-175.1083404400077z" style="fill:rgb(129,252,151)"/><path d="M-165.5379408678936,-54.47912824250314L-167.5726109956395,-50.12051636136756L-173.4378946592294,-29.905655705806286z" style="fill:rgb(7,164,150)"/><path d="M6.712233332028472,175.9953552819189L-36.552619145031535,171.3559201682259L-19.225314718757176,174.62617021511468z" style="fill:rgb(117,3,155)"/><path d="M167.56547465988078,53.59986695156213L173.15892056380707,28.76330162768916L175.42815457839598,5.939990034158835z" style="fill:rgb(249,106,156)"/><path d="M155.6352295272691,78.8470833473781L159.36537970731942,71.47399701488499L167.56547465988078,53.59986695156213z" style="fill:rgb(241,74,149)"/><path d="M-165.5379408678936,-54.47912824250314L-160.55076282512326,-71.70834674459448L-167.5726109956395,-50.12051636136756z" style="fill:rgb(7,164,150)"/><path d="M151.01077217818076,-89.64554829963068L169.9359734430435,-43.630840877610574L162.6438337255389,-66.09941241075113z" style="fill:rgb(241,175,157)"/><path d="M155.6352295272691,78.8470833473781L133.05140767809766,115.27199985275281L148.82027877765557,93.79252713916262z" style="fill:rgb(229,58,159)"/><path d="M-68.64355861826407,-161.9066155458657L-86.0083894170887,-153.37937214814215L-83.28230387306388,-152.00541678335279z" style="fill:rgb(72,238,157)"/><path d="M1.034088956838693,-174.1508227822036L2.1839405784581247,-175.1083404400077L-15.294945267900959,-174.71280675023803z" style="fill:rgb(129,252,151)"/><path d="M97.67096675702786,-143.13057636873896L103.89935977531675,-141.0725539692084L82.65856555770816,-155.09356064937325zM97.67096675702786,-143.13057636873896L120.726088417125,-127.73036208156441L103.89935977531675,-141.0725539692084z" style="fill:rgb(200,228,153)"/><path d="M-86.0083894170887,-153.37937214814215L-102.26860221238358,-143.12212467774083L-94.84748298140875,-144.70576234893417z" style="fill:rgb(62,232,157)"/><path d="M-164.17286718849476,63.56084550175157L-170.37747907743935,37.020837279036826L-175.24347712416096,16.571170907639562z" style="fill:rgb(5,98,148)"/><path d="M57.09254896313152,-163.43594548885835L82.65856555770816,-155.09356064937325L63.92408041713685,-163.39732220365437z" style="fill:rgb(171,243,155)"/><path d="M132.7143281693404,-110.55928622698691L138.11606971779955,-107.98846804133458L120.726088417125,-127.73036208156441z" style="fill:rgb(224,205,155)"/><path d="M-68.64355861826407,-161.9066155458657L-58.16863979296249,-162.7143066901156L-50.703497203399756,-168.44337550681783z" style="fill:rgb(83,243,158)"/><path d="M132.7143281693404,-110.55928622698691L151.01077217818076,-89.64554829963068L138.11606971779955,-107.98846804133458z" style="fill:rgb(224,205,155)"/><path d="M-116.92485891099851,-131.4412531476223L-94.84748298140875,-144.70576234893417L-102.26860221238358,-143.12212467774083z" style="fill:rgb(53,225,159)"/><path d="M57.09254896313152,-163.43594548885835L63.92408041713685,-163.39732220365437L41.19855311457477,-170.5301604942103z" style="fill:rgb(171,243,155)"/><path d="M-146.62714508683126,-91.46119386756541L-151.55827592111805,-89.01758142748047L-160.55076282512326,-71.70834674459448z" style="fill:rgb(20,190,157)"/><path d="M-62.717156489132854,164.57069483229526L-81.5722089145075,153.6187429492403L-104.9003463654396,141.36821309536708z" style="fill:rgb(67,17,151)"/><path d="M-164.17286718849476,63.56084550175157L-140.08145854229235,106.58741491972778L-152.66243877291902,83.10049959572223z" style="fill:rgb(18,66,151)"/><path d="M1.034088956838693,-174.1508227822036L41.19855311457477,-170.5301604942103L22.657933501488095,-174.41588981424002z" style="fill:rgb(142,249,160)"/><path d="M-58.16863979296249,-162.7143066901156L-32.73336559242453,-172.76956626395804L-50.703497203399756,-168.44337550681783z" style="fill:rgb(94,246,161)"/><path d="M-104.9003463654396,141.36821309536708L-122.01124083258493,123.31811802662942L-140.08145854229235,106.58741491972778z" style="fill:rgb(39,38,152)"/><path d="M170.62232923075086,-18.269926009406948L175.42815457839598,5.939990034158835L174.66512689884652,-18.905871984224003zM170.62232923075086,-18.269926009406948L174.66512689884652,-18.905871984224003L169.9359734430435,-43.630840877610574z" style="fill:rgb(250,140,158)"/><path d="M-146.62714508683126,-91.46119386756541L-139.52764603243398,-105.20674863928865L-151.55827592111805,-89.01758142748047z" style="fill:rgb(20,190,157)"/><path d="M-174.30155791656983,-10.326658236921471L-175.24347712416096,16.571170907639562L-170.37747907743935,37.020837279036826z" style="fill:rgb(5,118,164)"/><path d="M-165.5379408678936,-54.47912824250314L-173.4378946592294,-29.905655705806286L-174.30155791656983,-10.326658236921471z" style="fill:rgb(7,150,164)"/><path d="M-129.4925325469604,-118.6751555774053L-105.23280027085016,-136.4110077839641L-116.92485891099851,-131.4412531476223z" style="fill:rgb(45,217,163)"/><path d="M6.712233332028472,175.9953552819189L-7.083234208307407,172.87762289879365L-36.552619145031535,171.3559201682259z" style="fill:rgb(117,3,155)"/><path d="M6.712233332028472,175.9953552819189L34.22734942862931,172.49996233099196L24.335159339522583,168.83831863630996z" style="fill:rgb(137,5,164)"/><path d="M167.56547465988078,53.59986695156213L175.42815457839598,5.939990034158835L169.37869687711068,32.54988886554475z" style="fill:rgb(249,106,156)"/><path d="M-68.64355861826407,-161.9066155458657L-83.28230387306388,-152.00541678335279L-70.92091567912456,-158.0748269219552z" style="fill:rgb(72,238,157)"/><path d="M-86.0083894170887,-153.37937214814215L-94.84748298140875,-144.70576234893417L-83.28230387306388,-152.00541678335279z" style="fill:rgb(62,232,157)"/><path d="M-68.64355861826407,-161.9066155458657L-70.92091567912456,-158.0748269219552L-58.16863979296249,-162.7143066901156z" style="fill:rgb(83,243,158)"/><path d="M-32.73336559242453,-172.76956626395804L-33.163380957791524,-167.09790895656374L-15.294945267900959,-174.71280675023803z" style="fill:rgb(105,247,165)"/><path d="M151.01077217818076,-89.64554829963068L158.03416712988474,-67.70612982647683L169.9359734430435,-43.630840877610574z" style="fill:rgb(241,175,157)"/><path d="M114.29446277560768,125.60418829055986L112.66173155492689,134.82344551747926L133.05140767809766,115.27199985275281z" style="fill:rgb(215,43,166)"/><path d="M-152.66243877291902,83.10049959572223L-140.08145854229235,106.58741491972778L-122.01124083258493,123.31811802662942z" style="fill:rgb(31,55,168)"/><path d="M-165.5379408678936,-54.47912824250314L-146.62714508683126,-91.46119386756541L-160.55076282512326,-71.70834674459448z" style="fill:rgb(17,178,167)"/><path d="M155.6352295272691,78.8470833473781L137.6476887355001,103.27567309423357L133.05140767809766,115.27199985275281z" style="fill:rgb(229,58,159)"/><path d="M155.6352295272691,78.8470833473781L167.56547465988078,53.59986695156213L169.37869687711068,32.54988886554475z" style="fill:rgb(241,88,169)"/><path d="M-62.717156489132854,164.57069483229526L-36.552619145031535,171.3559201682259L-53.37095081017542,160.8179369786483z" style="fill:rgb(86,12,165)"/><path d="M61.98320270885911,164.19265520183427L24.335159339522583,168.83831863630996L34.22734942862931,172.49996233099196z" style="fill:rgb(158,11,169)"/><path d="M57.09254896313152,-163.43594548885835L97.67096675702786,-143.13057636873896L82.65856555770816,-155.09356064937325z" style="fill:rgb(181,235,169)"/><path d="M-116.92485891099851,-131.4412531476223L-105.23280027085016,-136.4110077839641L-94.84748298140875,-144.70576234893417z" style="fill:rgb(53,225,159)"/><path d="M132.7143281693404,-110.55928622698691L120.726088417125,-127.73036208156441L97.67096675702786,-143.13057636873896z" style="fill:rgb(208,216,170)"/><path d="M88.57789924087207,151.42123737975066L112.66173155492689,134.82344551747926L114.29446277560768,125.60418829055986z" style="fill:rgb(197,30,170)"/><path d="M-58.16863979296249,-162.7143066901156L-45.44007314771467,-165.76331866817196L-32.73336559242453,-172.76956626395804z" style="fill:rgb(94,246,161)"/><path d="M-62.717156489132854,164.57069483229526L-53.37095081017542,160.8179369786483L-81.5722089145075,153.6187429492403z" style="fill:rgb(86,12,165)"/><path d="M1.034088956838693,-174.1508227822036L15.67981788663832,-171.02190515003957L41.19855311457477,-170.5301604942103z" style="fill:rgb(142,249,160)"/><path d="M-159.46386854767422,55.16492764062561L-170.37747907743935,37.020837279036826L-164.17286718849476,63.56084550175157z" style="fill:rgb(13,85,166)"/><path d="M6.712233332028472,175.9953552819189L24.335159339522583,168.83831863630996L-7.083234208307407,172.87762289879365z" style="fill:rgb(137,5,164)"/><path d="M-129.4925325469604,-118.6751555774053L-139.52764603243398,-105.20674863928865L-121.07254275479082,-117.92581295846605z" style="fill:rgb(39,209,169)"/><path d="M-159.46386854767422,55.16492764062561L-164.17286718849476,63.56084550175157L-152.66243877291902,83.10049959572223z" style="fill:rgb(13,85,166)"/><path d="M61.98320270885911,164.19265520183427L88.57789924087207,151.42123737975066L86.65697254459575,144.6191108749714z" style="fill:rgb(178,19,171)"/><path d="M132.7143281693404,-110.55928622698691L158.03416712988474,-67.70612982647683L151.01077217818076,-89.64554829963068z" style="fill:rgb(229,189,172)"/><path d="M57.09254896313152,-163.43594548885835L41.19855311457477,-170.5301604942103L15.67981788663832,-171.02190515003957z" style="fill:rgb(152,244,171)"/><path d="M1.034088956838693,-174.1508227822036L-15.294945267900959,-174.71280675023803L-33.163380957791524,-167.09790895656374z" style="fill:rgb(115,246,171)"/><path d="M-32.73336559242453,-172.76956626395804L-45.44007314771467,-165.76331866817196L-33.163380957791524,-167.09790895656374z" style="fill:rgb(105,247,165)"/><path d="M-104.9003463654396,141.36821309536708L-81.5722089145075,153.6187429492403L-98.01846683158269,135.71571625518916z" style="fill:rgb(56,30,169)"/><path d="M-129.4925325469604,-118.6751555774053L-114.0835471150245,-127.3876945259317L-105.23280027085016,-136.4110077839641z" style="fill:rgb(45,217,163)"/><path d="M169.37869687711068,32.54988886554475L175.42815457839598,5.939990034158835L170.62232923075086,-18.269926009406948z" style="fill:rgb(245,122,174)"/><path d="M114.29446277560768,125.60418829055986L133.05140767809766,115.27199985275281L137.6476887355001,103.27567309423357z" style="fill:rgb(215,43,166)"/><path d="M-104.9003463654396,141.36821309536708L-98.01846683158269,135.71571625518916L-122.01124083258493,123.31811802662942z" style="fill:rgb(56,30,169)"/><path d="M170.62232923075086,-18.269926009406948L169.9359734430435,-43.630840877610574L158.03416712988474,-67.70612982647683z" style="fill:rgb(241,157,175)"/><path d="M-165.5379408678936,-54.47912824250314L-174.30155791656983,-10.326658236921471L-166.144159612425,-37.93531780291985z" style="fill:rgb(7,150,164)"/><path d="M-174.30155791656983,-10.326658236921471L-170.37747907743935,37.020837279036826L-169.81697424916902,7.854999049296674z" style="fill:rgb(5,118,164)"/><path d="M-7.083234208307407,172.87762289879365L-53.37095081017542,160.8179369786483L-36.552619145031535,171.3559201682259z" style="fill:rgb(106,11,177)"/><path d="M-129.4925325469604,-118.6751555774053L-121.07254275479082,-117.92581295846605L-114.0835471150245,-127.3876945259317z" style="fill:rgb(39,209,169)"/><path d="M-165.5379408678936,-54.47912824250314L-150.44389983189578,-77.89745914183283L-146.62714508683126,-91.46119386756541z" style="fill:rgb(17,178,167)"/><path d="M61.98320270885911,164.19265520183427L56.135594527301954,159.28273147824024L24.335159339522583,168.83831863630996z" style="fill:rgb(158,11,169)"/><path d="M-125.92155879480663,-108.34568960344042L-139.52764603243398,-105.20674863928865L-146.62714508683126,-91.46119386756541z" style="fill:rgb(34,200,175)"/><path d="M-152.66243877291902,83.10049959572223L-122.01124083258493,123.31811802662942L-134.8515289618128,99.30471569810975z" style="fill:rgb(31,55,168)"/><path d="M57.09254896313152,-163.43594548885835L69.6340134546313,-153.2202189266858L97.67096675702786,-143.13057636873896z" style="fill:rgb(181,235,169)"/><path d="M88.57789924087207,151.42123737975066L114.29446277560768,125.60418829055986L86.65697254459575,144.6191108749714z" style="fill:rgb(197,30,170)"/><path d="M155.6352295272691,78.8470833473781L169.37869687711068,32.54988886554475L156.38238708213927,59.74622700941994z" style="fill:rgb(241,88,169)"/><path d="M61.98320270885911,164.19265520183427L86.65697254459575,144.6191108749714L56.135594527301954,159.28273147824024z" style="fill:rgb(178,19,171)"/><path d="M132.7143281693404,-110.55928622698691L97.67096675702786,-143.13057636873896L108.16034895382552,-127.72138525365784z" style="fill:rgb(208,216,170)"/><path d="M-159.46386854767422,55.16492764062561L-169.81697424916902,7.854999049296674L-170.37747907743935,37.020837279036826z" style="fill:rgb(13,105,180)"/><path d="M1.034088956838693,-174.1508227822036L-33.163380957791524,-167.09790895656374L-21.763807221980823,-166.64558466188842z" style="fill:rgb(115,246,171)"/><path d="M57.09254896313152,-163.43594548885835L15.67981788663832,-171.02190515003957L28.06665187490795,-165.34287145554322z" style="fill:rgb(152,244,171)"/><path d="M1.034088956838693,-174.1508227822036L-11.658003351115834,-164.379323381909L15.67981788663832,-171.02190515003957z" style="fill:rgb(125,244,178)"/><path d="M-70.3728635750243,-147.34693086431017L-70.92091567912456,-158.0748269219552L-83.28230387306388,-152.00541678335279z" style="fill:rgb(75,231,180)"/><path d="M-125.92155879480663,-108.34568960344042L-121.07254275479082,-117.92581295846605L-139.52764603243398,-105.20674863928865z" style="fill:rgb(34,200,175)"/><path d="M-82.95627683675325,-140.30880842169472L-83.28230387306388,-152.00541678335279L-94.84748298140875,-144.70576234893417z" style="fill:rgb(69,227,181)"/><path d="M-70.3728635750243,-147.34693086431017L-58.16863979296249,-162.7143066901156L-70.92091567912456,-158.0748269219552z" style="fill:rgb(82,233,181)"/><path d="M-53.37095081017542,160.8179369786483L-98.01846683158269,135.71571625518916L-81.5722089145075,153.6187429492403z" style="fill:rgb(75,25,183)"/><path d="M132.7143281693404,-110.55928622698691L139.02591658390847,-89.97571659308716L158.03416712988474,-67.70612982647683z" style="fill:rgb(229,189,172)"/><path d="M-162.11087179479827,-22.725475954531277L-166.144159612425,-37.93531780291985L-174.30155791656983,-10.326658236921471z" style="fill:rgb(11,137,178)"/><path d="M155.6352295272691,78.8470833473781L136.72914497564406,86.18552188811437L137.6476887355001,103.27567309423357z" style="fill:rgb(228,71,180)"/><path d="M-165.5379408678936,-54.47912824250314L-166.144159612425,-37.93531780291985L-150.711917589735,-65.00547388693923z" style="fill:rgb(17,167,178)"/><path d="M-162.11087179479827,-22.725475954531277L-174.30155791656983,-10.326658236921471L-169.81697424916902,7.854999049296674z" style="fill:rgb(11,137,178)"/><path d="M-159.46386854767422,55.16492764062561L-152.66243877291902,83.10049959572223L-134.8515289618128,99.30471569810975z" style="fill:rgb(26,74,183)"/><path d="M-82.95627683675325,-140.30880842169472L-94.84748298140875,-144.70576234893417L-105.23280027085016,-136.4110077839641z" style="fill:rgb(63,223,182)"/><path d="M-165.5379408678936,-54.47912824250314L-150.711917589735,-65.00547388693923L-150.44389983189578,-77.89745914183283z" style="fill:rgb(17,167,178)"/><path d="M169.37869687711068,32.54988886554475L170.62232923075086,-18.269926009406948L164.1922223554881,9.023346806247499z" style="fill:rgb(245,122,174)"/><path d="M1.034088956838693,-174.1508227822036L-21.763807221980823,-166.64558466188842L-11.658003351115834,-164.379323381909z" style="fill:rgb(125,244,178)"/><path d="M-98.01846683158269,135.71571625518916L-134.8515289618128,99.30471569810975L-122.01124083258493,123.31811802662942z" style="fill:rgb(47,46,185)"/><path d="M-57.00345553823298,-151.34458299711554L-45.44007314771467,-165.76331866817196L-58.16863979296249,-162.7143066901156z" style="fill:rgb(89,235,183)"/><path d="M170.62232923075086,-18.269926009406948L158.03416712988474,-67.70612982647683L158.4379332128747,-42.84935389957427z" style="fill:rgb(241,157,175)"/><path d="M-7.083234208307407,172.87762289879365L-21.42668764646782,162.3201520395899L-53.37095081017542,160.8179369786483z" style="fill:rgb(106,11,177)"/><path d="M155.6352295272691,78.8470833473781L156.38238708213927,59.74622700941994L136.72914497564406,86.18552188811437z" style="fill:rgb(228,71,180)"/><path d="M-92.97556089327504,-131.2199398979279L-105.23280027085016,-136.4110077839641L-114.0835471150245,-127.3876945259317z" style="fill:rgb(58,218,184)"/><path d="M-128.4074428380272,-98.98356046786678L-146.62714508683126,-91.46119386756541L-150.44389983189578,-77.89745914183283z" style="fill:rgb(32,191,183)"/><path d="M57.09254896313152,-163.43594548885835L37.65760114450855,-157.21313482346724L69.6340134546313,-153.2202189266858zM57.09254896313152,-163.43594548885835L28.06665187490795,-165.34287145554322L37.65760114450855,-157.21313482346724z" style="fill:rgb(161,237,183)"/><path d="M114.29446277560768,125.60418829055986L137.6476887355001,103.27567309423357L136.72914497564406,86.18552188811437z" style="fill:rgb(212,55,188)"/><path d="M97.67096675702786,-143.13057636873896L69.6340134546313,-153.2202189266858L78.16550005177247,-140.0959953022948z" style="fill:rgb(188,224,183)"/><path d="M-7.083234208307407,172.87762289879365L24.335159339522583,168.83831863630996L12.780877093388657,157.78666463471598z" style="fill:rgb(128,14,186)"/><path d="M-50.61638626116499,-151.99879544478597L-33.163380957791524,-167.09790895656374L-45.44007314771467,-165.76331866817196z" style="fill:rgb(95,236,185)"/><path d="M97.67096675702786,-143.13057636873896L78.16550005177247,-140.0959953022948L108.16034895382552,-127.72138525365784z" style="fill:rgb(188,224,183)"/><path d="M-128.4074428380272,-98.98356046786678L-125.92155879480663,-108.34568960344042L-146.62714508683126,-91.46119386756541z" style="fill:rgb(32,191,183)"/><path d="M-70.3728635750243,-147.34693086431017L-83.28230387306388,-152.00541678335279L-76.87844312534283,-144.15477145644286z" style="fill:rgb(75,231,180)"/><path d="M-82.95627683675325,-140.30880842169472L-76.87844312534283,-144.15477145644286L-83.28230387306388,-152.00541678335279z" style="fill:rgb(69,227,181)"/><path d="M-92.97556089327504,-131.2199398979279L-114.0835471150245,-127.3876945259317L-121.07254275479082,-117.92581295846605z" style="fill:rgb(54,213,188)"/><path d="M-3.238652801990171,-160.33507001713792L28.06665187490795,-165.34287145554322L15.67981788663832,-171.02190515003957z" style="fill:rgb(132,240,186)"/><path d="M-70.3728635750243,-147.34693086431017L-63.66961411774487,-149.7742799680532L-58.16863979296249,-162.7143066901156z" style="fill:rgb(82,233,181)"/><path d="M-159.46386854767422,55.16492764062561L-159.80569559740246,23.83346829825021L-169.81697424916902,7.854999049296674z" style="fill:rgb(13,105,180)"/><path d="M132.7143281693404,-110.55928622698691L108.16034895382552,-127.72138525365784L113.40085305587321,-109.25593662340579z" style="fill:rgb(212,202,186)"/><path d="M-50.61638626116499,-151.99879544478597L-21.763807221980823,-166.64558466188842L-33.163380957791524,-167.09790895656374z" style="fill:rgb(102,235,189)"/><path d="M-57.00345553823298,-151.34458299711554L-58.16863979296249,-162.7143066901156L-63.66961411774487,-149.7742799680532z" style="fill:rgb(89,235,183)"/><path d="M-82.95627683675325,-140.30880842169472L-105.23280027085016,-136.4110077839641L-88.38738983267896,-135.94722177983346z" style="fill:rgb(63,223,182)"/><path d="M56.135594527301954,159.28273147824024L12.780877093388657,157.78666463471598L24.335159339522583,168.83831863630996z" style="fill:rgb(151,20,191)"/><path d="M132.7143281693404,-110.55928622698691L113.40085305587321,-109.25593662340579L139.02591658390847,-89.97571659308716z" style="fill:rgb(212,202,186)"/><path d="M-3.238652801990171,-160.33507001713792L15.67981788663832,-171.02190515003957L-11.658003351115834,-164.379323381909z" style="fill:rgb(132,240,186)"/><path d="M-162.11087179479827,-22.725475954531277L-150.711917589735,-65.00547388693923L-166.144159612425,-37.93531780291985z" style="fill:rgb(20,157,190)"/><path d="M169.37869687711068,32.54988886554475L150.50143585425116,37.0413503289913L156.38238708213927,59.74622700941994z" style="fill:rgb(236,104,188)"/><path d="M-7.083234208307407,172.87762289879365L12.780877093388657,157.78666463471598L-21.42668764646782,162.3201520395899z" style="fill:rgb(128,14,186)"/><path d="M-92.97556089327504,-131.2199398979279L-88.38738983267896,-135.94722177983346L-105.23280027085016,-136.4110077839641z" style="fill:rgb(58,218,184)"/><path d="M-53.37095081017542,160.8179369786483L-68.84482519855962,142.89204996012046L-98.01846683158269,135.71571625518916z" style="fill:rgb(75,25,183)"/><path d="M-50.61638626116499,-151.99879544478597L-45.44007314771467,-165.76331866817196L-57.00345553823298,-151.34458299711554z" style="fill:rgb(95,236,185)"/><path d="M-128.4074428380272,-98.98356046786678L-150.44389983189578,-77.89745914183283L-150.711917589735,-65.00547388693923z" style="fill:rgb(32,183,191)"/><path d="M-162.11087179479827,-22.725475954531277L-169.81697424916902,7.854999049296674L-159.80569559740246,23.83346829825021z" style="fill:rgb(18,127,192)"/><path d="M-159.46386854767422,55.16492764062561L-134.8515289618128,99.30471569810975L-142.51847838367857,70.07456939683344z" style="fill:rgb(26,74,183)"/><path d="M169.37869687711068,32.54988886554475L164.1922223554881,9.023346806247499L150.50143585425116,37.0413503289913z" style="fill:rgb(236,104,188)"/><path d="M138.98053208550823,-66.62233849458187L158.03416712988474,-67.70612982647683L139.02591658390847,-89.97571659308716z" style="fill:rgb(229,172,189)"/><path d="M-125.92155879480663,-108.34568960344042L-96.54824591496532,-126.29485545341088L-121.07254275479082,-117.92581295846605z" style="fill:rgb(52,207,192)"/><path d="M114.29446277560768,125.60418829055986L80.90913189591369,131.2019238300519L86.65697254459575,144.6191108749714z" style="fill:rgb(194,40,193)"/><path d="M138.98053208550823,-66.62233849458187L158.4379332128747,-42.84935389957427L158.03416712988474,-67.70612982647683z" style="fill:rgb(229,172,189)"/><path d="M56.135594527301954,159.28273147824024L86.65697254459575,144.6191108749714L80.90913189591369,131.2019238300519z" style="fill:rgb(173,28,194)"/><path d="M-98.01846683158269,135.71571625518916L-111.08332421657066,111.19321164481215L-134.8515289618128,99.30471569810975z" style="fill:rgb(47,46,185)"/><path d="M151.72942731544742,-16.01504083823648L164.1922223554881,9.023346806247499L170.62232923075086,-18.269926009406948zM151.72942731544742,-16.01504083823648L170.62232923075086,-18.269926009406948L158.4379332128747,-42.84935389957427z" style="fill:rgb(237,139,191)"/><path d="M-44.74146835581282,-151.70466079062848L-11.658003351115834,-164.379323381909L-21.763807221980823,-166.64558466188842z" style="fill:rgb(107,234,193)"/><path d="M-3.238652801990171,-160.33507001713792L37.65760114450855,-157.21313482346724L28.06665187490795,-165.34287145554322z" style="fill:rgb(139,235,194)"/><path d="M-92.97556089327504,-131.2199398979279L-121.07254275479082,-117.92581295846605L-96.54824591496532,-126.29485545341088z" style="fill:rgb(54,213,188)"/><path d="M114.29446277560768,125.60418829055986L136.72914497564406,86.18552188811437L111.17142547067408,110.45535001894328z" style="fill:rgb(212,55,188)"/><path d="M-50.61638626116499,-151.99879544478597L-44.74146835581282,-151.70466079062848L-21.763807221980823,-166.64558466188842z" style="fill:rgb(102,235,189)"/><path d="M78.16550005177247,-140.0959953022948L113.40085305587321,-109.25593662340579L108.16034895382552,-127.72138525365784z" style="fill:rgb(192,211,198)"/><path d="M43.96097476621883,-146.83154301952555L69.6340134546313,-153.2202189266858L37.65760114450855,-157.21313482346724z" style="fill:rgb(166,228,194)"/><path d="M-53.37095081017542,160.8179369786483L-21.42668764646782,162.3201520395899L-35.657537426450375,144.177546330505z" style="fill:rgb(97,24,196)"/><path d="M136.72914497564406,86.18552188811437L156.38238708213927,59.74622700941994L150.50143585425116,37.0413503289913z" style="fill:rgb(223,86,199)"/><path d="M-162.11087179479827,-22.725475954531277L-147.26667504131194,-53.295643875929116L-150.711917589735,-65.00547388693923z" style="fill:rgb(20,157,190)"/><path d="M43.96097476621883,-146.83154301952555L78.16550005177247,-140.0959953022948L69.6340134546313,-153.2202189266858z" style="fill:rgb(166,228,194)"/><path d="M-68.84482519855962,142.89204996012046L-111.08332421657066,111.19321164481215L-98.01846683158269,135.71571625518916z" style="fill:rgb(67,42,200)"/><path d="M56.135594527301954,159.28273147824024L47.51320794142565,147.26151638933723L12.780877093388657,157.78666463471598z" style="fill:rgb(151,20,191)"/><path d="M-128.4074428380272,-98.98356046786678L-150.711917589735,-65.00547388693923L-128.3728440636855,-90.18765650027215z" style="fill:rgb(32,183,191)"/><path d="M-100.121040030697,-116.56447505047608L-125.92155879480663,-108.34568960344042L-128.4074428380272,-98.98356046786678z" style="fill:rgb(51,202,197)"/><path d="M114.29446277560768,125.60418829055986L111.17142547067408,110.45535001894328L80.90913189591369,131.2019238300519z" style="fill:rgb(194,40,193)"/><path d="M-125.92155879480663,-108.34568960344042L-98.96475847709141,-121.34833287072978L-96.54824591496532,-126.29485545341088z" style="fill:rgb(52,207,192)"/><path d="M-159.46386854767422,55.16492764062561L-144.32391464370258,36.79642163602115L-159.80569559740246,23.83346829825021z" style="fill:rgb(25,95,196)"/><path d="M-53.37095081017542,160.8179369786483L-35.657537426450375,144.177546330505L-68.84482519855962,142.89204996012046z" style="fill:rgb(97,24,196)"/><path d="M56.135594527301954,159.28273147824024L80.90913189591369,131.2019238300519L47.51320794142565,147.26151638933723z" style="fill:rgb(173,28,194)"/><path d="M-159.46386854767422,55.16492764062561L-142.51847838367857,70.07456939683344L-144.32391464370258,36.79642163602115z" style="fill:rgb(25,95,196)"/><path d="M-162.11087179479827,-22.725475954531277L-159.80569559740246,23.83346829825021L-153.3312976652228,-9.522385118593425z" style="fill:rgb(18,127,192)"/><path d="M-44.74146835581282,-151.70466079062848L-39.5977443631036,-150.46041514384277L-11.658003351115834,-164.379323381909z" style="fill:rgb(107,234,193)"/><path d="M-35.38627533265826,-148.3028437747925L-3.238652801990171,-160.33507001713792L-11.658003351115834,-164.379323381909z" style="fill:rgb(112,232,198)"/><path d="M-100.121040030697,-116.56447505047608L-98.96475847709141,-121.34833287072978L-125.92155879480663,-108.34568960344042z" style="fill:rgb(51,202,197)"/><path d="M-3.238652801990171,-160.33507001713792L3.1311579034552577,-154.61168697087106L37.65760114450855,-157.21313482346724z" style="fill:rgb(139,235,194)"/><path d="M-70.3728635750243,-147.34693086431017L-76.87844312534283,-144.15477145644286L-66.75041865363102,-129.57536864282113z" style="fill:rgb(80,219,202)"/><path d="M-82.95627683675325,-140.30880842169472L-66.75041865363102,-129.57536864282113L-76.87844312534283,-144.15477145644286z" style="fill:rgb(78,218,202)"/><path d="M-70.3728635750243,-147.34693086431017L-66.75041865363102,-129.57536864282113L-63.66961411774487,-149.7742799680532z" style="fill:rgb(82,220,202)"/><path d="M-119.87899515708044,80.85105450727309L-142.51847838367857,70.07456939683344L-134.8515289618128,99.30471569810975z" style="fill:rgb(42,66,199)"/><path d="M-35.38627533265826,-148.3028437747925L-11.658003351115834,-164.379323381909L-39.5977443631036,-150.46041514384277z" style="fill:rgb(112,232,198)"/><path d="M-82.95627683675325,-140.30880842169472L-88.38738983267896,-135.94722177983346L-66.75041865363102,-129.57536864282113z" style="fill:rgb(76,216,203)"/><path d="M-100.121040030697,-116.56447505047608L-128.4074428380272,-98.98356046786678L-128.3728440636855,-90.18765650027215z" style="fill:rgb(51,197,202)"/><path d="M-119.87899515708044,80.85105450727309L-134.8515289618128,99.30471569810975L-111.08332421657066,111.19321164481215z" style="fill:rgb(42,66,199)"/><path d="M-57.00345553823298,-151.34458299711554L-63.66961411774487,-149.7742799680532L-66.75041865363102,-129.57536864282113z" style="fill:rgb(85,220,203)"/><path d="M-150.711917589735,-65.00547388693923L-125.74394849484553,-82.30585237038834L-128.3728440636855,-90.18765650027215zM-150.711917589735,-65.00547388693923L-147.26667504131194,-53.295643875929116L-125.74394849484553,-82.30585237038834z" style="fill:rgb(34,175,200)"/><path d="M138.98053208550823,-66.62233849458187L151.72942731544742,-16.01504083823648L158.4379332128747,-42.84935389957427z" style="fill:rgb(224,155,205)"/><path d="M12.780877093388657,157.78666463471598L-35.657537426450375,144.177546330505L-21.42668764646782,162.3201520395899z" style="fill:rgb(120,26,205)"/><path d="M-92.97556089327504,-131.2199398979279L-66.75041865363102,-129.57536864282113L-88.38738983267896,-135.94722177983346z" style="fill:rgb(74,215,203)"/><path d="M112.82562915955097,-88.32390627501992L139.02591658390847,-89.97571659308716L113.40085305587321,-109.25593662340579z" style="fill:rgb(212,186,202)"/><path d="M-50.61638626116499,-151.99879544478597L-57.00345553823298,-151.34458299711554L-66.75041865363102,-129.57536864282113z" style="fill:rgb(87,221,204)"/><path d="M-162.11087179479827,-22.725475954531277L-140.0767706301337,-43.278214035125394L-147.26667504131194,-53.295643875929116z" style="fill:rgb(26,148,202)"/><path d="M-35.38627533265826,-148.3028437747925L3.1311579034552577,-154.61168697087106L-3.238652801990171,-160.33507001713792z" style="fill:rgb(116,228,204)"/><path d="M78.16550005177247,-140.0959953022948L82.11755747161418,-124.41874874806643L113.40085305587321,-109.25593662340579z" style="fill:rgb(192,211,198)"/><path d="M-92.97556089327504,-131.2199398979279L-96.54824591496532,-126.29485545341088L-66.75041865363102,-129.57536864282113z" style="fill:rgb(73,213,204)"/><path d="M112.82562915955097,-88.32390627501992L138.98053208550823,-66.62233849458187L139.02591658390847,-89.97571659308716z" style="fill:rgb(212,186,202)"/><path d="M-162.11087179479827,-22.725475954531277L-153.3312976652228,-9.522385118593425L-140.0767706301337,-43.278214035125394z" style="fill:rgb(26,148,202)"/><path d="M-50.61638626116499,-151.99879544478597L-66.75041865363102,-129.57536864282113L-44.74146835581282,-151.70466079062848z" style="fill:rgb(89,221,205)"/><path d="M7.147624971755662,-147.37525258097256L37.65760114450855,-157.21313482346724L3.1311579034552577,-154.61168697087106zM7.147624971755662,-147.37525258097256L43.96097476621883,-146.83154301952555L37.65760114450855,-157.21313482346724z" style="fill:rgb(143,228,203)"/><path d="M43.96097476621883,-146.83154301952555L82.11755747161418,-124.41874874806643L78.16550005177247,-140.0959953022948z" style="fill:rgb(169,218,206)"/><path d="M136.72914497564406,86.18552188811437L150.50143585425116,37.0413503289913L129.84131180425453,64.39166639848946z" style="fill:rgb(223,86,199)"/><path d="M-96.54824591496532,-126.29485545341088L-98.96475847709141,-121.34833287072978L-66.75041865363102,-129.57536864282113z" style="fill:rgb(72,211,206)"/><path d="M137.76891379833685,11.614577941206466L150.50143585425116,37.0413503289913L164.1922223554881,9.023346806247499z" style="fill:rgb(228,120,205)"/><path d="M-100.121040030697,-116.56447505047608L-128.3728440636855,-90.18765650027215L-99.95713690302311,-112.12526905679815z" style="fill:rgb(51,197,202)"/><path d="M-44.74146835581282,-151.70466079062848L-66.75041865363102,-129.57536864282113L-39.5977443631036,-150.46041514384277z" style="fill:rgb(91,220,206)"/><path d="M-68.84482519855962,142.89204996012046L-82.09093911037463,117.90507985200482L-111.08332421657066,111.19321164481215z" style="fill:rgb(67,42,200)"/><path d="M137.76891379833685,11.614577941206466L164.1922223554881,9.023346806247499L151.72942731544742,-16.01504083823648z" style="fill:rgb(228,120,205)"/><path d="M103.00873055719266,89.59921985717553L111.17142547067408,110.45535001894328L136.72914497564406,86.18552188811437z" style="fill:rgb(207,69,208)"/><path d="M-139.89576789819685,1.014244174669628L-153.3312976652228,-9.522385118593425L-159.80569559740246,23.83346829825021z" style="fill:rgb(28,118,206)"/><path d="M-100.121040030697,-116.56447505047608L-66.75041865363102,-129.57536864282113L-98.96475847709141,-121.34833287072978z" style="fill:rgb(72,209,207)"/><path d="M-35.38627533265826,-148.3028437747925L-32.28007626531665,-145.2961586414218L3.1311579034552577,-154.61168697087106z" style="fill:rgb(116,228,204)"/><path d="M-35.38627533265826,-148.3028437747925L-39.5977443631036,-150.46041514384277L-66.75041865363102,-129.57536864282113z" style="fill:rgb(93,219,208)"/><path d="M-98.45782642955429,-108.20104184782159L-128.3728440636855,-90.18765650027215L-125.74394849484553,-82.30585237038834zM-98.45782642955429,-108.20104184782159L-99.95713690302311,-112.12526905679815L-128.3728440636855,-90.18765650027215z" style="fill:rgb(52,192,207)"/><path d="M-119.87899515708044,80.85105450727309L-144.32391464370258,36.79642163602115L-142.51847838367857,70.07456939683344z" style="fill:rgb(39,88,211)"/><path d="M-139.89576789819685,1.014244174669628L-159.80569559740246,23.83346829825021L-144.32391464370258,36.79642163602115z" style="fill:rgb(28,118,206)"/><path d="M-32.28007626531665,-145.2961586414218L7.147624971755662,-147.37525258097256L3.1311579034552577,-154.61168697087106z" style="fill:rgb(119,224,209)"/><path d="M112.82562915955097,-88.32390627501992L113.40085305587321,-109.25593662340579L82.11755747161418,-124.41874874806643z" style="fill:rgb(192,198,211)"/><path d="M-120.54061914806206,-75.67108730583871L-125.74394849484553,-82.30585237038834L-147.26667504131194,-53.295643875929116z" style="fill:rgb(39,169,209)"/><path d="M-100.121040030697,-116.56447505047608L-99.95713690302311,-112.12526905679815L-66.75041865363102,-129.57536864282113z" style="fill:rgb(72,207,209)"/><path d="M12.780877093388657,157.78666463471598L47.51320794142565,147.26151638933723L36.29723280435295,128.07900662344184z" style="fill:rgb(143,32,211)"/><path d="M103.00873055719266,89.59921985717553L80.90913189591369,131.2019238300519L111.17142547067408,110.45535001894328z" style="fill:rgb(187,54,212)"/><path d="M12.780877093388657,157.78666463471598L4.6363533335597615e-14,139.22304677937598L-35.657537426450375,144.177546330505z" style="fill:rgb(120,26,205)"/><path d="M-35.38627533265826,-148.3028437747925L-66.75041865363102,-129.57536864282113L-32.28007626531665,-145.2961586414218z" style="fill:rgb(94,218,210)"/><path d="M103.00873055719266,89.59921985717553L136.72914497564406,86.18552188811437L129.84131180425453,64.39166639848946z" style="fill:rgb(207,69,208)"/><path d="M-120.54061914806206,-75.67108730583871L-147.26667504131194,-53.295643875929116L-140.0767706301337,-43.278214035125394z" style="fill:rgb(39,169,209)"/><path d="M138.98053208550823,-66.62233849458187L132.13949893103688,-41.379074216529894L151.72942731544742,-16.01504083823648z" style="fill:rgb(224,155,205)"/><path d="M-119.87899515708044,80.85105450727309L-111.08332421657066,111.19321164481215L-82.09093911037463,117.90507985200482z" style="fill:rgb(60,61,214)"/><path d="M43.96097476621883,-146.83154301952555L46.58420392569291,-134.5077335833483L82.11755747161418,-124.41874874806643z" style="fill:rgb(169,218,206)"/><path d="M7.147624971755662,-147.37525258097256L46.58420392569291,-134.5077335833483L43.96097476621883,-146.83154301952555z" style="fill:rgb(145,220,212)"/><path d="M71.269954213393,111.23650011557115L47.51320794142565,147.26151638933723L80.90913189591369,131.2019238300519z" style="fill:rgb(166,42,214)"/><path d="M-98.45782642955429,-108.20104184782159L-66.75041865363102,-129.57536864282113L-99.95713690302311,-112.12526905679815z" style="fill:rgb(72,206,211)"/><path d="M-32.28007626531665,-145.2961586414218L-30.415059863551924,-141.54230134086214L7.147624971755662,-147.37525258097256z" style="fill:rgb(119,224,209)"/><path d="M-49.02572560656483,118.79360566803332L-68.84482519855962,142.89204996012046L-35.657537426450375,144.177546330505z" style="fill:rgb(88,41,212)"/><path d="M-32.28007626531665,-145.2961586414218L-66.75041865363102,-129.57536864282113L-30.415059863551924,-141.54230134086214z" style="fill:rgb(95,217,212)"/><path d="M137.76891379833685,11.614577941206466L129.84131180425453,64.39166639848946L150.50143585425116,37.0413503289913z" style="fill:rgb(215,102,216)"/><path d="M-98.45782642955429,-108.20104184782159L-125.74394849484553,-82.30585237038834L-120.54061914806206,-75.67108730583871z" style="fill:rgb(54,188,212)"/><path d="M112.82562915955097,-88.32390627501992L132.13949893103688,-41.379074216529894L138.98053208550823,-66.62233849458187z" style="fill:rgb(208,170,216)"/><path d="M-129.26473115347534,-35.43704257538468L-140.0767706301337,-43.278214035125394L-153.3312976652228,-9.522385118593425z" style="fill:rgb(34,141,214)"/><path d="M-49.02572560656483,118.79360566803332L-82.09093911037463,117.90507985200482L-68.84482519855962,142.89204996012046z" style="fill:rgb(88,40,212)"/><path d="M-98.45782642955429,-108.20104184782159L-95.65938651458391,-104.95492778463141L-66.75041865363102,-129.57536864282113z" style="fill:rgb(73,204,213)"/><path d="M12.780877093388657,157.78666463471598L36.29723280435295,128.07900662344184L4.6363533335597615e-14,139.22304677937598z" style="fill:rgb(143,32,211)"/><path d="M-29.881281150017607,-137.17848108651896L7.147624971755662,-147.37525258097256L-30.415059863551924,-141.54230134086214z" style="fill:rgb(120,220,214)"/><path d="M-29.881281150017607,-137.17848108651896L-30.415059863551924,-141.54230134086214L-66.75041865363102,-129.57536864282113z" style="fill:rgb(95,215,213)"/><path d="M-98.45782642955429,-108.20104184782159L-120.54061914806206,-75.67108730583871L-95.65938651458391,-104.95492778463141z" style="fill:rgb(54,188,212)"/><path d="M137.76891379833685,11.614577941206466L151.72942731544742,-16.01504083823648L132.13949893103688,-41.379074216529894z" style="fill:rgb(216,137,218)"/><path d="M-129.26473115347534,-35.43704257538468L-153.3312976652228,-9.522385118593425L-139.89576789819685,1.014244174669628z" style="fill:rgb(34,141,214)"/><path d="M7.147624971755662,-147.37525258097256L8.580596799992039,-138.85943857077032L46.58420392569291,-134.5077335833483z" style="fill:rgb(145,220,212)"/><path d="M-29.881281150017607,-137.17848108651896L8.580596799992039,-138.85943857077032L7.147624971755662,-147.37525258097256z" style="fill:rgb(120,220,214)"/><path d="M112.82562915955097,-88.32390627501992L82.11755747161418,-124.41874874806643L81.06218061778141,-106.70569960424447z" style="fill:rgb(192,198,211)"/><path d="M-119.87899515708044,80.85105450727309L-123.70187860096979,45.971541749583366L-144.32391464370258,36.79642163602115z" style="fill:rgb(39,88,211)"/><path d="M-91.65095118769985,-102.52530345982333L-66.75041865363102,-129.57536864282113L-95.65938651458391,-104.95492778463141z" style="fill:rgb(74,203,215)"/><path d="M103.00873055719266,89.59921985717553L71.269954213393,111.23650011557115L80.90913189591369,131.2019238300519z" style="fill:rgb(187,54,212)"/><path d="M-120.54061914806206,-75.67108730583871L-140.0767706301337,-43.278214035125394L-129.26473115347534,-35.43704257538468z" style="fill:rgb(45,163,217)"/><path d="M71.269954213393,111.23650011557115L36.29723280435295,128.07900662344184L47.51320794142565,147.26151638933723z" style="fill:rgb(166,42,214)"/><path d="M-29.881281150017607,-137.17848108651896L-66.75041865363102,-129.57536864282113L-30.72539972248459,-132.36350002591055z" style="fill:rgb(95,213,215)"/><path d="M45.24725194826748,-120.66518534264132L82.11755747161418,-124.41874874806643L46.58420392569291,-134.5077335833483z" style="fill:rgb(169,206,218)"/><path d="M-120.54061914806206,-75.67108730583871L-91.65095118769985,-102.52530345982333L-95.65938651458391,-104.95492778463141z" style="fill:rgb(58,184,218)"/><path d="M-123.70187860096979,45.971541749583366L-139.89576789819685,1.014244174669628L-144.32391464370258,36.79642163602115z" style="fill:rgb(41,111,219)"/><path d="M-49.02572560656483,118.79360566803332L-35.657537426450375,144.177546330505L4.6363533335597615e-14,139.22304677937598z" style="fill:rgb(111,43,222)"/><path d="M-91.65095118769985,-102.52530345982333L-86.57463095793881,-101.01772563402908L-66.75041865363102,-129.57536864282113z" style="fill:rgb(76,203,216)"/><path d="M-119.87899515708044,80.85105450727309L-82.09093911037463,117.90507985200482L-92.25188917234236,86.71079072356456z" style="fill:rgb(60,61,214)"/><path d="M-30.72539972248459,-132.36350002591055L-66.75041865363102,-129.57536864282113L-32.929124984720374,-127.28408303973998z" style="fill:rgb(95,212,217)"/><path d="M45.24725194826748,-120.66518534264132L81.06218061778141,-106.70569960424447L82.11755747161418,-124.41874874806643z" style="fill:rgb(169,206,217)"/><path d="M-120.54061914806206,-75.67108730583871L-112.88917996523759,-70.58770686558569L-91.65095118769985,-102.52530345982333z" style="fill:rgb(58,184,218)"/><path d="M45.24725194826748,-120.66518534264132L46.58420392569291,-134.5077335833483L8.580596799992039,-138.85943857077032z" style="fill:rgb(145,212,220)"/><path d="M-120.54061914806206,-75.67108730583871L-129.26473115347534,-35.43704257538468L-112.88917996523759,-70.58770686558569z" style="fill:rgb(45,163,217)"/><path d="M-29.881281150017607,-137.17848108651896L7.291597600371253,-129.37286636740504L8.580596799992039,-138.85943857077032z" style="fill:rgb(120,214,220)"/><path d="M-80.61931359458409,-100.50900746885763L-66.75041865363102,-129.57536864282113L-86.57463095793881,-101.01772563402908z" style="fill:rgb(78,202,218)"/><path d="M137.76891379833685,11.614577941206466L116.86816800111237,38.67060800274994L129.84131180425453,64.39166639848946z" style="fill:rgb(215,102,216)"/><path d="M112.82562915955097,-88.32390627501992L106.09136648092371,-65.71348565359126L132.13949893103688,-41.379074216529894z" style="fill:rgb(208,170,216)"/><path d="M-36.42304832234735,-122.14453011926221L-32.929124984720374,-127.28408303973998L-66.75041865363102,-129.57536864282113z" style="fill:rgb(94,210,218)"/><path d="M-29.881281150017607,-137.17848108651896L-30.72539972248459,-132.36350002591055L7.291597600371253,-129.37286636740504z" style="fill:rgb(120,214,220)"/><path d="M116.86816800111237,38.67060800274994L103.00873055719266,89.59921985717553L129.84131180425453,64.39166639848946z" style="fill:rgb(198,85,224)"/><path d="M-74.01971380027246,-101.03015032813961L-66.75041865363102,-129.57536864282113L-80.61931359458409,-100.50900746885763z" style="fill:rgb(80,202,219)"/><path d="M-36.42304832234735,-122.14453011926221L-66.75041865363102,-129.57536864282113L-41.078522006717954,-117.15387373493753z" style="fill:rgb(93,208,219)"/><path d="M-92.25188917234236,86.71079072356456L-82.09093911037463,117.90507985200482L-49.02572560656483,118.79360566803332z" style="fill:rgb(81,60,226)"/><path d="M45.24725194826748,-120.66518534264132L8.580596799992039,-138.85943857077032L7.291597600371253,-129.37286636740504z" style="fill:rgb(145,212,220)"/><path d="M137.76891379833685,11.614577941206466L132.13949893103688,-41.379074216529894L118.41271251212211,-15.348409234666756z" style="fill:rgb(216,137,218)"/><path d="M-74.01971380027246,-101.03015032813961L-67.04137041704169,-102.57139589715825L-66.75041865363102,-129.57536864282113z" style="fill:rgb(82,202,220)"/><path d="M112.82562915955097,-88.32390627501992L81.06218061778141,-106.70569960424447L74.777983805078,-87.62995724459743z" style="fill:rgb(188,183,224)"/><path d="M-123.70187860096979,45.971541749583366L-122.13429235187766,8.27973397059129L-139.89576789819685,1.014244174669628z" style="fill:rgb(41,111,219)"/><path d="M-41.078522006717954,-117.15387373493753L-66.75041865363102,-129.57536864282113L-46.71262996217562,-112.52009834515042z" style="fill:rgb(91,206,220)"/><path d="M-115.12898788072701,-30.19835046176674L-129.26473115347534,-35.43704257538468L-139.89576789819685,1.014244174669628z" style="fill:rgb(45,136,224)"/><path d="M-91.65095118769985,-102.52530345982333L-112.88917996523759,-70.58770686558569L-103.03627655132338,-67.31283764438176zM-91.65095118769985,-102.52530345982333L-103.03627655132338,-67.31283764438176L-86.57463095793881,-101.01772563402908z" style="fill:rgb(63,182,223)"/><path d="M-59.96792755774711,-105.0718699689791L-66.75041865363102,-129.57536864282113L-67.04137041704169,-102.57139589715825z" style="fill:rgb(85,203,220)"/><path d="M-53.09644979840187,-108.43446669276085L-46.71262996217562,-112.52009834515042L-66.75041865363102,-129.57536864282113z" style="fill:rgb(89,205,221)"/><path d="M-119.87899515708044,80.85105450727309L-98.60012418556099,50.708726970053L-123.70187860096979,45.971541749583366z" style="fill:rgb(57,84,224)"/><path d="M-59.96792755774711,-105.0718699689791L-53.09644979840187,-108.43446669276085L-66.75041865363102,-129.57536864282113z" style="fill:rgb(87,204,221)"/><path d="M-30.72539972248459,-132.36350002591055L-32.929124984720374,-127.28408303973998L3.2559439016795575,-119.28181342640158z" style="fill:rgb(119,209,224)"/><path d="M-115.12898788072701,-30.19835046176674L-112.88917996523759,-70.58770686558569L-129.26473115347534,-35.43704257538468z" style="fill:rgb(53,159,225)"/><path d="M112.82562915955097,-88.32390627501992L74.777983805078,-87.62995724459743L106.09136648092371,-65.71348565359126z" style="fill:rgb(188,183,224)"/><path d="M-119.87899515708044,80.85105450727309L-92.25188917234236,86.71079072356456L-98.60012418556099,50.708726970053z" style="fill:rgb(57,84,224)"/><path d="M-30.72539972248459,-132.36350002591055L3.2559439016795575,-119.28181342640158L7.291597600371253,-129.37286636740504z" style="fill:rgb(119,209,224)"/><path d="M-80.61931359458409,-100.50900746885763L-86.57463095793881,-101.01772563402908L-103.03627655132338,-67.31283764438176z" style="fill:rgb(69,181,227)"/><path d="M-49.02572560656483,118.79360566803332L4.6363533335597615e-14,139.22304677937598L-13.420894652220262,113.53200869870496z" style="fill:rgb(111,43,222)"/><path d="M-115.12898788072701,-30.19835046176674L-139.89576789819685,1.014244174669628L-122.13429235187766,8.27973397059129z" style="fill:rgb(45,136,224)"/><path d="M22.89200460685338,102.19299408815542L4.6363533335597615e-14,139.22304677937598L36.29723280435295,128.07900662344184z" style="fill:rgb(134,49,228)"/><path d="M45.24725194826748,-120.66518534264132L74.777983805078,-87.62995724459743L81.06218061778141,-106.70569960424447z" style="fill:rgb(166,194,228)"/><path d="M-36.42304832234735,-122.14453011926221L3.2559439016795575,-119.28181342640158L-32.929124984720374,-127.28408303973998z" style="fill:rgb(116,204,228)"/><path d="M45.24725194826748,-120.66518534264132L7.291597600371253,-129.37286636740504L3.2559439016795575,-119.28181342640158z" style="fill:rgb(143,203,228)"/><path d="M57.948563306308984,85.27921671845934L71.269954213393,111.23650011557115L103.00873055719266,89.59921985717553z" style="fill:rgb(179,71,229)"/><path d="M-115.12898788072701,-30.19835046176674L-103.03627655132338,-67.31283764438176L-112.88917996523759,-70.58770686558569z" style="fill:rgb(53,159,225)"/><path d="M116.86816800111237,38.67060800274994L89.83334620775271,63.696163113755865L103.00873055719266,89.59921985717553z" style="fill:rgb(198,85,224)"/><path d="M57.948563306308984,85.27921671845934L36.29723280435295,128.07900662344184L71.269954213393,111.23650011557115z" style="fill:rgb(157,58,230)"/><path d="M93.17136756199318,-42.406076235570424L132.13949893103688,-41.379074216529894L106.09136648092371,-65.71348565359126z" style="fill:rgb(200,153,228)"/><path d="M-74.01971380027246,-101.03015032813961L-80.61931359458409,-100.50900746885763L-91.33505643874591,-66.0352548051973z" style="fill:rgb(75,180,231)"/><path d="M137.76891379833685,11.614577941206466L98.12349858500579,10.194803424393571L116.86816800111237,38.67060800274994z" style="fill:rgb(203,120,229)"/><path d="M-80.61931359458409,-100.50900746885763L-103.03627655132338,-67.31283764438176L-91.33505643874591,-66.0352548051973z" style="fill:rgb(69,181,227)"/><path d="M93.17136756199318,-42.406076235570424L118.41271251212211,-15.348409234666756L132.13949893103688,-41.379074216529894z" style="fill:rgb(200,153,228)"/><path d="M-92.25188917234236,86.71079072356456L-49.02572560656483,118.79360566803332L-60.729530707755764,87.08250786104804z" style="fill:rgb(81,60,226)"/><path d="M22.89200460685338,102.19299408815542L-13.420894652220262,113.53200869870496L4.6363533335597615e-14,139.22304677937598z" style="fill:rgb(134,49,228)"/><path d="M45.24725194826748,-120.66518534264132L3.2559439016795575,-119.28181342640158L39.84654752269067,-105.83393261041152z" style="fill:rgb(143,203,228)"/><path d="M137.76891379833685,11.614577941206466L118.41271251212211,-15.348409234666756L98.12349858500579,10.194803424393571z" style="fill:rgb(203,120,229)"/><path d="M-123.70187860096979,45.971541749583366L-100.63438489287837,11.775708757316298L-122.13429235187766,8.27973397059129z" style="fill:rgb(56,108,231)"/><path d="M45.24725194826748,-120.66518534264132L39.84654752269067,-105.83393261041152L74.777983805078,-87.62995724459743z" style="fill:rgb(166,194,228)"/><path d="M-36.42304832234735,-122.14453011926221L-3.4274268076434287,-108.99623061278882L3.2559439016795575,-119.28181342640158z" style="fill:rgb(116,204,228)"/><path d="M-115.12898788072701,-30.19835046176674L-91.33505643874591,-66.0352548051973L-103.03627655132338,-67.31283764438176z" style="fill:rgb(62,157,232)"/><path d="M-36.42304832234735,-122.14453011926221L-41.078522006717954,-117.15387373493753L-12.527864552909787,-98.96161816381458z" style="fill:rgb(112,198,232)"/><path d="M57.948563306308984,85.27921671845934L103.00873055719266,89.59921985717553L89.83334620775271,63.696163113755865z" style="fill:rgb(179,71,229)"/><path d="M-123.70187860096979,45.971541749583366L-98.60012418556099,50.708726970053L-100.63438489287837,11.775708757316298z" style="fill:rgb(56,108,231)"/><path d="M-74.01971380027246,-101.03015032813961L-64.32309189664024,-69.77616224457137L-67.04137041704169,-102.57139589715825z" style="fill:rgb(82,181,233)"/><path d="M57.948563306308984,85.27921671845934L22.89200460685338,102.19299408815542L36.29723280435295,128.07900662344184z" style="fill:rgb(157,58,230)"/><path d="M-115.12898788072701,-30.19835046176674L-122.13429235187766,8.27973397059129L-100.63438489287837,11.775708757316298z" style="fill:rgb(57,133,234)"/><path d="M93.17136756199318,-42.406076235570424L106.09136648092371,-65.71348565359126L74.777983805078,-87.62995724459743z" style="fill:rgb(181,169,235)"/><path d="M-41.078522006717954,-117.15387373493753L-46.71262996217562,-112.52009834515042L-23.68063011969342,-89.62752265529976z" style="fill:rgb(107,193,234)"/><path d="M-74.01971380027246,-101.03015032813961L-91.33505643874591,-66.0352548051973L-78.2472497242605,-66.85406836242423z" style="fill:rgb(75,180,231)"/><path d="M-36.42304832234735,-122.14453011926221L-12.527864552909787,-98.96161816381458L-3.4274268076434287,-108.99623061278882z" style="fill:rgb(112,198,232)"/><path d="M-23.68063011969342,-89.62752265529976L-46.71262996217562,-112.52009834515042L-53.09644979840187,-108.43446669276085z" style="fill:rgb(102,189,235)"/><path d="M-50.16737789170302,-74.69695592213066L-59.96792755774711,-105.0718699689791L-67.04137041704169,-102.57139589715825z" style="fill:rgb(89,183,235)"/><path d="M-50.16737789170302,-74.69695592213066L-53.09644979840187,-108.43446669276085L-59.96792755774711,-105.0718699689791z" style="fill:rgb(95,186,236)"/><path d="M-26.765182673255715,81.69407749032091L-49.02572560656483,118.79360566803332L-13.420894652220262,113.53200869870496z" style="fill:rgb(103,63,234)"/><path d="M-115.12898788072701,-30.19835046176674L-98.16548146828157,-27.899701325761736L-91.33505643874591,-66.0352548051973z" style="fill:rgb(62,157,232)"/><path d="M30.460862473527136,-90.63545755702529L39.84654752269067,-105.83393261041152L3.2559439016795575,-119.28181342640158z" style="fill:rgb(139,194,235)"/><path d="M-70.01243748164121,50.54293835033148L-98.60012418556099,50.708726970053L-92.25188917234236,86.71079072356456z" style="fill:rgb(76,83,235)"/><path d="M-74.01971380027246,-101.03015032813961L-78.2472497242605,-66.85406836242423L-64.32309189664024,-69.77616224457137z" style="fill:rgb(82,181,233)"/><path d="M-26.765182673255715,81.69407749032091L-60.729530707755764,87.08250786104804L-49.02572560656483,118.79360566803332z" style="fill:rgb(103,63,234)"/><path d="M30.460862473527136,-90.63545755702529L3.2559439016795575,-119.28181342640158L-3.4274268076434287,-108.99623061278882z" style="fill:rgb(139,194,235)"/><path d="M30.460862473527136,-90.63545755702529L74.777983805078,-87.62995724459743L39.84654752269067,-105.83393261041152z" style="fill:rgb(161,183,237)"/><path d="M-70.01243748164121,50.54293835033148L-92.25188917234236,86.71079072356456L-60.729530707755764,87.08250786104804z" style="fill:rgb(76,83,235)"/><path d="M-115.12898788072701,-30.19835046176674L-100.63438489287837,11.775708757316298L-98.16548146828157,-27.899701325761736z" style="fill:rgb(57,133,234)"/><path d="M98.12349858500579,10.194803424393571L118.41271251212211,-15.348409234666756L93.17136756199318,-42.406076235570424z" style="fill:rgb(188,137,238)"/><path d="M-41.078522006717954,-117.15387373493753L-23.68063011969342,-89.62752265529976L-12.527864552909787,-98.96161816381458z" style="fill:rgb(107,193,234)"/><path d="M72.06294085537738,33.89030059510344L89.83334620775271,63.696163113755865L116.86816800111237,38.67060800274994z" style="fill:rgb(187,104,237)"/><path d="M93.17136756199318,-42.406076235570424L74.777983805078,-87.62995724459743L63.30013272056717,-68.00708682560496z" style="fill:rgb(181,169,235)"/><path d="M-50.16737789170302,-74.69695592213066L-67.04137041704169,-102.57139589715825L-64.32309189664024,-69.77616224457137z" style="fill:rgb(89,183,235)"/><path d="M72.06294085537738,33.89030059510344L116.86816800111237,38.67060800274994L98.12349858500579,10.194803424393571z" style="fill:rgb(187,104,237)"/><path d="M-23.68063011969342,-89.62752265529976L-53.09644979840187,-108.43446669276085L-36.41454604746194,-81.41366043448895z" style="fill:rgb(102,189,235)"/><path d="M30.460862473527136,-90.63545755702529L63.30013272056717,-68.00708682560496L74.777983805078,-87.62995724459743z" style="fill:rgb(161,183,237)"/><path d="M-12.527864552909787,-98.96161816381458L30.460862473527136,-90.63545755702529L-3.4274268076434287,-108.99623061278882z" style="fill:rgb(132,186,240)"/><path d="M-50.16737789170302,-74.69695592213066L-36.41454604746194,-81.41366043448895L-53.09644979840187,-108.43446669276085z" style="fill:rgb(95,186,236)"/><path d="M-79.04006007861166,-28.744683182382314L-78.2472497242605,-66.85406836242423L-91.33505643874591,-66.0352548051973zM-79.04006007861166,-28.744683182382314L-91.33505643874591,-66.0352548051973L-98.16548146828157,-27.899701325761736z" style="fill:rgb(72,157,238)"/><path d="M7.916871638342711,70.64412260649226L-13.420894652220262,113.53200869870496L22.89200460685338,102.19299408815542z" style="fill:rgb(126,68,240)"/><path d="M57.948563306308984,85.27921671845934L89.83334620775271,63.696163113755865L72.06294085537738,33.89030059510344z" style="fill:rgb(168,89,242)"/><path d="M-76.25125966140116,11.169884183756043L-100.63438489287837,11.775708757316298L-98.60012418556099,50.708726970053z" style="fill:rgb(72,107,240)"/><path d="M-79.04006007861166,-28.744683182382314L-98.16548146828157,-27.899701325761736L-100.63438489287837,11.775708757316298z" style="fill:rgb(71,132,242)"/><path d="M7.916871638342711,70.64412260649226L22.89200460685338,102.19299408815542L57.948563306308984,85.27921671845934z" style="fill:rgb(148,77,243)"/><path d="M-79.04006007861166,-28.744683182382314L-64.32309189664024,-69.77616224457137L-78.2472497242605,-66.85406836242423z" style="fill:rgb(83,158,243)"/><path d="M98.12349858500579,10.194803424393571L93.17136756199318,-42.406076235570424L74.40249683771154,-19.52182076911132z" style="fill:rgb(188,137,238)"/><path d="M-26.765182673255715,81.69407749032091L-70.01243748164121,50.54293835033148L-60.729530707755764,87.08250786104804z" style="fill:rgb(96,85,243)"/><path d="M-76.25125966140116,11.169884183756043L-98.60012418556099,50.708726970053L-70.01243748164121,50.54293835033148z" style="fill:rgb(72,107,240)"/><path d="M7.916871638342711,70.64412260649226L-26.765182673255715,81.69407749032091L-13.420894652220262,113.53200869870496z" style="fill:rgb(126,68,240)"/><path d="M-12.527864552909787,-98.96161816381458L17.396568179667984,-75.75705564709348L30.460862473527136,-90.63545755702529z" style="fill:rgb(132,186,240)"/><path d="M93.17136756199318,-42.406076235570424L63.30013272056717,-68.00708682560496L46.961234744858885,-48.75614975720681z" style="fill:rgb(171,155,243)"/><path d="M-79.04006007861166,-28.744683182382314L-100.63438489287837,11.775708757316298L-76.25125966140116,11.169884183756043z" style="fill:rgb(71,132,242)"/><path d="M-12.527864552909787,-98.96161816381458L-23.68063011969342,-89.62752265529976L1.167973689157848,-61.90371539969626z" style="fill:rgb(125,178,244)"/><path d="M30.460862473527136,-90.63545755702529L46.961234744858885,-48.75614975720681L63.30013272056717,-68.00708682560496z" style="fill:rgb(152,171,244)"/><path d="M72.06294085537738,33.89030059510344L98.12349858500579,10.194803424393571L74.40249683771154,-19.52182076911132z" style="fill:rgb(174,123,246)"/><path d="M57.948563306308984,85.27921671845934L72.06294085537738,33.89030059510344L41.464499433208786,54.42293787583476z" style="fill:rgb(168,89,242)"/><path d="M-50.16737789170302,-74.69695592213066L-64.32309189664024,-69.77616224457137L-58.58563334016136,-32.781531392916364z" style="fill:rgb(94,161,246)"/><path d="M93.17136756199318,-42.406076235570424L46.961234744858885,-48.75614975720681L74.40249683771154,-19.52182076911132z" style="fill:rgb(171,155,243)"/><path d="M-79.04006007861166,-28.744683182382314L-58.58563334016136,-32.781531392916364L-64.32309189664024,-69.77616224457137z" style="fill:rgb(83,158,243)"/><path d="M1.167973689157848,-61.90371539969626L-23.68063011969342,-89.62752265529976L-36.41454604746194,-81.41366043448895z" style="fill:rgb(115,171,246)"/><path d="M7.916871638342711,70.64412260649226L57.948563306308984,85.27921671845934L41.464499433208786,54.42293787583476z" style="fill:rgb(148,77,243)"/><path d="M-12.527864552909787,-98.96161816381458L1.167973689157848,-61.90371539969626L17.396568179667984,-75.75705564709348z" style="fill:rgb(125,178,244)"/><path d="M30.460862473527136,-90.63545755702529L17.396568179667984,-75.75705564709348L46.961234744858885,-48.75614975720681z" style="fill:rgb(152,171,244)"/><path d="M-50.16737789170302,-74.69695592213066L-17.500985293942716,-49.74853717436182L-36.41454604746194,-81.41366043448895z" style="fill:rgb(105,165,247)"/><path d="M-26.765182673255715,81.69407749032091L-39.237944078614866,45.28083768324659L-70.01243748164121,50.54293835033148z" style="fill:rgb(96,85,243)"/><path d="M7.916871638342711,70.64412260649226L-39.237944078614866,45.28083768324659L-26.765182673255715,81.69407749032091z" style="fill:rgb(117,90,249)"/><path d="M-50.06494470645427,6.345689143403991L-76.25125966140116,11.169884183756043L-70.01243748164121,50.54293835033148z" style="fill:rgb(90,109,248)"/><path d="M-50.16737789170302,-74.69695592213066L-58.58563334016136,-32.781531392916364L-37.74264003184928,-39.88408337442061z" style="fill:rgb(94,161,246)"/><path d="M-79.04006007861166,-28.744683182382314L-76.25125966140116,11.169884183756043L-50.06494470645427,6.345689143403991z" style="fill:rgb(86,133,248)"/><path d="M72.06294085537738,33.89030059510344L74.40249683771154,-19.52182076911132L50.525362361747064,1.7560865070814178z" style="fill:rgb(174,123,246)"/><path d="M1.167973689157848,-61.90371539969626L-36.41454604746194,-81.41366043448895L-17.500985293942716,-49.74853717436182z" style="fill:rgb(115,171,246)"/><path d="M1.167973689157848,-61.90371539969626L46.961234744858885,-48.75614975720681L17.396568179667984,-75.75705564709348z" style="fill:rgb(142,160,249)"/><path d="M-79.04006007861166,-28.744683182382314L-50.06494470645427,6.345689143403991L-58.58563334016136,-32.781531392916364z" style="fill:rgb(86,133,248)"/><path d="M-50.16737789170302,-74.69695592213066L-37.74264003184928,-39.88408337442061L-17.500985293942716,-49.74853717436182z" style="fill:rgb(105,165,247)"/><path d="M-50.06494470645427,6.345689143403991L-70.01243748164121,50.54293835033148L-39.237944078614866,45.28083768324659z" style="fill:rgb(90,109,248)"/><path d="M46.961234744858885,-48.75614975720681L50.525362361747064,1.7560865070814178L74.40249683771154,-19.52182076911132z" style="fill:rgb(158,142,250)"/><path d="M72.06294085537738,33.89030059510344L22.648249982565414,20.279321640318983L41.464499433208786,54.42293787583476z" style="fill:rgb(156,109,250)"/><path d="M7.916871638342711,70.64412260649226L41.464499433208786,54.42293787583476L22.648249982565414,20.279321640318983z" style="fill:rgb(137,99,251)"/><path d="M1.167973689157848,-61.90371539969626L26.411605644519966,-30.832156497954568L46.961234744858885,-48.75614975720681z" style="fill:rgb(142,160,249)"/><path d="M-50.06494470645427,6.345689143403991L-37.74264003184928,-39.88408337442061L-58.58563334016136,-32.781531392916364z" style="fill:rgb(101,137,251)"/><path d="M7.916871638342711,70.64412260649226L-7.805338194441223,35.04023485615355L-39.237944078614866,45.28083768324659z" style="fill:rgb(117,90,249)"/><path d="M72.06294085537738,33.89030059510344L50.525362361747064,1.7560865070814178L22.648249982565414,20.279321640318983z" style="fill:rgb(156,109,250)"/><path d="M46.961234744858885,-48.75614975720681L26.411605644519966,-30.832156497954568L50.525362361747064,1.7560865070814178z" style="fill:rgb(158,142,250)"/><path d="M-7.805338194441223,35.04023485615355L-50.06494470645427,6.345689143403991L-39.237944078614866,45.28083768324659z" style="fill:rgb(109,113,252)"/><path d="M7.916871638342711,70.64412260649226L22.648249982565414,20.279321640318983L-7.805338194441223,35.04023485615355z" style="fill:rgb(137,99,251)"/><path d="M1.167973689157848,-61.90371539969626L-17.500985293942716,-49.74853717436182L2.587296683448637,-15.163623269269154z" style="fill:rgb(129,151,252)"/><path d="M-50.06494470645427,6.345689143403991L-23.3395335387995,-2.56241079613303L-37.74264003184928,-39.88408337442061z" style="fill:rgb(101,137,251)"/><path d="M-37.74264003184928,-39.88408337442061L2.587296683448637,-15.163623269269154L-17.500985293942716,-49.74853717436182z" style="fill:rgb(115,143,253)"/><path d="M1.167973689157848,-61.90371539969626L2.587296683448637,-15.163623269269154L26.411605644519966,-30.832156497954568z" style="fill:rgb(129,151,252)"/><path d="M22.648249982565414,20.279321640318983L50.525362361747064,1.7560865070814178L26.411605644519966,-30.832156497954568z" style="fill:rgb(143,130,253)"/><path d="M-7.805338194441223,35.04023485615355L-23.3395335387995,-2.56241079613303L-50.06494470645427,6.345689143403991z" style="fill:rgb(109,113,252)"/><path d="M-37.74264003184928,-39.88408337442061L-23.3395335387995,-2.56241079613303L2.587296683448637,-15.163623269269154z" style="fill:rgb(115,143,253)"/><path d="M22.648249982565414,20.279321640318983L26.411605644519966,-30.832156497954568L2.587296683448637,-15.163623269269154z" style="fill:rgb(143,130,253)"/><path d="M-7.805338194441223,35.04023485615355L22.648249982565414,20.279321640318983L2.587296683448637,-15.163623269269154zM-7.805338194441223,35.04023485615355L2.587296683448637,-15.163623269269154L-23.3395335387995,-2.56241079613303z" style="fill:rgb(126,121,254)"/></svg>