<?xml version="1.0" encoding="UTF-8"?>
<!-- Generated by jsxcad -->
<!DOCTYPE svg PUBLIC "-//W3C//DTD SVG 1.1 Tiny//EN" "http://www.w3.org/Graphics/SVG/1.1/DTD/svg11-tiny.dtd">
<svg baseProfile="tiny" height="2 mm" width="2 mm" viewBox="0 0 2 2" version="1.1" stroke="black" stroke-width=".1" fill="none" xmlns="http://www.w3.org/2000/svg">
<path d="M0.80491 1.98079 L0.61732 1.92388 L0.44443 1.83147 L0.29289 1.70711 L0.16853 1.55557 L0.07612 1.38268 L0.01921 1.19509 L0 1 L0.01921 0.80491 L0.07612 0.61732 L0.16853 0.44443 L0.29289 0.29289 L0.44443 0.16853 L0.61732 0.07612 L0.80491 0.01921 L1 0 L1.19509 0.01921 L1.38268 0.07612 L1.55557 0.16853 L1.70711 0.29289 L1.83147 0.44443 L1.92388 0.61732 L1.98079 0.80491 L2 1 L1.98079 1.19509 L1.92388 1.38268 L1.83147 1.55557 L1.70711 1.70711 L1.55557 1.83147 L1.38268 1.92388 L1.19509 1.98079 L1 2 z"/>
</svg>