<?xml version="1.0" encoding="UTF-8"?>
<!-- Generated by jsxcad -->
<!DOCTYPE svg PUBLIC "-//W3C//DTD SVG 1.1 Tiny//EN" "http://www.w3.org/Graphics/SVG/1.1/DTD/svg11-tiny.dtd">
<svg baseProfile="tiny" height="2 mm" width="2 mm" viewBox="0 0 2 2" version="1.1" stroke="black" stroke-width=".1" fill="none" xmlns="http://www.w3.org/2000/svg">
<path d="M1.83147 0.44443 L1.81549 0.4551 L1.69352 0.30648 z"/>
<path d="M1.83147 0.44443 L1.69352 0.30648 L1.70711 0.29289 z"/>
<path d="M1.92388 0.61732 L1.90613 0.62467 L1.81549 0.4551 z"/>
<path d="M1.92388 0.61732 L1.81549 0.4551 L1.83147 0.44443 z"/>
<path d="M0.80866 0.03806 L0.80491 0.01921 L1 0 z"/>
<path d="M0.80866 0.03806 L1 0 L1 0.01921 z"/>
<path d="M0.61732 0.07612 L0.80491 0.01921 L0.80866 0.03806 z"/>
<path d="M0.61732 0.07612 L0.80866 0.03806 L0.62467 0.09387 z"/>
<path d="M0.4551 0.18451 L0.30648 0.30648 L0.29289 0.29289 z"/>
<path d="M0.4551 0.18451 L0.29289 0.29289 L0.44443 0.16853 z"/>
<path d="M0.4551 0.18451 L0.44443 0.16853 L0.61732 0.07612 z"/>
<path d="M0.4551 0.18451 L0.61732 0.07612 L0.62467 0.09387 z"/>
<path d="M1 0.01921 L1 0 L0.80491 0.01921 z"/>
<path d="M1 0.01921 L0.80491 0.01921 L0.80866 0.03806 z"/>
<path d="M1.19134 0.03806 L1 0.01921 L1 0 z"/>
<path d="M1.19134 0.03806 L1 0 L1.19509 0.01921 z"/>
<path d="M1.5449 0.18451 L1.55557 0.16853 L1.70711 0.29289 z"/>
<path d="M1.5449 0.18451 L1.70711 0.29289 L1.69352 0.30648 z"/>
<path d="M1.96194 0.80866 L1.90613 0.62467 L1.92388 0.61732 z"/>
<path d="M1.96194 0.80866 L1.92388 0.61732 L1.98079 0.80491 z"/>
<path d="M1.96194 0.80866 L1.98079 0.80491 L2 1 z"/>
<path d="M1.96194 0.80866 L2 1 L1.98079 1 z"/>
<path d="M1 0.07612 L1 0.01921 L1.19134 0.03806 z"/>
<path d="M1 0.07612 L1.19134 0.03806 L1.18024 0.09387 z"/>
<path d="M0.62467 0.09387 L0.80866 0.03806 L0.80491 0.01921 z"/>
<path d="M0.62467 0.09387 L0.80491 0.01921 L0.61732 0.07612 z"/>
<path d="M0.62467 0.09387 L0.61732 0.07612 L0.44443 0.16853 z"/>
<path d="M0.62467 0.09387 L0.44443 0.16853 L0.4551 0.18451 z"/>
<path d="M0.30866 0.53806 L0.23182 0.48672 L0.34672 0.34672 z"/>
<path d="M0.30866 0.53806 L0.34672 0.34672 L0.41206 0.41206 z"/>
<path d="M0.5 0.5 L0.41206 0.60715 L0.30866 0.53806 z"/>
<path d="M0.5 0.5 L0.30866 0.53806 L0.41206 0.41206 z"/>
<path d="M0.03806 0.80866 L0.01921 0.80491 L0.07612 0.61732 z"/>
<path d="M0.03806 0.80866 L0.07612 0.61732 L0.09387 0.62467 z"/>
<path d="M1.16221 0.18451 L1.18024 0.09387 L1.35355 0.14645 z"/>
<path d="M1.16221 0.18451 L1.35355 0.14645 L1.31819 0.23182 z"/>
<path d="M1.19509 1.98079 L1.19134 1.96194 L1 1.98079 z"/>
<path d="M1.19509 1.98079 L1 1.98079 L1 2 z"/>
<path d="M1.19509 1.98079 L1 2 L1 1.98079 z"/>
<path d="M1.19509 1.98079 L1 1.98079 L1.19134 1.96194 z"/>
<path d="M0.5 1.5 L0.41206 1.39285 L0.30866 1.46194 z"/>
<path d="M0.5 1.5 L0.30866 1.46194 L0.41206 1.58794 z"/>
<path d="M0.80866 1.96194 L0.80491 1.98079 L1 2 z"/>
<path d="M0.80866 1.96194 L1 2 L1 1.98079 z"/>
<path d="M0.4551 1.81549 L0.48672 1.76818 L0.64645 1.85355 z"/>
<path d="M0.4551 1.81549 L0.64645 1.85355 L0.62467 1.90613 z"/>
<path d="M1.37533 1.90613 L1.38268 1.92388 L1.19509 1.98079 z"/>
<path d="M1.37533 1.90613 L1.19509 1.98079 L1.19134 1.96194 z"/>
<path d="M0.16853 0.44443 L0.07612 0.61732 L0.09387 0.62467 z"/>
<path d="M0.16853 0.44443 L0.09387 0.62467 L0.18451 0.4551 z"/>
<path d="M0.30648 0.30648 L0.4551 0.18451 L0.44443 0.16853 z"/>
<path d="M0.30648 0.30648 L0.44443 0.16853 L0.29289 0.29289 z"/>
<path d="M0.30648 0.30648 L0.29289 0.29289 L0.16853 0.44443 z"/>
<path d="M0.30648 0.30648 L0.16853 0.44443 L0.18451 0.4551 z"/>
<path d="M0.30648 0.30648 L0.34672 0.34672 L0.48672 0.23182 z"/>
<path d="M0.30648 0.30648 L0.48672 0.23182 L0.4551 0.18451 z"/>
<path d="M0.23182 0.48672 L0.34672 0.34672 L0.30648 0.30648 z"/>
<path d="M0.23182 0.48672 L0.30648 0.30648 L0.18451 0.4551 z"/>
<path d="M0.23182 0.48672 L0.18451 0.4551 L0.09387 0.62467 z"/>
<path d="M0.23182 0.48672 L0.09387 0.62467 L0.14645 0.64645 z"/>
<path d="M0.23182 0.48672 L0.30866 0.53806 L0.41206 0.41206 z"/>
<path d="M0.23182 0.48672 L0.41206 0.41206 L0.34672 0.34672 z"/>
<path d="M1.37533 0.09387 L1.19134 0.03806 L1.19509 0.01921 z"/>
<path d="M1.37533 0.09387 L1.19509 0.01921 L1.38268 0.07612 z"/>
<path d="M1.37533 0.09387 L1.38268 0.07612 L1.55557 0.16853 z"/>
<path d="M1.37533 0.09387 L1.55557 0.16853 L1.5449 0.18451 z"/>
<path d="M1.37533 0.09387 L1.35355 0.14645 L1.18024 0.09387 z"/>
<path d="M1.37533 0.09387 L1.18024 0.09387 L1.19134 0.03806 z"/>
<path d="M1.51328 0.23182 L1.35355 0.14645 L1.37533 0.09387 z"/>
<path d="M1.51328 0.23182 L1.37533 0.09387 L1.5449 0.18451 z"/>
<path d="M1.51328 0.23182 L1.5449 0.18451 L1.69352 0.30648 z"/>
<path d="M1.51328 0.23182 L1.69352 0.30648 L1.65328 0.34672 z"/>
<path d="M1.51328 0.23182 L1.65328 0.34672 L1.58794 0.41206 z"/>
<path d="M1.51328 0.23182 L1.58794 0.41206 L1.46194 0.30866 z"/>
<path d="M1.51328 0.23182 L1.46194 0.30866 L1.31819 0.23182 z"/>
<path d="M1.51328 0.23182 L1.31819 0.23182 L1.35355 0.14645 z"/>
<path d="M1.85355 0.64645 L1.90613 0.62467 L1.96194 0.80866 z"/>
<path d="M1.85355 0.64645 L1.96194 0.80866 L1.90613 0.81976 z"/>
<path d="M1.81549 0.83779 L1.76818 0.68181 L1.85355 0.64645 z"/>
<path d="M1.81549 0.83779 L1.85355 0.64645 L1.90613 0.81976 z"/>
<path d="M1.92388 1 L1.83147 1 L1.81549 0.83779 z"/>
<path d="M1.92388 1 L1.81549 0.83779 L1.90613 0.81976 z"/>
<path d="M1.92388 1 L1.90613 0.81976 L1.96194 0.80866 z"/>
<path d="M1.92388 1 L1.96194 0.80866 L1.98079 1 z"/>
<path d="M1.5 0.5 L1.39285 0.41206 L1.46194 0.30866 z"/>
<path d="M1.5 0.5 L1.46194 0.30866 L1.58794 0.41206 z"/>
<path d="M1.69134 0.53806 L1.76818 0.68181 L1.65328 0.7294 z"/>
<path d="M1.69134 0.53806 L1.65328 0.7294 L1.58794 0.60715 z"/>
<path d="M1.69134 0.53806 L1.58794 0.60715 L1.5 0.5 z"/>
<path d="M1.69134 0.53806 L1.5 0.5 L1.58794 0.41206 z"/>
<path d="M1.98079 1 L1.96194 1.19134 L1.98079 1.19509 z"/>
<path d="M1.98079 1 L1.98079 1.19509 L2 1 z"/>
<path d="M1.98079 1 L2 1 L1.98079 0.80491 z"/>
<path d="M1.98079 1 L1.98079 0.80491 L1.96194 0.80866 z"/>
<path d="M1.90613 1.18024 L1.85355 1.35355 L1.90613 1.37533 z"/>
<path d="M1.90613 1.18024 L1.90613 1.37533 L1.96194 1.19134 z"/>
<path d="M1.90613 1.18024 L1.96194 1.19134 L1.98079 1 z"/>
<path d="M1.90613 1.18024 L1.98079 1 L1.92388 1 z"/>
<path d="M0.64645 0.14645 L0.62467 0.09387 L0.4551 0.18451 z"/>
<path d="M0.64645 0.14645 L0.4551 0.18451 L0.48672 0.23182 z"/>
<path d="M0.18451 0.4551 L0.30648 0.30648 L0.34672 0.34672 z"/>
<path d="M0.18451 0.4551 L0.34672 0.34672 L0.23182 0.48672 z"/>
<path d="M0.18451 0.4551 L0.09387 0.62467 L0.07612 0.61732 z"/>
<path d="M0.18451 0.4551 L0.07612 0.61732 L0.16853 0.44443 z"/>
<path d="M0.18451 0.4551 L0.16853 0.44443 L0.29289 0.29289 z"/>
<path d="M0.18451 0.4551 L0.29289 0.29289 L0.30648 0.30648 z"/>
<path d="M0.14645 0.64645 L0.09387 0.81976 L0.03806 0.80866 z"/>
<path d="M0.14645 0.64645 L0.03806 0.80866 L0.09387 0.62467 z"/>
<path d="M0.14645 0.64645 L0.09387 0.62467 L0.18451 0.4551 z"/>
<path d="M0.14645 0.64645 L0.18451 0.4551 L0.23182 0.48672 z"/>
<path d="M0.14645 0.64645 L0.23182 0.48672 L0.30866 0.53806 z"/>
<path d="M0.14645 0.64645 L0.30866 0.53806 L0.23182 0.68181 z"/>
<path d="M0.81976 0.09387 L0.64645 0.14645 L0.62467 0.09387 z"/>
<path d="M0.81976 0.09387 L0.62467 0.09387 L0.80866 0.03806 z"/>
<path d="M0.81976 0.09387 L0.80866 0.03806 L1 0.01921 z"/>
<path d="M0.81976 0.09387 L1 0.01921 L1 0.07612 z"/>
<path d="M0.68181 0.23182 L0.64645 0.14645 L0.81976 0.09387 z"/>
<path d="M0.68181 0.23182 L0.81976 0.09387 L0.83779 0.18451 z"/>
<path d="M0.68181 0.23182 L0.83779 0.18451 L0.86205 0.30648 z"/>
<path d="M0.68181 0.23182 L0.86205 0.30648 L0.7294 0.34672 z"/>
<path d="M0.89161 0.4551 L0.78739 0.48672 L0.7294 0.34672 z"/>
<path d="M0.89161 0.4551 L0.7294 0.34672 L0.86205 0.30648 z"/>
<path d="M1.37533 0.09387 L1.5449 0.18451 L1.55557 0.16853 z"/>
<path d="M1.37533 0.09387 L1.55557 0.16853 L1.38268 0.07612 z"/>
<path d="M1.13795 0.86205 L1 1 L1.10839 0.83779 z"/>
<path d="M1.13795 0.86205 L1.2706 0.7294 L1.31819 0.78739 z"/>
<path d="M1.13795 0.86205 L1.31819 0.78739 L1.16221 0.89161 z"/>
<path d="M1.13795 0.86205 L1.16221 0.89161 L1 1 z"/>
<path d="M1.10839 0.4551 L1.21261 0.48672 L1.14645 0.64645 z"/>
<path d="M1.10839 0.4551 L1.14645 0.64645 L1.07466 0.62467 z"/>
<path d="M1.2706 0.34672 L1.39285 0.41206 L1.30866 0.53806 z"/>
<path d="M1.2706 0.34672 L1.30866 0.53806 L1.21261 0.48672 z"/>
<path d="M1.2706 0.34672 L1.21261 0.48672 L1.10839 0.4551 z"/>
<path d="M1.2706 0.34672 L1.10839 0.4551 L1.13795 0.30648 z"/>
<path d="M1.2706 0.34672 L1.13795 0.30648 L1.16221 0.18451 z"/>
<path d="M1.2706 0.34672 L1.16221 0.18451 L1.31819 0.23182 z"/>
<path d="M1.2706 0.34672 L1.31819 0.23182 L1.46194 0.30866 z"/>
<path d="M1.2706 0.34672 L1.46194 0.30866 L1.39285 0.41206 z"/>
<path d="M0.01921 1 L0.03806 0.80866 L0.09387 0.81976 z"/>
<path d="M0.01921 1 L0.09387 0.81976 L0.07612 1 z"/>
<path d="M0.01921 1 L0 1 L0.01921 0.80491 z"/>
<path d="M0.01921 1 L0.01921 0.80491 L0.03806 0.80866 z"/>
<path d="M0.09387 1.18024 L0.14645 1.35355 L0.09387 1.37533 z"/>
<path d="M0.09387 1.18024 L0.09387 1.37533 L0.03806 1.19134 z"/>
<path d="M0.09387 1.18024 L0.03806 1.19134 L0.01921 1 z"/>
<path d="M0.09387 1.18024 L0.01921 1 L0.07612 1 z"/>
<path d="M1 0.16853 L0.83779 0.18451 L0.81976 0.09387 z"/>
<path d="M1 0.16853 L0.81976 0.09387 L1 0.07612 z"/>
<path d="M1 0.16853 L1 0.07612 L1.18024 0.09387 z"/>
<path d="M1 0.16853 L1.18024 0.09387 L1.16221 0.18451 z"/>
<path d="M0.01921 1.19509 L0 1 L0.01921 1 z"/>
<path d="M0.01921 1.19509 L0.01921 1 L0.03806 1.19134 z"/>
<path d="M0.23182 1.31819 L0.14645 1.35355 L0.23182 1.51328 z"/>
<path d="M0.23182 1.31819 L0.23182 1.51328 L0.30866 1.46194 z"/>
<path d="M1.37533 1.90613 L1.19134 1.96194 L1.19509 1.98079 z"/>
<path d="M1.37533 1.90613 L1.19509 1.98079 L1.38268 1.92388 z"/>
<path d="M1.37533 1.90613 L1.38268 1.92388 L1.55557 1.83147 z"/>
<path d="M1.37533 1.90613 L1.55557 1.83147 L1.5449 1.81549 z"/>
<path d="M1 1.92388 L1 1.98079 L1.19134 1.96194 z"/>
<path d="M1 1.92388 L1.19134 1.96194 L1.18024 1.90613 z"/>
<path d="M1 1.92388 L1.18024 1.90613 L1.16221 1.81549 z"/>
<path d="M1 1.92388 L1.16221 1.81549 L1 1.83147 z"/>
<path d="M1.21261 1.31819 L1.30866 1.46194 L1.39285 1.39285 z"/>
<path d="M1.21261 1.31819 L1.39285 1.39285 L1.2706 1.2706 z"/>
<path d="M0.53806 1.30866 L0.60715 1.39285 L0.7294 1.2706 z"/>
<path d="M0.53806 1.30866 L0.7294 1.2706 L0.68181 1.21261 z"/>
<path d="M0.53806 1.30866 L0.41206 1.39285 L0.5 1.5 z"/>
<path d="M0.53806 1.30866 L0.5 1.5 L0.60715 1.39285 z"/>
<path d="M0.60715 1.58794 L0.5 1.5 L0.41206 1.58794 z"/>
<path d="M0.60715 1.58794 L0.41206 1.58794 L0.53806 1.69134 z"/>
<path d="M0.60715 1.58794 L0.53806 1.69134 L0.68181 1.76818 z"/>
<path d="M0.60715 1.58794 L0.68181 1.76818 L0.7294 1.65328 z"/>
<path d="M0.86205 1.69352 L0.89161 1.5449 L0.78739 1.51328 z"/>
<path d="M0.86205 1.69352 L0.78739 1.51328 L0.7294 1.65328 z"/>
<path d="M1 1.55557 L0.89161 1.5449 L0.86205 1.69352 z"/>
<path d="M1 1.55557 L0.86205 1.69352 L1 1.70711 z"/>
<path d="M1.13795 1.69352 L1 1.70711 L1 1.83147 z"/>
<path d="M1.13795 1.69352 L1 1.83147 L1.16221 1.81549 z"/>
<path d="M0.18451 1.5449 L0.09387 1.37533 L0.14645 1.35355 z"/>
<path d="M0.18451 1.5449 L0.14645 1.35355 L0.23182 1.51328 z"/>
<path d="M0.34672 1.65328 L0.48672 1.76818 L0.4551 1.81549 z"/>
<path d="M0.34672 1.65328 L0.4551 1.81549 L0.30648 1.69352 z"/>
<path d="M0.34672 1.65328 L0.30648 1.69352 L0.18451 1.5449 z"/>
<path d="M0.34672 1.65328 L0.18451 1.5449 L0.23182 1.51328 z"/>
<path d="M0.34672 1.65328 L0.41206 1.58794 L0.53806 1.69134 z"/>
<path d="M0.34672 1.65328 L0.53806 1.69134 L0.48672 1.76818 z"/>
<path d="M1.39285 0.60715 L1.30866 0.53806 L1.39285 0.41206 z"/>
<path d="M1.39285 0.60715 L1.39285 0.41206 L1.5 0.5 z"/>
<path d="M1.5 1.5 L1.58794 1.39285 L1.69134 1.46194 z"/>
<path d="M1.5 1.5 L1.69134 1.46194 L1.58794 1.58794 z"/>
<path d="M0.80866 1.96194 L1 1.98079 L1 2 z"/>
<path d="M0.80866 1.96194 L1 2 L0.80491 1.98079 z"/>
<path d="M0.86205 1.69352 L1 1.70711 L1 1.83147 z"/>
<path d="M0.86205 1.69352 L1 1.83147 L0.83779 1.81549 z"/>
<path d="M0.29289 1.70711 L0.30648 1.69352 L0.4551 1.81549 z"/>
<path d="M0.29289 1.70711 L0.4551 1.81549 L0.44443 1.83147 z"/>
<path d="M0.29289 1.70711 L0.16853 1.55557 L0.18451 1.5449 z"/>
<path d="M0.29289 1.70711 L0.18451 1.5449 L0.30648 1.69352 z"/>
<path d="M0.4551 1.81549 L0.30648 1.69352 L0.29289 1.70711 z"/>
<path d="M0.4551 1.81549 L0.29289 1.70711 L0.44443 1.83147 z"/>
<path d="M0.61732 1.92388 L0.62467 1.90613 L0.4551 1.81549 z"/>
<path d="M0.61732 1.92388 L0.4551 1.81549 L0.44443 1.83147 z"/>
<path d="M0.61732 1.92388 L0.44443 1.83147 L0.4551 1.81549 z"/>
<path d="M0.61732 1.92388 L0.4551 1.81549 L0.62467 1.90613 z"/>
<path d="M0.61732 1.92388 L0.62467 1.90613 L0.80866 1.96194 z"/>
<path d="M0.61732 1.92388 L0.80866 1.96194 L0.80491 1.98079 z"/>
<path d="M0.61732 1.92388 L0.80491 1.98079 L0.80866 1.96194 z"/>
<path d="M0.61732 1.92388 L0.80866 1.96194 L0.62467 1.90613 z"/>
<path d="M0.64645 1.85355 L0.68181 1.76818 L0.53806 1.69134 z"/>
<path d="M0.64645 1.85355 L0.53806 1.69134 L0.48672 1.76818 z"/>
<path d="M0.64645 1.85355 L0.48672 1.76818 L0.4551 1.81549 z"/>
<path d="M0.64645 1.85355 L0.4551 1.81549 L0.62467 1.90613 z"/>
<path d="M0.68181 1.76818 L0.64645 1.85355 L0.48672 1.76818 z"/>
<path d="M0.68181 1.76818 L0.48672 1.76818 L0.53806 1.69134 z"/>
<path d="M0.68181 1.76818 L0.7294 1.65328 L0.86205 1.69352 z"/>
<path d="M0.68181 1.76818 L0.86205 1.69352 L0.83779 1.81549 z"/>
<path d="M1.18024 1.90613 L1.35355 1.85355 L1.37533 1.90613 z"/>
<path d="M1.18024 1.90613 L1.37533 1.90613 L1.19134 1.96194 z"/>
<path d="M1.18024 1.90613 L1.19134 1.96194 L1 1.98079 z"/>
<path d="M1.18024 1.90613 L1 1.98079 L1 1.92388 z"/>
<path d="M1.46194 1.69134 L1.51328 1.76818 L1.35355 1.85355 z"/>
<path d="M1.46194 1.69134 L1.35355 1.85355 L1.31819 1.76818 z"/>
<path d="M1.46194 1.69134 L1.31819 1.76818 L1.2706 1.65328 z"/>
<path d="M1.46194 1.69134 L1.2706 1.65328 L1.39285 1.58794 z"/>
<path d="M1.46194 1.69134 L1.39285 1.58794 L1.5 1.5 z"/>
<path d="M1.46194 1.69134 L1.5 1.5 L1.58794 1.58794 z"/>
<path d="M1.18024 0.92534 L1.16221 0.89161 L1.31819 0.78739 z"/>
<path d="M1.18024 0.92534 L1.31819 0.78739 L1.35355 0.85355 z"/>
<path d="M1.18024 0.92534 L1 1 L1.16221 0.89161 z"/>
<path d="M1.18024 1.07466 L1.16221 1.10839 L1 1 z"/>
<path d="M1.30866 1.46194 L1.21261 1.51328 L1.14645 1.35355 z"/>
<path d="M1.30866 1.46194 L1.14645 1.35355 L1.21261 1.31819 z"/>
<path d="M1.30866 1.46194 L1.39285 1.39285 L1.5 1.5 z"/>
<path d="M1.30866 1.46194 L1.5 1.5 L1.39285 1.58794 z"/>
<path d="M1.30866 1.46194 L1.39285 1.58794 L1.2706 1.65328 z"/>
<path d="M1.30866 1.46194 L1.2706 1.65328 L1.21261 1.51328 z"/>
<path d="M1.31819 1.21261 L1.16221 1.10839 L1.18024 1.07466 z"/>
<path d="M1.31819 1.21261 L1.18024 1.07466 L1.35355 1.14645 z"/>
<path d="M0.4551 1.10839 L0.62467 1.07466 L0.64645 1.14645 z"/>
<path d="M0.4551 1.10839 L0.64645 1.14645 L0.48672 1.21261 z"/>
<path d="M0.30866 1.46194 L0.41206 1.58794 L0.34672 1.65328 z"/>
<path d="M0.30866 1.46194 L0.34672 1.65328 L0.23182 1.51328 z"/>
<path d="M0.5 1.5 L0.41206 1.58794 L0.30866 1.46194 z"/>
<path d="M0.5 1.5 L0.30866 1.46194 L0.41206 1.39285 z"/>
<path d="M0.53806 1.30866 L0.48672 1.21261 L0.64645 1.14645 z"/>
<path d="M0.53806 1.30866 L0.64645 1.14645 L0.68181 1.21261 z"/>
<path d="M0.53806 1.30866 L0.68181 1.21261 L0.7294 1.2706 z"/>
<path d="M0.53806 1.30866 L0.7294 1.2706 L0.60715 1.39285 z"/>
<path d="M0.53806 1.30866 L0.60715 1.39285 L0.5 1.5 z"/>
<path d="M0.53806 1.30866 L0.5 1.5 L0.41206 1.39285 z"/>
<path d="M0.53806 1.30866 L0.41206 1.39285 L0.34672 1.2706 z"/>
<path d="M0.53806 1.30866 L0.34672 1.2706 L0.48672 1.21261 z"/>
<path d="M1.69352 0.86205 L1.65328 0.7294 L1.76818 0.68181 z"/>
<path d="M1.69352 0.86205 L1.76818 0.68181 L1.81549 0.83779 z"/>
<path d="M1.76818 1.31819 L1.69134 1.46194 L1.58794 1.39285 z"/>
<path d="M1.76818 1.31819 L1.58794 1.39285 L1.65328 1.2706 z"/>
<path d="M1.96194 1.19134 L1.98079 1 L2 1 z"/>
<path d="M1.96194 1.19134 L2 1 L1.98079 1.19509 z"/>
<path d="M1.76818 0.48672 L1.85355 0.64645 L1.76818 0.68181 z"/>
<path d="M1.76818 0.48672 L1.76818 0.68181 L1.69134 0.53806 z"/>
<path d="M1.76818 0.48672 L1.69134 0.53806 L1.58794 0.41206 z"/>
<path d="M1.76818 0.48672 L1.58794 0.41206 L1.65328 0.34672 z"/>
<path d="M1.76818 0.48672 L1.65328 0.34672 L1.69352 0.30648 z"/>
<path d="M1.76818 0.48672 L1.69352 0.30648 L1.81549 0.4551 z"/>
<path d="M1.76818 0.48672 L1.81549 0.4551 L1.90613 0.62467 z"/>
<path d="M1.76818 0.48672 L1.90613 0.62467 L1.85355 0.64645 z"/>
<path d="M1.92388 1.38268 L1.98079 1.19509 L1.96194 1.19134 z"/>
<path d="M1.92388 1.38268 L1.96194 1.19134 L1.90613 1.37533 z"/>
<path d="M1.69352 1.69352 L1.5449 1.81549 L1.55557 1.83147 z"/>
<path d="M1.69352 1.69352 L1.55557 1.83147 L1.70711 1.70711 z"/>
<path d="M1.5 1.5 L1.39285 1.39285 L1.30866 1.46194 z"/>
<path d="M1.5 1.5 L1.30866 1.46194 L1.39285 1.58794 z"/>
<path d="M1.5 1.5 L1.39285 1.58794 L1.46194 1.69134 z"/>
<path d="M1.5 1.5 L1.46194 1.69134 L1.58794 1.58794 z"/>
<path d="M1.76818 1.51328 L1.69134 1.46194 L1.58794 1.58794 z"/>
<path d="M1.76818 1.51328 L1.58794 1.58794 L1.65328 1.65328 z"/>
<path d="M1.76818 1.51328 L1.65328 1.65328 L1.69352 1.69352 z"/>
<path d="M1.76818 1.51328 L1.69352 1.69352 L1.81549 1.5449 z"/>
<path d="M1.76818 1.51328 L1.81549 1.5449 L1.90613 1.37533 z"/>
<path d="M1.76818 1.51328 L1.90613 1.37533 L1.85355 1.35355 z"/>
<path d="M1.76818 1.31819 L1.69134 1.46194 L1.76818 1.51328 z"/>
<path d="M1.76818 1.31819 L1.76818 1.51328 L1.85355 1.35355 z"/>
<path d="M1.69352 0.30648 L1.81549 0.4551 L1.83147 0.44443 z"/>
<path d="M1.69352 0.30648 L1.83147 0.44443 L1.70711 0.29289 z"/>
<path d="M1.69352 0.30648 L1.70711 0.29289 L1.55557 0.16853 z"/>
<path d="M1.69352 0.30648 L1.55557 0.16853 L1.5449 0.18451 z"/>
<path d="M1.90613 0.62467 L1.96194 0.80866 L1.98079 0.80491 z"/>
<path d="M1.90613 0.62467 L1.98079 0.80491 L1.92388 0.61732 z"/>
<path d="M1.90613 0.62467 L1.92388 0.61732 L1.83147 0.44443 z"/>
<path d="M1.90613 0.62467 L1.83147 0.44443 L1.81549 0.4551 z"/>
<path d="M0.48672 0.23182 L0.34672 0.34672 L0.30648 0.30648 z"/>
<path d="M0.48672 0.23182 L0.30648 0.30648 L0.4551 0.18451 z"/>
<path d="M0.48672 0.23182 L0.4551 0.18451 L0.62467 0.09387 z"/>
<path d="M0.48672 0.23182 L0.62467 0.09387 L0.64645 0.14645 z"/>
<path d="M1.19134 0.03806 L1.37533 0.09387 L1.38268 0.07612 z"/>
<path d="M1.19134 0.03806 L1.38268 0.07612 L1.19509 0.01921 z"/>
<path d="M1.19134 0.03806 L1.19509 0.01921 L1 0 z"/>
<path d="M1.19134 0.03806 L1 0 L1 0.01921 z"/>
<path d="M1.76818 0.48672 L1.85355 0.64645 L1.90613 0.62467 z"/>
<path d="M1.76818 0.48672 L1.90613 0.62467 L1.81549 0.4551 z"/>
<path d="M1.76818 0.48672 L1.81549 0.4551 L1.69352 0.30648 z"/>
<path d="M1.76818 0.48672 L1.69352 0.30648 L1.65328 0.34672 z"/>
<path d="M1.76818 0.48672 L1.69134 0.53806 L1.76818 0.68181 z"/>
<path d="M1.76818 0.48672 L1.76818 0.68181 L1.85355 0.64645 z"/>
<path d="M0.81976 0.09387 L0.64645 0.14645 L0.68181 0.23182 z"/>
<path d="M0.81976 0.09387 L0.68181 0.23182 L0.83779 0.18451 z"/>
<path d="M0.81976 0.09387 L1 0.07612 L1 0.01921 z"/>
<path d="M0.81976 0.09387 L1 0.01921 L0.80866 0.03806 z"/>
<path d="M0.81976 0.09387 L0.80866 0.03806 L0.62467 0.09387 z"/>
<path d="M0.81976 0.09387 L0.62467 0.09387 L0.64645 0.14645 z"/>
<path d="M1.18024 0.09387 L1.35355 0.14645 L1.37533 0.09387 z"/>
<path d="M1.18024 0.09387 L1.37533 0.09387 L1.19134 0.03806 z"/>
<path d="M1.18024 0.09387 L1.19134 0.03806 L1 0.01921 z"/>
<path d="M1.18024 0.09387 L1 0.01921 L1 0.07612 z"/>
<path d="M1 0.16853 L1.16221 0.18451 L1.18024 0.09387 z"/>
<path d="M1 0.16853 L1.18024 0.09387 L1 0.07612 z"/>
<path d="M1 0.16853 L1 0.07612 L0.81976 0.09387 z"/>
<path d="M1 0.16853 L0.81976 0.09387 L0.83779 0.18451 z"/>
<path d="M0.60715 0.60715 L0.7294 0.7294 L0.68181 0.78739 z"/>
<path d="M0.60715 0.60715 L0.68181 0.78739 L0.53806 0.69134 z"/>
<path d="M0.60715 0.60715 L0.53806 0.69134 L0.41206 0.60715 z"/>
<path d="M0.60715 0.60715 L0.41206 0.60715 L0.5 0.5 z"/>
<path d="M0.34672 0.7294 L0.23182 0.68181 L0.30866 0.53806 z"/>
<path d="M0.34672 0.7294 L0.30866 0.53806 L0.41206 0.60715 z"/>
<path d="M0.18451 0.83779 L0.23182 0.68181 L0.34672 0.7294 z"/>
<path d="M0.18451 0.83779 L0.34672 0.7294 L0.30648 0.86205 z"/>
<path d="M0.18451 0.83779 L0.16853 1 L0.07612 1 z"/>
<path d="M0.18451 0.83779 L0.07612 1 L0.09387 0.81976 z"/>
<path d="M0.18451 0.83779 L0.09387 0.81976 L0.14645 0.64645 z"/>
<path d="M0.18451 0.83779 L0.14645 0.64645 L0.23182 0.68181 z"/>
<path d="M0.92534 0.81976 L0.96194 0.80866 L1 1 z"/>
<path d="M0.92534 0.62467 L0.96194 0.80866 L0.92534 0.81976 z"/>
<path d="M0.92534 0.62467 L0.92534 0.81976 L0.85355 0.64645 z"/>
<path d="M0.92534 0.62467 L0.85355 0.64645 L0.78739 0.48672 z"/>
<path d="M0.92534 0.62467 L0.78739 0.48672 L0.89161 0.4551 z"/>
<path d="M1.21261 0.68181 L1.14645 0.64645 L1.21261 0.48672 z"/>
<path d="M1.21261 0.68181 L1.21261 0.48672 L1.30866 0.53806 z"/>
<path d="M1.21261 0.68181 L1.30866 0.53806 L1.39285 0.60715 z"/>
<path d="M1.21261 0.68181 L1.39285 0.60715 L1.2706 0.7294 z"/>
<path d="M1.21261 0.68181 L1.2706 0.7294 L1.13795 0.86205 z"/>
<path d="M1.21261 0.68181 L1.13795 0.86205 L1.10839 0.83779 z"/>
<path d="M0.53806 0.30866 L0.68181 0.23182 L0.7294 0.34672 z"/>
<path d="M0.53806 0.30866 L0.7294 0.34672 L0.60715 0.41206 z"/>
<path d="M0.53806 0.30866 L0.60715 0.41206 L0.5 0.5 z"/>
<path d="M0.53806 0.30866 L0.5 0.5 L0.41206 0.41206 z"/>
<path d="M0.53806 0.30866 L0.41206 0.41206 L0.34672 0.34672 z"/>
<path d="M0.53806 0.30866 L0.34672 0.34672 L0.48672 0.23182 z"/>
<path d="M0.53806 0.30866 L0.48672 0.23182 L0.64645 0.14645 z"/>
<path d="M0.53806 0.30866 L0.64645 0.14645 L0.68181 0.23182 z"/>
<path d="M0.18451 1.16221 L0.09387 1.18024 L0.07612 1 z"/>
<path d="M0.18451 1.16221 L0.07612 1 L0.16853 1 z"/>
<path d="M1 0.29289 L0.86205 0.30648 L0.83779 0.18451 z"/>
<path d="M1 0.29289 L0.83779 0.18451 L1 0.16853 z"/>
<path d="M1 0.29289 L1 0.16853 L1.16221 0.18451 z"/>
<path d="M1 0.29289 L1.16221 0.18451 L1.13795 0.30648 z"/>
<path d="M1 0.29289 L1.13795 0.30648 L1.10839 0.4551 z"/>
<path d="M1 0.29289 L1.10839 0.4551 L1 0.44443 z"/>
<path d="M1 0.29289 L1 0.44443 L0.89161 0.4551 z"/>
<path d="M1 0.29289 L0.89161 0.4551 L0.86205 0.30648 z"/>
<path d="M0.07612 1.38268 L0.09387 1.37533 L0.03806 1.19134 z"/>
<path d="M0.07612 1.38268 L0.03806 1.19134 L0.01921 1.19509 z"/>
<path d="M0.07612 1.38268 L0.01921 1.19509 L0.03806 1.19134 z"/>
<path d="M0.07612 1.38268 L0.03806 1.19134 L0.09387 1.37533 z"/>
<path d="M0.07612 1.38268 L0.09387 1.37533 L0.18451 1.5449 z"/>
<path d="M0.07612 1.38268 L0.18451 1.5449 L0.16853 1.55557 z"/>
<path d="M0.18451 1.5449 L0.23182 1.51328 L0.14645 1.35355 z"/>
<path d="M0.18451 1.5449 L0.14645 1.35355 L0.09387 1.37533 z"/>
<path d="M0.18451 1.5449 L0.09387 1.37533 L0.07612 1.38268 z"/>
<path d="M0.18451 1.5449 L0.07612 1.38268 L0.16853 1.55557 z"/>
<path d="M0.18451 1.5449 L0.16853 1.55557 L0.29289 1.70711 z"/>
<path d="M0.18451 1.5449 L0.29289 1.70711 L0.30648 1.69352 z"/>
<path d="M0.34672 1.65328 L0.48672 1.76818 L0.53806 1.69134 z"/>
<path d="M0.34672 1.65328 L0.53806 1.69134 L0.41206 1.58794 z"/>
<path d="M0.34672 1.65328 L0.41206 1.58794 L0.30866 1.46194 z"/>
<path d="M0.34672 1.65328 L0.30866 1.46194 L0.23182 1.51328 z"/>
<path d="M0.34672 1.65328 L0.23182 1.51328 L0.18451 1.5449 z"/>
<path d="M0.34672 1.65328 L0.18451 1.5449 L0.30648 1.69352 z"/>
<path d="M0.34672 1.65328 L0.30648 1.69352 L0.4551 1.81549 z"/>
<path d="M0.34672 1.65328 L0.4551 1.81549 L0.48672 1.76818 z"/>
<path d="M0.23182 0.68181 L0.34672 0.7294 L0.41206 0.60715 z"/>
<path d="M0.23182 0.68181 L0.41206 0.60715 L0.30866 0.53806 z"/>
<path d="M0.23182 0.68181 L0.30866 0.53806 L0.23182 0.48672 z"/>
<path d="M0.23182 0.68181 L0.23182 0.48672 L0.14645 0.64645 z"/>
<path d="M0.34672 1.2706 L0.23182 1.31819 L0.30866 1.46194 z"/>
<path d="M0.34672 1.2706 L0.30866 1.46194 L0.41206 1.39285 z"/>
<path d="M0.34672 1.2706 L0.41206 1.39285 L0.53806 1.30866 z"/>
<path d="M0.34672 1.2706 L0.53806 1.30866 L0.48672 1.21261 z"/>
<path d="M0.01921 1 L0 1 L0.01921 1.19509 z"/>
<path d="M0.01921 1 L0.01921 1.19509 L0.03806 1.19134 z"/>
<path d="M0.09387 1.18024 L0.07612 1 L0.01921 1 z"/>
<path d="M0.09387 1.18024 L0.01921 1 L0.03806 1.19134 z"/>
<path d="M0.09387 1.18024 L0.03806 1.19134 L0.09387 1.37533 z"/>
<path d="M0.09387 1.18024 L0.09387 1.37533 L0.14645 1.35355 z"/>
<path d="M0.81976 0.92534 L0.80866 0.96194 L1 1 z"/>
<path d="M0.80491 1 L1 1 L0.80866 0.96194 z"/>
<path d="M0.5 0.5 L0.41206 0.41206 L0.30866 0.53806 z"/>
<path d="M0.5 0.5 L0.30866 0.53806 L0.41206 0.60715 z"/>
<path d="M0.53806 0.30866 L0.41206 0.41206 L0.5 0.5 z"/>
<path d="M0.53806 0.30866 L0.5 0.5 L0.60715 0.41206 z"/>
<path d="M0.53806 0.30866 L0.60715 0.41206 L0.7294 0.34672 z"/>
<path d="M0.53806 0.30866 L0.7294 0.34672 L0.68181 0.23182 z"/>
<path d="M0.53806 0.30866 L0.68181 0.23182 L0.64645 0.14645 z"/>
<path d="M0.53806 0.30866 L0.64645 0.14645 L0.48672 0.23182 z"/>
<path d="M0.53806 0.30866 L0.48672 0.23182 L0.34672 0.34672 z"/>
<path d="M0.53806 0.30866 L0.34672 0.34672 L0.41206 0.41206 z"/>
<path d="M1.10839 1.16221 L1.21261 1.31819 L1.2706 1.2706 z"/>
<path d="M1.10839 1.16221 L1.2706 1.2706 L1.13795 1.13795 z"/>
<path d="M1.10839 1.16221 L1.13795 1.13795 L1 1 z"/>
<path d="M1.07466 0.81976 L1.03806 0.80866 L1 1 z"/>
<path d="M0.96194 1.19134 L1 1.19509 L1 1 z"/>
<path d="M0.86205 1.13795 L0.89161 1.16221 L1 1 z"/>
<path d="M1.35355 1.85355 L1.31819 1.76818 L1.16221 1.81549 z"/>
<path d="M1.35355 1.85355 L1.16221 1.81549 L1.18024 1.90613 z"/>
<path d="M1.35355 1.85355 L1.18024 1.90613 L1.19134 1.96194 z"/>
<path d="M1.35355 1.85355 L1.19134 1.96194 L1.37533 1.90613 z"/>
<path d="M0.4551 0.89161 L0.48672 0.78739 L0.34672 0.7294 z"/>
<path d="M0.4551 0.89161 L0.34672 0.7294 L0.30648 0.86205 z"/>
<path d="M0.4551 0.89161 L0.30648 0.86205 L0.29289 1 z"/>
<path d="M0.4551 0.89161 L0.29289 1 L0.44443 1 z"/>
<path d="M0.69134 1.46194 L0.60715 1.58794 L0.7294 1.65328 z"/>
<path d="M0.69134 1.46194 L0.7294 1.65328 L0.78739 1.51328 z"/>
<path d="M0.69134 1.46194 L0.60715 1.39285 L0.5 1.5 z"/>
<path d="M0.69134 1.46194 L0.5 1.5 L0.60715 1.58794 z"/>
<path d="M1.2706 1.65328 L1.39285 1.58794 L1.30866 1.46194 z"/>
<path d="M1.2706 1.65328 L1.30866 1.46194 L1.21261 1.51328 z"/>
<path d="M1.2706 1.65328 L1.13795 1.69352 L1.16221 1.81549 z"/>
<path d="M1.2706 1.65328 L1.16221 1.81549 L1.31819 1.76818 z"/>
<path d="M1.2706 1.65328 L1.31819 1.76818 L1.46194 1.69134 z"/>
<path d="M1.2706 1.65328 L1.46194 1.69134 L1.39285 1.58794 z"/>
<path d="M1.46194 1.30866 L1.31819 1.21261 L1.35355 1.14645 z"/>
<path d="M1.46194 1.30866 L1.35355 1.14645 L1.51328 1.21261 z"/>
<path d="M1.46194 1.30866 L1.51328 1.21261 L1.65328 1.2706 z"/>
<path d="M1.46194 1.30866 L1.65328 1.2706 L1.58794 1.39285 z"/>
<path d="M1.46194 1.30866 L1.58794 1.39285 L1.5 1.5 z"/>
<path d="M1.46194 1.30866 L1.5 1.5 L1.39285 1.39285 z"/>
<path d="M0.81976 1.90613 L1 1.92388 L1 1.98079 z"/>
<path d="M0.81976 1.90613 L1 1.98079 L0.80866 1.96194 z"/>
<path d="M0.81976 1.90613 L0.80866 1.96194 L0.62467 1.90613 z"/>
<path d="M0.81976 1.90613 L0.62467 1.90613 L0.64645 1.85355 z"/>
<path d="M0.81976 1.90613 L0.64645 1.85355 L0.68181 1.76818 z"/>
<path d="M0.81976 1.90613 L0.68181 1.76818 L0.83779 1.81549 z"/>
<path d="M0.81976 1.90613 L0.83779 1.81549 L1 1.83147 z"/>
<path d="M0.81976 1.90613 L1 1.83147 L1 1.92388 z"/>
<path d="M0.89161 1.5449 L1 1.55557 L1 1.70711 z"/>
<path d="M0.89161 1.5449 L1 1.70711 L0.86205 1.69352 z"/>
<path d="M0.89161 1.5449 L0.86205 1.69352 L0.7294 1.65328 z"/>
<path d="M0.89161 1.5449 L0.7294 1.65328 L0.78739 1.51328 z"/>
<path d="M0.81976 1.90613 L0.64645 1.85355 L0.62467 1.90613 z"/>
<path d="M0.81976 1.90613 L0.62467 1.90613 L0.80866 1.96194 z"/>
<path d="M0.81976 1.90613 L0.80866 1.96194 L1 1.98079 z"/>
<path d="M0.81976 1.90613 L1 1.98079 L1 1.92388 z"/>
<path d="M1.16221 1.81549 L1.31819 1.76818 L1.35355 1.85355 z"/>
<path d="M1.16221 1.81549 L1.35355 1.85355 L1.18024 1.90613 z"/>
<path d="M1.16221 1.81549 L1.18024 1.90613 L1 1.92388 z"/>
<path d="M1.16221 1.81549 L1 1.92388 L1 1.83147 z"/>
<path d="M1.16221 1.81549 L1 1.83147 L1 1.70711 z"/>
<path d="M1.16221 1.81549 L1 1.70711 L1.13795 1.69352 z"/>
<path d="M1.16221 1.81549 L1.13795 1.69352 L1.2706 1.65328 z"/>
<path d="M1.16221 1.81549 L1.2706 1.65328 L1.31819 1.76818 z"/>
<path d="M1.65328 1.65328 L1.51328 1.76818 L1.46194 1.69134 z"/>
<path d="M1.65328 1.65328 L1.46194 1.69134 L1.58794 1.58794 z"/>
<path d="M1.10839 1.5449 L1.21261 1.51328 L1.2706 1.65328 z"/>
<path d="M1.10839 1.5449 L1.2706 1.65328 L1.13795 1.69352 z"/>
<path d="M1.10839 1.5449 L1.13795 1.69352 L1 1.70711 z"/>
<path d="M1.10839 1.5449 L1 1.70711 L1 1.55557 z"/>
<path d="M1.10839 1.5449 L1 1.55557 L1 1.38268 z"/>
<path d="M1.10839 1.5449 L1 1.38268 L1.07466 1.37533 z"/>
<path d="M1.10839 1.5449 L1.07466 1.37533 L1.14645 1.35355 z"/>
<path d="M1.10839 1.5449 L1.14645 1.35355 L1.21261 1.51328 z"/>
<path d="M1.19134 0.96194 L1.19509 1 L1 1 z"/>
<path d="M1.19134 0.96194 L1 1 L1.18024 0.92534 z"/>
<path d="M1.19134 0.96194 L1.18024 0.92534 L1.35355 0.85355 z"/>
<path d="M1.19134 0.96194 L1.35355 0.85355 L1.37533 0.92534 z"/>
<path d="M1.19134 0.96194 L1.37533 0.92534 L1.38268 1 z"/>
<path d="M1.19134 0.96194 L1.38268 1 L1.19509 1 z"/>
<path d="M1.19134 1.03806 L1.18024 1.07466 L1 1 z"/>
<path d="M1.19134 1.03806 L1 1 L1.19509 1 z"/>
<path d="M1.5449 1.10839 L1.69352 1.13795 L1.65328 1.2706 z"/>
<path d="M1.5449 1.10839 L1.65328 1.2706 L1.51328 1.21261 z"/>
<path d="M1.2706 1.2706 L1.31819 1.21261 L1.46194 1.30866 z"/>
<path d="M1.2706 1.2706 L1.46194 1.30866 L1.39285 1.39285 z"/>
<path d="M1.2706 1.2706 L1.39285 1.39285 L1.30866 1.46194 z"/>
<path d="M1.2706 1.2706 L1.30866 1.46194 L1.21261 1.31819 z"/>
<path d="M1.03806 1.19134 L1 1 L1.07466 1.18024 z"/>
<path d="M1.03806 1.19134 L1.07466 1.18024 L1.14645 1.35355 z"/>
<path d="M1.03806 1.19134 L1.14645 1.35355 L1.07466 1.37533 z"/>
<path d="M0.61732 1 L0.62467 1.07466 L0.4551 1.10839 z"/>
<path d="M0.61732 1 L0.4551 1.10839 L0.44443 1 z"/>
<path d="M0.60715 1.58794 L0.5 1.5 L0.60715 1.39285 z"/>
<path d="M0.60715 1.58794 L0.60715 1.39285 L0.69134 1.46194 z"/>
<path d="M0.60715 1.58794 L0.69134 1.46194 L0.78739 1.51328 z"/>
<path d="M0.60715 1.58794 L0.78739 1.51328 L0.7294 1.65328 z"/>
<path d="M0.60715 1.58794 L0.7294 1.65328 L0.68181 1.76818 z"/>
<path d="M0.60715 1.58794 L0.68181 1.76818 L0.53806 1.69134 z"/>
<path d="M0.60715 1.58794 L0.53806 1.69134 L0.41206 1.58794 z"/>
<path d="M0.60715 1.58794 L0.41206 1.58794 L0.5 1.5 z"/>
<path d="M1.70711 1 L1.69352 1.13795 L1.5449 1.10839 z"/>
<path d="M1.70711 1 L1.5449 1.10839 L1.55557 1 z"/>
<path d="M1.70711 1 L1.69352 0.86205 L1.81549 0.83779 z"/>
<path d="M1.70711 1 L1.81549 0.83779 L1.83147 1 z"/>
<path d="M1.81549 1.16221 L1.76818 1.31819 L1.65328 1.2706 z"/>
<path d="M1.81549 1.16221 L1.65328 1.2706 L1.69352 1.13795 z"/>
<path d="M1.81549 1.16221 L1.69352 1.13795 L1.70711 1 z"/>
<path d="M1.81549 1.16221 L1.70711 1 L1.83147 1 z"/>
<path d="M1.83147 1.55557 L1.92388 1.38268 L1.90613 1.37533 z"/>
<path d="M1.83147 1.55557 L1.90613 1.37533 L1.81549 1.5449 z"/>
<path d="M1.83147 1.55557 L1.81549 1.5449 L1.69352 1.69352 z"/>
<path d="M1.83147 1.55557 L1.69352 1.69352 L1.70711 1.70711 z"/>
<path d="M1.58794 1.39285 L1.65328 1.2706 L1.51328 1.21261 z"/>
<path d="M1.58794 1.39285 L1.51328 1.21261 L1.46194 1.30866 z"/>
<path d="M1.58794 1.39285 L1.46194 1.30866 L1.39285 1.39285 z"/>
<path d="M1.58794 1.39285 L1.39285 1.39285 L1.5 1.5 z"/>
<path d="M1.58794 1.39285 L1.5 1.5 L1.58794 1.58794 z"/>
<path d="M1.58794 1.39285 L1.58794 1.58794 L1.69134 1.46194 z"/>
<path d="M1.58794 1.39285 L1.69134 1.46194 L1.76818 1.31819 z"/>
<path d="M1.58794 1.39285 L1.76818 1.31819 L1.65328 1.2706 z"/>
<path d="M1.81549 1.16221 L1.69352 1.13795 L1.65328 1.2706 z"/>
<path d="M1.81549 1.16221 L1.65328 1.2706 L1.76818 1.31819 z"/>
<path d="M1.81549 1.16221 L1.76818 1.31819 L1.85355 1.35355 z"/>
<path d="M1.81549 1.16221 L1.85355 1.35355 L1.90613 1.18024 z"/>
<path d="M1.81549 1.16221 L1.90613 1.18024 L1.92388 1 z"/>
<path d="M1.81549 1.16221 L1.92388 1 L1.83147 1 z"/>
<path d="M1.90613 0.81976 L1.92388 1 L1.98079 1 z"/>
<path d="M1.90613 0.81976 L1.98079 1 L1.96194 0.80866 z"/>
<path d="M1.90613 0.81976 L1.96194 0.80866 L1.90613 0.62467 z"/>
<path d="M1.90613 0.81976 L1.90613 0.62467 L1.85355 0.64645 z"/>
<path d="M1.13795 0.30648 L1.16221 0.18451 L1 0.16853 z"/>
<path d="M1.13795 0.30648 L1 0.16853 L1 0.29289 z"/>
<path d="M0.69134 0.53806 L0.78739 0.68181 L0.7294 0.7294 z"/>
<path d="M0.69134 0.53806 L0.7294 0.7294 L0.60715 0.60715 z"/>
<path d="M0.69134 0.53806 L0.60715 0.60715 L0.5 0.5 z"/>
<path d="M0.69134 0.53806 L0.5 0.5 L0.60715 0.41206 z"/>
<path d="M0.69134 0.53806 L0.60715 0.41206 L0.7294 0.34672 z"/>
<path d="M0.69134 0.53806 L0.7294 0.34672 L0.78739 0.48672 z"/>
<path d="M0.69134 0.53806 L0.78739 0.48672 L0.85355 0.64645 z"/>
<path d="M0.69134 0.53806 L0.85355 0.64645 L0.78739 0.68181 z"/>
<path d="M0.48672 0.78739 L0.34672 0.7294 L0.41206 0.60715 z"/>
<path d="M0.48672 0.78739 L0.41206 0.60715 L0.53806 0.69134 z"/>
<path d="M0.48672 0.78739 L0.53806 0.69134 L0.68181 0.78739 z"/>
<path d="M0.48672 0.78739 L0.68181 0.78739 L0.64645 0.85355 z"/>
<path d="M0.89161 0.83779 L0.78739 0.68181 L0.85355 0.64645 z"/>
<path d="M0.89161 0.83779 L0.85355 0.64645 L0.92534 0.81976 z"/>
<path d="M0.89161 0.83779 L0.92534 0.81976 L1 1 z"/>
<path d="M0.89161 0.83779 L1 1 L0.86205 0.86205 z"/>
<path d="M0.89161 0.83779 L0.86205 0.86205 L0.7294 0.7294 z"/>
<path d="M0.89161 0.83779 L0.7294 0.7294 L0.78739 0.68181 z"/>
<path d="M1 0.61732 L0.92534 0.62467 L0.89161 0.4551 z"/>
<path d="M1 0.61732 L0.89161 0.4551 L1 0.44443 z"/>
<path d="M1 0.61732 L1 0.44443 L1.10839 0.4551 z"/>
<path d="M1 0.61732 L1.10839 0.4551 L1.07466 0.62467 z"/>
<path d="M1.07466 0.81976 L1 1 L1.03806 0.80866 z"/>
<path d="M1.07466 0.81976 L1.03806 0.80866 L1.07466 0.62467 z"/>
<path d="M1.07466 0.81976 L1.07466 0.62467 L1.14645 0.64645 z"/>
<path d="M1.07466 0.81976 L1.14645 0.64645 L1.21261 0.68181 z"/>
<path d="M1.07466 0.81976 L1.21261 0.68181 L1.10839 0.83779 z"/>
<path d="M1.07466 0.81976 L1.10839 0.83779 L1 1 z"/>
<path d="M1 0.80491 L0.96194 0.80866 L0.92534 0.62467 z"/>
<path d="M1 0.80491 L0.92534 0.62467 L1 0.61732 z"/>
<path d="M1 0.80491 L1 0.61732 L1.07466 0.62467 z"/>
<path d="M1 0.80491 L1.07466 0.62467 L1.03806 0.80866 z"/>
<path d="M1 0.80491 L1.03806 0.80866 L1 1 z"/>
<path d="M1 0.80491 L1 1 L0.96194 0.80866 z"/>
<path d="M0.30648 1.13795 L0.4551 1.10839 L0.48672 1.21261 z"/>
<path d="M0.30648 1.13795 L0.48672 1.21261 L0.34672 1.2706 z"/>
<path d="M0.23182 1.31819 L0.30866 1.46194 L0.23182 1.51328 z"/>
<path d="M0.23182 1.31819 L0.23182 1.51328 L0.14645 1.35355 z"/>
<path d="M0.23182 1.31819 L0.14645 1.35355 L0.09387 1.18024 z"/>
<path d="M0.23182 1.31819 L0.09387 1.18024 L0.18451 1.16221 z"/>
<path d="M0.23182 1.31819 L0.18451 1.16221 L0.30648 1.13795 z"/>
<path d="M0.23182 1.31819 L0.30648 1.13795 L0.34672 1.2706 z"/>
<path d="M0.23182 1.31819 L0.34672 1.2706 L0.41206 1.39285 z"/>
<path d="M0.23182 1.31819 L0.41206 1.39285 L0.30866 1.46194 z"/>
<path d="M0.30648 1.13795 L0.34672 1.2706 L0.48672 1.21261 z"/>
<path d="M0.30648 1.13795 L0.48672 1.21261 L0.4551 1.10839 z"/>
<path d="M0.30648 1.13795 L0.4551 1.10839 L0.44443 1 z"/>
<path d="M0.30648 1.13795 L0.44443 1 L0.29289 1 z"/>
<path d="M0.18451 1.16221 L0.16853 1 L0.07612 1 z"/>
<path d="M0.18451 1.16221 L0.07612 1 L0.09387 1.18024 z"/>
<path d="M0.18451 1.16221 L0.09387 1.18024 L0.14645 1.35355 z"/>
<path d="M0.18451 1.16221 L0.14645 1.35355 L0.23182 1.31819 z"/>
<path d="M0.18451 1.16221 L0.23182 1.31819 L0.34672 1.2706 z"/>
<path d="M0.18451 1.16221 L0.34672 1.2706 L0.30648 1.13795 z"/>
<path d="M0.18451 1.16221 L0.30648 1.13795 L0.29289 1 z"/>
<path d="M0.18451 1.16221 L0.29289 1 L0.16853 1 z"/>
<path d="M1 0.80491 L0.96194 0.80866 L1 1 z"/>
<path d="M1 0.80491 L1 1 L1.03806 0.80866 z"/>
<path d="M0.89161 0.83779 L0.86205 0.86205 L1 1 z"/>
<path d="M0.64645 0.85355 L0.48672 0.78739 L0.4551 0.89161 z"/>
<path d="M0.64645 0.85355 L0.4551 0.89161 L0.62467 0.92534 z"/>
<path d="M0.64645 0.85355 L0.62467 0.92534 L0.80866 0.96194 z"/>
<path d="M0.64645 0.85355 L0.80866 0.96194 L0.81976 0.92534 z"/>
<path d="M0.83779 0.89161 L0.68181 0.78739 L0.64645 0.85355 z"/>
<path d="M0.83779 0.89161 L0.64645 0.85355 L0.81976 0.92534 z"/>
<path d="M0.83779 0.89161 L0.81976 0.92534 L1 1 z"/>
<path d="M0.83779 0.89161 L1 1 L0.86205 0.86205 z"/>
<path d="M0.69134 0.53806 L0.60715 0.41206 L0.5 0.5 z"/>
<path d="M0.69134 0.53806 L0.5 0.5 L0.60715 0.60715 z"/>
<path d="M0.69134 0.53806 L0.78739 0.68181 L0.85355 0.64645 z"/>
<path d="M0.69134 0.53806 L0.85355 0.64645 L0.78739 0.48672 z"/>
<path d="M0.69134 0.53806 L0.78739 0.48672 L0.7294 0.34672 z"/>
<path d="M0.69134 0.53806 L0.7294 0.34672 L0.60715 0.41206 z"/>
<path d="M0.53806 0.69134 L0.48672 0.78739 L0.64645 0.85355 z"/>
<path d="M0.53806 0.69134 L0.64645 0.85355 L0.68181 0.78739 z"/>
<path d="M0.53806 0.69134 L0.60715 0.60715 L0.5 0.5 z"/>
<path d="M0.53806 0.69134 L0.5 0.5 L0.41206 0.60715 z"/>
<path d="M0.53806 0.69134 L0.41206 0.60715 L0.34672 0.7294 z"/>
<path d="M0.53806 0.69134 L0.34672 0.7294 L0.48672 0.78739 z"/>
<path d="M0.7294 0.7294 L0.78739 0.68181 L0.69134 0.53806 z"/>
<path d="M0.7294 0.7294 L0.69134 0.53806 L0.60715 0.60715 z"/>
<path d="M0.7294 0.7294 L0.60715 0.60715 L0.53806 0.69134 z"/>
<path d="M0.7294 0.7294 L0.53806 0.69134 L0.68181 0.78739 z"/>
<path d="M0.7294 0.7294 L0.68181 0.78739 L0.83779 0.89161 z"/>
<path d="M0.7294 0.7294 L0.83779 0.89161 L0.86205 0.86205 z"/>
<path d="M0.7294 0.7294 L0.86205 0.86205 L0.89161 0.83779 z"/>
<path d="M0.7294 0.7294 L0.89161 0.83779 L0.78739 0.68181 z"/>
<path d="M0.86205 0.30648 L1 0.29289 L1 0.16853 z"/>
<path d="M0.86205 0.30648 L1 0.16853 L0.83779 0.18451 z"/>
<path d="M0.86205 0.30648 L0.83779 0.18451 L0.68181 0.23182 z"/>
<path d="M0.86205 0.30648 L0.68181 0.23182 L0.7294 0.34672 z"/>
<path d="M0.92534 1.18024 L0.96194 1.19134 L1 1 z"/>
<path d="M0.92534 1.18024 L1 1 L0.89161 1.16221 z"/>
<path d="M0.83779 1.10839 L0.68181 1.21261 L0.7294 1.2706 z"/>
<path d="M0.83779 1.10839 L0.7294 1.2706 L0.86205 1.13795 z"/>
<path d="M0.83779 1.10839 L0.86205 1.13795 L1 1 z"/>
<path d="M0.83779 1.10839 L1 1 L0.81976 1.07466 z"/>
<path d="M1.51328 1.76818 L1.65328 1.65328 L1.58794 1.58794 z"/>
<path d="M1.51328 1.76818 L1.58794 1.58794 L1.46194 1.69134 z"/>
<path d="M1.51328 1.76818 L1.46194 1.69134 L1.31819 1.76818 z"/>
<path d="M1.51328 1.76818 L1.31819 1.76818 L1.35355 1.85355 z"/>
<path d="M1.51328 1.76818 L1.35355 1.85355 L1.37533 1.90613 z"/>
<path d="M1.51328 1.76818 L1.37533 1.90613 L1.5449 1.81549 z"/>
<path d="M1.51328 1.76818 L1.5449 1.81549 L1.69352 1.69352 z"/>
<path d="M1.51328 1.76818 L1.69352 1.69352 L1.65328 1.65328 z"/>
<path d="M0.61732 1 L0.44443 1 L0.4551 1.10839 z"/>
<path d="M0.61732 1 L0.4551 1.10839 L0.62467 1.07466 z"/>
<path d="M0.61732 1 L0.80491 1 L0.80866 0.96194 z"/>
<path d="M0.61732 1 L0.80866 0.96194 L0.62467 0.92534 z"/>
<path d="M0.61732 1 L0.62467 0.92534 L0.4551 0.89161 z"/>
<path d="M0.61732 1 L0.4551 0.89161 L0.44443 1 z"/>
<path d="M0.80866 1.03806 L0.80491 1 L0.61732 1 z"/>
<path d="M0.80866 1.03806 L0.61732 1 L0.62467 1.07466 z"/>
<path d="M0.80866 1.03806 L0.81976 1.07466 L1 1 z"/>
<path d="M0.80866 1.03806 L1 1 L0.80491 1 z"/>
<path d="M0.64645 1.14645 L0.68181 1.21261 L0.83779 1.10839 z"/>
<path d="M0.64645 1.14645 L0.83779 1.10839 L0.81976 1.07466 z"/>
<path d="M0.64645 1.14645 L0.81976 1.07466 L0.80866 1.03806 z"/>
<path d="M0.64645 1.14645 L0.80866 1.03806 L0.62467 1.07466 z"/>
<path d="M0.64645 1.14645 L0.62467 1.07466 L0.4551 1.10839 z"/>
<path d="M0.64645 1.14645 L0.4551 1.10839 L0.48672 1.21261 z"/>
<path d="M0.64645 1.14645 L0.48672 1.21261 L0.53806 1.30866 z"/>
<path d="M0.64645 1.14645 L0.53806 1.30866 L0.68181 1.21261 z"/>
<path d="M0.78739 1.31819 L0.69134 1.46194 L0.78739 1.51328 z"/>
<path d="M0.78739 1.31819 L0.78739 1.51328 L0.85355 1.35355 z"/>
<path d="M0.78739 1.31819 L0.85355 1.35355 L0.92534 1.18024 z"/>
<path d="M0.78739 1.31819 L0.92534 1.18024 L0.89161 1.16221 z"/>
<path d="M0.78739 1.31819 L0.89161 1.16221 L0.86205 1.13795 z"/>
<path d="M0.78739 1.31819 L0.86205 1.13795 L0.7294 1.2706 z"/>
<path d="M0.78739 1.31819 L0.7294 1.2706 L0.60715 1.39285 z"/>
<path d="M0.78739 1.31819 L0.60715 1.39285 L0.69134 1.46194 z"/>
<path d="M0.92534 1.37533 L0.96194 1.19134 L0.92534 1.18024 z"/>
<path d="M0.92534 1.37533 L0.92534 1.18024 L0.85355 1.35355 z"/>
<path d="M0.92534 1.37533 L0.85355 1.35355 L0.78739 1.51328 z"/>
<path d="M0.92534 1.37533 L0.78739 1.51328 L0.89161 1.5449 z"/>
<path d="M1.10839 1.5449 L1 1.55557 L1 1.70711 z"/>
<path d="M1.10839 1.5449 L1 1.70711 L1.13795 1.69352 z"/>
<path d="M1.10839 1.5449 L1.13795 1.69352 L1.2706 1.65328 z"/>
<path d="M1.10839 1.5449 L1.2706 1.65328 L1.21261 1.51328 z"/>
<path d="M1.03806 1.19134 L1 1 L1 1.19509 z"/>
<path d="M1.46194 0.69134 L1.39285 0.60715 L1.5 0.5 z"/>
<path d="M1.46194 0.69134 L1.5 0.5 L1.58794 0.60715 z"/>
<path d="M1.46194 0.69134 L1.58794 0.60715 L1.65328 0.7294 z"/>
<path d="M1.46194 0.69134 L1.65328 0.7294 L1.51328 0.78739 z"/>
<path d="M1.46194 0.69134 L1.51328 0.78739 L1.35355 0.85355 z"/>
<path d="M1.46194 0.69134 L1.35355 0.85355 L1.31819 0.78739 z"/>
<path d="M1.46194 0.69134 L1.31819 0.78739 L1.2706 0.7294 z"/>
<path d="M1.46194 0.69134 L1.2706 0.7294 L1.39285 0.60715 z"/>
<path d="M1.5449 0.89161 L1.55557 1 L1.38268 1 z"/>
<path d="M1.5449 0.89161 L1.38268 1 L1.37533 0.92534 z"/>
<path d="M1.5449 0.89161 L1.37533 0.92534 L1.35355 0.85355 z"/>
<path d="M1.5449 0.89161 L1.35355 0.85355 L1.51328 0.78739 z"/>
<path d="M1.5449 0.89161 L1.51328 0.78739 L1.65328 0.7294 z"/>
<path d="M1.5449 0.89161 L1.65328 0.7294 L1.69352 0.86205 z"/>
<path d="M1.5449 0.89161 L1.69352 0.86205 L1.70711 1 z"/>
<path d="M1.5449 0.89161 L1.70711 1 L1.55557 1 z"/>
<path d="M0.83779 1.81549 L0.68181 1.76818 L0.64645 1.85355 z"/>
<path d="M0.83779 1.81549 L0.64645 1.85355 L0.81976 1.90613 z"/>
<path d="M0.83779 1.81549 L0.81976 1.90613 L1 1.92388 z"/>
<path d="M0.83779 1.81549 L1 1.92388 L1 1.83147 z"/>
<path d="M0.83779 1.81549 L1 1.83147 L1 1.70711 z"/>
<path d="M0.83779 1.81549 L1 1.70711 L0.86205 1.69352 z"/>
<path d="M0.83779 1.81549 L0.86205 1.69352 L0.7294 1.65328 z"/>
<path d="M0.83779 1.81549 L0.7294 1.65328 L0.68181 1.76818 z"/>
<path d="M1.69352 1.69352 L1.81549 1.5449 L1.83147 1.55557 z"/>
<path d="M1.69352 1.69352 L1.83147 1.55557 L1.70711 1.70711 z"/>
<path d="M0.92534 1.37533 L1 1.38268 L1 1.55557 z"/>
<path d="M0.92534 1.37533 L1 1.55557 L0.89161 1.5449 z"/>
<path d="M0.92534 1.37533 L0.89161 1.5449 L0.78739 1.51328 z"/>
<path d="M0.92534 1.37533 L0.78739 1.51328 L0.85355 1.35355 z"/>
<path d="M1.37533 1.07466 L1.35355 1.14645 L1.18024 1.07466 z"/>
<path d="M1.37533 1.07466 L1.18024 1.07466 L1.19134 1.03806 z"/>
<path d="M1.37533 1.07466 L1.19134 1.03806 L1.19509 1 z"/>
<path d="M1.37533 1.07466 L1.19509 1 L1.38268 1 z"/>
<path d="M1.37533 1.07466 L1.38268 1 L1.55557 1 z"/>
<path d="M1.37533 1.07466 L1.55557 1 L1.5449 1.10839 z"/>
<path d="M1.37533 1.07466 L1.5449 1.10839 L1.51328 1.21261 z"/>
<path d="M1.37533 1.07466 L1.51328 1.21261 L1.35355 1.14645 z"/>
<path d="M1.13795 1.13795 L1.16221 1.10839 L1.31819 1.21261 z"/>
<path d="M1.13795 1.13795 L1.31819 1.21261 L1.2706 1.2706 z"/>
<path d="M1.13795 1.13795 L1 1 L1.16221 1.10839 z"/>
<path d="M1 1.19509 L1 1 L1.03806 1.19134 z"/>
<path d="M1 1.19509 L1.03806 1.19134 L1.07466 1.37533 z"/>
<path d="M1 1.19509 L1.07466 1.37533 L1 1.38268 z"/>
<path d="M1 1.19509 L1 1.38268 L0.92534 1.37533 z"/>
<path d="M1 1.19509 L0.92534 1.37533 L0.96194 1.19134 z"/>
<path d="M1 1.19509 L0.96194 1.19134 L1 1 z"/>
<path d="M0.92534 1.18024 L1 1 L0.96194 1.19134 z"/>
<path d="M0.92534 1.18024 L0.96194 1.19134 L0.92534 1.37533 z"/>
<path d="M0.92534 1.18024 L0.92534 1.37533 L0.85355 1.35355 z"/>
<path d="M0.83779 1.10839 L1 1 L0.86205 1.13795 z"/>
<path d="M0.83779 1.10839 L0.86205 1.13795 L0.7294 1.2706 z"/>
<path d="M0.83779 1.10839 L0.7294 1.2706 L0.68181 1.21261 z"/>
<path d="M0.80866 0.96194 L0.80491 1 L0.61732 1 z"/>
<path d="M0.80866 0.96194 L0.61732 1 L0.62467 0.92534 z"/>
<path d="M0.80866 0.96194 L0.62467 0.92534 L0.64645 0.85355 z"/>
<path d="M0.80866 0.96194 L0.64645 0.85355 L0.81976 0.92534 z"/>
<path d="M0.80866 0.96194 L0.81976 0.92534 L1 1 z"/>
<path d="M0.80866 0.96194 L1 1 L0.80491 1 z"/>
<path d="M0.83779 0.89161 L0.86205 0.86205 L1 1 z"/>
<path d="M0.83779 0.89161 L1 1 L0.81976 0.92534 z"/>
<path d="M0.83779 0.89161 L0.81976 0.92534 L0.64645 0.85355 z"/>
<path d="M0.83779 0.89161 L0.64645 0.85355 L0.68181 0.78739 z"/>
<path d="M0.83779 0.89161 L0.68181 0.78739 L0.7294 0.7294 z"/>
<path d="M0.83779 0.89161 L0.7294 0.7294 L0.86205 0.86205 z"/>
<path d="M1.76818 1.51328 L1.65328 1.65328 L1.58794 1.58794 z"/>
<path d="M1.76818 1.51328 L1.58794 1.58794 L1.69134 1.46194 z"/>
<path d="M1.76818 1.51328 L1.69134 1.46194 L1.76818 1.31819 z"/>
<path d="M1.76818 1.51328 L1.76818 1.31819 L1.85355 1.35355 z"/>
<path d="M1.76818 1.51328 L1.81549 1.5449 L1.69352 1.69352 z"/>
<path d="M1.76818 1.51328 L1.69352 1.69352 L1.65328 1.65328 z"/>
<path d="M1.90613 1.37533 L1.81549 1.5449 L1.76818 1.51328 z"/>
<path d="M1.90613 1.37533 L1.76818 1.51328 L1.85355 1.35355 z"/>
<path d="M1.90613 1.37533 L1.96194 1.19134 L1.98079 1.19509 z"/>
<path d="M1.90613 1.37533 L1.98079 1.19509 L1.92388 1.38268 z"/>
<path d="M1.90613 1.37533 L1.92388 1.38268 L1.83147 1.55557 z"/>
<path d="M1.90613 1.37533 L1.83147 1.55557 L1.81549 1.5449 z"/>
<path d="M1.90613 1.18024 L1.92388 1 L1.98079 1 z"/>
<path d="M1.90613 1.18024 L1.98079 1 L1.96194 1.19134 z"/>
<path d="M1.90613 1.18024 L1.96194 1.19134 L1.90613 1.37533 z"/>
<path d="M1.90613 1.18024 L1.90613 1.37533 L1.85355 1.35355 z"/>
<path d="M1.90613 1.18024 L1.85355 1.35355 L1.76818 1.31819 z"/>
<path d="M1.90613 1.18024 L1.76818 1.31819 L1.81549 1.16221 z"/>
<path d="M1.90613 1.18024 L1.81549 1.16221 L1.83147 1 z"/>
<path d="M1.90613 1.18024 L1.83147 1 L1.92388 1 z"/>
<path d="M1.58794 0.41206 L1.69134 0.53806 L1.76818 0.48672 z"/>
<path d="M1.58794 0.41206 L1.76818 0.48672 L1.65328 0.34672 z"/>
<path d="M0.4551 0.89161 L0.30648 0.86205 L0.34672 0.7294 z"/>
<path d="M0.4551 0.89161 L0.34672 0.7294 L0.48672 0.78739 z"/>
<path d="M0.4551 0.89161 L0.48672 0.78739 L0.64645 0.85355 z"/>
<path d="M0.4551 0.89161 L0.64645 0.85355 L0.62467 0.92534 z"/>
<path d="M0.4551 0.89161 L0.62467 0.92534 L0.61732 1 z"/>
<path d="M0.4551 0.89161 L0.61732 1 L0.44443 1 z"/>
<path d="M0.29289 1 L0.30648 0.86205 L0.4551 0.89161 z"/>
<path d="M0.29289 1 L0.4551 0.89161 L0.44443 1 z"/>
<path d="M0.29289 1 L0.44443 1 L0.4551 1.10839 z"/>
<path d="M0.29289 1 L0.4551 1.10839 L0.30648 1.13795 z"/>
<path d="M0.29289 1 L0.30648 1.13795 L0.18451 1.16221 z"/>
<path d="M0.29289 1 L0.18451 1.16221 L0.16853 1 z"/>
<path d="M0.29289 1 L0.16853 1 L0.18451 0.83779 z"/>
<path d="M0.29289 1 L0.18451 0.83779 L0.30648 0.86205 z"/>
<path d="M0.18451 0.83779 L0.23182 0.68181 L0.14645 0.64645 z"/>
<path d="M0.18451 0.83779 L0.14645 0.64645 L0.09387 0.81976 z"/>
<path d="M0.18451 0.83779 L0.09387 0.81976 L0.07612 1 z"/>
<path d="M0.18451 0.83779 L0.07612 1 L0.16853 1 z"/>
<path d="M0.18451 0.83779 L0.16853 1 L0.29289 1 z"/>
<path d="M0.18451 0.83779 L0.29289 1 L0.30648 0.86205 z"/>
<path d="M0.18451 0.83779 L0.30648 0.86205 L0.34672 0.7294 z"/>
<path d="M0.18451 0.83779 L0.34672 0.7294 L0.23182 0.68181 z"/>
<path d="M0.03806 0.80866 L0.01921 1 L0.07612 1 z"/>
<path d="M0.03806 0.80866 L0.07612 1 L0.09387 0.81976 z"/>
<path d="M0.03806 0.80866 L0.09387 0.81976 L0.14645 0.64645 z"/>
<path d="M0.03806 0.80866 L0.14645 0.64645 L0.09387 0.62467 z"/>
<path d="M0.03806 0.80866 L0.09387 0.62467 L0.07612 0.61732 z"/>
<path d="M0.03806 0.80866 L0.07612 0.61732 L0.01921 0.80491 z"/>
<path d="M0.03806 0.80866 L0.01921 0.80491 L0 1 z"/>
<path d="M0.03806 0.80866 L0 1 L0.01921 1 z"/>
<path d="M1 0.61732 L0.92534 0.62467 L0.96194 0.80866 z"/>
<path d="M1 0.61732 L0.96194 0.80866 L1 0.80491 z"/>
<path d="M0.92534 0.81976 L0.96194 0.80866 L0.92534 0.62467 z"/>
<path d="M0.92534 0.81976 L0.92534 0.62467 L0.85355 0.64645 z"/>
<path d="M0.92534 0.81976 L0.85355 0.64645 L0.78739 0.68181 z"/>
<path d="M0.92534 0.81976 L0.78739 0.68181 L0.89161 0.83779 z"/>
<path d="M0.92534 0.81976 L0.89161 0.83779 L1 1 z"/>
<path d="M0.92534 0.81976 L1 1 L0.96194 0.80866 z"/>
<path d="M1.10839 0.4551 L1.21261 0.48672 L1.2706 0.34672 z"/>
<path d="M1.10839 0.4551 L1.2706 0.34672 L1.13795 0.30648 z"/>
<path d="M1.10839 0.4551 L1.13795 0.30648 L1 0.29289 z"/>
<path d="M1.10839 0.4551 L1 0.29289 L1 0.44443 z"/>
<path d="M0.89161 0.4551 L1 0.44443 L1 0.29289 z"/>
<path d="M0.89161 0.4551 L1 0.29289 L0.86205 0.30648 z"/>
<path d="M0.89161 0.4551 L0.86205 0.30648 L0.7294 0.34672 z"/>
<path d="M0.89161 0.4551 L0.7294 0.34672 L0.78739 0.48672 z"/>
<path d="M0.89161 0.4551 L0.78739 0.48672 L0.85355 0.64645 z"/>
<path d="M0.89161 0.4551 L0.85355 0.64645 L0.92534 0.62467 z"/>
<path d="M0.89161 0.4551 L0.92534 0.62467 L1 0.61732 z"/>
<path d="M0.89161 0.4551 L1 0.61732 L1 0.44443 z"/>
<path d="M1 1.38268 L1.07466 1.37533 L1.03806 1.19134 z"/>
<path d="M1 1.38268 L1.03806 1.19134 L1 1.19509 z"/>
<path d="M1 1.38268 L1 1.19509 L0.96194 1.19134 z"/>
<path d="M1 1.38268 L0.96194 1.19134 L0.92534 1.37533 z"/>
<path d="M1 1.38268 L0.92534 1.37533 L0.89161 1.5449 z"/>
<path d="M1 1.38268 L0.89161 1.5449 L1 1.55557 z"/>
<path d="M1 1.38268 L1 1.55557 L1.10839 1.5449 z"/>
<path d="M1 1.38268 L1.10839 1.5449 L1.07466 1.37533 z"/>
<path d="M1.14645 1.35355 L1.07466 1.37533 L1.10839 1.5449 z"/>
<path d="M1.14645 1.35355 L1.10839 1.5449 L1.21261 1.51328 z"/>
<path d="M1.14645 1.35355 L1.21261 1.51328 L1.30866 1.46194 z"/>
<path d="M1.14645 1.35355 L1.30866 1.46194 L1.21261 1.31819 z"/>
<path d="M1.5449 1.81549 L1.37533 1.90613 L1.35355 1.85355 z"/>
<path d="M1.5449 1.81549 L1.35355 1.85355 L1.51328 1.76818 z"/>
<path d="M1.5449 1.81549 L1.51328 1.76818 L1.65328 1.65328 z"/>
<path d="M1.5449 1.81549 L1.65328 1.65328 L1.69352 1.69352 z"/>
<path d="M1.5449 1.81549 L1.69352 1.69352 L1.70711 1.70711 z"/>
<path d="M1.5449 1.81549 L1.70711 1.70711 L1.55557 1.83147 z"/>
<path d="M1.5449 1.81549 L1.55557 1.83147 L1.38268 1.92388 z"/>
<path d="M1.5449 1.81549 L1.38268 1.92388 L1.37533 1.90613 z"/>
<path d="M1.10839 1.16221 L1.07466 1.18024 L1 1 z"/>
<path d="M1.10839 1.16221 L1 1 L1.13795 1.13795 z"/>
<path d="M1.10839 1.16221 L1.13795 1.13795 L1.2706 1.2706 z"/>
<path d="M1.10839 1.16221 L1.2706 1.2706 L1.21261 1.31819 z"/>
<path d="M1.10839 1.16221 L1.21261 1.31819 L1.14645 1.35355 z"/>
<path d="M1.10839 1.16221 L1.14645 1.35355 L1.07466 1.18024 z"/>
<path d="M0.78739 1.31819 L0.85355 1.35355 L0.78739 1.51328 z"/>
<path d="M0.78739 1.31819 L0.78739 1.51328 L0.69134 1.46194 z"/>
<path d="M0.78739 1.31819 L0.69134 1.46194 L0.60715 1.39285 z"/>
<path d="M0.78739 1.31819 L0.60715 1.39285 L0.7294 1.2706 z"/>
<path d="M0.80866 1.03806 L0.80491 1 L1 1 z"/>
<path d="M0.80866 1.03806 L0.62467 1.07466 L0.61732 1 z"/>
<path d="M0.80866 1.03806 L0.61732 1 L0.80491 1 z"/>
<path d="M1.81549 0.83779 L1.83147 1 L1.92388 1 z"/>
<path d="M1.81549 0.83779 L1.92388 1 L1.90613 0.81976 z"/>
<path d="M1.81549 0.83779 L1.90613 0.81976 L1.85355 0.64645 z"/>
<path d="M1.81549 0.83779 L1.85355 0.64645 L1.76818 0.68181 z"/>
<path d="M1.51328 0.23182 L1.65328 0.34672 L1.69352 0.30648 z"/>
<path d="M1.51328 0.23182 L1.69352 0.30648 L1.5449 0.18451 z"/>
<path d="M1.51328 0.23182 L1.5449 0.18451 L1.37533 0.09387 z"/>
<path d="M1.51328 0.23182 L1.37533 0.09387 L1.35355 0.14645 z"/>
<path d="M1.07466 0.62467 L1.14645 0.64645 L1.21261 0.48672 z"/>
<path d="M1.07466 0.62467 L1.21261 0.48672 L1.10839 0.4551 z"/>
<path d="M1.07466 0.62467 L1.10839 0.4551 L1 0.44443 z"/>
<path d="M1.07466 0.62467 L1 0.44443 L1 0.61732 z"/>
<path d="M1.07466 0.62467 L1 0.61732 L1 0.80491 z"/>
<path d="M1.07466 0.62467 L1 0.80491 L1.03806 0.80866 z"/>
<path d="M1.07466 0.62467 L1.03806 0.80866 L1.07466 0.81976 z"/>
<path d="M1.07466 0.62467 L1.07466 0.81976 L1.14645 0.64645 z"/>
<path d="M1.07466 1.18024 L1.03806 1.19134 L1.07466 1.37533 z"/>
<path d="M1.07466 1.18024 L1.07466 1.37533 L1.14645 1.35355 z"/>
<path d="M1.07466 1.18024 L1.14645 1.35355 L1.21261 1.31819 z"/>
<path d="M1.07466 1.18024 L1.21261 1.31819 L1.10839 1.16221 z"/>
<path d="M1.07466 1.18024 L1.10839 1.16221 L1 1 z"/>
<path d="M1.07466 1.18024 L1 1 L1.03806 1.19134 z"/>
<path d="M0.89161 1.16221 L0.92534 1.18024 L0.85355 1.35355 z"/>
<path d="M0.89161 1.16221 L0.85355 1.35355 L0.78739 1.31819 z"/>
<path d="M0.89161 1.16221 L0.78739 1.31819 L0.7294 1.2706 z"/>
<path d="M0.89161 1.16221 L0.7294 1.2706 L0.86205 1.13795 z"/>
<path d="M0.89161 1.16221 L0.86205 1.13795 L1 1 z"/>
<path d="M0.89161 1.16221 L1 1 L0.92534 1.18024 z"/>
<path d="M0.81976 1.07466 L0.83779 1.10839 L0.68181 1.21261 z"/>
<path d="M0.81976 1.07466 L0.68181 1.21261 L0.64645 1.14645 z"/>
<path d="M0.81976 1.07466 L0.64645 1.14645 L0.62467 1.07466 z"/>
<path d="M0.81976 1.07466 L0.62467 1.07466 L0.80866 1.03806 z"/>
<path d="M0.81976 1.07466 L0.80866 1.03806 L1 1 z"/>
<path d="M0.81976 1.07466 L1 1 L0.83779 1.10839 z"/>
<path d="M1.21261 0.68181 L1.2706 0.7294 L1.39285 0.60715 z"/>
<path d="M1.21261 0.68181 L1.39285 0.60715 L1.30866 0.53806 z"/>
<path d="M1.21261 0.68181 L1.30866 0.53806 L1.21261 0.48672 z"/>
<path d="M1.21261 0.68181 L1.21261 0.48672 L1.14645 0.64645 z"/>
<path d="M1.65328 0.7294 L1.51328 0.78739 L1.5449 0.89161 z"/>
<path d="M1.65328 0.7294 L1.5449 0.89161 L1.69352 0.86205 z"/>
<path d="M1.65328 0.7294 L1.69352 0.86205 L1.81549 0.83779 z"/>
<path d="M1.65328 0.7294 L1.81549 0.83779 L1.76818 0.68181 z"/>
<path d="M1.70711 1 L1.69352 0.86205 L1.5449 0.89161 z"/>
<path d="M1.70711 1 L1.5449 0.89161 L1.55557 1 z"/>
<path d="M1.70711 1 L1.69352 1.13795 L1.81549 1.16221 z"/>
<path d="M1.70711 1 L1.81549 1.16221 L1.83147 1 z"/>
<path d="M1.70711 1 L1.83147 1 L1.81549 0.83779 z"/>
<path d="M1.70711 1 L1.81549 0.83779 L1.69352 0.86205 z"/>
<path d="M1.46194 0.30866 L1.58794 0.41206 L1.65328 0.34672 z"/>
<path d="M1.46194 0.30866 L1.65328 0.34672 L1.51328 0.23182 z"/>
<path d="M1.31819 1.21261 L1.46194 1.30866 L1.51328 1.21261 z"/>
<path d="M1.31819 1.21261 L1.51328 1.21261 L1.35355 1.14645 z"/>
<path d="M1.31819 1.21261 L1.2706 1.2706 L1.39285 1.39285 z"/>
<path d="M1.31819 1.21261 L1.39285 1.39285 L1.46194 1.30866 z"/>
<path d="M1.46194 0.69134 L1.39285 0.60715 L1.2706 0.7294 z"/>
<path d="M1.46194 0.69134 L1.2706 0.7294 L1.31819 0.78739 z"/>
<path d="M1.46194 0.69134 L1.31819 0.78739 L1.35355 0.85355 z"/>
<path d="M1.46194 0.69134 L1.35355 0.85355 L1.51328 0.78739 z"/>
<path d="M1.31819 0.23182 L1.16221 0.18451 L1.13795 0.30648 z"/>
<path d="M1.31819 0.23182 L1.13795 0.30648 L1.2706 0.34672 z"/>
<path d="M1.31819 0.23182 L1.46194 0.30866 L1.51328 0.23182 z"/>
<path d="M1.31819 0.23182 L1.51328 0.23182 L1.35355 0.14645 z"/>
<path d="M1.31819 0.23182 L1.35355 0.14645 L1.18024 0.09387 z"/>
<path d="M1.31819 0.23182 L1.18024 0.09387 L1.16221 0.18451 z"/>
<path d="M1.39285 0.41206 L1.5 0.5 L1.58794 0.41206 z"/>
<path d="M1.39285 0.41206 L1.58794 0.41206 L1.46194 0.30866 z"/>
<path d="M1.39285 0.41206 L1.46194 0.30866 L1.31819 0.23182 z"/>
<path d="M1.39285 0.41206 L1.31819 0.23182 L1.2706 0.34672 z"/>
<path d="M1.39285 0.41206 L1.2706 0.34672 L1.21261 0.48672 z"/>
<path d="M1.39285 0.41206 L1.21261 0.48672 L1.30866 0.53806 z"/>
<path d="M1.39285 0.41206 L1.30866 0.53806 L1.39285 0.60715 z"/>
<path d="M1.39285 0.41206 L1.39285 0.60715 L1.5 0.5 z"/>
<path d="M1.5449 1.10839 L1.51328 1.21261 L1.65328 1.2706 z"/>
<path d="M1.5449 1.10839 L1.65328 1.2706 L1.69352 1.13795 z"/>
<path d="M1.5449 1.10839 L1.69352 1.13795 L1.70711 1 z"/>
<path d="M1.5449 1.10839 L1.70711 1 L1.55557 1 z"/>
<path d="M1.37533 0.92534 L1.38268 1 L1.55557 1 z"/>
<path d="M1.37533 0.92534 L1.55557 1 L1.5449 0.89161 z"/>
<path d="M1.37533 0.92534 L1.5449 0.89161 L1.51328 0.78739 z"/>
<path d="M1.37533 0.92534 L1.51328 0.78739 L1.35355 0.85355 z"/>
<path d="M1.16221 1.10839 L1 1 L1.13795 1.13795 z"/>
<path d="M1.16221 1.10839 L1.13795 1.13795 L1.2706 1.2706 z"/>
<path d="M1.16221 1.10839 L1.2706 1.2706 L1.31819 1.21261 z"/>
<path d="M1.19509 1 L1.19134 0.96194 L1 1 z"/>
<path d="M1.19509 1 L1 1 L1.19134 1.03806 z"/>
<path d="M1.19509 1 L1.38268 1 L1.37533 0.92534 z"/>
<path d="M1.19509 1 L1.37533 0.92534 L1.19134 0.96194 z"/>
<path d="M1.18024 0.92534 L1 1 L1.19134 0.96194 z"/>
<path d="M1.18024 0.92534 L1.19134 0.96194 L1.37533 0.92534 z"/>
<path d="M1.18024 0.92534 L1.37533 0.92534 L1.35355 0.85355 z"/>
<path d="M1.10839 0.83779 L1.07466 0.81976 L1 1 z"/>
<path d="M1.10839 0.83779 L1 1 L1.13795 0.86205 z"/>
<path d="M1.10839 0.83779 L1.13795 0.86205 L1.2706 0.7294 z"/>
<path d="M1.10839 0.83779 L1.2706 0.7294 L1.21261 0.68181 z"/>
<path d="M1.10839 0.83779 L1.21261 0.68181 L1.14645 0.64645 z"/>
<path d="M1.10839 0.83779 L1.14645 0.64645 L1.07466 0.81976 z"/>
<path d="M1.58794 0.60715 L1.5 0.5 L1.39285 0.60715 z"/>
<path d="M1.58794 0.60715 L1.39285 0.60715 L1.46194 0.69134 z"/>
<path d="M1.58794 0.60715 L1.46194 0.69134 L1.51328 0.78739 z"/>
<path d="M1.58794 0.60715 L1.51328 0.78739 L1.65328 0.7294 z"/>
<path d="M1.58794 0.60715 L1.65328 0.7294 L1.76818 0.68181 z"/>
<path d="M1.58794 0.60715 L1.76818 0.68181 L1.69134 0.53806 z"/>
<path d="M1.58794 0.60715 L1.69134 0.53806 L1.58794 0.41206 z"/>
<path d="M1.58794 0.60715 L1.58794 0.41206 L1.5 0.5 z"/>
<path d="M1.37533 1.07466 L1.35355 1.14645 L1.51328 1.21261 z"/>
<path d="M1.37533 1.07466 L1.51328 1.21261 L1.5449 1.10839 z"/>
<path d="M1.37533 1.07466 L1.5449 1.10839 L1.55557 1 z"/>
<path d="M1.37533 1.07466 L1.55557 1 L1.38268 1 z"/>
<path d="M1.37533 1.07466 L1.38268 1 L1.19509 1 z"/>
<path d="M1.37533 1.07466 L1.19509 1 L1.19134 1.03806 z"/>
<path d="M1.18024 1.07466 L1.19134 1.03806 L1 1 z"/>
<path d="M1.18024 1.07466 L1 1 L1.16221 1.10839 z"/>
<path d="M1.18024 1.07466 L1.16221 1.10839 L1.31819 1.21261 z"/>
<path d="M1.18024 1.07466 L1.31819 1.21261 L1.35355 1.14645 z"/>
<path d="M1.18024 1.07466 L1.35355 1.14645 L1.37533 1.07466 z"/>
<path d="M1.18024 1.07466 L1.37533 1.07466 L1.19134 1.03806 z"/>
<path d="M1.16221 0.89161 L1.13795 0.86205 L1 1 z"/>
<path d="M1.16221 0.89161 L1 1 L1.18024 0.92534 z"/>
<path d="M1.16221 0.89161 L1.18024 0.92534 L1.35355 0.85355 z"/>
<path d="M1.16221 0.89161 L1.35355 0.85355 L1.31819 0.78739 z"/>
<path d="M1.16221 0.89161 L1.31819 0.78739 L1.2706 0.7294 z"/>
<path d="M1.16221 0.89161 L1.2706 0.7294 L1.13795 0.86205 z"/>
</svg>