<svg viewBox="-250 -250 500 500" width="500" height="500" xmlns="http://www.w3.org/2000/svg"><path d="M-59.93059777046953,15.704171783781158L-60.01331974236061,15.66745048700035L-59.94613201578156,15.754729707502541zM-60.23512934465087,15.568995005040518L-60.00890599771011,15.958962021952638L-59.94613201578156,15.754729707502541zM-60.23512934465087,15.568995005040518L-59.94613201578156,15.754729707502541L-60.01331974236061,15.66745048700035zM-60.42893149022938,15.17666760019541L-59.92196903580211,15.676098969938982L-59.861355886974934,15.478894892282886zM-60.470227032565276,15.38322819333553L-59.93059777046953,15.704171783781158L-59.92196903580211,15.676098969938982zM-60.33633932626066,14.713500654323983L-60.42893149022938,15.17666760019541L-59.861355886974934,15.478894892282886zM-60.181831487637155,13.940623562311549L-60.26709900334179,14.007517593306037L-60.202013348654035,14.041567100007189zM-60.42893149022938,15.17666760019541L-60.470227032565276,15.38322819333553L-59.92196903580211,15.676098969938982zM-60.470227032565276,15.38322819333553L-60.485175416269776,15.458008486577683L-59.93059777046953,15.704171783781158zM-60.8325679744875,14.451150929466836L-60.202013348654035,14.041567100007189L-60.26709900334179,14.007517593306037zM-60.8325679744875,14.451150929466836L-60.33633932626066,14.713500654323983L-60.202013348654035,14.041567100007189zM-60.33633932626066,14.713500654323983L-61.22024699038679,14.755302454515764L-60.42893149022938,15.17666760019541zM-60.42893149022938,15.17666760019541L-61.39259020777068,14.890514348676462L-60.470227032565276,15.38322819333553zM-60.33633932626066,14.713500654323983L-60.8325679744875,14.451150929466836L-61.22024699038679,14.755302454515764zM-60.470227032565276,15.38322819333553L-61.52668154958147,14.99571122743783L-60.485175416269776,15.458008486577683zM-60.42893149022938,15.17666760019541L-61.22024699038679,14.755302454515764L-61.39259020777068,14.890514348676462zM-60.470227032565276,15.38322819333553L-61.39259020777068,14.890514348676462L-61.52668154958147,14.99571122743783z" style="fill:rgb(217,127,217)"/><path d="M-67.72155357897898,17.17316800152863L-68.37662088908576,17.51720947955437L-64.8222209174878,17.581203802266256z" style="fill:rgb(95,246,159)"/><path d="M-61.477159003144195,20.42011197060961L-61.513698545991176,19.489743595091127L-63.46671221718032,17.17606965740127zM-61.65788193499042,21.324131164300784L-61.477159003144195,20.42011197060961L-63.46671221718032,17.17606965740127zM-61.513698545991176,19.489743595091127L-61.763968956117935,18.623567246342027L-63.46671221718032,17.17606965740127zM-61.763968956117935,18.623567246342027L-62.203728661129496,17.9059862079685L-63.46671221718032,17.17606965740127z" style="fill:rgb(217,127,217)"/><path d="M-63.46671221718032,17.17606965740127L-67.72155357897898,17.17316800152863L-64.16686777287856,17.23586829328403z" style="fill:rgb(122,254,132)"/><path d="M-62.203728661129496,17.9059862079685L-62.79033041050464,17.407138900764355L-63.46671221718032,17.17606965740127z" style="fill:rgb(217,127,217)"/><path d="M-67.72155357897898,17.17316800152863L-64.8222209174878,17.581203802266256L-64.16686777287856,17.23586829328403z" style="fill:rgb(95,246,159)"/><path d="M-63.46671221718032,17.17606965740127L-64.16686777287856,17.23586829328403L-64.8222209174878,17.581203802266256zM-2.626269272786162,-29.039810241732066L-2.5467711907759245,-29.135393976920955L-10.532847659139772,-34.76365239824822z" style="fill:rgb(217,127,217)"/><path d="M-9.646631065694399,-33.35636824234503L-4.042904389138058,-28.089281904188265L-3.40244011689517,-28.106625335417686z" style="fill:rgb(82,17,172)"/><path d="M-2.7209957822987025,-28.925923613008447L-2.626269272786162,-29.039810241732066L-10.532847659139772,-34.76365239824822zM-65.89965709606385,64.17883715931907L-62.60324821384988,82.32000844006075L-64.9968888318061,66.20622293235564zM-65.89965709606385,64.17883715931907L-64.99968558753831,76.96155759557462L-62.60324821384988,82.32000844006075z" style="fill:rgb(217,127,217)"/><path d="M-83.76893797556642,50.432705663443485L-87.11655003523508,52.61767765658994L-86.41533620093297,53.006788966452234z" style="fill:rgb(49,63,205)"/><path d="M-2.8222549256726297,-28.80417743204682L-2.7209957822987025,-28.925923613008447L-10.532847659139772,-34.76365239824822zM-68.44940185062269,42.964143439433315L-61.65788193499042,21.324131164300784L-63.46671221718032,17.17606965740127zM-9.646631065694399,-33.35636824234503L-3.40244011689517,-28.106625335417686L-3.143559577866107,-28.417875925510156zM-2.921348735701857,-28.685040488828008L-2.8222549256726297,-28.80417743204682L-10.532847659139772,-34.76365239824822z" style="fill:rgb(217,127,217)"/><path d="M-63.34192748334268,3.938192604333491L-59.96048773059305,2.642487538971824L-63.34192748334268,2.6333824482312806zM-63.34192748334268,8.00612790605145L-59.96048773059305,2.642487538971824L-63.34192748334268,3.938192604333491z" style="fill:rgb(37,127,217)"/><path d="M-3.0099813556686295,-28.57847293471948L-2.921348735701857,-28.685040488828008L-10.532847659139772,-34.76365239824822zM-60.26709900334179,14.007517593306037L-72.892290708939,8.075344603709398L-60.8325679744875,14.451150929466836zM-3.080608600794511,-28.493561045042338L-3.0099813556686295,-28.57847293471948L-10.532847659139772,-34.76365239824822zM-3.126772843083184,-28.438058807472412L-3.080608600794511,-28.493561045042338L-10.532847659139772,-34.76365239824822zM-3.143559577866107,-28.417875925510156L-3.126772843083184,-28.438058807472412L-10.532847659139772,-34.76365239824822z" style="fill:rgb(217,127,217)"/><path d="M-83.51361359905351,51.000105979568104L-86.41533620093297,53.006788966452234L-85.76128999915046,53.163886564144505z" style="fill:rgb(49,63,205)"/><path d="M-60.8325679744875,14.451150929466836L-73.62056259553695,8.15228752448128L-61.22024699038679,14.755302454515764z" style="fill:rgb(217,127,217)"/><path d="M-13.41616366934104,-33.234491184125986L-4.042904389138058,-28.089281904188265L-9.646631065694399,-33.35636824234503z" style="fill:rgb(82,17,172)"/><path d="M-61.22024699038679,14.755302454515764L-73.58728624234325,8.376291492219865L-61.39259020777068,14.890514348676462zM-61.39259020777068,14.890514348676462L-73.38594491200362,9.7317140960327L-61.52668154958147,14.99571122743783z" style="fill:rgb(217,127,217)"/><path d="M-68.37662088908576,17.51720947955437L-72.05114030857156,22.76507172309759L-64.8222209174878,17.581203802266256z" style="fill:rgb(82,237,172)"/><path d="M-66.40724217081157,64.59803501106273L-65.16972706099172,76.58133147859611L-64.99968558753831,76.96155759557462zM-65.89965709606385,64.17883715931907L-66.27571584923746,64.4894105168737L-64.99968558753831,76.96155759557462zM-66.70198394425935,64.84144926534292L-65.55516594897684,75.71949086743071L-65.16972706099172,76.58133147859611z" style="fill:rgb(217,127,217)"/><path d="M-30.956602354853644,2.647316161877474L-28.633455985381435,2.6363639218878725L-29.16181022961837,2.6344503787031615z" style="fill:rgb(127,255,127)"/><path d="M-28.368768605030034,2.638616996317674L-28.39428337171493,8.029257210282996L-28.368768605030034,8.02204221486679z" style="fill:rgb(255,127,127)"/><path d="M-63.34192748334268,8.00612790605145L-59.96048773059305,8.033809612942889L-59.96048773059305,2.642487538971824z" style="fill:rgb(37,127,217)"/><path d="M-66.40724217081157,64.59803501106273L-64.99968558753831,76.96155759557462L-66.27571584923746,64.4894105168737z" style="fill:rgb(217,127,217)"/><path d="M-9.446973883265345,-38.68822726877815L-12.570137305808917,-38.765139397484226L-13.21652521730029,-38.54689549033938z" style="fill:rgb(104,250,150)"/><path d="M-66.70198394425935,64.84144926534292L-65.16972706099172,76.58133147859611L-66.40724217081157,64.59803501106273zM-68.44940185062269,42.964143439433315L-68.40362448933648,43.272313512620265L-61.65788193499042,21.324131164300784z" style="fill:rgb(217,127,217)"/><path d="M-28.368768605030034,2.638616996317674L-28.39428337171493,2.640990158789728L-28.39428337171493,8.029257210282996z" style="fill:rgb(255,127,127)"/><path d="M-65.89965709606385,64.17883715931907L-66.42914925624652,62.9897319927841L-66.27571584923746,64.4894105168737z" style="fill:rgb(217,127,217)"/><path d="M-83.32853932200216,51.41139429195684L-85.76128999915046,53.163886564144505L-82.45722006332284,53.34771205376046z" style="fill:rgb(49,63,205)"/><path d="M-67.12913027927294,65.19421215589527L-66.12476747776645,74.4458529465745L-65.55516594897684,75.71949086743071z" style="fill:rgb(217,127,217)"/><path d="M-68.37662088908576,17.51720947955437L-74.99913726757138,22.695832700869726L-72.05114030857156,22.76507172309759z" style="fill:rgb(82,237,172)"/><path d="M-9.446973883265345,-38.68822726877815L-13.21652521730029,-38.54689549033938L-13.778395588195396,-38.0578784273633z" style="fill:rgb(78,234,176)"/><path d="M-83.46648201255135,40.31207130108691L-82.45722006332284,53.34771205376046L-78.90540633995782,50.491848396732884zM-66.6168692697895,62.568169337409735L-66.40724217081157,64.59803501106273L-66.27571584923746,64.4894105168737z" style="fill:rgb(217,127,217)"/><path d="M-30.956602354853644,2.647316161877474L-28.368768605030034,2.638616996317674L-28.633455985381435,2.6363639218878725z" style="fill:rgb(127,255,127)"/><path d="M-66.6168692697895,62.568169337409735L-66.27571584923746,64.4894105168737L-66.42914925624652,62.9897319927841zM-67.12913027927294,65.19421215589527L-65.55516594897684,75.71949086743071L-66.70198394425935,64.84144926534292z" style="fill:rgb(217,127,217)"/><path d="M-83.76893797556642,50.432705663443485L-86.41533620093297,53.006788966452234L-83.51361359905351,51.000105979568104z" style="fill:rgb(49,63,205)"/><path d="M-13.93699321150567,-33.839774184498786L-13.41616366934104,-33.234491184125986L-9.646631065694399,-33.35636824234503z" style="fill:rgb(70,28,184)"/><path d="M-64.8222209174878,17.581203802266256L-71.37683315868077,23.25688855110489L-63.46671221718032,17.17606965740127z" style="fill:rgb(217,127,217)"/><path d="M-63.34192748334268,2.6333824482312806L-59.96048773059305,2.642487538971824L-30.956602354853644,2.647316161877474z" style="fill:rgb(127,255,127)"/><path d="M-83.51361359905351,51.000105979568104L-85.76128999915046,53.163886564144505L-83.32853932200216,51.41139429195684z" style="fill:rgb(49,63,205)"/><path d="M-64.9968888318061,66.20622293235564L-68.54122151681204,42.34603442906574L-66.42914925624652,62.9897319927841zM-67.04238891863358,61.61255562154702L-66.40724217081157,64.59803501106273L-66.6168692697895,62.568169337409735zM-67.04238891863358,61.61255562154702L-66.70198394425935,64.84144926534292L-66.40724217081157,64.59803501106273zM-68.5399875954325,42.35435221254454L-68.44940185062269,42.964143439433315L-63.46671221718032,17.17606965740127z" style="fill:rgb(217,127,217)"/><path d="M-28.708257937253286,2.6432511508448804L-28.39428337171493,8.029257210282996L-28.39428337171493,2.640990158789728z" style="fill:rgb(248,127,166)"/><path d="M-67.6464812809299,65.6214777405188L-66.8326977347436,72.86291595547647L-66.12476747776645,74.4458529465745z" style="fill:rgb(217,127,217)"/><path d="M-14.200407142282776,-37.34572478291788L-10.008892478568807,-38.19749185072182L-13.778395588195396,-38.0578784273633z" style="fill:rgb(57,207,197)"/><path d="M-68.6937468499957,41.31921333310428L-68.5399875954325,42.35435221254454L-63.46671221718032,17.17606965740127zM-67.6464812809299,65.6214777405188L-66.12476747776645,74.4458529465745L-67.12913027927294,65.19421215589527z" style="fill:rgb(217,127,217)"/><path d="M-9.446973883265345,-38.68822726877815L-8.800539343233368,-38.90718392524798L-12.570137305808917,-38.765139397484226z" style="fill:rgb(104,250,150)"/><path d="M-9.646631065694399,-33.35636824234503L-3.143559577866107,-28.417875925510156L-10.532847659139772,-34.76365239824822z" style="fill:rgb(217,127,217)"/><path d="M-30.956602354853644,2.647316161877474L-28.39428337171493,2.640990158789728L-28.368768605030034,2.638616996317674z" style="fill:rgb(127,255,127)"/><path d="M-67.67128150073957,60.200232298359964L-66.70198394425935,64.84144926534292L-67.04238891863358,61.61255562154702z" style="fill:rgb(217,127,217)"/><path d="M-10.532847659139772,-34.76365239824822L-14.302308766803836,-34.63652670823025L-13.93699321150567,-33.839774184498786z" style="fill:rgb(51,58,203)"/><path d="M-28.708257937253286,2.6432511508448804L-28.708257937253286,8.036131180146459L-28.39428337171493,8.029257210282996z" style="fill:rgb(248,127,166)"/><path d="M-67.67128150073957,60.200232298359964L-67.12913027927294,65.19421215589527L-66.70198394425935,64.84144926534292zM-66.42914925624652,62.9897319927841L-68.79469170618364,41.47955936999626L-66.6168692697895,62.568169337409735zM-67.6594486876572,8.03741935502796L-66.56360359590016,8.029477163397122L-67.6594486876572,7.479028797449451z" style="fill:rgb(217,127,217)"/><path d="M-10.532847659139772,-34.76365239824822L-14.47599929601879,-35.54653117909634L-14.302308766803836,-34.63652670823025z" style="fill:rgb(40,94,214)"/><path d="M-10.671424705197293,-36.61414767943564L-14.200407142282776,-37.34572478291788L-14.440871490440863,-36.48023741873334z" style="fill:rgb(43,173,211)"/><path d="M-59.23369222445182,2.6438860259367085L-59.96048773059305,2.642487538971824L-59.96048773059305,8.033809612942889z" style="fill:rgb(52,127,230)"/><path d="M-14.47599929601879,-35.54653117909634L-10.671424705197293,-36.61414767943564L-14.440871490440863,-36.48023741873334z" style="fill:rgb(37,134,217)"/><path d="M-70.2796794596409,30.642870254570507L-68.6937468499957,41.31921333310428L-63.46671221718032,17.17606965740127zM-68.20466753364612,66.08245957776296L-67.61961827535941,71.10335092915052L-66.8326977347436,72.86291595547647z" style="fill:rgb(217,127,217)"/><path d="M-59.23369222445182,2.6438860259367085L-59.96048773059305,8.033809612942889L-59.23369222445182,8.038061355990441z" style="fill:rgb(52,127,230)"/><path d="M-68.20466753364612,66.08245957776296L-66.8326977347436,72.86291595547647L-67.6464812809299,65.6214777405188zM-66.6168692697895,62.568169337409735L-69.24007650427163,40.7665707768781L-67.04238891863358,61.61255562154702z" style="fill:rgb(217,127,217)"/><path d="M-30.956602354853644,2.647316161877474L-28.708257937253286,2.6432511508448804L-28.39428337171493,2.640990158789728z" style="fill:rgb(127,255,127)"/><path d="M-68.45299573816534,58.44470948048201L-67.6464812809299,65.6214777405188L-67.12913027927294,65.19421215589527z" style="fill:rgb(217,127,217)"/><path d="M-29.280553184183596,2.645177505008406L-28.708257937253286,8.036131180146459L-28.708257937253286,2.6432511508448804z" style="fill:rgb(230,127,202)"/><path d="M-68.45299573816534,58.44470948048201L-67.12913027927294,65.19421215589527L-67.67128150073957,60.200232298359964z" style="fill:rgb(217,127,217)"/><path d="M-59.23369222445182,2.6438860259367085L-59.23369222445182,8.038061355990441L-58.35822589737632,8.04029846630136z" style="fill:rgb(88,127,248)"/><path d="M-9.446973883265345,-38.68822726877815L-13.778395588195396,-38.0578784273633L-10.008892478568807,-38.19749185072182z" style="fill:rgb(78,234,176)"/><path d="M-66.42914925624652,62.9897319927841L-68.54122151681204,42.34603442906574L-68.79469170618364,41.47955936999626z" style="fill:rgb(217,127,217)"/><path d="M-59.23369222445182,2.6438860259367085L-58.35822589737632,8.04029846630136L-58.35822589737632,2.6446218581762957z" style="fill:rgb(88,127,248)"/><path d="M-29.280553184183596,2.645177505008406L-29.280553184183596,8.041987768822326L-28.708257937253286,8.036131180146459z" style="fill:rgb(230,127,202)"/><path d="M-70.31632026924873,30.396210876621133L-70.2796794596409,30.642870254570507L-63.46671221718032,17.17606965740127z" style="fill:rgb(217,127,217)"/><path d="M-59.23369222445182,2.6438860259367085L-30.956602354853644,2.647316161877474L-59.96048773059305,2.642487538971824z" style="fill:rgb(127,255,127)"/><path d="M-70.36514744937284,30.06750495391762L-70.31632026924873,30.396210876621133L-63.46671221718032,17.17606965740127z" style="fill:rgb(217,127,217)"/><path d="M-13.93699321150567,-33.839774184498786L-9.646631065694399,-33.35636824234503L-10.167503306180327,-33.96393243189939z" style="fill:rgb(70,28,184)"/><path d="M-67.04238891863358,61.61255562154702L-69.83418469738983,40.27677156124413L-67.67128150073957,60.200232298359964zM-68.75151106050335,66.5340795889704L-67.61961827535941,71.10335092915052L-68.20466753364612,66.08245957776296zM-66.6168692697895,62.568169337409735L-68.79469170618364,41.47955936999626L-69.24007650427163,40.7665707768781zM-60.26709900334179,14.007517593306037L-71.62336596400473,8.066148008749368L-72.892290708939,8.075344603709398zM-68.75151106050335,66.5340795889704L-68.41488806154548,69.32512778902071L-67.61961827535941,71.10335092915052z" style="fill:rgb(217,127,217)"/><path d="M-30.956602354853644,2.647316161877474L-29.280553184183596,2.645177505008406L-28.708257937253286,2.6432511508448804zM-58.35822589737632,2.6446218581762957L-30.956602354853644,2.647316161877474L-59.23369222445182,2.6438860259367085z" style="fill:rgb(127,255,127)"/><path d="M-71.21317060090759,24.358663040961225L-70.36514744937284,30.06750495391762L-63.46671221718032,17.17606965740127z" style="fill:rgb(217,127,217)"/><path d="M-89.68263063164463,37.29078108913666L-87.11655003523508,52.61767765658994L-83.76893797556642,50.432705663443485z" style="fill:rgb(49,63,205)"/><path d="M-10.532847659139772,-34.76365239824822L-13.93699321150567,-33.839774184498786L-10.167503306180327,-33.96393243189939z" style="fill:rgb(51,58,203)"/><path d="M-14.200407142282776,-37.34572478291788L-10.430939558533755,-37.48278070370619L-10.008892478568807,-38.19749185072182z" style="fill:rgb(57,207,197)"/><path d="M-69.3220534756991,56.49303948554002L-68.20466753364612,66.08245957776296L-67.6464812809299,65.6214777405188z" style="fill:rgb(217,127,217)"/><path d="M-31.895411852703024,2.647316161877474L-58.35822589737632,2.6446218581762957L-58.35822589737632,8.04029846630136z" style="fill:rgb(122,127,254)"/><path d="M-69.3220534756991,56.49303948554002L-67.6464812809299,65.6214777405188L-68.45299573816534,58.44470948048201z" style="fill:rgb(217,127,217)"/><path d="M-29.280553184183596,2.645177505008406L-30.05536618658314,8.046248174842233L-29.280553184183596,8.041987768822326z" style="fill:rgb(202,127,230)"/><path d="M-10.671424705197293,-36.61414767943564L-10.430939558533755,-37.48278070370619L-14.200407142282776,-37.34572478291788z" style="fill:rgb(43,173,211)"/><path d="M-71.23498362540953,24.21183576622692L-71.21317060090759,24.358663040961225L-63.46671221718032,17.17606965740127zM-71.2609683234006,24.03691388499347L-71.23498362540953,24.21183576622692L-63.46671221718032,17.17606965740127zM-68.54122151681204,42.34603442906574L-68.6937468499957,41.31921333310428L-68.75662916913781,41.609657913815155zM-71.28873894874305,23.849953127931233L-71.2609683234006,24.03691388499347L-63.46671221718032,17.17606965740127z" style="fill:rgb(217,127,217)"/><path d="M-29.280553184183596,2.645177505008406L-30.05536618658314,2.646578841405577L-30.05536618658314,8.046248174842233z" style="fill:rgb(202,127,230)"/><path d="M-71.31591265323614,23.66701860265926L-71.28873894874305,23.849953127931233L-63.46671221718032,17.17606965740127zM-67.04238891863358,61.61255562154702L-69.24007650427163,40.7665707768781L-69.83418469738983,40.27677156124413zM-71.3402152254183,23.503415093198008L-71.31591265323614,23.66701860265926L-63.46671221718032,17.17606965740127z" style="fill:rgb(217,127,217)"/><path d="M29.49655710963356,-22.460175768086685L29.242341368571164,-23.018934920915704L26.022965561354983,-25.79671664386905z" style="fill:rgb(223,205,159)"/><path d="M-68.75662916913781,41.609657913815155L-68.6937468499957,41.31921333310428L-68.71105575594011,41.20271760884191zM-71.35957765530915,23.373061740270263L-71.3402152254183,23.503415093198008L-63.46671221718032,17.17606965740127zM-71.37223467623633,23.287869025469067L-71.35957765530915,23.373061740270263L-63.46671221718032,17.17606965740127zM-71.37683315868077,23.25688855110489L-71.37223467623633,23.287869025469067L-63.46671221718032,17.17606965740127z" style="fill:rgb(217,127,217)"/><path d="M-10.532847659139772,-34.76365239824822L-10.706553342020191,-35.67701854090819L-14.47599929601879,-35.54653117909634z" style="fill:rgb(40,94,214)"/><path d="M-30.956602354853644,2.647316161877474L-30.05536618658314,2.646578841405577L-29.280553184183596,2.645177505008406z" style="fill:rgb(127,255,127)"/><path d="M-68.75662916913781,41.609657913815155L-68.71105575594011,41.20271760884191L-68.92799320857043,41.02386328508137z" style="fill:rgb(217,127,217)"/><path d="M-14.47599929601879,-35.54653117909634L-10.706553342020191,-35.67701854090819L-10.671424705197293,-36.61414767943564z" style="fill:rgb(37,134,217)"/><path d="M-31.895411852703024,2.647316161877474L-30.956602354853644,2.647316161877474L-58.35822589737632,2.6446218581762957z" style="fill:rgb(127,255,127)"/><path d="M-31.895411852703024,2.647316161877474L-58.35822589737632,8.04029846630136L-31.895411852703024,8.048489809744037z" style="fill:rgb(122,127,254)"/><path d="M-69.417231839466,67.08387569882397L-68.41488806154548,69.32512778902071L-68.75151106050335,66.5340795889704zM-67.67128150073957,60.200232298359964L-70.51922687952796,40.05832789907212L-68.45299573816534,58.44470948048201z" style="fill:rgb(217,127,217)"/><path d="M-30.956602354853644,2.647316161877474L-30.05536618658314,8.046248174842233L-30.05536618658314,2.646578841405577z" style="fill:rgb(166,127,248)"/><path d="M-68.79469170618364,41.47955936999626L-68.92799320857043,41.02386328508137L-69.24007650427163,40.7665707768781zM-70.0153344529573,56.05525724506409L-68.75151106050335,66.5340795889704L-68.20466753364612,66.08245957776296zM-8.800539343233368,-38.90718392524798L-9.446973883265345,-38.68822726877815L-10.532847659139772,-34.76365239824822z" style="fill:rgb(217,127,217)"/><path d="M-64.8222209174878,17.581203802266256L-72.05114030857156,22.76507172309759L-71.4477860416392,22.7792424338758z" style="fill:rgb(82,237,172)"/><path d="M-87.04732287961609,43.14719141334736L-82.45722006332284,53.34771205376046L-83.46648201255135,40.31207130108691z" style="fill:rgb(217,127,217)"/><path d="M-30.956602354853644,2.647316161877474L-30.956602354853644,8.048489809744037L-30.05536618658314,8.046248174842233z" style="fill:rgb(166,127,248)"/><path d="M-60.8325679744875,14.451150929466836L-72.892290708939,8.075344603709398L-73.63119861563554,8.080699875373682zM-70.0153344529573,56.05525724506409L-68.20466753364612,66.08245957776296L-69.3220534756991,56.49303948554002z" style="fill:rgb(217,127,217)"/><path d="M-30.956602354853644,2.647316161877474L-31.895411852703024,2.647316161877474L-31.895411852703024,8.048489809744037zM-30.956602354853644,2.647316161877474L-31.895411852703024,8.048489809744037L-30.956602354853644,8.048489809744037z" style="fill:rgb(127,127,255)"/><path d="M-64.8222209174878,17.581203802266256L-71.4477860416392,22.7792424338758L-71.37683315868077,23.25688855110489zM-70.14678200186096,40.01905405216718L-68.71105575594011,41.20271760884191L-68.90631446579133,39.888256103486746zM-67.67128150073957,60.200232298359964L-69.83418469738983,40.27677156124413L-70.51922687952796,40.05832789907212zM-60.8325679744875,14.451150929466836L-73.63119861563554,8.080699875373682L-73.62056259553695,8.15228752448128zM-9.446973883265345,-38.68822726877815L-10.008892478568807,-38.19749185072182L-10.532847659139772,-34.76365239824822zM-61.39259020777068,14.890514348676462L-73.58728624234325,8.376291492219865L-73.38594491200362,9.7317140960327zM-61.22024699038679,14.755302454515764L-73.62056259553695,8.15228752448128L-73.58728624234325,8.376291492219865zM-10.532847659139772,-34.76365239824822L-10.167503306180327,-33.96393243189939L-9.646631065694399,-33.35636824234503z" style="fill:rgb(217,127,217)"/><path d="M23.58955914519191,-21.242249451207673L26.098230866927,-18.337774607995563L26.82060709973124,-18.47552650779512z" style="fill:rgb(97,18,186)"/><path d="M29.49655710963356,-22.460175768086685L26.29656434994944,-24.526176049544443L29.519094748732428,-21.748958461370897z" style="fill:rgb(228,177,187)"/><path d="M-70.0153344529573,56.05525724506409L-69.3220534756991,56.49303948554002L-69.64974644233568,55.757120308477184zM-68.45299573816534,58.44470948048201L-71.22835278979139,40.13310025272506L-69.3220534756991,56.49303948554002zM-10.008892478568807,-38.19749185072182L-10.430939558533755,-37.48278070370619L-10.532847659139772,-34.76365239824822zM-74.07269484384771,5.1085814995799845L-67.6594486876572,8.03741935502796L-67.6594486876572,7.479028797449451zM-68.90631446579133,39.888256103486746L-69.14303410088445,38.2946559076791L-71.47291285478548,40.15888889408113zM-74.43644376079065,2.659830335128161L-67.6594486876572,7.479028797449451L-67.6594486876572,2.6436748584302463zM-70.0153344529573,56.05525724506409L-69.64974644233568,55.757120308477184L-70.20045209325122,54.52037547619512z" style="fill:rgb(217,127,217)"/><path d="M23.58955914519191,-21.242249451207673L26.82060709973124,-18.47552650779512L27.574089272676435,-18.852434874822187z" style="fill:rgb(128,29,208)"/><path d="M-10.430939558533755,-37.48278070370619L-10.671424705197293,-36.61414767943564L-10.532847659139772,-34.76365239824822z" style="fill:rgb(217,127,217)"/><path d="M29.307356683460434,-20.954987725656423L29.519094748732428,-21.748958461370897L26.29656434994944,-24.526176049544443z" style="fill:rgb(223,144,209)"/><path d="M-74.07269484384771,5.1085814995799845L-68.31307075213296,8.042156480186893L-67.6594486876572,8.03741935502796zM-68.45299573816534,58.44470948048201L-70.51922687952796,40.05832789907212L-71.22835278979139,40.13310025272506zM-10.671424705197293,-36.61414767943564L-10.706553342020191,-35.67701854090819L-10.532847659139772,-34.76365239824822z" style="fill:rgb(217,127,217)"/><path d="M29.49655710963356,-22.460175768086685L26.022965561354983,-25.79671664386905L26.275806810693762,-25.2380612929406z" style="fill:rgb(223,205,159)"/><path d="M-69.83418469738983,40.27677156124413L-70.14678200186096,40.01905405216718L-70.51922687952796,40.05832789907212zM-73.19122718388876,58.64518325775297L-69.417231839466,67.08387569882397L-68.75151106050335,66.5340795889704z" style="fill:rgb(217,127,217)"/><path d="M27.574089272676435,-18.852434874822187L28.28453140748457,-19.431684967813126L25.056045883839065,-22.20325703548331z" style="fill:rgb(159,49,223)"/><path d="M-69.3220534756991,56.49303948554002L-71.89210291921945,40.49430126237425L-70.20045209325122,54.52037547619512z" style="fill:rgb(217,127,217)"/><path d="M29.307356683460434,-20.954987725656423L25.655307943651444,-22.93022866520301L28.881904909019184,-20.15633213736679z" style="fill:rgb(209,110,223)"/><path d="M28.881904909019184,-20.15633213736679L25.056045883839065,-22.20325703548331L28.28453140748457,-19.431684967813126z" style="fill:rgb(187,77,228)"/><path d="M23.58955914519191,-21.242249451207673L22.866765453726767,-21.102452735079893L26.098230866927,-18.337774607995563z" style="fill:rgb(97,18,186)"/><path d="M29.49655710963356,-22.460175768086685L26.275806810693762,-25.2380612929406L26.29656434994944,-24.526176049544443z" style="fill:rgb(228,177,187)"/><path d="M-73.19122718388876,58.64518325775297L-68.75151106050335,66.5340795889704L-70.0153344529573,56.05525724506409z" style="fill:rgb(217,127,217)"/><path d="M-80.5982450327823,8.075647322278314L-76.93635045065466,9.696018161526437L-76.53419999613031,9.700061359180756z" style="fill:rgb(98,6,156)"/><path d="M-73.93280202877375,6.050314618711785L-70.05210485944285,8.054760249252855L-68.31307075213296,8.042156480186893zM-69.3220534756991,56.49303948554002L-71.22835278979139,40.13310025272506L-71.89210291921945,40.49430126237425z" style="fill:rgb(217,127,217)"/><path d="M23.58955914519191,-21.242249451207673L27.574089272676435,-18.852434874822187L24.344072486453506,-21.62153478813336z" style="fill:rgb(128,29,208)"/><path d="M29.307356683460434,-20.954987725656423L26.29656434994944,-24.526176049544443L26.08280923415572,-23.730830438885224z" style="fill:rgb(223,144,209)"/><path d="M-71.22835278979139,40.13310025272506L-71.47291285478548,40.15888889408113L-71.89210291921945,40.49430126237425z" style="fill:rgb(217,127,217)"/><path d="M27.574089272676435,-18.852434874822187L25.056045883839065,-22.20325703548331L24.344072486453506,-21.62153478813336z" style="fill:rgb(159,49,223)"/><path d="M29.307356683460434,-20.954987725656423L26.08280923415572,-23.730830438885224L25.655307943651444,-22.93022866520301z" style="fill:rgb(209,110,223)"/><path d="M-84.54449390603082,30.160032505985193L-72.05114030857156,22.76507172309759L-74.99913726757138,22.695832700869726z" style="fill:rgb(82,237,172)"/><path d="M28.881904909019184,-20.15633213736679L25.655307943651444,-22.93022866520301L25.056045883839065,-22.20325703548331z" style="fill:rgb(187,77,228)"/><path d="M-75.89252844683095,41.73747347785412L-69.14303410088445,38.2946559076791L-70.2796794596409,30.642870254570507zM-73.80273216522441,6.925945881082655L-71.62336596400473,8.066148008749368L-70.05210485944285,8.054760249252855zM-74.07269484384771,5.1085814995799845L-67.6594486876572,7.479028797449451L-74.20929202376855,4.189007060612286z" style="fill:rgb(217,127,217)"/><path d="M-80.5982450327823,8.075647322278314L-76.53419999613031,9.700061359180756L-80.09134163058978,8.079908274152578z" style="fill:rgb(98,6,156)"/><path d="M-74.43644376079065,2.659830335128161L-74.20929202376855,4.189007060612286L-67.6594486876572,7.479028797449451zM-73.93280202877375,6.050314618711785L-68.31307075213296,8.042156480186893L-74.07269484384771,5.1085814995799845zM-70.31632026924873,30.396210876621133L-75.89252844683095,41.73747347785412L-70.2796794596409,30.642870254570507z" style="fill:rgb(217,127,217)"/><path d="M-80.09134163058978,8.079908274152578L-76.53419999613031,9.700061359180756L-73.38594491200362,9.7317140960327z" style="fill:rgb(98,6,156)"/><path d="M-70.36514744937284,30.06750495391762L-76.03114863272725,41.426166099718614L-70.31632026924873,30.396210876621133zM-70.20045209325122,54.52037547619512L-71.89210291921945,40.49430126237425L-75.2497778086119,43.18091862447525zM-73.80273216522441,6.925945881082655L-70.05210485944285,8.054760249252855L-73.93280202877375,6.050314618711785zM-76.21837457777703,41.005709103105005L-70.36514744937284,30.06750495391762L-71.21317060090759,24.358663040961225zM-73.69503571582504,7.65094505960033L-72.892290708939,8.075344603709398L-71.62336596400473,8.066148008749368zM-78.82710410480747,46.04329373566691L-70.0153344529573,56.05525724506409L-70.20045209325122,54.52037547619512zM-73.69503571582504,7.65094505960033L-71.62336596400473,8.066148008749368L-73.80273216522441,6.925945881082655zM-73.63119861563554,8.080699875373682L-72.892290708939,8.075344603709398L-73.69503571582504,7.65094505960033zM-75.89252844683095,41.73747347785412L-75.2497778086119,43.18091862447525L-69.14303410088445,38.2946559076791zM-73.58728624234325,8.376291492219865L-73.62056259553695,8.15228752448128L-73.75333703583418,8.081585112945946zM-73.62056259553695,8.15228752448128L-73.63119861563554,8.080699875373682L-73.75333703583418,8.081585112945946zM-73.38594491200362,9.7317140960327L-73.58728624234325,8.376291492219865L-74.13381877133486,8.084342639855318zM-73.58728624234325,8.376291492219865L-73.75333703583418,8.081585112945946L-74.13381877133486,8.084342639855318z" style="fill:rgb(217,127,217)"/><path d="M-82.45525849350224,30.225890110723054L-71.4477860416392,22.7792424338758L-72.05114030857156,22.76507172309759z" style="fill:rgb(82,237,172)"/><path d="M-78.82710410480747,46.04329373566691L-73.19122718388876,58.64518325775297L-70.0153344529573,56.05525724506409zM-70.31632026924873,30.396210876621133L-76.03114863272725,41.426166099718614L-75.89252844683095,41.73747347785412zM-80.00229021316649,32.5080212678363L-71.21317060090759,24.358663040961225L-71.23498362540953,24.21183576622692zM-75.20913870515768,7.306390278916205L-73.63119861563554,8.080699875373682L-73.69503571582504,7.65094505960033zM-75.20913870515768,7.306390278916205L-73.75333703583418,8.081585112945946L-73.63119861563554,8.080699875373682zM-80.11512201746423,32.254635878559306L-71.23498362540953,24.21183576622692L-71.2609683234006,24.03691388499347zM-70.36514744937284,30.06750495391762L-76.21837457777703,41.005709103105005L-76.03114863272725,41.426166099718614zM-75.20913870515768,6.85046060886405L-73.69503571582504,7.65094505960033L-73.80273216522441,6.925945881082655zM-80.25072789599808,31.950098833707482L-71.2609683234006,24.03691388499347L-71.28873894874305,23.849953127931233zM-75.20913870515768,6.190143593245168L-73.80273216522441,6.925945881082655L-73.93280202877375,6.050314618711785zM-80.39710749023477,31.62136731178717L-71.28873894874305,23.849953127931233L-71.31591265323614,23.66701860265926zM-75.20913870515768,7.306390278916205L-74.13381877133486,8.084342639855318L-73.75333703583418,8.081585112945946zM-80.54180110651055,31.296428883334038L-71.31591265323614,23.66701860265926L-71.3402152254183,23.503415093198008zM-75.20913870515768,5.391068476029887L-73.93280202877375,6.050314618711785L-74.07269484384771,5.1085814995799845zM-80.67244606135705,31.003029617991334L-71.3402152254183,23.503415093198008L-71.35957765530915,23.373061740270263zM-74.07269484384771,5.1085814995799845L-74.20929202376855,4.189007060612286L-75.20913870515768,3.686781128903216zM-80.77739635914652,30.76734967418236L-71.35957765530915,23.373061740270263L-71.37223467623633,23.287869025469067zM-80.84638823799234,30.6123872662152L-71.37223467623633,23.287869025469067L-71.37683315868077,23.25688855110489zM-80.8715669376214,30.555861092983807L-71.37683315868077,23.25688855110489L-71.4477860416392,22.7792424338758z" style="fill:rgb(217,127,217)"/><path d="M-84.54449390603082,30.160032505985193L-88.06484126105688,30.049062503047878L-89.54225009532475,31.200604857231216z" style="fill:rgb(82,237,172)"/><path d="M-74.43644376079065,2.659830335128161L-75.20913870515768,3.686781128903216L-74.20929202376855,4.189007060612286z" style="fill:rgb(217,127,217)"/><path d="M-80.09134163058978,8.079908274152578L-73.38594491200362,9.7317140960327L-77.04969656615089,8.105475642064382z" style="fill:rgb(98,6,156)"/><path d="M-75.20913870515768,7.306390278916205L-73.69503571582504,7.65094505960033L-75.20913870515768,6.85046060886405zM-75.20913870515768,6.85046060886405L-73.80273216522441,6.925945881082655L-75.20913870515768,6.190143593245168zM-78.82710410480747,46.04329373566691L-70.20045209325122,54.52037547619512L-75.2497778086119,43.18091862447525zM-75.20913870515768,6.190143593245168L-73.93280202877375,6.050314618711785L-75.20913870515768,5.391068476029887zM-75.20913870515768,5.391068476029887L-74.07269484384771,5.1085814995799845L-75.20913870515768,4.529751974538764zM-74.07269484384771,5.1085814995799845L-75.20913870515768,3.686781128903216L-75.20913870515768,4.529751974538764zM-75.20913870515768,8.092136074354327L-74.13381877133486,8.084342639855318L-75.20913870515768,7.509924257871139zM-75.20913870515768,7.306390278916205L-75.20913870515768,7.509924257871139L-74.13381877133486,8.084342639855318z" style="fill:rgb(217,127,217)"/><path d="M-86.18475133200562,37.38063912568934L-89.68263063164463,37.29078108913666L-87.04732287961609,43.14719141334736z" style="fill:rgb(49,63,205)"/><path d="M-73.38594491200362,9.7317140960327L-74.13381877133486,8.084342639855318L-77.04969656615089,8.105475642064382zM-74.43644376079065,2.659830335128161L-75.20913870515768,2.6616723286167936L-75.20913870515768,3.686781128903216z" style="fill:rgb(217,127,217)"/><path d="M-86.18475133200562,37.38063912568934L-87.04732287961609,43.14719141334736L-83.52639579576805,43.30638839304395z" style="fill:rgb(49,63,205)"/><path d="M-84.54449390603082,30.160032505985193L-82.45525849350224,30.225890110723054L-72.05114030857156,22.76507172309759z" style="fill:rgb(82,237,172)"/><path d="M-86.18475133200562,37.38063912568934L-89.83356994215049,36.95535265854442L-89.68263063164463,37.29078108913666z" style="fill:rgb(49,63,205)"/><path d="M-76.21837457777703,41.005709103105005L-71.21317060090759,24.358663040961225L-80.00229021316649,32.5080212678363zM-77.04969656615089,8.105475642064382L-75.20913870515768,8.092136074354327L-75.20913870515768,7.509924257871139zM-79.94359928716267,40.46033382668673L-87.09163286359778,35.35910910604748L-83.52639579576805,43.30638839304395zM-79.94359928716267,40.46033382668673L-83.66092962489658,32.13812947471621L-87.09163286359778,35.35910910604748zM-75.20913870515768,2.6616723286167936L-77.24030539091493,2.666514366359469L-75.20913870515768,3.686781128903216z" style="fill:rgb(217,127,217)"/><path d="M-86.31422191247296,37.0920418400462L-90.02064156900843,36.539625731826284L-89.83356994215049,36.95535265854442zM-86.47468158185815,36.734370601831486L-90.2271983532143,36.08059048932798L-90.02064156900843,36.539625731826284z" style="fill:rgb(49,63,205)"/><path d="M-75.89252844683095,41.73747347785412L-77.55656412424416,45.026678149575645L-75.2497778086119,43.18091862447525z" style="fill:rgb(217,127,217)"/><path d="M-86.6518381602341,36.33946336047417L-90.43560111940526,35.617454746804405L-90.2271983532143,36.08059048932798z" style="fill:rgb(49,63,205)"/><path d="M-75.20913870515768,3.686781128903216L-78.85973477383392,2.670374886823736L-75.20913870515768,4.529751974538764z" style="fill:rgb(217,127,217)"/><path d="M-86.83057186368389,35.94104121349177L-90.62806605577566,35.189750819176844L-90.43560111940526,35.617454746804405z" style="fill:rgb(49,63,205)"/><path d="M-76.03114863272725,41.426166099718614L-77.55656412424416,45.026678149575645L-75.89252844683095,41.73747347785412z" style="fill:rgb(217,127,217)"/><path d="M-84.54449390603082,30.160032505985193L-89.54225009532475,31.200604857231216L-86.34775441923014,31.570131443644332z" style="fill:rgb(82,237,172)"/><path d="M-86.9956337025623,35.57311970818876L-90.78747806348181,34.835491395292074L-90.62806605577566,35.189750819176844zM-87.13233183220777,35.268390336875996L-90.89845704732527,34.58886321401332L-90.78747806348181,34.835491395292074z" style="fill:rgb(49,63,205)"/><path d="M-76.21837457777703,41.005709103105005L-78.13746570089376,45.491480057797126L-76.03114863272725,41.426166099718614z" style="fill:rgb(217,127,217)"/><path d="M-87.22750168042666,35.05625573749866L-90.94869670744225,34.47722523859267L-90.89845704732527,34.58886321401332z" style="fill:rgb(49,63,205)"/><path d="M-75.20913870515768,4.529751974538764L-80.46909124560398,2.6742113837811257L-75.20913870515768,5.391068476029887z" style="fill:rgb(217,127,217)"/><path d="M-88.15680062111603,32.98475462691901L-89.54225009532475,31.200604857231216L-91.67506766845389,32.863003466594506z" style="fill:rgb(82,237,172)"/><path d="M-75.20913870515768,3.686781128903216L-77.24030539091493,2.666514366359469L-78.85973477383392,2.670374886823736zM-80.00229021316649,32.5080212678363L-71.23498362540953,24.21183576622692L-80.11512201746423,32.254635878559306zM-83.77238016737931,31.888599226277055L-87.09163286359778,35.35910910604748L-83.66092962489658,32.13812947471621z" style="fill:rgb(217,127,217)"/><path d="M-86.18475133200562,37.38063912568934L-86.31422191247296,37.0920418400462L-89.83356994215049,36.95535265854442z" style="fill:rgb(49,63,205)"/><path d="M-80.11512201746423,32.254635878559306L-71.2609683234006,24.03691388499347L-80.25072789599808,31.950098833707482zM-76.03114863272725,41.426166099718614L-78.13746570089376,45.491480057797126L-77.55656412424416,45.026678149575645z" style="fill:rgb(217,127,217)"/><path d="M-82.45525849350224,30.225890110723054L-80.99803991179768,30.271825162640457L-71.4477860416392,22.7792424338758z" style="fill:rgb(82,237,172)"/><path d="M-83.90585831481742,31.58977200446733L-87.22750168042666,35.05625573749866L-83.77238016737931,31.888599226277055zM-80.25072789599808,31.950098833707482L-71.28873894874305,23.849953127931233L-80.39710749023477,31.62136731178717z" style="fill:rgb(217,127,217)"/><path d="M-86.31422191247296,37.0920418400462L-86.47468158185815,36.734370601831486L-90.02064156900843,36.539625731826284z" style="fill:rgb(49,63,205)"/><path d="M-80.39710749023477,31.62136731178717L-71.31591265323614,23.66701860265926L-80.54180110651055,31.296428883334038zM-84.049567042761,31.268047132717317L-87.39021565676227,34.69355072653043L-83.90585831481742,31.58977200446733z" style="fill:rgb(217,127,217)"/><path d="M-88.15680062111603,32.98475462691901L-91.67506766845389,32.863003466594506L-90.94869670744225,34.47722523859267z" style="fill:rgb(49,63,205)"/><path d="M-75.20913870515768,5.391068476029887L-81.92282999507287,2.677676886205409L-75.20913870515768,6.190143593245168z" style="fill:rgb(217,127,217)"/><path d="M-91.93071154654623,2.687496556905234L-80.5982450327823,8.075647322278314L-80.09134163058978,8.079908274152578z" style="fill:rgb(98,6,156)"/><path d="M-80.54180110651055,31.296428883334038L-71.3402152254183,23.503415093198008L-80.67244606135705,31.003029617991334z" style="fill:rgb(217,127,217)"/><path d="M-86.47468158185815,36.734370601831486L-86.6518381602341,36.33946336047417L-90.2271983532143,36.08059048932798z" style="fill:rgb(49,63,205)"/><path d="M-84.19129076856788,30.95075896920612L-87.56540490357276,34.30303223466566L-84.049567042761,31.268047132717317zM-80.67244606135705,31.003029617991334L-71.35957765530915,23.373061740270263L-80.77739635914652,30.76734967418236zM-80.77739635914652,30.76734967418236L-71.37223467623633,23.287869025469067L-80.84638823799234,30.6123872662152zM-68.41488806154548,69.32512778902071L-78.82710410480747,46.04329373566691L-85.84905746018335,51.661856658160836zM-80.84638823799234,30.6123872662152L-71.37683315868077,23.25688855110489L-80.8715669376214,30.555861092983807z" style="fill:rgb(217,127,217)"/><path d="M-86.6518381602341,36.33946336047417L-86.83057186368389,35.94104121349177L-90.43560111940526,35.617454746804405z" style="fill:rgb(49,63,205)"/><path d="M-84.31895863337618,30.664945097909314L-87.73819184587472,33.917875795425324L-84.19129076856788,30.95075896920612zM-76.21837457777703,41.005709103105005L-78.82710410480747,46.04329373566691L-78.13746570089376,45.491480057797126z" style="fill:rgb(217,127,217)"/><path d="M-88.15680062111603,32.98475462691901L-86.34775441923014,31.570131443644332L-89.54225009532475,31.200604857231216z" style="fill:rgb(82,237,172)"/><path d="M-80.8715669376214,30.555861092983807L-71.4477860416392,22.7792424338758L-80.99803991179768,30.271825162640457zM-75.20913870515768,6.190143593245168L-83.09658542241512,2.6804749888877106L-75.20913870515768,6.85046060886405zM-84.42117986013925,30.436099844376354L-87.89384260020799,33.570911421779634L-84.31895863337618,30.664945097909314z" style="fill:rgb(217,127,217)"/><path d="M-86.83057186368389,35.94104121349177L-86.9956337025623,35.57311970818876L-90.62806605577566,35.189750819176844z" style="fill:rgb(49,63,205)"/><path d="M-71.44782108079353,53.83763217417284L-67.89017298016866,50.94720584791383L-67.49490342799047,50.61198705898431z" style="fill:rgb(208,29,128)"/><path d="M-84.48797203033668,30.28657520968629L-88.01847997938722,33.2930907661268L-84.42117986013925,30.436099844376354zM-76.21837457777703,41.005709103105005L-78.86669998663551,45.954767189646304L-78.82710410480747,46.04329373566691zM-84.51164710260356,30.2335575238896L-88.0999150851406,33.11156090615976L-84.48797203033668,30.28657520968629zM-84.54449390603082,30.160032505985193L-88.12878873676794,33.04719620220174L-84.51164710260356,30.2335575238896z" style="fill:rgb(217,127,217)"/><path d="M-86.9956337025623,35.57311970818876L-87.13233183220777,35.268390336875996L-90.78747806348181,34.835491395292074z" style="fill:rgb(49,63,205)"/><path d="M-75.20913870515768,6.85046060886405L-83.89294053796877,2.6823733740089484L-75.20913870515768,7.306390278916205z" style="fill:rgb(217,127,217)"/><path d="M-87.13233183220777,35.268390336875996L-87.22750168042666,35.05625573749866L-90.89845704732527,34.58886321401332z" style="fill:rgb(49,63,205)"/><path d="M-75.20913870515768,4.529751974538764L-78.85973477383392,2.670374886823736L-80.46909124560398,2.6742113837811257z" style="fill:rgb(217,127,217)"/><path d="M-87.22750168042666,35.05625573749866L-87.27057533057884,34.9602301594302L-90.94869670744225,34.47722523859267z" style="fill:rgb(49,63,205)"/><path d="M-75.20913870515768,7.306390278916205L-84.24479449695896,2.6832121592375464L-75.20913870515768,7.509924257871139zM-83.77238016737931,31.888599226277055L-87.22750168042666,35.05625573749866L-87.09163286359778,35.35910910604748zM-83.90585831481742,31.58977200446733L-87.39021565676227,34.69355072653043L-87.22750168042666,35.05625573749866z" style="fill:rgb(217,127,217)"/><path d="M-88.15680062111603,32.98475462691901L-90.94869670744225,34.47722523859267L-87.27057533057884,34.9602301594302z" style="fill:rgb(49,63,205)"/><path d="M-84.049567042761,31.268047132717317L-87.56540490357276,34.30303223466566L-87.39021565676227,34.69355072653043zM-84.19129076856788,30.95075896920612L-87.73819184587472,33.917875795425324L-87.56540490357276,34.30303223466566zM-77.04969656615089,8.105475642064382L-75.20913870515768,7.509924257871139L-84.24479449695896,2.6832121592375464zM-78.86669998663551,45.954767189646304L-78.97918480205335,46.16498311130996L-78.82710410480747,46.04329373566691zM-84.31895863337618,30.664945097909314L-87.89384260020799,33.570911421779634L-87.73819184587472,33.917875795425324zM-84.42117986013925,30.436099844376354L-88.01847997938722,33.2930907661268L-87.89384260020799,33.570911421779634zM-84.48797203033668,30.28657520968629L-88.0999150851406,33.11156090615976L-88.01847997938722,33.2930907661268zM-75.20913870515768,5.391068476029887L-80.46909124560398,2.6742113837811257L-81.92282999507287,2.677676886205409zM-84.51164710260356,30.2335575238896L-88.12878873676794,33.04719620220174L-88.0999150851406,33.11156090615976zM-84.54449390603082,30.160032505985193L-88.15680062111603,32.98475462691901L-88.12878873676794,33.04719620220174z" style="fill:rgb(217,127,217)"/><path d="M-71.44782108079353,53.83763217417284L-67.49490342799047,50.61198705898431L-71.05384974063965,53.50341917075989z" style="fill:rgb(208,29,128)"/><path d="M-76.21837457777703,41.005709103105005L-83.45053539521632,35.705264912502166L-78.86669998663551,45.954767189646304z" style="fill:rgb(217,127,217)"/><path d="M-84.54449390603082,30.160032505985193L-86.38787288143662,33.04596906000915L-82.45525849350224,30.225890110723054z" style="fill:rgb(82,237,172)"/><path d="M-90.0426156477724,56.87668761709341L-84.24480367994353,82.96690871741582L-81.32512188083305,83.22000870714459z" style="fill:rgb(40,92,214)"/><path d="M-76.21837457777703,41.005709103105005L-80.00229021316649,32.5080212678363L-83.45053539521632,35.705264912502166z" style="fill:rgb(217,127,217)"/><path d="M-89.23869684040187,2.6951169742385717L-80.09134163058978,8.079908274152578L-77.04969656615089,8.105475642064382z" style="fill:rgb(98,6,156)"/><path d="M-84.54449390603082,30.160032505985193L-88.15680062111603,32.98475462691901L-86.38787288143662,33.04596906000915z" style="fill:rgb(82,237,172)"/><path d="M-75.20913870515768,6.190143593245168L-81.92282999507287,2.677676886205409L-83.09658542241512,2.6804749888877106zM-78.97918480205335,46.16498311130996L-78.86669998663551,45.954767189646304L-83.45053539521632,35.705264912502166zM-75.20913870515768,6.85046060886405L-83.09658542241512,2.6804749888877106L-83.89294053796877,2.6823733740089484zM-75.20913870515768,7.306390278916205L-83.89294053796877,2.6823733740089484L-84.24479449695896,2.6832121592375464zM-80.00229021316649,32.5080212678363L-80.11512201746423,32.254635878559306L-83.58731992866494,35.399419637786686z" style="fill:rgb(217,127,217)"/><path d="M-91.93071154654623,2.687496556905234L-92.78043875240962,2.6850912058035323L-80.5982450327823,8.075647322278314z" style="fill:rgb(98,6,156)"/><path d="M-80.11512201746423,32.254635878559306L-80.25072789599808,31.950098833707482L-83.75171214777436,35.03182384230507zM-80.25072789599808,31.950098833707482L-80.39710749023477,31.62136731178717L-83.92918621735176,34.634994271961105z" style="fill:rgb(217,127,217)"/><path d="M-82.45525849350224,30.225890110723054L-84.61235833260051,33.10741127154826L-80.99803991179768,30.271825162640457z" style="fill:rgb(82,237,172)"/><path d="M-80.39710749023477,31.62136731178717L-80.54180110651055,31.296428883334038L-84.10462042506497,34.24272737124704zM-80.54180110651055,31.296428883334038L-80.67244606135705,31.003029617991334L-84.26303353609957,33.88851488533484zM-80.67244606135705,31.003029617991334L-80.77739635914652,30.76734967418236L-84.39028220288877,33.60397196926276zM-80.77739635914652,30.76734967418236L-80.84638823799234,30.6123872662152L-84.4739590913043,33.41687876689137zM-80.84638823799234,30.6123872662152L-80.8715669376214,30.555861092983807L-84.50448098101381,33.34862691363286z" style="fill:rgb(217,127,217)"/><path d="M-82.45525849350224,30.225890110723054L-86.38787288143662,33.04596906000915L-84.61235833260051,33.10741127154826z" style="fill:rgb(82,237,172)"/><path d="M-80.8715669376214,30.555861092983807L-80.99803991179768,30.271825162640457L-84.61235833260051,33.10741127154826zM-80.00229021316649,32.5080212678363L-83.58731992866494,35.399419637786686L-83.45053539521632,35.705264912502166z" style="fill:rgb(217,127,217)"/><path d="M-80.69819588677062,83.27435577111925L-86.54558617794639,57.085773512613876L-81.32512188083305,83.22000870714459z" style="fill:rgb(40,92,214)"/><path d="M-80.11512201746423,32.254635878559306L-83.75171214777436,35.03182384230507L-83.58731992866494,35.399419637786686zM-80.25072789599808,31.950098833707482L-83.92918621735176,34.634994271961105L-83.75171214777436,35.03182384230507zM-80.39710749023477,31.62136731178717L-84.10462042506497,34.24272737124704L-83.92918621735176,34.634994271961105z" style="fill:rgb(217,127,217)"/><path d="M-90.0426156477724,56.87668761709341L-81.32512188083305,83.22000870714459L-86.54558617794639,57.085773512613876z" style="fill:rgb(40,92,214)"/><path d="M-89.23869684040187,2.6951169742385717L-91.93071154654623,2.687496556905234L-80.09134163058978,8.079908274152578z" style="fill:rgb(98,6,156)"/><path d="M-80.54180110651055,31.296428883334038L-84.26303353609957,33.88851488533484L-84.10462042506497,34.24272737124704zM-80.67244606135705,31.003029617991334L-84.39028220288877,33.60397196926276L-84.26303353609957,33.88851488533484zM-97.91457879641949,-7.718286169946611L-74.43644376079065,2.659830335128161L-77.05217729793985,-14.94907954118871zM-97.91457879641949,-7.718286169946611L-77.24030539091493,2.666514366359469L-74.43644376079065,2.659830335128161zM-80.77739635914652,30.76734967418236L-84.4739590913043,33.41687876689137L-84.39028220288877,33.60397196926276zM-80.84638823799234,30.6123872662152L-84.50448098101381,33.34862691363286L-84.4739590913043,33.41687876689137zM-80.8715669376214,30.555861092983807L-84.61235833260051,33.10741127154826L-84.50448098101381,33.34862691363286zM-77.04969656615089,8.105475642064382L-84.24479449695896,2.6832121592375464L-89.23869684040187,2.6951169742385717z" style="fill:rgb(217,127,217)"/><path d="M-88.15680062111603,32.98475462691901L-93.05543605992874,37.82728954911727L-86.38787288143662,33.04596906000915z" style="fill:rgb(82,237,172)"/><path d="M-78.97918480205335,46.16498311130996L-83.45053539521632,35.705264912502166L-89.90963655085255,41.694208068338185zM-97.5210259471453,-6.83446648224179L-78.85973477383392,2.670374886823736L-77.24030539091493,2.666514366359469z" style="fill:rgb(217,127,217)"/><path d="M-80.69819588677062,83.27435577111925L-86.49925774570667,57.08854291003915L-86.54558617794639,57.085773512613876z" style="fill:rgb(40,92,214)"/><path d="M-88.15680062111603,32.98475462691901L-94.28670906321521,37.778172820177L-93.05543605992874,37.82728954911727z" style="fill:rgb(82,237,172)"/><path d="M-78.97918480205335,46.16498311130996L-89.90963655085255,41.694208068338185L-87.4225469283395,52.92087003881576zM-97.11560314230705,-5.9239885664461465L-80.46909124560398,2.6742113837811257L-78.85973477383392,2.670374886823736zM-89.90963655085255,41.694208068338185L-83.45053539521632,35.705264912502166L-83.58731992866494,35.399419637786686zM-90.0145585104892,41.22061176059275L-83.58731992866494,35.399419637786686L-83.75171214777436,35.03182384230507z" style="fill:rgb(217,127,217)"/><path d="M-75.38440702223006,53.74121642387444L-64.62051946513574,37.93461219185133L-78.10819178805896,47.65079360581543z" style="fill:rgb(49,63,205)"/><path d="M-90.13986655846443,40.65495794576191L-83.75171214777436,35.03182384230507L-83.92918621735176,34.634994271961105z" style="fill:rgb(217,127,217)"/><path d="M-86.38787288143662,33.04596906000915L-90.74588618058894,37.91941930216629L-84.61235833260051,33.10741127154826z" style="fill:rgb(82,237,172)"/><path d="M-90.27418640855889,40.0486546560043L-83.92918621735176,34.634994271961105L-84.10462042506497,34.24272737124704zM-85.84905746018335,51.661856658160836L-86.2791556386565,52.00599793407044L-86.41615533403919,52.28783230798539z" style="fill:rgb(217,127,217)"/><path d="M-75.38440702223006,53.74121642387444L-72.008064342748,53.92906288821803L-64.62051946513574,37.93461219185133z" style="fill:rgb(49,63,205)"/><path d="M-90.4059923944792,39.453685979773L-84.10462042506497,34.24272737124704L-84.26303353609957,33.88851488533484zM-77.05217729793985,-14.94907954118871L-77.16971650475058,-15.740347697832533L-104.74700282952656,-25.281155041641576zM-96.73644819494478,-5.072514753790013L-81.92282999507287,2.677676886205409L-80.46909124560398,2.6742113837811257zM-90.52419422728516,38.9201366006777L-84.26303353609957,33.88851488533484L-84.39028220288877,33.60397196926276zM-77.16971650475058,-15.740347697832533L-77.26613076519185,-16.38940797310983L-104.86013749740722,-25.79185867829946zM-90.61858751162191,38.494047136054554L-84.39028220288877,33.60397196926276L-84.4739590913043,33.41687876689137zM-77.26613076519185,-16.38940797310983L-77.3323518197696,-16.835192945196063L-104.93778162014166,-26.14235866889894zM-90.68038157401672,38.21509383715703L-84.4739590913043,33.41687876689137L-84.50448098101381,33.34862691363286zM-77.3323518197696,-16.835192945196063L-77.36185308410359,-17.033789830004924L-104.97236653557295,-26.298439865671924zM-90.70287831656744,38.1135730156198L-84.50448098101381,33.34862691363286L-84.61235833260051,33.10741127154826zM-77.36185308410359,-17.033789830004924L-77.38866520657228,-17.214281868279137L-105.07260962366473,-26.750940286969712z" style="fill:rgb(217,127,217)"/><path d="M-78.10819178805896,47.65079360581543L-64.62051946513574,37.93461219185133L-78.24100004812838,47.353838252129016zM-78.24100004812838,47.353838252129016L-64.62051946513574,37.93461219185133L-78.42419619422571,46.94421234842111z" style="fill:rgb(49,63,205)"/><path d="M-87.20381859122872,53.90820005210181L-86.2791556386565,52.00599793407044L-87.4225469283395,52.92087003881576zM-86.96480122567928,54.987097157027044L-87.00304968676377,54.03639535567916L-87.08553241947611,54.442119615329624zM-87.08553241947611,54.442119615329624L-86.81392142672557,53.10612314744786L-87.20381859122872,53.90820005210181z" style="fill:rgb(217,127,217)"/><path d="M-97.81121024388365,0.4589978369513261L-92.78043875240962,2.6850912058035323L-91.93071154654623,2.687496556905234z" style="fill:rgb(98,6,156)"/><path d="M-86.38787288143662,33.04596906000915L-93.05543605992874,37.82728954911727L-90.74588618058894,37.91941930216629z" style="fill:rgb(82,237,172)"/><path d="M-64.81738563530777,38.500715639548034L-71.05384974063965,53.50341917075989L-67.49490342799047,50.61198705898431z" style="fill:rgb(221,46,155)"/><path d="M-96.42092083968333,-4.363910709141053L-83.09658542241512,2.6804749888877106L-81.92282999507287,2.677676886205409zM-96.20186797509723,-3.8719844222615287L-83.89294053796877,2.6823733740089484L-83.09658542241512,2.6804749888877106z" style="fill:rgb(217,127,217)"/><path d="M-71.44782108079353,53.83763217417284L-64.62051946513574,37.93461219185133L-72.008064342748,53.92906288821803z" style="fill:rgb(49,63,205)"/><path d="M-89.90963655085255,41.694208068338185L-83.58731992866494,35.399419637786686L-90.0145585104892,41.22061176059275zM-90.0145585104892,41.22061176059275L-83.75171214777436,35.03182384230507L-90.13986655846443,40.65495794576191zM-96.10377468270097,-3.6516764444018444L-84.24479449695896,2.6832121592375464L-83.89294053796877,2.6823733740089484zM-90.13986655846443,40.65495794576191L-83.92918621735176,34.634994271961105L-90.27418640855889,40.0486546560043zM-90.27418640855889,40.0486546560043L-84.10462042506497,34.24272737124704L-90.4059923944792,39.453685979773z" style="fill:rgb(217,127,217)"/><path d="M-71.05384974063965,53.50341917075989L-64.62051946513574,37.93461219185133L-71.44782108079353,53.83763217417284zM-78.42419619422571,46.94421234842111L-64.62051946513574,37.93461219185133L-82.66077818389398,37.47116790899392z" style="fill:rgb(49,63,205)"/><path d="M-90.4059923944792,39.453685979773L-84.26303353609957,33.88851488533484L-90.52419422728516,38.9201366006777zM-90.52419422728516,38.9201366006777L-84.39028220288877,33.60397196926276L-90.61858751162191,38.494047136054554zM-90.61858751162191,38.494047136054554L-84.4739590913043,33.41687876689137L-90.68038157401672,38.21509383715703zM-90.68038157401672,38.21509383715703L-84.50448098101381,33.34862691363286L-90.70287831656744,38.1135730156198zM-90.70287831656744,38.1135730156198L-84.61235833260051,33.10741127154826L-90.74588618058894,37.91941930216629z" style="fill:rgb(217,127,217)"/><path d="M-96.82245042656294,0.4594788414299579L-91.93071154654623,2.687496556905234L-89.23869684040187,2.6951169742385717zM-97.81121024388365,0.4589978369513261L-91.93071154654623,2.687496556905234L-96.82245042656294,0.4594788414299579z" style="fill:rgb(98,6,156)"/><path d="M-80.99803991179768,30.271825162640457L-83.127682732405,31.942614243457417L-68.12614957961036,33.67792294089769z" style="fill:rgb(82,237,172)"/><path d="M-86.79414139804706,57.07091196618364L-107.70268021586666,54.71015164482146L-90.0426156477724,56.87668761709341z" style="fill:rgb(115,1,139)"/><path d="M-82.66077818389398,37.47116790899392L-64.62051946513574,37.93461219185133L-82.76875238170278,37.229746103627285z" style="fill:rgb(49,63,205)"/><path d="M-96.10377468270097,-3.6516764444018444L-89.23869684040187,2.6951169742385717L-84.24479449695896,2.6832121592375464z" style="fill:rgb(217,127,217)"/><path d="M-82.76875238170278,37.229746103627285L-64.62051946513574,37.93461219185133L-82.90255876406029,36.93055252466426zM-82.90255876406029,36.93055252466426L-64.62051946513574,37.93461219185133L-83.05028250219085,36.60022846024614zM-83.05028250219085,36.60022846024614L-64.62051946513574,37.93461219185133L-83.1993164345043,36.26698153980412zM-83.1993164345043,36.26698153980412L-64.62051946513574,37.93461219185133L-83.33694095023928,35.959261274444145zM-83.33694095023928,35.959261274444145L-64.62051946513574,37.93461219185133L-83.45091645701224,35.704405317184886zM-83.45091645701224,35.704405317184886L-64.62051946513574,37.93461219185133L-83.5302651805364,35.52699462686589zM-83.5302651805364,35.52699462686589L-64.62051946513574,37.93461219185133L-83.56617686984784,35.44668716904856z" style="fill:rgb(49,63,205)"/><path d="M-84.61235833260051,33.10741127154826L-68.12614957961036,33.67792294089769L-83.127682732405,31.942614243457417z" style="fill:rgb(82,237,172)"/><path d="M-84.61235833260051,33.10741127154826L-83.56617686984784,35.44668716904856L-64.62051946513574,37.93461219185133z" style="fill:rgb(49,63,205)"/><path d="M-97.5210259471453,-6.83446648224179L-77.24030539091493,2.666514366359469L-97.91457879641949,-7.718286169946611zM-97.11560314230705,-5.9239885664461465L-78.85973477383392,2.670374886823736L-97.5210259471453,-6.83446648224179zM-96.73644819494478,-5.072514753790013L-80.46909124560398,2.6742113837811257L-97.11560314230705,-5.9239885664461465z" style="fill:rgb(217,127,217)"/><path d="M-96.82245042656294,0.4594788414299579L-89.23869684040187,2.6951169742385717L-94.27256646132614,0.46071930388637244z" style="fill:rgb(98,6,156)"/><path d="M-96.42092083968333,-4.363910709141053L-81.92282999507287,2.677676886205409L-96.73644819494478,-5.072514753790013z" style="fill:rgb(217,127,217)"/><path d="M-94.28670906321521,37.778172820177L-108.65493215423952,49.013715569052174L-93.05543605992874,37.82728954911727z" style="fill:rgb(82,237,172)"/><path d="M-96.20186797509723,-3.8719844222615287L-83.09658542241512,2.6804749888877106L-96.42092083968333,-4.363910709141053zM-96.10377468270097,-3.6516764444018444L-83.89294053796877,2.6823733740089484L-96.20186797509723,-3.8719844222615287z" style="fill:rgb(217,127,217)"/><path d="M-103.0998772707304,-1.8812095885836668L-97.81121024388365,0.4589978369513261L-96.82245042656294,0.4594788414299579z" style="fill:rgb(98,6,156)"/><path d="M-104.17062371222184,54.91713000547443L-86.79414139804706,57.07091196618364L-86.49925774570667,57.08854291003915z" style="fill:rgb(115,1,139)"/><path d="M-97.91457879641949,-7.718286169946611L-77.05217729793985,-14.94907954118871L-104.60894463312269,-24.657958059245548zM-96.10377468270097,-3.6516764444018444L-94.27256646132614,0.46071930388637244L-89.23869684040187,2.6951169742385717z" style="fill:rgb(217,127,217)"/><path d="M-64.81738563530777,38.500715639548034L-67.49490342799047,50.61198705898431L-61.20802136677647,35.60073941382495z" style="fill:rgb(221,46,155)"/><path d="M-89.90963655085255,41.694208068338185L-104.17062371222184,54.91713000547443L-86.49925774570667,57.08854291003915z" style="fill:rgb(217,127,217)"/><path d="M-101.96656751979198,-1.8834819477678837L-96.82245042656294,0.4594788414299579L-94.27256646132614,0.46071930388637244zM-103.0998772707304,-1.8812095885836668L-96.82245042656294,0.4594788414299579L-101.96656751979198,-1.8834819477678837z" style="fill:rgb(98,6,156)"/><path d="M-93.05543605992874,37.82728954911727L-105.12353347392224,49.19929754003429L-90.74588618058894,37.91941930216629z" style="fill:rgb(82,237,172)"/><path d="M-90.0145585104892,41.22061176059275L-104.17062371222184,54.91713000547443L-89.90963655085255,41.694208068338185zM-90.13986655846443,40.65495794576191L-104.89867118525703,54.70124140468542L-90.0145585104892,41.22061176059275z" style="fill:rgb(217,127,217)"/><path d="M-80.99803991179768,30.271825162640457L-68.12614957961036,33.67792294089769L-64.503587354085,30.791770324133605z" style="fill:rgb(82,237,172)"/><path d="M-90.27418640855889,40.0486546560043L-105.53155493607522,54.2033962226279L-90.13986655846443,40.65495794576191zM-77.05217729793985,-14.94907954118871L-104.74700282952656,-25.281155041641576L-104.60894463312269,-24.657958059245548zM-90.74588618058894,37.91941930216629L-105.12353347392224,49.19929754003429L-90.70287831656744,38.1135730156198zM-90.4059923944792,39.453685979773L-106.00691208848,53.472081828212794L-90.27418640855889,40.0486546560043zM-77.16971650475058,-15.740347697832533L-104.86013749740722,-25.79185867829946L-104.74700282952656,-25.281155041641576zM-77.26613076519185,-16.38940797310983L-104.93778162014166,-26.14235866889894L-104.86013749740722,-25.79185867829946zM-90.70287831656744,38.1135730156198L-105.71019676568051,49.834722596378036L-90.68038157401672,38.21509383715703zM-90.52419422728516,38.9201366006777L-106.27778107139842,52.57897701348081L-90.4059923944792,39.453685979773zM-77.3323518197696,-16.835192945196063L-104.97236653557295,-26.298439865671924L-104.93778162014166,-26.14235866889894zM-77.36185308410359,-17.033789830004924L-105.07260962366473,-26.750940286969712L-104.97236653557295,-26.298439865671924zM-90.68038157401672,38.21509383715703L-106.12170125213378,50.66613796441573L-90.61858751162191,38.494047136054554zM-90.61858751162191,38.494047136054554L-106.3173497608554,51.61191817084088L-90.52419422728516,38.9201366006777z" style="fill:rgb(217,127,217)"/><path d="M-64.81738563530777,38.500715639548034L-64.62051946513574,37.93461219185133L-71.05384974063965,53.50341917075989z" style="fill:rgb(49,63,205)"/><path d="M-103.0998772707304,-1.8812095885836668L-102.81402167365123,-2.269466782505325L-103.97098435782473,-2.2666690763959103zM-103.0998772707304,-1.8812095885836668L-101.96656751979198,-1.8834819477678837L-102.81402167365123,-2.269466782505325z" style="fill:rgb(98,6,156)"/><path d="M-104.17062371222184,54.91713000547443L-107.70268021586666,54.71015164482146L-86.79414139804706,57.07091196618364z" style="fill:rgb(115,1,139)"/><path d="M-101.96656751979198,-1.8834819477678837L-94.27256646132614,0.46071930388637244L-99.56467025422327,-1.8882979266961368z" style="fill:rgb(98,6,156)"/><path d="M-100.47229668226275,-5.9852769331335836L-94.27256646132614,0.46071930388637244L-96.10377468270097,-3.6516764444018444z" style="fill:rgb(217,127,217)"/><path d="M-84.61235833260051,33.10741127154826L-64.62051946513574,37.93461219185133L-68.12614957961036,33.67792294089769z" style="fill:rgb(49,63,205)"/><path d="M-100.47229668226275,-5.9852769331335836L-96.10377468270097,-3.6516764444018444L-96.20186797509723,-3.8719844222615287zM-100.51264347273217,-6.167419130576832L-96.20186797509723,-3.8719844222615287L-96.42092083968333,-4.363910709141053zM-100.60290652736889,-6.574871146876205L-96.42092083968333,-4.363910709141053L-96.73644819494478,-5.072514753790013z" style="fill:rgb(217,127,217)"/><path d="M-93.05543605992874,37.82728954911727L-108.65493215423952,49.013715569052174L-105.12353347392224,49.19929754003429z" style="fill:rgb(82,237,172)"/><path d="M-100.47229668226275,-5.9852769331335836L-99.56467025422327,-1.8882979266961368L-94.27256646132614,0.46071930388637244zM-100.7333387789135,-7.163604783543728L-96.73644819494478,-5.072514753790013L-97.11560314230705,-5.9239885664461465z" style="fill:rgb(217,127,217)"/><path d="M-101.96656751979198,-1.8834819477678837L-100.43636111082866,-2.275216339114125L-102.81402167365123,-2.269466782505325z" style="fill:rgb(98,6,156)"/><path d="M-100.89068299319896,-7.873882841320592L-97.11560314230705,-5.9239885664461465L-97.5210259471453,-6.83446648224179zM-101.05970641310859,-8.636836209336096L-97.5210259471453,-6.83446648224179L-97.91457879641949,-7.718286169946611z" style="fill:rgb(217,127,217)"/><path d="M-101.96656751979198,-1.8834819477678837L-99.56467025422327,-1.8882979266961368L-100.43636111082866,-2.275216339114125z" style="fill:rgb(98,6,156)"/><path d="M-100.47229668226275,-5.9852769331335836L-96.20186797509723,-3.8719844222615287L-100.51264347273217,-6.167419130576832zM-100.51264347273217,-6.167419130576832L-96.42092083968333,-4.363910709141053L-100.60290652736889,-6.574871146876205zM-100.60290652736889,-6.574871146876205L-96.73644819494478,-5.072514753790013L-100.7333387789135,-7.163604783543728zM-100.7333387789135,-7.163604783543728L-97.11560314230705,-5.9239885664461465L-100.89068299319896,-7.873882841320592zM-90.0145585104892,41.22061176059275L-104.89867118525703,54.70124140468542L-104.17062371222184,54.91713000547443zM-100.89068299319896,-7.873882841320592L-97.5210259471453,-6.83446648224179L-101.05970641310859,-8.636836209336096zM-101.05970641310859,-8.636836209336096L-97.91457879641949,-7.718286169946611L-101.22454156375457,-9.3808979950063zM-100.47229668226275,-5.9852769331335836L-100.43636111082866,-2.275216339114125L-99.56467025422327,-1.8882979266961368zM-90.13986655846443,40.65495794576191L-105.53155493607522,54.2033962226279L-104.89867118525703,54.70124140468542zM-90.70287831656744,38.1135730156198L-105.12353347392224,49.19929754003429L-105.71019676568051,49.834722596378036zM-90.27418640855889,40.0486546560043L-106.00691208848,53.472081828212794L-105.53155493607522,54.2033962226279zM-90.68038157401672,38.21509383715703L-105.71019676568051,49.834722596378036L-106.12170125213378,50.66613796441573zM-90.4059923944792,39.453685979773L-106.27778107139842,52.57897701348081L-106.00691208848,53.472081828212794zM-101.22454156375457,-9.3808979950063L-97.91457879641949,-7.718286169946611L-103.76867845363286,-20.86505620260958zM-90.61858751162191,38.494047136054554L-106.12170125213378,50.66613796441573L-106.3173497608554,51.61191817084088zM-90.52419422728516,38.9201366006777L-106.3173497608554,51.61191817084088L-106.27778107139842,52.57897701348081zM-100.47229668226275,-5.9852769331335836L-102.60512850257552,-7.124604729454532L-100.43636111082866,-2.275216339114125zM-100.47229668226275,-5.9852769331335836L-100.51264347273217,-6.167419130576832L-102.69731781348244,-7.330727910712991z" style="fill:rgb(217,127,217)"/><path d="M-64.62051946513574,37.93461219185133L-61.20802136677647,35.60073941382495L-61.00928468539176,35.03446881658828z" style="fill:rgb(223,49,159)"/><path d="M-100.51264347273217,-6.167419130576832L-100.60290652736889,-6.574871146876205L-102.90315173077666,-7.790974490194334zM-100.60290652736889,-6.574871146876205L-100.7333387789135,-7.163604783543728L-103.19963096792212,-8.453922318468436zM-100.7333387789135,-7.163604783543728L-100.89068299319896,-7.873882841320592L-103.5558797440621,-9.250498648840965z" style="fill:rgb(217,127,217)"/><path d="M-63.81422184048105,30.94095712011042L-64.503587354085,30.791770324133605L-68.12614957961036,33.67792294089769z" style="fill:rgb(97,236,186)"/><path d="M-104.89867118525703,54.70124140468542L-108.43021841557922,54.49494617245311L-107.70268021586666,54.71015164482146z" style="fill:rgb(104,4,150)"/><path d="M-64.62051946513574,37.93461219185133L-61.00928468539176,35.03446881658828L-61.03947770501354,34.30997393101714z" style="fill:rgb(228,77,187)"/><path d="M-100.47229668226275,-5.9852769331335836L-102.69731781348244,-7.330727910712991L-102.60512850257552,-7.124604729454532zM-100.89068299319896,-7.873882841320592L-101.05970641310859,-8.636836209336096L-103.93679946611981,-10.102240895046837zM-100.51264347273217,-6.167419130576832L-102.90315173077666,-7.790974490194334L-102.69731781348244,-7.330727910712991zM-97.91457879641949,-7.718286169946611L-104.60894463312269,-24.657958059245548L-103.76867845363286,-20.86505620260958zM-101.05970641310859,-8.636836209336096L-101.22454156375457,-9.3808979950063L-104.30655059115716,-10.929007581438334z" style="fill:rgb(217,127,217)"/><path d="M-109.06265662873598,53.998866075245814L-108.43021841557922,54.49494617245311L-104.89867118525703,54.70124140468542z" style="fill:rgb(78,20,176)"/><path d="M-100.60290652736889,-6.574871146876205L-103.19963096792212,-8.453922318468436L-102.90315173077666,-7.790974490194334z" style="fill:rgb(217,127,217)"/><path d="M-64.62051946513574,37.93461219185133L-64.81738563530777,38.500715639548034L-61.20802136677647,35.60073941382495z" style="fill:rgb(223,49,159)"/><path d="M-100.7333387789135,-7.163604783543728L-103.5558797440621,-9.250498648840965L-103.19963096792212,-8.453922318468436z" style="fill:rgb(217,127,217)"/><path d="M-63.81422184048105,30.94095712011042L-66.6999270346575,34.22519151700149L-63.078282172108246,31.33427079362661z" style="fill:rgb(128,225,208)"/><path d="M-64.91186937060566,36.396303119413375L-61.03947770501354,34.30997393101714L-61.29601574699661,33.498239470409025z" style="fill:rgb(223,110,209)"/><path d="M-105.71019676568051,49.834722596378036L-108.65493215423952,49.013715569052174L-109.24118117886334,49.64664771884845z" style="fill:rgb(70,226,184)"/><path d="M-66.6999270346575,34.22519151700149L-62.36818317180537,31.933281206024024L-63.078282172108246,31.33427079362661z" style="fill:rgb(159,205,223)"/><path d="M-100.89068299319896,-7.873882841320592L-103.93679946611981,-10.102240895046837L-103.5558797440621,-9.250498648840965z" style="fill:rgb(217,127,217)"/><path d="M-64.91186937060566,36.396303119413375L-61.29601574699661,33.498239470409025L-61.753912777121236,32.679104179870784z" style="fill:rgb(209,144,223)"/><path d="M-105.71019676568051,49.834722596378036L-109.24118117886334,49.64664771884845L-109.6523856166541,50.474857467057134z" style="fill:rgb(51,196,203)"/><path d="M-109.06265662873598,53.998866075245814L-106.00691208848,53.472081828212794L-109.53768686117832,53.27022789251623z" style="fill:rgb(57,47,197)"/><path d="M-65.37207623236726,35.57512475666795L-61.753912777121236,32.679104179870784L-62.36818317180537,31.933281206024024z" style="fill:rgb(187,177,228)"/><path d="M-104.89867118525703,54.70124140468542L-107.70268021586666,54.71015164482146L-104.17062371222184,54.91713000547443z" style="fill:rgb(104,4,150)"/><path d="M-101.05970641310859,-8.636836209336096L-104.30655059115716,-10.929007581438334L-103.93679946611981,-10.102240895046837z" style="fill:rgb(217,127,217)"/><path d="M-109.80836301128153,52.38044757634181L-109.53768686117832,53.27022789251623L-106.00691208848,53.472081828212794z" style="fill:rgb(43,81,211)"/><path d="M-63.81422184048105,30.94095712011042L-68.12614957961036,33.67792294089769L-67.43669660842158,33.82932559021829z" style="fill:rgb(97,236,186)"/><path d="M-64.62051946513574,37.93461219185133L-61.03947770501354,34.30997393101714L-64.6529434859134,37.209458536570295z" style="fill:rgb(228,77,187)"/><path d="M-106.3173497608554,51.61191817084088L-109.6523856166541,50.474857467057134L-109.84790356364347,51.417033492494014z" style="fill:rgb(40,160,214)"/><path d="M-109.80836301128153,52.38044757634181L-106.3173497608554,51.61191817084088L-109.84790356364347,51.417033492494014z" style="fill:rgb(37,120,217)"/><path d="M-63.81422184048105,30.94095712011042L-67.43669660842158,33.82932559021829L-66.6999270346575,34.22519151700149z" style="fill:rgb(128,225,208)"/><path d="M-64.91186937060566,36.396303119413375L-64.6529434859134,37.209458536570295L-61.03947770501354,34.30997393101714z" style="fill:rgb(223,110,209)"/><path d="M-105.71019676568051,49.834722596378036L-105.12353347392224,49.19929754003429L-108.65493215423952,49.013715569052174z" style="fill:rgb(70,226,184)"/><path d="M-109.06265662873598,53.998866075245814L-104.89867118525703,54.70124140468542L-105.53155493607522,54.2033962226279z" style="fill:rgb(78,20,176)"/><path d="M-66.6999270346575,34.22519151700149L-65.98833680400223,34.82683942748625L-62.36818317180537,31.933281206024024z" style="fill:rgb(159,205,223)"/><path d="M-64.91186937060566,36.396303119413375L-61.753912777121236,32.679104179870784L-65.37207623236726,35.57512475666795z" style="fill:rgb(209,144,223)"/><path d="M-65.37207623236726,35.57512475666795L-62.36818317180537,31.933281206024024L-65.98833680400223,34.82683942748625z" style="fill:rgb(187,177,228)"/><path d="M-109.06265662873598,53.998866075245814L-105.53155493607522,54.2033962226279L-106.00691208848,53.472081828212794z" style="fill:rgb(57,47,197)"/><path d="M-64.62051946513574,37.93461219185133L-67.43669660842158,33.82932559021829L-68.12614957961036,33.67792294089769z" style="fill:rgb(49,63,205)"/><path d="M-105.71019676568051,49.834722596378036L-109.6523856166541,50.474857467057134L-106.12170125213378,50.66613796441573z" style="fill:rgb(51,196,203)"/><path d="M-64.62051946513574,37.93461219185133L-66.6999270346575,34.22519151700149L-67.43669660842158,33.82932559021829z" style="fill:rgb(49,63,205)"/><path d="M-103.76867845363286,-20.86505620260958L-104.60894463312269,-24.657958059245548L-105.615530694298,-25.01260281037169z" style="fill:rgb(217,127,217)"/><path d="M-64.62051946513574,37.93461219185133L-64.6529434859134,37.209458536570295L-64.91186937060566,36.396303119413375z" style="fill:rgb(49,63,205)"/><path d="M-106.3173497608554,51.61191817084088L-106.12170125213378,50.66613796441573L-109.6523856166541,50.474857467057134z" style="fill:rgb(40,160,214)"/><path d="M-109.80836301128153,52.38044757634181L-106.00691208848,53.472081828212794L-106.27778107139842,52.57897701348081z" style="fill:rgb(43,81,211)"/><path d="M-109.80836301128153,52.38044757634181L-106.27778107139842,52.57897701348081L-106.3173497608554,51.61191817084088z" style="fill:rgb(37,120,217)"/><path d="M-64.62051946513574,37.93461219185133L-65.98833680400223,34.82683942748625L-66.6999270346575,34.22519151700149zM-64.62051946513574,37.93461219185133L-64.91186937060566,36.396303119413375L-65.37207623236726,35.57512475666795zM-64.62051946513574,37.93461219185133L-65.37207623236726,35.57512475666795L-65.98833680400223,34.82683942748625z" style="fill:rgb(49,63,205)"/><path d="M-104.60894463312269,-24.657958059245548L-104.74700282952656,-25.281155041641576L-105.91506220749443,-25.685264639010356zM-104.74700282952656,-25.281155041641576L-104.86013749740722,-25.79185867829946L-106.1597065518246,-26.234675628207825zM-104.86013749740722,-25.79185867829946L-104.93778162014166,-26.14235866889894L-106.32719445908468,-26.61079484393262zM-104.60894463312269,-24.657958059245548L-105.91506220749443,-25.685264639010356L-105.615530694298,-25.01260281037169zM-104.93778162014166,-26.14235866889894L-104.97236653557295,-26.298439865671924L-106.40165873324433,-26.778037576048842zM-111.53833395879644,-27.099342470936033L-101.22454156375457,-9.3808979950063L-103.76867845363286,-20.86505620260958zM-104.97236653557295,-26.298439865671924L-105.07260962366473,-26.750940286969712L-106.62821635336726,-27.28682020612502zM-104.74700282952656,-25.281155041641576L-106.1597065518246,-26.234675628207825L-105.91506220749443,-25.685264639010356zM-111.53833395879644,-27.099342470936033L-104.30655059115716,-10.929007581438334L-101.22454156375457,-9.3808979950063zM-104.86013749740722,-25.79185867829946L-106.32719445908468,-26.61079484393262L-106.1597065518246,-26.234675628207825zM-104.93778162014166,-26.14235866889894L-106.40165873324433,-26.778037576048842L-106.32719445908468,-26.61079484393262zM-104.97236653557295,-26.298439865671924L-106.62821635336726,-27.28682020612502L-106.40165873324433,-26.778037576048842zM-111.53833395879644,-27.099342470936033L-103.76867845363286,-20.86505620260958L-105.615530694298,-25.01260281037169zM-105.615530694298,-25.01260281037169L-105.91506220749443,-25.685264639010356L-111.81948601571585,-27.727993659843268zM-105.91506220749443,-25.685264639010356L-106.1597065518246,-26.234675628207825L-112.0491148177837,-28.241443875835767zM-106.1597065518246,-26.234675628207825L-106.32719445908468,-26.61079484393262L-112.20630572433383,-28.592940044031423zM-106.32719445908468,-26.61079484393262L-106.40165873324433,-26.778037576048842L-112.27621106658108,-28.74922816479376zM-106.62821635336726,-27.28682020612502L-112.27621106658108,-28.74922816479376L-106.40165873324433,-26.778037576048842zM-105.615530694298,-25.01260281037169L-111.81948601571585,-27.727993659843268L-111.53833395879644,-27.099342470936033zM-105.91506220749443,-25.685264639010356L-112.0491148177837,-28.241443875835767L-111.81948601571585,-27.727993659843268zM-106.1597065518246,-26.234675628207825L-112.20630572433383,-28.592940044031423L-112.0491148177837,-28.241443875835767zM-106.32719445908468,-26.61079484393262L-112.27621106658108,-28.74922816479376L-112.20630572433383,-28.592940044031423zM-106.62821635336726,-27.28682020612502L-112.53167314382479,-29.3204649477054L-112.27621106658108,-28.74922816479376z" style="fill:rgb(217,127,217)"/><path d="M-102.81402167365123,-2.269466782505325L-197.79422715436274,-43.7829881611349L-103.97098435782473,-2.2666690763959103zM-100.43636111082866,-2.275216339114125L-194.3517694461283,-43.96166752450595L-102.81402167365123,-2.269466782505325z" style="fill:rgb(98,6,156)"/><path d="M-102.60512850257552,-7.124604729454532L-194.3517694461283,-43.96166752450595L-100.43636111082866,-2.275216339114125zM-102.69731781348244,-7.330727910712991L-195.13325003409588,-56.55173814723586L-102.60512850257552,-7.124604729454532zM-102.90315173077666,-7.790974490194334L-195.13325003409588,-56.55173814723586L-102.69731781348244,-7.330727910712991zM-103.19963096792212,-8.453922318468436L-195.13325003409588,-56.55173814723586L-102.90315173077666,-7.790974490194334zM-103.5558797440621,-9.250498648840965L-195.13325003409588,-56.55173814723586L-103.19963096792212,-8.453922318468436zM-103.93679946611981,-10.102240895046837L-195.13325003409588,-56.55173814723586L-103.5558797440621,-9.250498648840965zM-104.30655059115716,-10.929007581438334L-195.13325003409588,-56.55173814723586L-103.93679946611981,-10.102240895046837zM-111.53833395879644,-27.099342470936033L-195.13325003409588,-56.55173814723586L-104.30655059115716,-10.929007581438334zM-111.81948601571585,-27.727993659843268L-195.13325003409588,-56.55173814723586L-111.53833395879644,-27.099342470936033zM-112.0491148177837,-28.241443875835767L-195.13325003409588,-56.55173814723586L-111.81948601571585,-27.727993659843268zM-112.20630572433383,-28.592940044031423L-195.13325003409588,-56.55173814723586L-112.0491148177837,-28.241443875835767zM-112.27621106658108,-28.74922816479376L-195.13325003409588,-56.55173814723586L-112.20630572433383,-28.592940044031423zM-195.13325003409588,-56.55173814723586L-112.27621106658108,-28.74922816479376L-112.53167314382479,-29.3204649477054z" style="fill:rgb(217,127,217)"/><path d="M-102.81402167365123,-2.269466782505325L-194.3517694461283,-43.96166752450595L-197.79422715436274,-43.7829881611349z" style="fill:rgb(98,6,156)"/><path d="M-102.60512850257552,-7.124604729454532L-195.13325003409588,-56.55173814723586L-194.3517694461283,-43.96166752450595zM-195.13325003409588,-56.55173814723586L-112.53167314382479,-29.3204649477054L-192.62272199905104,-56.91050026403086z" style="fill:rgb(217,127,217)"/><path d="M-197.79422715436274,-56.758611923928626L-193.48665062956618,-57.11364747984638L-196.9302217416937,-56.88167460526275z" style="fill:rgb(113,253,141)"/><path d="M-195.13325003409588,-44.46401369323306L-198.57469963592925,-44.28317918070023L-197.79422715436274,-43.7829881611349z" style="fill:rgb(86,13,168)"/><path d="M-195.13325003409588,-56.55173814723586L-197.79422715436274,-56.758611923928626L-198.57469963592925,-56.321743030931366z" style="fill:rgb(86,241,168)"/><path d="M-195.13325003409588,-56.55173814723586L-198.57469963592925,-56.321743030931366L-199.19480238155825,-55.613417988092245z" style="fill:rgb(63,217,191)"/><path d="M-195.13325003409588,-44.46401369323306L-199.19480238155825,-45.041818268545676L-198.57469963592925,-44.28317918070023z" style="fill:rgb(63,37,191)"/><path d="M-197.79422715436274,-56.758611923928626L-194.3517694461283,-56.99024510088466L-193.48665062956618,-57.11364747984638z" style="fill:rgb(113,253,141)"/><path d="M-199.59323609741577,-54.702954376694706L-195.75413582654934,-55.84063408716552L-199.19480238155825,-55.613417988092245z" style="fill:rgb(47,185,207)"/><path d="M-199.19480238155825,-45.041818268545676L-196.15311062458696,-46.172548802302394L-199.59323609741577,-45.984611444139944z" style="fill:rgb(47,69,207)"/><path d="M-196.15311062458696,-46.172548802302394L-199.73058546598958,-47.018878897963106L-199.59323609741577,-45.984611444139944z" style="fill:rgb(38,107,216)"/><path d="M-199.59323609741577,-54.702954376694706L-199.73058546598958,-53.67983647330789L-196.2906390751582,-53.8992483053722z" style="fill:rgb(38,147,216)"/><path d="M-199.73058546598958,-47.018878897963106L-196.2906390751582,-53.8992483053722L-199.73058546598958,-53.67983647330789z" style="fill:rgb(37,127,217)"/><path d="M-195.13325003409588,-44.46401369323306L-197.79422715436274,-43.7829881611349L-194.3517694461283,-43.96166752450595z" style="fill:rgb(86,13,168)"/><path d="M-195.13325003409588,-56.55173814723586L-194.3517694461283,-56.99024510088466L-197.79422715436274,-56.758611923928626z" style="fill:rgb(86,241,168)"/><path d="M-195.13325003409588,-56.55173814723586L-192.62272199905104,-56.91050026403086L-193.48665062956618,-57.11364747984638z" style="fill:rgb(217,127,217)"/><path d="M-195.13325003409588,-56.55173814723586L-199.19480238155825,-55.613417988092245L-195.75413582654934,-55.84063408716552z" style="fill:rgb(63,217,191)"/><path d="M-195.13325003409588,-44.46401369323306L-195.75413582654934,-45.225842675107735L-199.19480238155825,-45.041818268545676z" style="fill:rgb(63,37,191)"/><path d="M-199.19480238155825,-45.041818268545676L-195.75413582654934,-45.225842675107735L-196.15311062458696,-46.172548802302394z" style="fill:rgb(47,69,207)"/><path d="M-195.13325003409588,-56.55173814723586L-193.48665062956618,-57.11364747984638L-194.3517694461283,-56.99024510088466z" style="fill:rgb(217,127,217)"/><path d="M-199.59323609741577,-54.702954376694706L-196.15311062458696,-54.92652327086109L-195.75413582654934,-55.84063408716552z" style="fill:rgb(47,185,207)"/><path d="M-199.59323609741577,-54.702954376694706L-196.2906390751582,-53.8992483053722L-196.15311062458696,-54.92652327086109z" style="fill:rgb(38,147,216)"/><path d="M-196.15311062458696,-46.172548802302394L-196.2906390751582,-47.21106462426915L-199.73058546598958,-47.018878897963106z" style="fill:rgb(38,107,216)"/><path d="M-199.73058546598958,-47.018878897963106L-196.2906390751582,-47.21106462426915L-196.2906390751582,-53.8992483053722z" style="fill:rgb(37,127,217)"/><path d="M-195.13325003409588,-56.55173814723586L-195.13325003409588,-44.46401369323306L-194.3517694461283,-43.96166752450595zM-195.13325003409588,-56.55173814723586L-195.75413582654934,-45.225842675107735L-195.13325003409588,-44.46401369323306zM-195.13325003409588,-56.55173814723586L-195.75413582654934,-55.84063408716552L-196.15311062458696,-54.92652327086109zM-195.13325003409588,-56.55173814723586L-196.15311062458696,-46.172548802302394L-195.75413582654934,-45.225842675107735zM-195.13325003409588,-56.55173814723586L-196.15311062458696,-54.92652327086109L-196.2906390751582,-53.8992483053722zM-195.13325003409588,-56.55173814723586L-196.2906390751582,-47.21106462426915L-196.15311062458696,-46.172548802302394zM-195.13325003409588,-56.55173814723586L-196.2906390751582,-53.8992483053722L-196.2906390751582,-47.21106462426915z" style="fill:rgb(217,127,217)"/></svg>