<?xml version="1.0" encoding="UTF-8"?>
<!-- Generated by jsxcad -->
<!DOCTYPE svg PUBLIC "-//W3C//DTD SVG 1.1 Tiny//EN" "http://www.w3.org/Graphics/SVG/1.1/DTD/svg11-tiny.dtd">
<svg baseProfile="tiny" height="36 mm" width="758 mm" viewBox="0 0 758 36" version="1.1" stroke="black" stroke-width=".1" fill="none" xmlns="http://www.w3.org/2000/svg">
<path d="M11.5143 18 L664.2 18 L664.2 17.68796 L11.5143 0 z"/>
<path d="M664.2 17.68796 L664.2 0 L11.5143 0 z"/>
<path d="M671.3185 18 L671.3185 17.88087 L664.2 17.68796 L664.2 18 z"/>
<path d="M671.3185 17.88087 L671.3185 0 L664.2 0 L664.2 17.68796 z"/>
<path d="M11.5143 36 L664.2 36 L664.2 35.68796 L11.5143 18 z"/>
<path d="M664.2 35.68796 L664.2 18 L11.5143 18 z"/>
<path d="M671.3185 36 L671.3185 35.88087 L664.2 35.68796 L664.2 36 z"/>
<path d="M671.3185 35.88087 L671.3185 18 L664.2 18 L664.2 35.68796 z"/>
<path d="M758 18 L758 11.5344 L758 18 z"/>
<path d="M758 11.5344 L758 0 L758 0 L758 18 z"/>
<path d="M758 29.5344 L758 36 L758 36 z"/>
<path d="M758 18 L758 36 L758 29.5344 L758 18 z"/>
<path d="M671.3185 0 L671.3185 17.02239 L741.1103 0 z"/>
<path d="M671.3185 17.02239 L671.3185 18 L741.1103 18 L741.1103 0 z"/>
<path d="M671.3185 35.02239 L741.1103 18 L671.3185 18 z"/>
<path d="M741.1103 36 L741.1103 18 L671.3185 35.02239 L671.3185 36 z"/>
<path d="M741.1103 0 L741.1103 18 L741.8789 18 z"/>
<path d="M741.1103 0 L741.8789 18 L741.8789 0 z"/>
<path d="M741.1103 18 L741.1103 36 L741.8789 36 z"/>
<path d="M741.1103 18 L741.8789 36 L741.8789 18 z"/>
<path d="M748.5065 0 L747.4935 0 L747.4935 18 z"/>
<path d="M748.5065 0 L747.4935 18 L748.5065 18 z"/>
<path d="M748.5065 18 L747.4935 18 L747.4935 36 z"/>
<path d="M748.5065 18 L747.4935 36 L748.5065 36 z"/>
<path d="M757.1896 18 L757.5414 18 L757.5414 0 z"/>
<path d="M757.1896 18 L757.5414 0 L757.1896 0 z"/>
<path d="M757.1896 36 L757.5414 36 L757.5414 18 z"/>
<path d="M757.1896 36 L757.5414 18 L757.1896 18 z"/>
<path d="M756.7435 0 L756.7435 18 L757.1896 18 z"/>
<path d="M756.7435 0 L757.1896 18 L757.1896 0 z"/>
<path d="M756.7435 18 L756.7435 36 L757.1896 36 z"/>
<path d="M756.7435 18 L757.1896 36 L757.1896 18 z"/>
<path d="M754.8897 0 L754.8897 18 L755.5876 18 z"/>
<path d="M754.8897 0 L755.5876 18 L755.5876 0 z"/>
<path d="M754.8897 18 L754.8897 36 L755.5876 36 z"/>
<path d="M754.8897 18 L755.5876 36 L755.5876 18 z"/>
<path d="M749.5143 18 L749.5143 0 L748.5065 0 z"/>
<path d="M749.5143 18 L748.5065 0 L748.5065 18 z"/>
<path d="M749.5143 36 L749.5143 18 L748.5065 18 z"/>
<path d="M749.5143 36 L748.5065 18 L748.5065 36 z"/>
<path d="M754.1211 18 L754.1211 0 L753.2896 0 z"/>
<path d="M754.1211 18 L753.2896 0 L753.2896 18 z"/>
<path d="M754.1211 36 L754.1211 18 L753.2896 18 z"/>
<path d="M754.1211 36 L753.2896 18 L753.2896 36 z"/>
<path d="M754.1211 18 L754.8897 18 L754.8897 0 z"/>
<path d="M754.1211 18 L754.8897 0 L754.1211 0 z"/>
<path d="M754.1211 36 L754.8897 36 L754.8897 18 z"/>
<path d="M754.1211 36 L754.8897 18 L754.1211 18 z"/>
<path d="M750.5065 0 L750.5065 18 L751.4731 18 z"/>
<path d="M750.5065 0 L751.4731 18 L751.4731 0 z"/>
<path d="M750.5065 18 L750.5065 36 L751.4731 36 z"/>
<path d="M750.5065 18 L751.4731 36 L751.4731 18 z"/>
<path d="M750.5065 0 L749.5143 0 L749.5143 18 z"/>
<path d="M750.5065 0 L749.5143 18 L750.5065 18 z"/>
<path d="M750.5065 18 L749.5143 18 L749.5143 36 z"/>
<path d="M750.5065 18 L749.5143 36 L750.5065 36 z"/>
<path d="M742.7104 0 L742.7104 18 L743.5961 18 z"/>
<path d="M742.7104 0 L743.5961 18 L743.5961 0 z"/>
<path d="M742.7104 18 L742.7104 36 L743.5961 36 z"/>
<path d="M742.7104 18 L743.5961 36 L743.5961 18 z"/>
<path d="M742.7104 0 L741.8789 0 L741.8789 18 z"/>
<path d="M742.7104 0 L741.8789 18 L742.7104 18 z"/>
<path d="M742.7104 18 L741.8789 18 L741.8789 36 z"/>
<path d="M742.7104 18 L741.8789 36 L742.7104 36 z"/>
<path d="M757.7953 0 L757.5414 0 L757.5414 18 z"/>
<path d="M757.7953 0 L757.5414 18 L757.7953 18 z"/>
<path d="M757.7953 18 L757.5414 18 L757.5414 36 z"/>
<path d="M757.7953 18 L757.5414 36 L757.7953 36 z"/>
<path d="M757.9487 18 L757.9487 0 L757.7953 0 z"/>
<path d="M757.9487 18 L757.7953 0 L757.7953 18 z"/>
<path d="M757.9487 36 L757.9487 18 L757.7953 18 z"/>
<path d="M757.9487 36 L757.7953 18 L757.7953 36 z"/>
<path d="M757.9487 18 L758 18 L758 0 z"/>
<path d="M757.9487 18 L758 0 L757.9487 0 z"/>
<path d="M757.9487 36 L758 36 L758 18 z"/>
<path d="M757.9487 36 L758 18 L757.9487 18 z"/>
<path d="M756.2076 18 L756.2076 0 L755.5876 0 z"/>
<path d="M756.2076 18 L755.5876 0 L755.5876 18 z"/>
<path d="M756.2076 36 L756.2076 18 L755.5876 18 z"/>
<path d="M756.2076 36 L755.5876 18 L755.5876 36 z"/>
<path d="M756.2076 18 L756.7435 18 L756.7435 0 z"/>
<path d="M756.2076 18 L756.7435 0 L756.2076 0 z"/>
<path d="M756.2076 36 L756.7435 36 L756.7435 18 z"/>
<path d="M756.2076 36 L756.7435 18 L756.2076 18 z"/>
<path d="M752.4039 18 L753.2896 18 L753.2896 0 z"/>
<path d="M752.4039 18 L753.2896 0 L752.4039 0 z"/>
<path d="M752.4039 36 L753.2896 36 L753.2896 18 z"/>
<path d="M752.4039 36 L753.2896 18 L752.4039 18 z"/>
<path d="M752.4039 18 L752.4039 0 L751.4731 0 z"/>
<path d="M752.4039 18 L751.4731 0 L751.4731 18 z"/>
<path d="M752.4039 36 L752.4039 18 L751.4731 18 z"/>
<path d="M752.4039 36 L751.4731 18 L751.4731 36 z"/>
<path d="M746.4857 0 L746.4857 18 L747.4935 18 z"/>
<path d="M746.4857 0 L747.4935 18 L747.4935 0 z"/>
<path d="M746.4857 18 L746.4857 36 L747.4935 36 z"/>
<path d="M746.4857 18 L747.4935 36 L747.4935 18 z"/>
<path d="M746.4857 0 L747.4935 0 L748.5065 0 z"/>
<path d="M746.4857 0 L748.5065 0 L749.5143 0 z"/>
<path d="M746.4857 0 L749.5143 0 L750.5065 0 z"/>
<path d="M746.4857 0 L750.5065 0 L751.4731 0 z"/>
<path d="M746.4857 0 L751.4731 0 L752.4039 0 z"/>
<path d="M746.4857 0 L752.4039 0 L753.2896 0 z"/>
<path d="M746.4857 0 L753.2896 0 L754.1211 0 z"/>
<path d="M746.4857 0 L754.1211 0 L754.8897 0 z"/>
<path d="M746.4857 0 L754.8897 0 L755.5876 0 z"/>
<path d="M746.4857 0 L755.5876 0 L756.2076 0 z"/>
<path d="M746.4857 0 L756.2076 0 L756.7435 0 z"/>
<path d="M746.4857 0 L756.7435 0 L757.1896 0 z"/>
<path d="M746.4857 0 L757.1896 0 L757.5414 0 z"/>
<path d="M746.4857 0 L757.5414 0 L757.7953 0 z"/>
<path d="M746.4857 0 L757.7953 0 L757.9487 0 z"/>
<path d="M746.4857 0 L757.9487 0 L758 0 z"/>
<path d="M758 0 L758 0 L750.88985 0 L746.4857 0 z"/>
<path d="M750.88985 0 L750.84874 0 L746.4857 0 z"/>
<path d="M750.84874 0 L750.76915 0 L746.4857 0 z"/>
<path d="M750.76915 0 L750.65246 0 L746.4857 0 z"/>
<path d="M750.65246 0 L750.5004 0 L746.4857 0 z"/>
<path d="M750.5004 0 L750.31499 0 L746.4857 0 z"/>
<path d="M750.31499 0 L750.09848 0 L746.4857 0 z"/>
<path d="M750.09848 0 L749.85347 0 L746.4857 0 z"/>
<path d="M749.85347 0 L749.58259 0 L746.4857 0 z"/>
<path d="M749.58259 0 L749.28874 0 L746.4857 0 z"/>
<path d="M749.28874 0 L748.97488 0 L746.4857 0 z"/>
<path d="M748.97488 0 L748.64417 0 L746.4857 0 z"/>
<path d="M748.64417 0 L748.29979 0 L746.4857 0 z"/>
<path d="M748.29979 0 L747.94486 0 L746.4857 0 z"/>
<path d="M747.94486 0 L747.58275 0 L746.4857 0 z"/>
<path d="M747.58275 0 L747.21667 0 L746.4857 0 z"/>
<path d="M747.21667 0 L746.8499 0 L746.4857 0 z"/>
<path d="M746.8499 0 L746.4857 0 L746.4857 0 z"/>
<path d="M746.4857 0 L746.1273 0 L746.4857 0 z"/>
<path d="M746.1273 0 L745.7778 0 L746.4857 0 z"/>
<path d="M745.7778 0 L745.44041 0 L746.4857 0 z"/>
<path d="M745.44041 0 L745.11807 0 L746.4857 0 z"/>
<path d="M745.11807 0 L744.81373 0 L746.4857 0 z"/>
<path d="M744.81373 0 L744.53027 0 L746.4857 0 z"/>
<path d="M744.53027 0 L709.12331 0 L746.4857 0 z"/>
<path d="M709.12331 0 L708.66079 0 L746.4857 0 z"/>
<path d="M708.66079 0 L708.21307 0 L746.4857 0 z"/>
<path d="M708.21307 0 L707.78423 0 L746.4857 0 z"/>
<path d="M707.78423 0 L707.37852 0 L746.4857 0 z"/>
<path d="M707.37852 0 L706.99993 0 L746.4857 0 z"/>
<path d="M706.99993 0 L706.65247 0 L746.4857 0 z"/>
<path d="M706.65247 0 L706.33994 0 L746.4857 0 z"/>
<path d="M706.33994 0 L706.06601 0 L746.4857 0 z"/>
<path d="M706.06601 0 L675.18078 0 L746.4857 0 z"/>
<path d="M675.18078 0 L674.42118 0 L746.4857 0 z"/>
<path d="M674.42118 0 L673.72632 0 L746.4857 0 z"/>
<path d="M673.72632 0 L673.10561 0 L746.4857 0 z"/>
<path d="M673.10561 0 L672.56813 0 L746.4857 0 z"/>
<path d="M672.56813 0 L672.12294 0 L746.4857 0 z"/>
<path d="M672.12294 0 L671.77819 0 L746.4857 0 z"/>
<path d="M671.77819 0 L671.54136 0 L746.4857 0 z"/>
<path d="M671.54136 0 L671.41891 0 L746.4857 0 z"/>
<path d="M671.41891 0 L671.3185 0 L741.1103 0 L746.4857 0 z"/>
<path d="M746.4857 0 L741.1103 0 L741.8789 0 z"/>
<path d="M746.4857 0 L741.8789 0 L742.7104 0 z"/>
<path d="M746.4857 0 L742.7104 0 L743.5961 0 z"/>
<path d="M746.4857 0 L743.5961 0 L744.5269 0 z"/>
<path d="M746.4857 0 L744.5269 0 L745.4935 0 z"/>
<path d="M744.5269 18 L744.5269 0 L743.5961 0 z"/>
<path d="M744.5269 18 L743.5961 0 L743.5961 18 z"/>
<path d="M744.5269 36 L744.5269 18 L743.5961 18 z"/>
<path d="M744.5269 36 L743.5961 18 L743.5961 36 z"/>
<path d="M745.4935 18 L745.4935 0 L744.5269 0 z"/>
<path d="M745.4935 18 L744.5269 0 L744.5269 18 z"/>
<path d="M745.4935 36 L745.4935 18 L744.5269 18 z"/>
<path d="M745.4935 36 L744.5269 18 L744.5269 36 z"/>
<path d="M745.4935 36 L744.5269 36 L743.5961 36 z"/>
<path d="M745.4935 36 L743.5961 36 L742.7104 36 z"/>
<path d="M745.4935 36 L742.7104 36 L741.8789 36 z"/>
<path d="M745.4935 36 L741.8789 36 L741.1103 36 z"/>
<path d="M671.38717 36 L745.4935 36 L741.1103 36 L671.3185 36 z"/>
<path d="M671.50358 36 L745.4935 36 L671.38717 36 z"/>
<path d="M671.73409 36 L745.4935 36 L671.50358 36 z"/>
<path d="M672.07233 36 L745.4935 36 L671.73409 36 z"/>
<path d="M672.51086 36 L745.4935 36 L672.07233 36 z"/>
<path d="M673.0416 36 L745.4935 36 L672.51086 36 z"/>
<path d="M673.65554 36 L745.4935 36 L673.0416 36 z"/>
<path d="M674.34366 36 L745.4935 36 L673.65554 36 z"/>
<path d="M675.09661 36 L745.4935 36 L674.34366 36 z"/>
<path d="M705.66525 36 L745.4935 36 L675.09661 36 z"/>
<path d="M705.93608 36 L745.4935 36 L705.66525 36 z"/>
<path d="M706.24551 36 L745.4935 36 L705.93608 36 z"/>
<path d="M706.58989 36 L745.4935 36 L706.24551 36 z"/>
<path d="M706.96545 36 L745.4935 36 L706.58989 36 z"/>
<path d="M707.3682 36 L745.4935 36 L706.96545 36 z"/>
<path d="M707.79418 36 L745.4935 36 L707.3682 36 z"/>
<path d="M708.23917 36 L745.4935 36 L707.79418 36 z"/>
<path d="M708.69911 36 L745.4935 36 L708.23917 36 z"/>
<path d="M743.9042 36 L745.4935 36 L708.69911 36 z"/>
<path d="M744.18591 36 L745.4935 36 L743.9042 36 z"/>
<path d="M744.48859 36 L745.4935 36 L744.18591 36 z"/>
<path d="M744.80937 36 L745.4935 36 L744.48859 36 z"/>
<path d="M745.14532 36 L745.4935 36 L744.80937 36 z"/>
<path d="M745.4935 36 L745.4935 36 L745.14532 36 z"/>
<path d="M745.85073 36 L745.4935 36 L745.4935 36 z"/>
<path d="M746.21391 36 L745.4935 36 L745.85073 36 z"/>
<path d="M746.57981 36 L745.4935 36 L746.21391 36 z"/>
<path d="M746.94521 36 L745.4935 36 L746.57981 36 z"/>
<path d="M747.3068 36 L745.4935 36 L746.94521 36 z"/>
<path d="M747.6614 36 L745.4935 36 L747.3068 36 z"/>
<path d="M748.00565 36 L745.4935 36 L747.6614 36 z"/>
<path d="M748.33642 36 L745.4935 36 L748.00565 36 z"/>
<path d="M748.65053 36 L745.4935 36 L748.33642 36 z"/>
<path d="M748.94483 36 L745.4935 36 L748.65053 36 z"/>
<path d="M749.21634 36 L745.4935 36 L748.94483 36 z"/>
<path d="M749.46219 36 L745.4935 36 L749.21634 36 z"/>
<path d="M749.67971 36 L745.4935 36 L749.46219 36 z"/>
<path d="M749.86632 36 L745.4935 36 L749.67971 36 z"/>
<path d="M750.01973 36 L745.4935 36 L749.86632 36 z"/>
<path d="M750.13792 36 L745.4935 36 L750.01973 36 z"/>
<path d="M750.21916 36 L745.4935 36 L750.13792 36 z"/>
<path d="M750.26204 36 L745.4935 36 L750.21916 36 z"/>
<path d="M758 36 L745.4935 36 L750.26204 36 L758 36 z"/>
<path d="M745.4935 36 L758 36 L757.9487 36 z"/>
<path d="M745.4935 36 L757.9487 36 L757.7953 36 z"/>
<path d="M745.4935 36 L757.7953 36 L757.5414 36 z"/>
<path d="M745.4935 36 L757.5414 36 L757.1896 36 z"/>
<path d="M745.4935 36 L757.1896 36 L756.7435 36 z"/>
<path d="M745.4935 36 L756.7435 36 L756.2076 36 z"/>
<path d="M745.4935 36 L756.2076 36 L755.5876 36 z"/>
<path d="M745.4935 36 L755.5876 36 L754.8897 36 z"/>
<path d="M745.4935 36 L754.8897 36 L754.1211 36 z"/>
<path d="M745.4935 36 L754.1211 36 L753.2896 36 z"/>
<path d="M745.4935 36 L753.2896 36 L752.4039 36 z"/>
<path d="M745.4935 36 L752.4039 36 L751.4731 36 z"/>
<path d="M745.4935 36 L751.4731 36 L750.5065 36 z"/>
<path d="M745.4935 36 L750.5065 36 L749.5143 36 z"/>
<path d="M745.4935 36 L749.5143 36 L748.5065 36 z"/>
<path d="M745.4935 36 L748.5065 36 L747.4935 36 z"/>
<path d="M745.4935 36 L747.4935 36 L746.4857 36 z"/>
<path d="M745.4935 36 L746.4857 36 L746.4857 18 z"/>
<path d="M745.4935 36 L746.4857 18 L745.4935 18 z"/>
<path d="M745.4935 18 L746.4857 18 L746.4857 0 z"/>
<path d="M745.4935 18 L746.4857 0 L745.4935 0 z"/>
<path d="M664.2 0 L664.2 17.79692 L7.4935 0 z"/>
<path d="M664.2 17.79692 L664.2 18 L7.4935 18 L7.4935 0 z"/>
<path d="M668.8773 0 L668.8773 17.92368 L664.2 17.79692 L664.2 0 z"/>
<path d="M668.8773 17.92368 L668.8773 18 L664.2 18 L664.2 17.79692 z"/>
<path d="M669.3229 0 L669.3229 17.93576 L668.8773 17.92368 L668.8773 0 z"/>
<path d="M669.3229 17.93576 L669.3229 18 L668.8773 18 L668.8773 17.92368 z"/>
<path d="M664.2 18 L664.2 35.79692 L7.4935 18 z"/>
<path d="M664.2 35.79692 L664.2 36 L7.4935 36 L7.4935 18 z"/>
<path d="M668.8773 18 L668.8773 35.92368 L664.2 35.79692 L664.2 18 z"/>
<path d="M668.8773 35.92368 L668.8773 36 L664.2 36 L664.2 35.79692 z"/>
<path d="M669.3229 18 L669.3229 35.93576 L668.8773 35.92368 L668.8773 18 z"/>
<path d="M669.3229 35.93576 L669.3229 36 L668.8773 36 L668.8773 35.92368 z"/>
<path d="M758 18 L758 18 L758 0 L758 2.81522 z"/>
<path d="M758 2.81522 L758 0 L758 0 z"/>
<path d="M758 36 L758 18 L758 20.81522 L758 36 z"/>
<path d="M758 20.81522 L758 18 L758 18 z"/>
<path d="M741.1103 18 L669.3229 18 L669.3229 17.50912 L741.1103 0 z"/>
<path d="M669.3229 17.50912 L669.3229 0 L741.1103 0 z"/>
<path d="M669.3229 35.50912 L741.1103 18 L741.1103 36 L669.3229 36 z"/>
<path d="M669.3229 18 L741.1103 18 L669.3229 35.50912 z"/>
<path d="M757.9487 18 L757.7953 18 L757.7953 0 z"/>
<path d="M757.9487 18 L757.7953 0 L757.9487 0 z"/>
<path d="M757.9487 36 L757.7953 36 L757.7953 18 z"/>
<path d="M757.9487 36 L757.7953 18 L757.9487 18 z"/>
<path d="M757.9487 18 L757.9487 0 L758 0 z"/>
<path d="M757.9487 18 L758 0 L758 18 z"/>
<path d="M757.9487 36 L757.9487 18 L758 18 z"/>
<path d="M757.9487 36 L758 18 L758 36 z"/>
<path d="M757.5414 18 L757.5414 0 L757.7953 0 z"/>
<path d="M757.5414 18 L757.7953 0 L757.7953 18 z"/>
<path d="M757.5414 36 L757.5414 18 L757.7953 18 z"/>
<path d="M757.5414 36 L757.7953 18 L757.7953 36 z"/>
<path d="M757.5414 18 L757.1896 18 L757.1896 0 z"/>
<path d="M757.5414 18 L757.1896 0 L757.5414 0 z"/>
<path d="M757.5414 36 L757.1896 36 L757.1896 18 z"/>
<path d="M757.5414 36 L757.1896 18 L757.5414 18 z"/>
<path d="M742.7104 18 L742.7104 0 L743.5961 0 z"/>
<path d="M742.7104 18 L743.5961 0 L743.5961 18 z"/>
<path d="M742.7104 36 L742.7104 18 L743.5961 18 z"/>
<path d="M742.7104 36 L743.5961 18 L743.5961 36 z"/>
<path d="M741.8789 0 L741.8789 18 L741.1103 18 z"/>
<path d="M741.8789 0 L741.1103 18 L741.1103 0 z"/>
<path d="M741.8789 18 L741.8789 36 L741.1103 36 z"/>
<path d="M741.8789 18 L741.1103 36 L741.1103 18 z"/>
<path d="M741.8789 0 L742.7104 0 L742.7104 18 z"/>
<path d="M741.8789 0 L742.7104 18 L741.8789 18 z"/>
<path d="M741.8789 18 L742.7104 18 L742.7104 36 z"/>
<path d="M741.8789 18 L742.7104 36 L741.8789 36 z"/>
<path d="M750.5065 18 L750.5065 0 L751.4731 0 z"/>
<path d="M750.5065 18 L751.4731 0 L751.4731 18 z"/>
<path d="M750.5065 36 L750.5065 18 L751.4731 18 z"/>
<path d="M750.5065 36 L751.4731 18 L751.4731 36 z"/>
<path d="M748.5065 18 L747.4935 18 L747.4935 0 z"/>
<path d="M748.5065 18 L747.4935 0 L748.5065 0 z"/>
<path d="M748.5065 36 L747.4935 36 L747.4935 18 z"/>
<path d="M748.5065 36 L747.4935 18 L748.5065 18 z"/>
<path d="M749.5143 0 L749.5143 18 L748.5065 18 z"/>
<path d="M749.5143 0 L748.5065 18 L748.5065 0 z"/>
<path d="M749.5143 18 L749.5143 36 L748.5065 36 z"/>
<path d="M749.5143 18 L748.5065 36 L748.5065 18 z"/>
<path d="M749.5143 0 L750.5065 0 L750.5065 18 z"/>
<path d="M749.5143 0 L750.5065 18 L749.5143 18 z"/>
<path d="M749.5143 18 L750.5065 18 L750.5065 36 z"/>
<path d="M749.5143 18 L750.5065 36 L749.5143 36 z"/>
<path d="M754.1211 0 L754.8897 0 L754.8897 18 z"/>
<path d="M754.1211 0 L754.8897 18 L754.1211 18 z"/>
<path d="M754.1211 18 L754.8897 18 L754.8897 36 z"/>
<path d="M754.1211 18 L754.8897 36 L754.1211 36 z"/>
<path d="M752.4039 18 L751.4731 18 L751.4731 0 z"/>
<path d="M752.4039 18 L751.4731 0 L752.4039 0 z"/>
<path d="M752.4039 36 L751.4731 36 L751.4731 18 z"/>
<path d="M752.4039 36 L751.4731 18 L752.4039 18 z"/>
<path d="M756.7435 18 L756.7435 0 L757.1896 0 z"/>
<path d="M756.7435 18 L757.1896 0 L757.1896 18 z"/>
<path d="M756.7435 36 L756.7435 18 L757.1896 18 z"/>
<path d="M756.7435 36 L757.1896 18 L757.1896 36 z"/>
<path d="M755.5876 18 L754.8897 18 L754.8897 0 z"/>
<path d="M755.5876 18 L754.8897 0 L755.5876 0 z"/>
<path d="M755.5876 36 L754.8897 36 L754.8897 18 z"/>
<path d="M755.5876 36 L754.8897 18 L755.5876 18 z"/>
<path d="M756.2076 0 L756.2076 18 L755.5876 18 z"/>
<path d="M756.2076 0 L755.5876 18 L755.5876 0 z"/>
<path d="M756.2076 18 L756.2076 36 L755.5876 36 z"/>
<path d="M756.2076 18 L755.5876 36 L755.5876 18 z"/>
<path d="M756.2076 0 L756.7435 0 L756.7435 18 z"/>
<path d="M756.2076 0 L756.7435 18 L756.2076 18 z"/>
<path d="M756.2076 18 L756.7435 18 L756.7435 36 z"/>
<path d="M756.2076 18 L756.7435 36 L756.2076 36 z"/>
<path d="M744.5269 0 L744.5269 18 L743.5961 18 z"/>
<path d="M744.5269 0 L743.5961 18 L743.5961 0 z"/>
<path d="M744.5269 18 L744.5269 36 L743.5961 36 z"/>
<path d="M744.5269 18 L743.5961 36 L743.5961 18 z"/>
<path d="M746.4857 0 L747.4935 0 L747.4935 18 z"/>
<path d="M746.4857 0 L747.4935 18 L746.4857 18 z"/>
<path d="M746.4857 18 L747.4935 18 L747.4935 36 z"/>
<path d="M746.4857 18 L747.4935 36 L746.4857 36 z"/>
<path d="M745.4935 18 L745.4935 0 L746.4857 0 z"/>
<path d="M745.4935 18 L746.4857 0 L746.4857 18 z"/>
<path d="M745.4935 36 L745.4935 18 L746.4857 18 z"/>
<path d="M745.4935 36 L746.4857 18 L746.4857 36 z"/>
<path d="M745.4935 18 L744.5269 18 L744.5269 0 z"/>
<path d="M745.4935 18 L744.5269 0 L745.4935 0 z"/>
<path d="M745.4935 36 L744.5269 36 L744.5269 18 z"/>
<path d="M745.4935 36 L744.5269 18 L745.4935 18 z"/>
<path d="M758 0 L758 0 L756.25734 0 z"/>
<path d="M756.25734 0 L758 0 L757.9487 0 L756.16575 0 z"/>
<path d="M756.16575 0 L757.9487 0 L757.7953 0 L755.98844 0 z"/>
<path d="M755.98844 0 L757.7953 0 L757.5414 0 L755.72855 0 z"/>
<path d="M755.72855 0 L757.5414 0 L757.1896 0 L755.38996 0 z"/>
<path d="M755.38996 0 L757.1896 0 L756.7435 0 L754.97724 0 z"/>
<path d="M754.97724 0 L756.7435 0 L756.2076 0 L754.49547 0 z"/>
<path d="M754.49547 0 L756.2076 0 L755.5876 0 L753.95052 0 z"/>
<path d="M753.95052 0 L755.5876 0 L754.8897 0 L753.34834 0 z"/>
<path d="M753.34834 0 L754.8897 0 L754.1211 0 L752.69544 0 z"/>
<path d="M752.69544 0 L754.1211 0 L753.2896 0 L751.99849 0 z"/>
<path d="M751.99849 0 L753.2896 0 L752.4039 0 L751.26456 0 z"/>
<path d="M751.26456 0 L752.4039 0 L751.4731 0 L750.50078 0 z"/>
<path d="M750.50078 0 L751.4731 0 L750.5065 0 L749.71414 0 z"/>
<path d="M749.71414 0 L750.5065 0 L749.5143 0 L748.91213 0 z"/>
<path d="M748.91213 0 L749.5143 0 L748.5065 0 L748.10188 0 z"/>
<path d="M748.10188 0 L748.5065 0 L747.4935 0 L747.29068 0 z"/>
<path d="M747.29068 0 L747.4935 0 L746.4857 0 L746.4857 0 z"/>
<path d="M746.4857 0 L746.4857 0 L745.4935 0 L745.69409 0 z"/>
<path d="M745.69409 0 L745.4935 0 L744.5269 0 L744.92266 0 z"/>
<path d="M744.92266 0 L744.5269 0 L743.5961 0 L744.17845 0 z"/>
<path d="M744.17845 0 L743.5961 0 L742.7104 0 L743.46788 0 z"/>
<path d="M743.46788 0 L742.7104 0 L741.8789 0 L742.79738 0 z"/>
<path d="M742.79738 0 L741.8789 0 L741.1103 0 L742.17324 0 z"/>
<path d="M742.17324 0 L741.1103 0 L669.3229 0 z"/>
<path d="M753.2896 18 L752.4039 18 L752.4039 0 z"/>
<path d="M753.2896 18 L752.4039 0 L753.2896 0 z"/>
<path d="M753.2896 36 L752.4039 36 L752.4039 18 z"/>
<path d="M753.2896 36 L752.4039 18 L753.2896 18 z"/>
<path d="M753.2896 18 L753.2896 0 L754.1211 0 z"/>
<path d="M753.2896 18 L754.1211 0 L754.1211 18 z"/>
<path d="M753.2896 36 L753.2896 18 L754.1211 18 z"/>
<path d="M753.2896 36 L754.1211 18 L754.1211 36 z"/>
<path d="M669.3229 36 L741.1103 36 L741.97895 36 z"/>
<path d="M741.1103 36 L741.8789 36 L742.60114 36 L741.97895 36 z"/>
<path d="M741.8789 36 L742.7104 36 L743.27003 36 L742.60114 36 z"/>
<path d="M742.7104 36 L743.5961 36 L743.97933 36 L743.27003 36 z"/>
<path d="M743.5961 36 L744.5269 36 L744.72262 36 L743.97933 36 z"/>
<path d="M744.5269 36 L745.4935 36 L745.4935 36 L744.72262 36 z"/>
<path d="M745.4935 36 L746.4857 36 L746.28493 36 L745.4935 36 z"/>
<path d="M746.4857 36 L747.4935 36 L747.09011 36 L746.28493 36 z"/>
<path d="M747.4935 36 L748.5065 36 L747.90189 36 L747.09011 36 z"/>
<path d="M748.5065 36 L749.5143 36 L748.7131 36 L747.90189 36 z"/>
<path d="M749.5143 36 L750.5065 36 L749.51643 36 L748.7131 36 z"/>
<path d="M750.5065 36 L751.4731 36 L750.30477 36 L749.51643 36 z"/>
<path d="M751.4731 36 L752.4039 36 L751.0706 36 L750.30477 36 z"/>
<path d="M752.4039 36 L753.2896 36 L751.80692 36 L751.0706 36 z"/>
<path d="M753.2896 36 L754.1211 36 L752.50659 36 L751.80692 36 z"/>
<path d="M754.1211 36 L754.8897 36 L753.16251 36 L752.50659 36 z"/>
<path d="M754.8897 36 L755.5876 36 L753.76797 36 L753.16251 36 z"/>
<path d="M755.5876 36 L756.2076 36 L754.31647 36 L753.76797 36 z"/>
<path d="M756.2076 36 L756.7435 36 L754.80199 36 L754.31647 36 z"/>
<path d="M756.7435 36 L757.1896 36 L755.21865 36 L754.80199 36 z"/>
<path d="M757.1896 36 L757.5414 36 L755.56133 36 L755.21865 36 z"/>
<path d="M757.5414 36 L757.7953 36 L755.82539 36 L755.56133 36 z"/>
<path d="M757.7953 36 L757.9487 36 L756.00693 36 L755.82539 36 z"/>
<path d="M757.9487 36 L758 36 L756.10276 36 L756.00693 36 z"/>
<path d="M756.10276 36 L758 36 L758 36 z"/>
<path d="M0 0 L0 0 L0 18 z"/>
<path d="M0 0 L0 18 L0 18 z"/>
<path d="M0 18 L0 18 L0 36 z"/>
<path d="M0 18 L0 36 L0 36 z"/>
<path d="M6.5269 18 L6.5269 0 L7.4935 0 z"/>
<path d="M6.5269 18 L7.4935 0 L7.4935 18 z"/>
<path d="M6.5269 36 L6.5269 18 L7.4935 18 z"/>
<path d="M6.5269 36 L7.4935 18 L7.4935 36 z"/>
<path d="M0.0513 18 L0.0513 0 L0 0 z"/>
<path d="M0.0513 18 L0 0 L0 18 z"/>
<path d="M0.0513 36 L0.0513 18 L0 18 z"/>
<path d="M0.0513 36 L0 18 L0 36 z"/>
<path d="M0.0513 18 L0.0513 0 L0.2047 0 z"/>
<path d="M0.0513 18 L0.2047 0 L0.2047 18 z"/>
<path d="M0.0513 36 L0.0513 18 L0.2047 18 z"/>
<path d="M0.0513 36 L0.2047 18 L0.2047 36 z"/>
<path d="M0.0513 18 L0 18 L0 0 z"/>
<path d="M0.0513 18 L0 0 L0.0513 0 z"/>
<path d="M0.0513 36 L0 36 L0 18 z"/>
<path d="M0.0513 36 L0 18 L0.0513 18 z"/>
<path d="M0.4586 18 L0.2047 18 L0.2047 0 z"/>
<path d="M0.4586 18 L0.2047 0 L0.4586 0 z"/>
<path d="M0.4586 36 L0.2047 36 L0.2047 18 z"/>
<path d="M0.4586 36 L0.2047 18 L0.4586 18 z"/>
<path d="M0.4586 18 L0.4586 0 L0.8104 0 z"/>
<path d="M0.4586 18 L0.8104 0 L0.8104 18 z"/>
<path d="M0.4586 36 L0.4586 18 L0.8104 18 z"/>
<path d="M0.4586 36 L0.8104 18 L0.8104 36 z"/>
<path d="M4.7104 0 L4.7104 18 L3.8789 18 z"/>
<path d="M4.7104 0 L3.8789 18 L3.8789 0 z"/>
<path d="M4.7104 18 L4.7104 36 L3.8789 36 z"/>
<path d="M4.7104 18 L3.8789 36 L3.8789 18 z"/>
<path d="M3.1103 18 L3.1103 0 L3.8789 0 z"/>
<path d="M3.1103 18 L3.8789 0 L3.8789 18 z"/>
<path d="M3.1103 36 L3.1103 18 L3.8789 18 z"/>
<path d="M3.1103 36 L3.8789 18 L3.8789 36 z"/>
<path d="M3.1103 18 L2.4124 18 L2.4124 0 z"/>
<path d="M3.1103 18 L2.4124 0 L3.1103 0 z"/>
<path d="M3.1103 36 L2.4124 36 L2.4124 18 z"/>
<path d="M3.1103 36 L2.4124 18 L3.1103 18 z"/>
<path d="M0.8104 0 L0.4586 0 L0.4586 18 z"/>
<path d="M0.8104 0 L0.4586 18 L0.8104 18 z"/>
<path d="M0.8104 18 L0.4586 18 L0.4586 36 z"/>
<path d="M0.8104 18 L0.4586 36 L0.8104 36 z"/>
<path d="M0.2047 0 L0.2047 18 L0.4586 18 z"/>
<path d="M0.2047 0 L0.4586 18 L0.4586 0 z"/>
<path d="M0.2047 18 L0.2047 36 L0.4586 36 z"/>
<path d="M0.2047 18 L0.4586 36 L0.4586 18 z"/>
<path d="M0.2047 0 L0.0513 0 L0.0513 18 z"/>
<path d="M0.2047 0 L0.0513 18 L0.2047 18 z"/>
<path d="M0.2047 18 L0.0513 18 L0.0513 36 z"/>
<path d="M0.2047 18 L0.0513 36 L0.2047 36 z"/>
<path d="M10.5065 18 L11.5143 18 L11.5143 0 z"/>
<path d="M10.5065 18 L11.5143 0 L10.5065 0 z"/>
<path d="M10.5065 36 L11.5143 36 L11.5143 18 z"/>
<path d="M10.5065 36 L11.5143 18 L10.5065 18 z"/>
<path d="M6.5269 18 L6.5269 0 L5.5961 0 z"/>
<path d="M6.5269 18 L5.5961 0 L5.5961 18 z"/>
<path d="M6.5269 36 L6.5269 18 L5.5961 18 z"/>
<path d="M6.5269 36 L5.5961 18 L5.5961 36 z"/>
<path d="M3.1103 0 L3.1103 18 L3.8789 18 z"/>
<path d="M3.1103 0 L3.8789 18 L3.8789 0 z"/>
<path d="M3.1103 18 L3.1103 36 L3.8789 36 z"/>
<path d="M3.1103 18 L3.8789 36 L3.8789 18 z"/>
<path d="M1.7924 0 L2.4124 0 L2.4124 18 z"/>
<path d="M1.7924 0 L2.4124 18 L1.7924 18 z"/>
<path d="M1.7924 18 L2.4124 18 L2.4124 36 z"/>
<path d="M1.7924 18 L2.4124 36 L1.7924 36 z"/>
<path d="M1.2565 18 L1.2565 0 L1.7924 0 z"/>
<path d="M1.2565 18 L1.7924 0 L1.7924 18 z"/>
<path d="M1.2565 36 L1.2565 18 L1.7924 18 z"/>
<path d="M1.2565 36 L1.7924 18 L1.7924 36 z"/>
<path d="M1.2565 18 L0.8104 18 L0.8104 0 z"/>
<path d="M1.2565 18 L0.8104 0 L1.2565 0 z"/>
<path d="M1.2565 36 L0.8104 36 L0.8104 18 z"/>
<path d="M1.2565 36 L0.8104 18 L1.2565 18 z"/>
<path d="M5.5961 0 L5.5961 18 L4.7104 18 z"/>
<path d="M5.5961 0 L4.7104 18 L4.7104 0 z"/>
<path d="M5.5961 18 L5.5961 36 L4.7104 36 z"/>
<path d="M5.5961 18 L4.7104 36 L4.7104 18 z"/>
<path d="M5.5961 0 L6.5269 0 L6.5269 18 z"/>
<path d="M5.5961 0 L6.5269 18 L5.5961 18 z"/>
<path d="M5.5961 18 L6.5269 18 L6.5269 36 z"/>
<path d="M5.5961 18 L6.5269 36 L5.5961 36 z"/>
<path d="M7.4935 18 L7.4935 0 L6.5269 0 z"/>
<path d="M7.4935 18 L6.5269 0 L6.5269 18 z"/>
<path d="M7.4935 36 L7.4935 18 L6.5269 18 z"/>
<path d="M7.4935 36 L6.5269 18 L6.5269 36 z"/>
<path d="M7.4935 18 L8.4857 18 L8.4857 0 z"/>
<path d="M7.4935 18 L8.4857 0 L7.4935 0 z"/>
<path d="M7.4935 36 L8.4857 36 L8.4857 18 z"/>
<path d="M7.4935 36 L8.4857 18 L7.4935 18 z"/>
<path d="M1.2565 18 L1.2565 0 L0.8104 0 z"/>
<path d="M1.2565 18 L0.8104 0 L0.8104 18 z"/>
<path d="M1.2565 36 L1.2565 18 L0.8104 18 z"/>
<path d="M1.2565 36 L0.8104 18 L0.8104 36 z"/>
<path d="M2.4124 18 L3.1103 18 L3.1103 0 z"/>
<path d="M2.4124 18 L3.1103 0 L2.4124 0 z"/>
<path d="M2.4124 36 L3.1103 36 L3.1103 18 z"/>
<path d="M2.4124 36 L3.1103 18 L2.4124 18 z"/>
<path d="M1.7924 0 L1.2565 0 L1.2565 18 z"/>
<path d="M1.7924 0 L1.2565 18 L1.7924 18 z"/>
<path d="M1.7924 18 L1.2565 18 L1.2565 36 z"/>
<path d="M1.7924 18 L1.2565 36 L1.7924 36 z"/>
<path d="M1.7924 0 L1.7924 18 L2.4124 18 z"/>
<path d="M1.7924 0 L2.4124 18 L2.4124 0 z"/>
<path d="M1.7924 18 L1.7924 36 L2.4124 36 z"/>
<path d="M1.7924 18 L2.4124 36 L2.4124 18 z"/>
<path d="M4.7104 18 L5.5961 18 L5.5961 0 z"/>
<path d="M4.7104 18 L5.5961 0 L4.7104 0 z"/>
<path d="M4.7104 36 L5.5961 36 L5.5961 18 z"/>
<path d="M4.7104 36 L5.5961 18 L4.7104 18 z"/>
<path d="M4.7104 18 L4.7104 0 L3.8789 0 z"/>
<path d="M4.7104 18 L3.8789 0 L3.8789 18 z"/>
<path d="M4.7104 36 L4.7104 18 L3.8789 18 z"/>
<path d="M4.7104 36 L3.8789 18 L3.8789 36 z"/>
<path d="M4.7104 36 L3.8789 36 L3.1103 36 z"/>
<path d="M4.7104 36 L3.1103 36 L2.4124 36 z"/>
<path d="M4.7104 36 L2.4124 36 L1.7924 36 z"/>
<path d="M4.7104 36 L1.7924 36 L1.2565 36 z"/>
<path d="M4.7104 36 L1.2565 36 L0.8104 36 z"/>
<path d="M4.7104 36 L0.8104 36 L0.4586 36 z"/>
<path d="M4.7104 36 L0.4586 36 L0.2047 36 z"/>
<path d="M4.7104 36 L0.2047 36 L0.0513 36 z"/>
<path d="M4.7104 36 L0.0513 36 L0 36 z"/>
<path d="M4.7104 36 L0 36 L0 36 z"/>
<path d="M4.7104 36 L0 36 L0.0513 36 z"/>
<path d="M4.7104 36 L0.0513 36 L0.2047 36 z"/>
<path d="M4.7104 36 L0.2047 36 L0.4586 36 z"/>
<path d="M4.7104 36 L0.4586 36 L0.8104 36 z"/>
<path d="M4.7104 36 L0.8104 36 L1.2565 36 z"/>
<path d="M4.7104 36 L1.2565 36 L1.7924 36 z"/>
<path d="M4.7104 36 L1.7924 36 L2.4124 36 z"/>
<path d="M4.7104 36 L2.4124 36 L3.1103 36 z"/>
<path d="M4.7104 36 L3.1103 36 L3.8789 36 z"/>
<path d="M4.7104 36 L3.8789 36 L4.7104 36 z"/>
<path d="M4.7104 36 L4.7104 36 L5.5961 36 z"/>
<path d="M4.7104 36 L5.5961 36 L6.5269 36 z"/>
<path d="M4.7104 36 L6.5269 36 L7.4935 36 z"/>
<path d="M7.4935 36 L664.2 36 L664.2 36 L4.7104 36 z"/>
<path d="M664.2 36 L664.2 36 L4.7104 36 z"/>
<path d="M664.2 36 L664.2 36 L4.7104 36 z"/>
<path d="M664.2 36 L664.2 36 L4.7104 36 z"/>
<path d="M664.2 36 L664.2 36 L4.7104 36 z"/>
<path d="M664.2 36 L664.2 36 L4.7104 36 z"/>
<path d="M664.2 36 L664.2 36 L4.7104 36 z"/>
<path d="M664.2 36 L664.2 36 L4.7104 36 z"/>
<path d="M664.2 36 L664.2 36 L4.7104 36 z"/>
<path d="M664.2 36 L664.2 36 L4.7104 36 z"/>
<path d="M664.2 36 L664.2 36 L4.7104 36 z"/>
<path d="M664.2 36 L664.2 36 L4.7104 36 z"/>
<path d="M664.2 36 L664.2 36 L4.7104 36 z"/>
<path d="M664.2 36 L664.2 36 L4.7104 36 z"/>
<path d="M664.2 36 L664.2 36 L4.7104 36 z"/>
<path d="M664.2 36 L664.2 36 L4.7104 36 z"/>
<path d="M664.2 36 L664.2 36 L4.7104 36 z"/>
<path d="M664.2 36 L664.2 36 L4.7104 36 z"/>
<path d="M664.2 36 L664.2 36 L4.7104 36 z"/>
<path d="M664.2 36 L664.2 36 L4.7104 36 z"/>
<path d="M664.2 36 L664.2 36 L4.7104 36 z"/>
<path d="M664.2 36 L664.2 36 L4.7104 36 z"/>
<path d="M664.2 36 L664.2 36 L4.7104 36 z"/>
<path d="M664.2 36 L664.2 36 L4.7104 36 z"/>
<path d="M664.2 36 L664.2 36 L4.7104 36 z"/>
<path d="M664.2 36 L664.2 36 L4.7104 36 z"/>
<path d="M664.2 36 L664.2 36 L4.7104 36 z"/>
<path d="M664.2 36 L664.2 36 L4.7104 36 z"/>
<path d="M664.2 36 L664.2 36 L4.7104 36 z"/>
<path d="M664.2 36 L664.2 36 L4.7104 36 z"/>
<path d="M664.2 36 L664.2 36 L4.7104 36 z"/>
<path d="M664.2 36 L664.2 36 L4.7104 36 z"/>
<path d="M664.2 36 L664.2 36 L4.7104 36 z"/>
<path d="M664.2 36 L664.2 36 L4.7104 36 z"/>
<path d="M664.2 36 L664.2 36 L11.5143 36 L4.7104 36 z"/>
<path d="M4.7104 36 L11.5143 36 L10.5065 36 z"/>
<path d="M4.7104 36 L10.5065 36 L9.4935 36 z"/>
<path d="M4.7104 36 L9.4935 36 L8.4857 36 z"/>
<path d="M4.7104 36 L8.4857 36 L7.4935 36 z"/>
<path d="M4.7104 36 L7.4935 36 L6.5269 36 z"/>
<path d="M4.7104 36 L6.5269 36 L5.5961 36 z"/>
<path d="M668.8773 36 L668.65723 36 L664.2 36 L664.2 36 z"/>
<path d="M668.65723 36 L668.47982 36 L664.2 36 L664.2 36 z"/>
<path d="M668.47982 36 L668.15574 36 L664.2 36 L664.2 36 z"/>
<path d="M668.15574 36 L667.68935 36 L664.2 36 L664.2 36 z"/>
<path d="M667.68935 36 L667.08667 36 L664.2 36 L664.2 36 z"/>
<path d="M667.08667 36 L666.35527 36 L664.2 36 L664.2 36 z"/>
<path d="M666.35527 36 L665.50377 36 L664.2 36 L664.2 36 z"/>
<path d="M665.50377 36 L664.54242 36 L664.2 36 L664.2 36 z"/>
<path d="M664.54242 36 L664.2 36 L664.2 36 z"/>
<path d="M666.41954 36 L666.35527 36 L666.6124 36 z"/>
<path d="M666.41954 36 L665.78061 36 L665.50377 36 L666.35527 36 z"/>
<path d="M665.78061 36 L665.05877 36 L664.54242 36 L665.50377 36 z"/>
<path d="M665.05877 36 L664.26205 36 L664.2 36 L664.2 36 L664.54242 36 z"/>
<path d="M664.26205 36 L664.2 36 L664.2 36 z"/>
<path d="M664.82943 36 L664.2 36 L664.2 36 z"/>
<path d="M664.82943 36 L665.69423 36 L664.2 36 L664.2 36 z"/>
<path d="M665.69423 36 L666.52451 36 L664.2 36 L664.2 36 z"/>
<path d="M666.52451 36 L667.31192 36 L664.2 36 L664.2 36 z"/>
<path d="M667.31192 36 L668.04806 36 L664.2 36 L664.2 36 z"/>
<path d="M668.04806 36 L668.72539 36 L664.2 36 L664.2 36 z"/>
<path d="M668.72539 36 L669.33656 36 L664.2 36 L664.2 36 z"/>
<path d="M669.33656 36 L669.87502 36 L664.2 36 L664.2 36 z"/>
<path d="M669.87502 36 L670.33485 36 L664.2 36 L664.2 36 z"/>
<path d="M670.33485 36 L670.71063 36 L664.2 36 L664.2 36 z"/>
<path d="M670.71063 36 L670.99824 36 L664.2 36 L664.2 36 z"/>
<path d="M670.99824 36 L671.19415 36 L664.2 36 L664.2 36 z"/>
<path d="M671.19415 36 L671.2958 36 L664.2 36 L664.2 36 z"/>
<path d="M671.2958 36 L671.30163 36 L664.2 36 L664.2 36 z"/>
<path d="M671.30163 36 L671.3185 36 L664.2 36 L664.2 36 z"/>
<path d="M665.83257 36 L665.78061 36 L665.9924 36 z"/>
<path d="M665.83257 36 L665.2876 36 L665.05877 36 L665.78061 36 z"/>
<path d="M665.2876 36 L664.68578 36 L664.26205 36 L665.05877 36 z"/>
<path d="M664.68578 36 L664.2 36 L664.2 36 L664.26205 36 z"/>
<path d="M664.91754 36 L664.68578 36 L665.18716 36 z"/>
<path d="M664.91754 36 L664.56659 36 L664.2 36 L664.2 36 L664.68578 36 z"/>
<path d="M664.56659 36 L664.2 36 L664.2 36 z"/>
<path d="M665.33054 36 L665.2876 36 L665.4565 36 z"/>
<path d="M665.0104 36 L665.18716 36 L665.2876 36 L665.33054 36 z"/>
<path d="M664.28951 36 L664.2 36 L664.2 36 L664.30312 36 z"/>
<path d="M664.28951 36 L664.24119 36 L664.2 36 L664.2 36 z"/>
<path d="M664.24119 36 L664.2 36 L664.2 36 z"/>
<path d="M669.3229 36 L669.07957 36 L668.65723 36 L668.8773 36 z"/>
<path d="M669.07957 36 L668.84641 36 L668.47982 36 L668.65723 36 z"/>
<path d="M668.84641 36 L668.42057 36 L668.15574 36 L668.47982 36 z"/>
<path d="M668.42057 36 L667.80798 36 L667.68935 36 L668.15574 36 z"/>
<path d="M667.80798 36 L667.3103 36 L667.68935 36 z"/>
<path d="M664.7263 36 L664.2 36 L664.2 36 z"/>
<path d="M664.87062 36 L664.82943 36 L664.2 36 L664.2 36 L664.7263 36 z"/>
<path d="M664.87062 36 L664.87857 36 L664.82943 36 z"/>
<path d="M664.2513 36 L664.2 36 L664.2 36 z"/>
<path d="M665.05868 36 L664.7263 36 L664.55972 36 z"/>
<path d="M665.49135 36 L664.87062 36 L664.7263 36 L665.05868 36 z"/>
<path d="M665.49135 36 L665.91094 36 L665.69423 36 L664.87857 36 L664.87062 36 z"/>
<path d="M665.91094 36 L666.11478 36 L665.69423 36 z"/>
<path d="M665.91383 36 L665.91094 36 L665.90724 36 z"/>
<path d="M665.91383 36 L666.6314 36 L666.52451 36 L666.11478 36 L665.91094 36 z"/>
<path d="M666.6314 36 L667.3103 36 L666.52451 36 z"/>
<path d="M665.0104 36 L664.55972 36 L664.48178 36 z"/>
<path d="M664.6586 36 L664.48178 36 L664.4047 36 z"/>
<path d="M664.59683 36 L664.56659 36 L664.6586 36 z"/>
<path d="M664.34525 36 L664.28951 36 L664.30312 36 L664.56659 36 L664.59683 36 z"/>
<path d="M664.34525 36 L664.27708 36 L664.28951 36 z"/>
<path d="M664.3708 36 L664.34525 36 L664.4047 36 z"/>
<path d="M664.3708 36 L664.2513 36 L664.27708 36 L664.34525 36 z"/>
<path d="M666.02555 36 L665.91383 36 L665.90724 36 L665.68065 36 z"/>
<path d="M666.02555 36 L666.6124 36 L665.91383 36 z"/>
<path d="M665.4565 36 L665.4997 36 L665.49135 36 z"/>
<path d="M665.9924 36 L665.68065 36 L665.49135 36 L665.4997 36 z"/>
<path d="M667.3103 36 L671.38717 36 L671.3185 36 z"/>
<path d="M666.6124 36 L671.50358 36 L671.38717 36 L667.3103 36 z"/>
<path d="M665.9924 36 L671.73409 36 L671.50358 36 L666.6124 36 z"/>
<path d="M665.4565 36 L672.07233 36 L671.73409 36 L665.9924 36 z"/>
<path d="M665.0104 36 L672.51086 36 L672.07233 36 L665.4565 36 z"/>
<path d="M664.6586 36 L673.0416 36 L672.51086 36 L665.0104 36 z"/>
<path d="M664.4047 36 L673.65554 36 L673.0416 36 L664.6586 36 z"/>
<path d="M664.2513 36 L674.34366 36 L673.65554 36 L664.4047 36 z"/>
<path d="M664.2 36 L675.09661 36 L674.34366 36 L664.2513 36 z"/>
<path d="M664.2 36 L705.66525 36 L675.09661 36 L664.2 36 z"/>
<path d="M664.2513 36 L705.93608 36 L705.66525 36 L664.2 36 z"/>
<path d="M664.4047 36 L706.24551 36 L705.93608 36 L664.2513 36 z"/>
<path d="M664.6586 36 L706.58989 36 L706.24551 36 L664.4047 36 z"/>
<path d="M665.0104 36 L706.96545 36 L706.58989 36 L664.6586 36 z"/>
<path d="M665.4565 36 L707.3682 36 L706.96545 36 L665.0104 36 z"/>
<path d="M665.9924 36 L707.79418 36 L707.3682 36 L665.4565 36 z"/>
<path d="M666.6124 36 L708.23917 36 L707.79418 36 L665.9924 36 z"/>
<path d="M667.3103 36 L708.69911 36 L708.23917 36 L666.6124 36 z"/>
<path d="M667.3103 36 L669.3229 36 L741.97895 36 L743.9042 36 L708.69911 36 z"/>
<path d="M742.60114 36 L744.18591 36 L743.9042 36 L741.97895 36 z"/>
<path d="M743.27003 36 L744.48859 36 L744.18591 36 L742.60114 36 z"/>
<path d="M743.97933 36 L744.80937 36 L744.48859 36 L743.27003 36 z"/>
<path d="M744.72262 36 L745.14532 36 L744.80937 36 L743.97933 36 z"/>
<path d="M745.4935 36 L745.4935 36 L745.14532 36 L744.72262 36 z"/>
<path d="M746.28493 36 L745.85073 36 L745.4935 36 L745.4935 36 z"/>
<path d="M747.09011 36 L746.21391 36 L745.85073 36 L746.28493 36 z"/>
<path d="M747.90189 36 L746.57981 36 L746.21391 36 L747.09011 36 z"/>
<path d="M748.7131 36 L746.94521 36 L746.57981 36 L747.90189 36 z"/>
<path d="M749.51643 36 L747.3068 36 L746.94521 36 L748.7131 36 z"/>
<path d="M750.30477 36 L747.6614 36 L747.3068 36 L749.51643 36 z"/>
<path d="M751.0706 36 L748.00565 36 L747.6614 36 L750.30477 36 z"/>
<path d="M751.80692 36 L748.33642 36 L748.00565 36 L751.0706 36 z"/>
<path d="M752.50659 36 L748.65053 36 L748.33642 36 L751.80692 36 z"/>
<path d="M753.16251 36 L748.94483 36 L748.65053 36 L752.50659 36 z"/>
<path d="M753.76797 36 L749.21634 36 L748.94483 36 L753.16251 36 z"/>
<path d="M754.31647 36 L749.46219 36 L749.21634 36 L753.76797 36 z"/>
<path d="M754.80199 36 L749.67971 36 L749.46219 36 L754.31647 36 z"/>
<path d="M755.21865 36 L749.86632 36 L749.67971 36 L754.80199 36 z"/>
<path d="M755.56133 36 L750.01973 36 L749.86632 36 L755.21865 36 z"/>
<path d="M755.82539 36 L750.13792 36 L750.01973 36 L755.56133 36 z"/>
<path d="M756.00693 36 L750.21916 36 L750.13792 36 L755.82539 36 z"/>
<path d="M756.10276 36 L750.26204 36 L750.21916 36 L756.00693 36 z"/>
<path d="M758 36 L750.26204 36 L756.10276 36 L758 36 z"/>
<path d="M9.4935 18 L8.4857 18 L8.4857 36 z"/>
<path d="M9.4935 18 L8.4857 36 L9.4935 36 z"/>
<path d="M9.4935 18 L9.4935 36 L10.5065 36 z"/>
<path d="M9.4935 18 L10.5065 36 L10.5065 18 z"/>
<path d="M758 20.81522 L758 29.5344 L758 36 L758 36 z"/>
<path d="M758 18 L758 29.5344 L758 20.81522 L758 18 z"/>
<path d="M9.4935 0 L8.4857 0 L8.4857 18 z"/>
<path d="M9.4935 0 L8.4857 18 L9.4935 18 z"/>
<path d="M9.4935 0 L9.4935 18 L10.5065 18 z"/>
<path d="M9.4935 0 L10.5065 18 L10.5065 0 z"/>
<path d="M9.4935 0 L10.5065 0 L11.5143 0 z"/>
<path d="M11.5143 0 L664.2 0 L664.2 0 L9.4935 0 z"/>
<path d="M664.2 0 L664.2 0 L9.4935 0 z"/>
<path d="M664.2 0 L664.2 0 L9.4935 0 z"/>
<path d="M664.2 0 L664.2 0 L9.4935 0 z"/>
<path d="M664.2 0 L664.2 0 L9.4935 0 z"/>
<path d="M664.2 0 L664.2 0 L9.4935 0 z"/>
<path d="M664.2 0 L664.2 0 L9.4935 0 z"/>
<path d="M664.2 0 L664.2 0 L9.4935 0 z"/>
<path d="M664.2 0 L664.2 0 L9.4935 0 z"/>
<path d="M664.2 0 L664.2 0 L9.4935 0 z"/>
<path d="M664.2 0 L664.2 0 L9.4935 0 z"/>
<path d="M664.2 0 L664.2 0 L9.4935 0 z"/>
<path d="M664.2 0 L664.2 0 L9.4935 0 z"/>
<path d="M664.2 0 L664.2 0 L9.4935 0 z"/>
<path d="M664.2 0 L664.2 0 L9.4935 0 z"/>
<path d="M664.2 0 L664.2 0 L9.4935 0 z"/>
<path d="M664.2 0 L664.2 0 L9.4935 0 z"/>
<path d="M664.2 0 L664.2 0 L9.4935 0 z"/>
<path d="M664.2 0 L664.2 0 L9.4935 0 z"/>
<path d="M664.2 0 L664.2 0 L9.4935 0 z"/>
<path d="M664.2 0 L664.2 0 L9.4935 0 z"/>
<path d="M664.2 0 L664.2 0 L9.4935 0 z"/>
<path d="M664.2 0 L664.2 0 L9.4935 0 z"/>
<path d="M664.2 0 L664.2 0 L9.4935 0 z"/>
<path d="M664.2 0 L664.2 0 L9.4935 0 z"/>
<path d="M664.2 0 L664.2 0 L9.4935 0 z"/>
<path d="M664.2 0 L664.2 0 L9.4935 0 z"/>
<path d="M664.2 0 L664.2 0 L9.4935 0 z"/>
<path d="M664.2 0 L664.2 0 L9.4935 0 z"/>
<path d="M664.2 0 L664.2 0 L9.4935 0 z"/>
<path d="M664.2 0 L664.2 0 L9.4935 0 z"/>
<path d="M664.2 0 L664.2 0 L9.4935 0 z"/>
<path d="M664.2 0 L664.2 0 L9.4935 0 z"/>
<path d="M664.2 0 L664.2 0 L9.4935 0 z"/>
<path d="M664.2 0 L664.2 0 L7.4935 0 L9.4935 0 z"/>
<path d="M9.4935 0 L7.4935 0 L6.5269 0 z"/>
<path d="M9.4935 0 L6.5269 0 L5.5961 0 z"/>
<path d="M9.4935 0 L5.5961 0 L4.7104 0 z"/>
<path d="M9.4935 0 L4.7104 0 L3.8789 0 z"/>
<path d="M9.4935 0 L3.8789 0 L3.1103 0 z"/>
<path d="M9.4935 0 L3.1103 0 L2.4124 0 z"/>
<path d="M9.4935 0 L2.4124 0 L1.7924 0 z"/>
<path d="M9.4935 0 L1.7924 0 L1.2565 0 z"/>
<path d="M9.4935 0 L1.2565 0 L0.8104 0 z"/>
<path d="M9.4935 0 L0.8104 0 L0.4586 0 z"/>
<path d="M9.4935 0 L0.4586 0 L0.2047 0 z"/>
<path d="M9.4935 0 L0.2047 0 L0.0513 0 z"/>
<path d="M9.4935 0 L0.0513 0 L0 0 z"/>
<path d="M9.4935 0 L0 0 L0 0 z"/>
<path d="M9.4935 0 L0 0 L0.0513 0 z"/>
<path d="M9.4935 0 L0.0513 0 L0.2047 0 z"/>
<path d="M9.4935 0 L0.2047 0 L0.4586 0 z"/>
<path d="M9.4935 0 L0.4586 0 L0.8104 0 z"/>
<path d="M9.4935 0 L0.8104 0 L1.2565 0 z"/>
<path d="M9.4935 0 L1.2565 0 L1.7924 0 z"/>
<path d="M9.4935 0 L1.7924 0 L2.4124 0 z"/>
<path d="M9.4935 0 L2.4124 0 L3.1103 0 z"/>
<path d="M9.4935 0 L3.1103 0 L3.8789 0 z"/>
<path d="M9.4935 0 L3.8789 0 L4.7104 0 z"/>
<path d="M9.4935 0 L4.7104 0 L5.5961 0 z"/>
<path d="M9.4935 0 L5.5961 0 L6.5269 0 z"/>
<path d="M9.4935 0 L6.5269 0 L7.4935 0 z"/>
<path d="M9.4935 0 L7.4935 0 L8.4857 0 z"/>
<path d="M664.45219 0 L664.2 0 L664.2 0 z"/>
<path d="M664.45219 0 L665.42532 0 L664.2 0 L664.2 0 z"/>
<path d="M665.42532 0 L666.28827 0 L664.2 0 L664.2 0 z"/>
<path d="M666.28827 0 L667.03061 0 L664.2 0 L664.2 0 z"/>
<path d="M667.03061 0 L667.6436 0 L664.2 0 L664.2 0 z"/>
<path d="M667.6436 0 L668.11952 0 L664.2 0 L664.2 0 z"/>
<path d="M668.11952 0 L668.45225 0 L664.2 0 L664.2 0 z"/>
<path d="M668.45225 0 L668.63728 0 L664.2 0 L664.2 0 z"/>
<path d="M668.63728 0 L668.8773 0 L664.2 0 L664.2 0 z"/>
<path d="M664.99364 0 L664.45219 0 L664.2 0 L664.2 0 z"/>
<path d="M664.99364 0 L665.72319 0 L665.42532 0 L664.45219 0 z"/>
<path d="M665.72319 0 L666.36968 0 L666.28827 0 L665.42532 0 z"/>
<path d="M666.36968 0 L666.6124 0 L666.28827 0 z"/>
<path d="M671.3185 0 L671.31662 0 L664.2 0 L664.2 0 z"/>
<path d="M671.31662 0 L671.31416 0 L664.2 0 L664.2 0 z"/>
<path d="M671.31416 0 L671.21611 0 L664.2 0 L664.2 0 z"/>
<path d="M671.21611 0 L671.02398 0 L664.2 0 L664.2 0 z"/>
<path d="M671.02398 0 L670.74032 0 L664.2 0 L664.2 0 z"/>
<path d="M670.74032 0 L670.36861 0 L664.2 0 L664.2 0 z"/>
<path d="M670.36861 0 L669.91291 0 L664.2 0 L664.2 0 z"/>
<path d="M669.91291 0 L669.37863 0 L664.2 0 L664.2 0 z"/>
<path d="M669.37863 0 L668.77162 0 L664.2 0 L664.2 0 z"/>
<path d="M668.77162 0 L668.0984 0 L664.2 0 L664.2 0 z"/>
<path d="M668.0984 0 L667.36629 0 L664.2 0 L664.2 0 z"/>
<path d="M667.36629 0 L666.58278 0 L664.2 0 L664.2 0 z"/>
<path d="M666.58278 0 L665.75623 0 L664.2 0 L664.2 0 z"/>
<path d="M665.75623 0 L664.89496 0 L664.2 0 L664.2 0 z"/>
<path d="M664.89496 0 L664.2 0 L664.2 0 z"/>
<path d="M664.63232 0 L664.2 0 L664.2 0 z"/>
<path d="M665.23932 0 L664.99364 0 L664.2 0 L664.2 0 L664.63232 0 z"/>
<path d="M665.23932 0 L665.78947 0 L665.72319 0 L664.99364 0 z"/>
<path d="M665.78947 0 L665.9924 0 L665.72319 0 z"/>
<path d="M664.53616 0 L664.2 0 L664.2 0 z"/>
<path d="M664.88929 0 L664.63232 0 L664.2 0 L664.2 0 L664.53616 0 z"/>
<path d="M665.18716 0 L664.63232 0 L664.88929 0 z"/>
<path d="M665.0104 0 L665.29468 0 L665.23932 0 L665.18716 0 z"/>
<path d="M665.29468 0 L665.4565 0 L665.23932 0 z"/>
<path d="M664.23708 0 L664.2 0 L664.2 0 z"/>
<path d="M664.23708 0 L664.28556 0 L664.2 0 L664.2 0 z"/>
<path d="M664.30312 0 L664.2 0 L664.2 0 L664.28556 0 z"/>
<path d="M667.7488 0 L667.6436 0 L667.3103 0 z"/>
<path d="M667.7488 0 L668.37519 0 L668.11952 0 L667.6436 0 z"/>
<path d="M668.37519 0 L668.81327 0 L668.45225 0 L668.11952 0 z"/>
<path d="M668.81327 0 L669.05696 0 L668.63728 0 L668.45225 0 z"/>
<path d="M669.05696 0 L669.3229 0 L668.8773 0 L668.63728 0 z"/>
<path d="M664.73705 0 L664.2 0 L664.2 0 L664.87857 0 z"/>
<path d="M664.73705 0 L664.2 0 L664.2 0 z"/>
<path d="M664.2 0 L664.2 0 L664.2513 0 z"/>
<path d="M665.94068 0 L665.75623 0 L666.11478 0 z"/>
<path d="M665.94068 0 L665.5221 0 L664.89496 0 L665.75623 0 z"/>
<path d="M665.0903 0 L664.73705 0 L664.87857 0 L664.89496 0 L665.5221 0 z"/>
<path d="M664.55972 0 L664.73705 0 L665.0903 0 z"/>
<path d="M666.68146 0 L666.58278 0 L667.3103 0 z"/>
<path d="M665.96679 0 L665.94068 0 L666.11478 0 L666.58278 0 L666.68146 0 z"/>
<path d="M665.96679 0 L665.90724 0 L665.94068 0 z"/>
<path d="M664.48178 0 L664.55972 0 L665.0104 0 z"/>
<path d="M664.4047 0 L664.48178 0 L664.6586 0 z"/>
<path d="M664.32363 0 L664.28556 0 L664.27708 0 z"/>
<path d="M664.57646 0 L664.53616 0 L664.30312 0 L664.28556 0 L664.32363 0 z"/>
<path d="M664.6586 0 L664.53616 0 L664.57646 0 z"/>
<path d="M664.3585 0 L664.32363 0 L664.27708 0 L664.2513 0 z"/>
<path d="M664.4047 0 L664.32363 0 L664.3585 0 z"/>
<path d="M666.06978 0 L665.96679 0 L666.6124 0 z"/>
<path d="M666.06978 0 L665.68065 0 L665.90724 0 L665.96679 0 z"/>
<path d="M665.53778 0 L665.5221 0 L665.68065 0 L665.9924 0 z"/>
<path d="M665.4565 0 L665.5221 0 L665.53778 0 z"/>
<path d="M758 0 L756.25734 0 L750.88985 0 L758 0 z"/>
<path d="M756.25734 0 L756.16575 0 L750.84874 0 L750.88985 0 z"/>
<path d="M756.16575 0 L755.98844 0 L750.76915 0 L750.84874 0 z"/>
<path d="M755.98844 0 L755.72855 0 L750.65246 0 L750.76915 0 z"/>
<path d="M755.72855 0 L755.38996 0 L750.5004 0 L750.65246 0 z"/>
<path d="M755.38996 0 L754.97724 0 L750.31499 0 L750.5004 0 z"/>
<path d="M754.97724 0 L754.49547 0 L750.09848 0 L750.31499 0 z"/>
<path d="M754.49547 0 L753.95052 0 L749.85347 0 L750.09848 0 z"/>
<path d="M753.95052 0 L753.34834 0 L749.58259 0 L749.85347 0 z"/>
<path d="M753.34834 0 L752.69544 0 L749.28874 0 L749.58259 0 z"/>
<path d="M752.69544 0 L751.99849 0 L748.97488 0 L749.28874 0 z"/>
<path d="M751.99849 0 L751.26456 0 L748.64417 0 L748.97488 0 z"/>
<path d="M751.26456 0 L750.50078 0 L748.29979 0 L748.64417 0 z"/>
<path d="M750.50078 0 L749.71414 0 L747.94486 0 L748.29979 0 z"/>
<path d="M749.71414 0 L748.91213 0 L747.58275 0 L747.94486 0 z"/>
<path d="M748.91213 0 L748.10188 0 L747.21667 0 L747.58275 0 z"/>
<path d="M748.10188 0 L747.29068 0 L746.8499 0 L747.21667 0 z"/>
<path d="M747.29068 0 L746.4857 0 L746.4857 0 L746.8499 0 z"/>
<path d="M746.4857 0 L745.69409 0 L746.1273 0 L746.4857 0 z"/>
<path d="M745.69409 0 L744.92266 0 L745.7778 0 L746.1273 0 z"/>
<path d="M744.92266 0 L744.17845 0 L745.44041 0 L745.7778 0 z"/>
<path d="M744.17845 0 L743.46788 0 L745.11807 0 L745.44041 0 z"/>
<path d="M743.46788 0 L742.79738 0 L744.81373 0 L745.11807 0 z"/>
<path d="M742.79738 0 L742.17324 0 L744.53027 0 L744.81373 0 z"/>
<path d="M742.17324 0 L669.3229 0 L667.3103 0 L709.12331 0 L744.53027 0 z"/>
<path d="M709.12331 0 L667.3103 0 L666.6124 0 L708.66079 0 z"/>
<path d="M708.66079 0 L666.6124 0 L665.9924 0 L708.21307 0 z"/>
<path d="M708.21307 0 L665.9924 0 L665.4565 0 L707.78423 0 z"/>
<path d="M707.78423 0 L665.4565 0 L665.0104 0 L707.37852 0 z"/>
<path d="M707.37852 0 L665.0104 0 L664.6586 0 L706.99993 0 z"/>
<path d="M706.99993 0 L664.6586 0 L664.4047 0 L706.65247 0 z"/>
<path d="M706.65247 0 L664.4047 0 L664.2513 0 L706.33994 0 z"/>
<path d="M706.33994 0 L664.2513 0 L664.2 0 L706.06601 0 z"/>
<path d="M706.06601 0 L664.2 0 L664.2 0 L675.18078 0 z"/>
<path d="M675.18078 0 L664.2 0 L664.2513 0 L674.42118 0 z"/>
<path d="M674.42118 0 L664.2513 0 L664.4047 0 L673.72632 0 z"/>
<path d="M673.72632 0 L664.4047 0 L664.6586 0 L673.10561 0 z"/>
<path d="M673.10561 0 L664.6586 0 L665.0104 0 L672.56813 0 z"/>
<path d="M672.56813 0 L665.0104 0 L665.4565 0 L672.12294 0 z"/>
<path d="M672.12294 0 L665.4565 0 L665.9924 0 L671.77819 0 z"/>
<path d="M671.77819 0 L665.9924 0 L666.6124 0 L671.54136 0 z"/>
<path d="M671.54136 0 L666.6124 0 L667.3103 0 L671.41891 0 z"/>
<path d="M671.41891 0 L667.3103 0 L671.3185 0 z"/>
<path d="M758 18 L758 2.81522 L758 11.5344 L758 18 z"/>
<path d="M758 2.81522 L758 0 L758 0 L758 11.5344 z"/>
</svg>