<?xml version="1.0" encoding="UTF-8"?>
<!-- Generated by jsxcad -->
<!DOCTYPE svg PUBLIC "-//W3C//DTD SVG 1.1 Tiny//EN" "http://www.w3.org/Graphics/SVG/1.1/DTD/svg11-tiny.dtd">
<svg baseProfile="tiny" height="1739.085512743214mm" width="1505.8779655734027mm" viewBox="0 0 1505.8779655734027 1739.085512743214" version="1.1" stroke="black" stroke-width=".1" fill="none" xmlns="http://www.w3.org/2000/svg">
<path fill="#4682b4" stroke="#4682b4" d="M1229.4295507735294 614.8257795527413 L1226.438612232211 616.5551487093239 L1217.4286216096307 600.9724590693031 L1220.4195601509489 599.2430899127206 z"/>
<path fill="#4682b4" stroke="#4682b4" d="M1156.829289787031 636.0113096316726 L1151.9898493648093 638.8094989014444 L1095.7190397592533 671.3455695836312 L1095.7190397592533 671.3455695836312 L1100.558480181475 668.5473803138595 L1273.6994322648059 568.4363939169593 L1276.6903692981427 566.7070187861451 L1220.4195596925867 599.2430894683321 L1217.4286226592496 600.9724645991462 z"/>
<path fill="#4682b4" stroke="#4682b4" d="M1165.83928 651.594 L1156.82929 636.01131 L1217.42862 600.97246 L1226.43861 616.55515 z"/>
<path fill="#4682b4" stroke="#4682b4" d="M1276.6903705873133 566.7070196604125 L1285.7003582111454 582.2897010343249 L1229.4295508303303 614.8257795198987 L1220.4195601620331 599.2430899063115 z"/>
<path fill="#4682b4" stroke="#4682b4" d="M1104.7290320425839 686.9282535326287 L1160.9998416481399 654.3921828504417 L1165.8392777370336 651.5939960862224 L1226.4386106092522 616.555151053696 L1229.4295476425893 614.8257759228818 L1285.7003615814733 582.2897027351426 L1282.7094202148082 584.0190803715091 L1109.5684681314776 684.1300667684093 L1104.7290320425839 686.9282535326287 z"/>
<path fill="#4682b4" stroke="#4682b4" d="M1109.5684693413464 684.1300703808367 L1100.558479250513 668.5473804333569 L1095.7190412044408 671.3455693035859 L1104.7290308814781 686.9282494903247 z"/>
<path fill="#4682b4" stroke="#4682b4" d="M1095.7190426522398 671.3455684664611 L1104.7290292701302 686.9282504220143 L1104.7290292701302 686.9282504220143 L1095.7190426522398 671.3455684664611 z"/>
<path fill="#4682b4" stroke="#4682b4" d="M1100.55848 668.54738 L1109.56847 684.13007 L1282.70942 584.01908 L1273.69943 568.43639 z"/>
<path fill="#4682b4" stroke="#4682b4" d="M1276.6903705471364 566.7070196836429 L1273.6994320058182 568.4363888402254 L1282.7094226283987 584.0190784802463 L1285.700358333517 582.289700963569 z"/>
<path fill="#4682b4" stroke="#4682b4" d="M1160.9998413919748 654.392179195153 L1104.7290309666948 686.928249441052 L1095.7190433428625 671.3455680671395 L1151.9898537681427 638.8094978212404 z"/>
<path fill="#4682b4" stroke="#4682b4" d="M1165.8392793991495 651.5940003474147 L1160.999840939281 654.3921794569028 L1151.9898512622437 638.8094992701639 L1156.8292893083162 636.0113103999349 z"/>
<path fill="#4682b4" stroke="#4682b4" d="M1160.9998416481399 654.3921828504417 L1160.9998416481399 654.3921828504417 L1321.1552207703633 561.7895213323357 L1325.994661192585 558.9913320625639 L1343.3087605814744 548.9802310056547 L1346.2996901203642 547.2508602081685 L1229.4295476425893 614.8257759228818 L1226.4386106092522 616.555151053696 L1165.8392777370336 651.5939960862224 z"/>
<path fill="#4682b4" stroke="#4682b4" d="M1156.82929 636.01131 L1165.83928 651.594 L1226.43861 616.55515 L1217.42862 600.97246 z"/>
<path fill="#4682b4" stroke="#4682b4" d="M1343.3087585093056 548.980230861927 L1334.2987707229252 533.3975495820009 L1337.2897013332229 531.6681692291237 L1346.2996919558034 547.2508588691444 z"/>
<path fill="#4682b4" stroke="#4682b4" d="M1229.4295507735294 614.8257795527413 L1220.4195601509489 599.2430899127205 L1217.4286216096307 600.9724590693031 L1226.4386122322112 616.5551487093239 z"/>
<path fill="#4682b4" stroke="#4682b4" d="M1316.98467 543.40865 L1334.29877 533.39755 L1343.30876 548.98023 L1325.99466 558.99133 z"/>
<path fill="#4682b4" stroke="#4682b4" d="M1151.9898538879904 638.8094977519438 L1312.1452365548005 546.206831992032 L1321.1552242559642 561.7895175391797 L1160.9998408040206 654.3921795351112 z"/>
<path fill="#4682b4" stroke="#4682b4" d="M1316.9846696698144 543.408650190915 L1325.9946593468517 558.9913303776536 L1321.1552213007794 561.7895192478827 L1312.14524049429 546.2068297141989 z"/>
<path fill="#4682b4" stroke="#4682b4" d="M1334.298768298144 533.3975470566572 L1316.9846689092544 543.4086481135665 L1312.1452403148082 546.2068305444578 L1151.9898493648093 638.8094989014444 L1151.9898493648093 638.8094989014444 L1156.829289787031 636.0113096316726 L1217.4286226592496 600.9724645991462 L1220.4195596925867 599.2430894683321 L1337.2897021703616 531.6681737536187 z"/>
<path fill="#4682b4" stroke="#4682b4" d="M1229.4295511239854 614.8257793501057 L1346.2996928419022 547.2508583567975 L1337.2897019372547 531.6681688798694 L1220.4195602193379 599.2430898731776 z"/>
<path fill="#4682b4" stroke="#4682b4" d="M1151.9898512622437 638.809499270164 L1160.999840939281 654.3921794569028 L1165.8392793991495 651.5940003474147 L1156.8292893083162 636.0113103999349 z"/>
<path fill="#4682b4" stroke="#4682b4" d="M1160.999839875451 654.3921800720148 L1160.999839875451 654.3921800720148 L1151.9898532575605 638.8094981164616 L1151.9898532575605 638.8094981164616 z"/>
<path fill="#4682b4" stroke="#4682b4" d="M1220.4195601509489 599.2430899127206 L1217.4286216096307 600.9724590693031 L1208.41863382325 585.389777789377 L1211.4095695283684 583.6604002726997 z"/>
<path fill="#4682b4" stroke="#4682b4" d="M1156.82929 636.01131 L1147.8193 620.42862 L1208.41863 585.38978 L1217.42862 600.97246 z"/>
<path fill="#4682b4" stroke="#4682b4" d="M1147.8193018370287 620.4286231771227 L1142.979861414807 623.2268124468945 L1086.7090518092507 655.7628831290815 L1086.7090518092507 655.7628831290815 L1091.5484922314724 652.9646938593097 L1264.6894399814755 552.8537099679619 L1267.6803813481404 551.1243323315954 L1211.4095717425844 583.6604030137822 L1208.4186303759193 585.3897806501489 z"/>
<path fill="#4682b4" stroke="#4682b4" d="M1211.409569493736 583.6604002927244 L1267.6803799190159 551.1243300468252 L1276.6903705873133 566.7070196604125 L1220.4195601620331 599.2430899063115 z"/>
<path fill="#4682b4" stroke="#4682b4" d="M1095.7190397592533 671.3455695836312 L1151.9898493648093 638.8094989014444 L1156.829289787031 636.0113096316726 L1217.4286226592496 600.9724645991462 L1220.4195596925867 599.2430894683321 L1276.6903692981427 566.7070187861451 L1273.6994322648059 568.4363939169593 L1100.558480181475 668.5473803138595 L1095.7190397592533 671.3455695836312 z"/>
<path fill="#4682b4" stroke="#4682b4" d="M1095.7190412044408 671.3455693035859 L1100.558479250513 668.5473804333569 L1091.5484891596798 652.9646904858772 L1086.7090511136075 655.7628793561063 z"/>
<path fill="#4682b4" stroke="#4682b4" d="M1095.7190426522398 671.3455684664611 L1095.7190426522398 671.3455684664611 L1086.7090517010215 655.7628790164605 L1086.7090517010215 655.7628790164605 z"/>
<path fill="#4682b4" stroke="#4682b4" d="M1091.54849 652.96469 L1100.55848 668.54738 L1273.69943 568.43639 L1264.68944 552.85371 z"/>
<path fill="#4682b4" stroke="#4682b4" d="M1267.6803799245558 551.1243300436221 L1264.6894442194377 552.8537075602993 L1273.6994320058182 568.4363888402254 L1276.6903705471364 566.7070196836429 z"/>
<path fill="#4682b4" stroke="#4682b4" d="M1151.9898537681427 638.8094978212404 L1095.7190433428625 671.3455680671395 L1086.7090526745653 655.7628784535524 L1142.9798630998455 623.2268082076533 z"/>
<path fill="#4682b4" stroke="#4682b4" d="M1147.8192992174831 620.4286204524552 L1156.8292893083162 636.0113103999349 L1151.9898512622437 638.8094992701639 L1142.9798611714104 623.2268093226843 z"/>
<path fill="#4682b4" stroke="#4682b4" d="M1151.9898493648093 638.8094989014444 L1151.9898493648093 638.8094989014444 L1312.1452403148082 546.2068305444578 L1316.9846689092544 543.4086481135665 L1334.298768298144 533.3975470566572 L1337.2897021703616 531.6681737536187 L1220.4195596925867 599.2430894683321 L1217.4286226592496 600.9724645991462 L1156.829289787031 636.0113096316726 z"/>
<path fill="#4682b4" stroke="#4682b4" d="M1147.8193 620.42862 L1156.82929 636.01131 L1217.42862 600.97246 L1208.41863 585.38978 z"/>
<path fill="#4682b4" stroke="#4682b4" d="M1325.2887801003446 517.8148599419801 L1328.2797186416628 516.0854907853975 L1337.2897013332229 531.6681692291237 L1334.2987707229252 533.3975495820009 z"/>
<path fill="#4682b4" stroke="#4682b4" d="M1220.4195601509489 599.2430899127205 L1211.4095695283684 583.6604002726997 L1208.41863382325 585.389777789377 L1217.4286216096307 600.9724590693031 z"/>
<path fill="#4682b4" stroke="#4682b4" d="M1307.97468 527.82596 L1325.28878 517.81486 L1334.29877 533.39755 L1316.98467 543.40865 z"/>
<path fill="#4682b4" stroke="#4682b4" d="M1307.974679578981 527.8259602434352 L1316.9846696698144 543.408650190915 L1312.14524049429 546.2068297141989 L1303.1352508172527 530.6241495274602 z"/>
<path fill="#4682b4" stroke="#4682b4" d="M1151.9898538879904 638.8094977519438 L1142.979863020624 623.2268082534596 L1303.1352496387703 530.6241502088646 L1312.1452365548005 546.206831992032 z"/>
<path fill="#4682b4" stroke="#4682b4" d="M1325.2887803481417 517.8148606021074 L1307.9746809592518 527.8259616590167 L1303.1352480314777 530.6241465954605 L1142.979861414807 623.2268124468945 L1142.979861414807 623.2268124468945 L1147.8193018370287 620.4286231771227 L1208.4186303759193 585.3897806501489 L1211.4095717425844 583.6604030137822 L1328.2797173814786 516.0854854712934 z"/>
<path fill="#4682b4" stroke="#4682b4" d="M1220.4195602193379 599.2430898731776 L1337.2897019372547 531.6681688798694 L1328.2797180262528 516.0854911412307 L1211.4095693146903 583.6604003962494 z"/>
<path fill="#4682b4" stroke="#4682b4" d="M1151.9898512622437 638.809499270164 L1156.8292893083162 636.0113103999349 L1147.8192992174831 620.4286204524552 L1142.9798611714104 623.2268093226843 z"/>
<path fill="#4682b4" stroke="#4682b4" d="M1151.9898532575605 638.8094981164616 L1151.9898532575605 638.8094981164616 L1142.9798623063423 623.2268086664609 L1142.9798623063423 623.2268086664609 z"/>
<path fill="#4682b4" stroke="#4682b4" d="M1134.26478 530.15057 L1237.31796 708.38001 L1252.90064 699.37002 L1149.84747 521.14058 z"/>
<path fill="#4682b4" stroke="#4682b4" d="M1237.3179587255304 708.3800077958175 L1238.227141918076 709.9524333172936 L1253.809827501065 700.9424456781171 L1252.9006404943448 699.3700208549644 z"/>
<path fill="#4682b4" stroke="#4682b4" d="M1210.3840411818476 625.8379793166495 L1192.3640661182915 594.6726122444237 L1192.3640661182915 594.6726122444237 L1192.3640661182915 594.6726122444237 L1192.3640661182915 594.6726122444237 L1192.3640661182915 594.6726122444237 L1192.3640661182915 594.6726122444237 L1183.8546311338064 579.9556293444273 L1181.4743513547965 575.8389592166496 L1148.9382806726096 519.5681496110935 L1149.8474684915332 521.1405808722031 L1252.9006431419339 699.3700181833176 L1253.8098309608574 700.9424494444271 L1221.2737602786706 644.6716398388711 L1218.8934804996607 640.5549697110935 L1210.3840411818476 625.8379793166495 L1210.3840411818476 625.8379793166495 L1210.3840411818476 625.8379793166495 L1210.3840411818476 625.8379793166495 L1210.3840411818476 625.8379793166495 z"/>
<path fill="#4682b4" stroke="#4682b4" d="M1221.2737603873888 644.6716406699854 L1205.691072074537 653.6816235878912 L1203.3107907517608 649.5649513001629 L1218.8934790646126 640.5549683822571 z"/>
<path fill="#4682b4" stroke="#4682b4" d="M1198.58572 632.65983 L1210.38404 625.83798 L1218.89348 640.55497 L1203.31079 649.56495 L1194.80136 634.84797 L1196.74919 633.72172 z"/>
<path fill="#4682b4" stroke="#4682b4" d="M1190.41623 595.79886 L1188.5797 596.86075 L1176.78138 603.6826 L1168.27195 588.96562 L1183.85463 579.95563 L1192.36407 594.67261 z"/>
<path fill="#4682b4" stroke="#4682b4" d="M1181.47434899904 575.83895826885 L1183.8546303218163 579.9556305565783 L1168.2719496461893 588.965619388088 L1165.8916683234131 584.8489471003599 z"/>
<path fill="#4682b4" stroke="#4682b4" d="M1176.7813796637415 603.6826001944262 L1194.8013572328503 634.84797159998 L1194.8013572328503 634.84797159998 L1194.8013572328503 634.84797159998 L1194.8013572328503 634.84797159998 L1194.8013572328503 634.84797159998 L1194.8013572328503 634.84797159998 L1203.310789711783 649.5649501666484 L1205.6910694907929 653.6816202944261 L1238.2271401729797 709.9524298999821 L1237.3179591929365 708.3800104666481 L1134.2647820369834 530.1505688222056 L1133.3555942180597 528.578137561096 L1165.8916674057991 584.8489514999801 L1168.271947184809 588.9656216277577 L1176.7813796637415 603.6826001944262 L1176.7813796637415 603.6826001944262 L1176.7813796637415 603.6826001944262 L1176.7813796637415 603.6826001944262 L1176.7813796637415 603.6826001944262 z"/>
<path fill="#4682b4" stroke="#4682b4" d="M1192.3640699092532 594.6726098430544 L1176.7813804592524 603.6826007942728 L1176.7813804592524 603.6826007942728 L1176.7813804592524 603.6826007942728 L1176.7813804592524 603.6826007942728 L1176.7813804592524 603.6826007942728 L1176.7813804592524 603.6826007942728 L1188.5797008370298 596.8607514476349 L1190.4162303759192 595.7988606501488 L1192.3640699092532 594.6726098430544 L1192.3640699092532 594.6726098430544 L1192.3640699092532 594.6726098430544 L1192.3640699092532 594.6726098430544 L1192.3640699092532 594.6726098430544 z"/>
<path fill="#4682b4" stroke="#4682b4" d="M1149.847467899306 521.1405763668707 L1148.9382808925857 519.568151543718 L1133.3555913900645 528.5781424041032 L1134.264778396785 530.1505672272558 z"/>
<path fill="#4682b4" stroke="#4682b4" d="M1165.891668041971 584.8489466136083 L1133.3555891197473 528.5781384776119 L1148.9382788447479 519.5681480020028 L1181.4743490197475 575.8389583046632 z"/>
<path fill="#4682b4" stroke="#4682b4" d="M1194.8013606925854 634.84797119782 L1210.3840426481386 625.8379845799296 L1210.3840426481386 625.8379845799296 L1210.3840426481386 625.8379845799296 L1210.3840426481386 625.8379845799296 L1210.3840426481386 625.8379845799296 L1210.3840426481386 625.8379845799296 L1198.5857222703614 632.6598339265676 L1196.749192731472 633.7217247240536 L1194.8013606925854 634.84797119782 L1194.8013606925854 634.84797119782 L1194.8013606925854 634.84797119782 L1194.8013606925854 634.84797119782 L1194.8013606925854 634.84797119782 z"/>
<path fill="#4682b4" stroke="#4682b4" d="M1238.2271427089477 709.9524346850984 L1205.691072533948 653.6816243824379 L1221.2737600922844 644.6716401596051 L1253.809830267284 700.9424504622655 z"/>
<path fill="#4682b4" stroke="#4682b4" d="M1176.78138 603.6826 L1192.36407 594.67261 L1210.38404 625.83798 L1194.80136 634.84797 z"/>
<path fill="#4682b4" stroke="#4682b4" d="M1134.26478 530.15057 L1118.6821 539.16056 L1221.73527 717.39 L1237.31796 708.38001 z"/>
<path fill="#4682b4" stroke="#4682b4" d="M1194.8013572328503 634.84797159998 L1176.7813796637415 603.6826001944262 L1176.7813796637415 603.6826001944262 L1176.7813796637415 603.6826001944262 L1176.7813796637415 603.6826001944262 L1176.7813796637415 603.6826001944262 L1176.7813796637415 603.6826001944262 L1168.271947184809 588.9656216277577 L1165.8916674057991 584.8489514999801 L1133.3555942180597 528.578137561096 L1134.2647820369834 530.1505688222056 L1237.3179591929365 708.3800104666481 L1238.2271401729797 709.9524298999821 L1205.6910694907929 653.6816202944261 L1203.310789711783 649.5649501666484 L1194.8013572328503 634.84797159998 L1194.8013572328503 634.84797159998 L1194.8013572328503 634.84797159998 L1194.8013572328503 634.84797159998 L1194.8013572328503 634.84797159998 z"/>
<path fill="#4682b4" stroke="#4682b4" d="M1221.7352692230093 717.3899986562026 L1222.6444601492617 718.9624202581466 L1238.227141918076 709.9524333172936 L1237.3179587255304 708.3800077958175 z"/>
<path fill="#4682b4" stroke="#4682b4" d="M1205.691072074537 653.6816235878912 L1190.10839139891 662.691612419401 L1187.7281100761338 658.5749401316727 L1203.3107907517608 649.5649513001629 z"/>
<path fill="#4682b4" stroke="#4682b4" d="M1183.00304 641.66982 L1194.80136 634.84797 L1203.31079 649.56495 L1187.72811 658.57494 L1179.21867 643.85796 L1181.16651 642.73171 z"/>
<path fill="#4682b4" stroke="#4682b4" d="M1174.83354 604.80885 L1172.99701 605.87074 L1161.19869 612.69259 L1152.68926 597.97561 L1168.27195 588.96562 L1176.78138 603.6826 z"/>
<path fill="#4682b4" stroke="#4682b4" d="M1165.8916683234131 584.8489471003599 L1168.2719496461893 588.965619388088 L1152.6892598362094 597.9756097167259 L1150.3089785134332 593.8589374289977 z"/>
<path fill="#4682b4" stroke="#4682b4" d="M1161.1986932091918 612.6925881444287 L1179.2186707783005 643.8579595499825 L1179.2186707783005 643.8579595499825 L1179.2186707783005 643.8579595499825 L1179.2186707783005 643.8579595499825 L1179.2186707783005 643.8579595499825 L1179.2186707783005 643.8579595499825 L1187.7281057627856 658.574942449979 L1190.1083855417955 662.6916125777566 L1222.6444562239824 718.9624221833126 L1221.7352727383868 717.3899984166505 L1118.6820980879859 539.1605611055362 L1117.7729102690623 537.5881298444266 L1150.3089809512492 593.8589394499827 L1152.689260730259 597.9756095777603 L1161.1986932091918 612.6925881444287 L1161.1986932091918 612.6925881444287 L1161.1986932091918 612.6925881444287 L1161.1986932091918 612.6925881444287 L1161.1986932091918 612.6925881444287 z"/>
<path fill="#4682b4" stroke="#4682b4" d="M1176.7813804592524 603.6826007942728 L1161.198691009252 612.6925917454911 L1161.198691009252 612.6925917454911 L1161.198691009252 612.6925917454911 L1161.198691009252 612.6925917454911 L1161.198691009252 612.6925917454911 L1161.198691009252 612.6925917454911 L1172.9970113870293 605.8707423988532 L1174.8335409259187 604.8088516013671 L1176.7813804592524 603.6826007942728 L1176.7813804592524 603.6826007942728 L1176.7813804592524 603.6826007942728 L1176.7813804592524 603.6826007942728 L1176.7813804592524 603.6826007942728 z"/>
<path fill="#4682b4" stroke="#4682b4" d="M1134.264778396785 530.1505672272558 L1133.3555913900645 528.5781424041032 L1117.7729096212502 537.5881293449563 L1118.6820966279706 539.1605541681089 z"/>
<path fill="#4682b4" stroke="#4682b4" d="M1150.3089783169705 593.8589370892174 L1117.7729081419707 537.5881267865572 L1133.3555891197473 528.5781384776119 L1165.891668041971 584.8489466136083 z"/>
<path fill="#4682b4" stroke="#4682b4" d="M1179.2186712425848 643.8579621490383 L1194.8013606925854 634.84797119782 L1194.8013606925854 634.84797119782 L1194.8013606925854 634.84797119782 L1194.8013606925854 634.84797119782 L1194.8013606925854 634.84797119782 L1194.8013606925854 634.84797119782 L1183.0030403148082 641.6698205444578 L1181.1665107759188 642.7317113419439 L1179.2186712425848 643.8579621490383 L1179.2186712425848 643.8579621490383 L1179.2186712425848 643.8579621490383 L1179.2186712425848 643.8579621490383 L1179.2186712425848 643.8579621490383 z"/>
<path fill="#4682b4" stroke="#4682b4" d="M1190.1083915561715 662.691612691383 L1205.691072533948 653.6816243824379 L1238.2271427089477 709.9524346850984 L1222.6444617311713 718.9624229940435 z"/>
<path fill="#4682b4" stroke="#4682b4" d="M1161.19869 612.69259 L1176.78138 603.6826 L1194.80136 634.84797 L1179.21867 643.85796 z"/>
<path fill="#4682b4" stroke="#4682b4" d="M734.93898 1409.542757625186 L734.93898 1406.0878421068846 L752.93898 1406.0878421068846 L752.93898 1409.542757625186 z"/>
<path fill="#4682b4" stroke="#4682b4" d="M734.93898 1336.08784 L752.93898 1336.08784 L752.93898 1406.08784 L734.93898 1406.08784 z"/>
<path fill="#4682b4" stroke="#4682b4" d="M752.9389827867013 1336.08784 L752.9389827867013 1330.49767 L752.9389827867013 1265.49767 L752.9389827867013 1265.49767 L752.9389827867013 1271.08784 L752.9389827867013 1471.08784 L752.9389827867013 1474.54276 L752.9389827867013 1409.54276 L752.9389827867013 1406.08784 z"/>
<path fill="#4682b4" stroke="#4682b4" d="M752.93898 1409.5427574508008 L752.93898 1474.5427574508008 L734.93898 1474.5427574508008 L734.93898 1409.5427574508008 z"/>
<path fill="#4682b4" stroke="#4682b4" d="M734.9389827867013 1265.49767 L734.9389827867013 1330.49767 L734.9389827867013 1336.08784 L734.9389827867013 1406.08784 L734.9389827867013 1409.54276 L734.9389827867013 1474.54276 L734.9389827867013 1471.08784 L734.9389827867013 1271.08784 L734.9389827867013 1265.49767 z"/>
<path fill="#4682b4" stroke="#4682b4" d="M734.93898 1265.497671232391 L734.93898 1271.0878393696141 L752.93898 1271.0878393696141 L752.93898 1265.497671232391 z"/>
<path fill="#4682b4" stroke="#4682b4" d="M734.93898 1265.497671399732 L734.93898 1265.497671399732 L752.93898 1265.497671399732 L752.93898 1265.497671399732 z"/>
<path fill="#4682b4" stroke="#4682b4" d="M752.93898 1271.08784 L734.93898 1271.08784 L734.93898 1471.08784 L752.93898 1471.08784 z"/>
<path fill="#4682b4" stroke="#4682b4" d="M752.93898 1474.542757625186 L752.93898 1471.0878421068846 L734.93898 1471.0878421068846 L734.93898 1474.542757625186 z"/>
<path fill="#4682b4" stroke="#4682b4" d="M734.93898 1330.4976726923976 L734.93898 1265.4976726923976 L752.93898 1265.4976726923976 L752.93898 1330.4976726923976 z"/>
<path fill="#4682b4" stroke="#4682b4" d="M752.93898 1336.0878393696141 L734.93898 1336.0878393696141 L734.93898 1330.497671232391 L752.93898 1330.497671232391 z"/>
<path fill="#4682b4" stroke="#4682b4" d="M734.9389827867013 1330.49767 L734.9389827867013 1330.49767 L734.9389827867013 1515.49767 L734.9389827867013 1521.08784 L734.9389827867013 1541.08784 L734.9389827867013 1544.54276 L734.9389827867013 1409.54276 L734.9389827867013 1406.08784 L734.9389827867013 1336.08784 z"/>
<path fill="#4682b4" stroke="#4682b4" d="M752.93898 1336.08784 L734.93898 1336.08784 L734.93898 1406.08784 L752.93898 1406.08784 z"/>
<path fill="#4682b4" stroke="#4682b4" d="M752.93898 1541.0878421068846 L752.93898 1544.5427576251857 L734.93898 1544.5427576251857 L734.93898 1541.0878421068846 z"/>
<path fill="#4682b4" stroke="#4682b4" d="M734.93898 1409.542757625186 L752.93898 1409.542757625186 L752.93898 1406.0878421068846 L734.93898 1406.0878421068846 z"/>
<path fill="#4682b4" stroke="#4682b4" d="M752.93898 1521.08784 L752.93898 1541.08784 L734.93898 1541.08784 L734.93898 1521.08784 z"/>
<path fill="#4682b4" stroke="#4682b4" d="M752.93898 1521.0878393696141 L734.93898 1521.0878393696141 L734.93898 1515.497671232391 L752.93898 1515.497671232391 z"/>
<path fill="#4682b4" stroke="#4682b4" d="M734.93898 1330.4976723362774 L752.93898 1330.4976723362774 L752.93898 1515.4976723362774 L734.93898 1515.4976723362774 z"/>
<path fill="#4682b4" stroke="#4682b4" d="M752.9389827867013 1541.08784 L752.9389827867013 1521.08784 L752.9389827867013 1515.49767 L752.9389827867013 1330.49767 L752.9389827867013 1330.49767 L752.9389827867013 1336.08784 L752.9389827867013 1406.08784 L752.9389827867013 1409.54276 L752.9389827867013 1544.54276 z"/>
<path fill="#4682b4" stroke="#4682b4" d="M734.93898 1409.5427565492496 L734.93898 1544.5427565492496 L752.93898 1544.5427565492496 L752.93898 1409.5427565492496 z"/>
<path fill="#4682b4" stroke="#4682b4" d="M734.93898 1330.497671232391 L734.93898 1336.0878393696141 L752.93898 1336.0878393696141 L752.93898 1330.497671232391 z"/>
<path fill="#4682b4" stroke="#4682b4" d="M734.93898 1330.497671399732 L734.93898 1330.497671399732 L752.93898 1330.497671399732 L752.93898 1330.497671399732 z"/>
<path fill="#4682b4" stroke="#4682b4" d="M752.93898 1409.542757625186 L752.93898 1406.0878421068846 L770.93898 1406.0878421068846 L770.93898 1409.542757625186 z"/>
<path fill="#4682b4" stroke="#4682b4" d="M770.9389827867013 1336.08784 L770.9389827867013 1330.49767 L770.9389827867013 1265.49767 L770.9389827867013 1265.49767 L770.9389827867013 1271.08784 L770.9389827867013 1471.08784 L770.9389827867013 1474.54276 L770.9389827867013 1409.54276 L770.9389827867013 1406.08784 z"/>
<path fill="#4682b4" stroke="#4682b4" d="M752.93898 1336.08784 L770.93898 1336.08784 L770.93898 1406.08784 L752.93898 1406.08784 z"/>
<path fill="#4682b4" stroke="#4682b4" d="M770.93898 1474.5427574508008 L752.93898 1474.5427574508008 L752.93898 1409.5427574508008 L770.93898 1409.5427574508008 z"/>
<path fill="#4682b4" stroke="#4682b4" d="M752.9389827867013 1265.49767 L752.9389827867013 1330.49767 L752.9389827867013 1336.08784 L752.9389827867013 1406.08784 L752.9389827867013 1409.54276 L752.9389827867013 1474.54276 L752.9389827867013 1471.08784 L752.9389827867013 1271.08784 L752.9389827867013 1265.49767 z"/>
<path fill="#4682b4" stroke="#4682b4" d="M752.93898 1271.0878393696141 L770.93898 1271.0878393696141 L770.93898 1265.497671232391 L752.93898 1265.497671232391 z"/>
<path fill="#4682b4" stroke="#4682b4" d="M770.93898 1265.497671399732 L752.93898 1265.497671399732 L752.93898 1265.497671399732 L770.93898 1265.497671399732 z"/>
<path fill="#4682b4" stroke="#4682b4" d="M770.93898 1271.08784 L752.93898 1271.08784 L752.93898 1471.08784 L770.93898 1471.08784 z"/>
<path fill="#4682b4" stroke="#4682b4" d="M770.93898 1474.542757625186 L770.93898 1471.0878421068846 L752.93898 1471.0878421068846 L752.93898 1474.542757625186 z"/>
<path fill="#4682b4" stroke="#4682b4" d="M752.93898 1330.4976726923976 L752.93898 1265.4976726923976 L770.93898 1265.4976726923976 L770.93898 1330.4976726923976 z"/>
<path fill="#4682b4" stroke="#4682b4" d="M752.93898 1336.0878393696141 L752.93898 1330.497671232391 L770.93898 1330.497671232391 L770.93898 1336.0878393696141 z"/>
<path fill="#4682b4" stroke="#4682b4" d="M752.9389827867013 1330.49767 L752.9389827867013 1330.49767 L752.9389827867013 1515.49767 L752.9389827867013 1521.08784 L752.9389827867013 1541.08784 L752.9389827867013 1544.54276 L752.9389827867013 1409.54276 L752.9389827867013 1406.08784 L752.9389827867013 1336.08784 z"/>
<path fill="#4682b4" stroke="#4682b4" d="M770.93898 1336.08784 L752.93898 1336.08784 L752.93898 1406.08784 L770.93898 1406.08784 z"/>
<path fill="#4682b4" stroke="#4682b4" d="M752.93898 1541.0878421068846 L770.93898 1541.0878421068846 L770.93898 1544.5427576251857 L752.93898 1544.5427576251857 z"/>
<path fill="#4682b4" stroke="#4682b4" d="M752.93898 1409.542757625186 L770.93898 1409.542757625186 L770.93898 1406.0878421068846 L752.93898 1406.0878421068846 z"/>
<path fill="#4682b4" stroke="#4682b4" d="M770.93898 1521.08784 L770.93898 1541.08784 L752.93898 1541.08784 L752.93898 1521.08784 z"/>
<path fill="#4682b4" stroke="#4682b4" d="M770.93898 1330.4976723362774 L770.93898 1515.4976723362774 L752.93898 1515.4976723362774 L752.93898 1330.4976723362774 z"/>
<path fill="#4682b4" stroke="#4682b4" d="M770.93898 1521.0878393696141 L752.93898 1521.0878393696141 L752.93898 1515.497671232391 L770.93898 1515.497671232391 z"/>
<path fill="#4682b4" stroke="#4682b4" d="M770.9389827867013 1541.08784 L770.9389827867013 1521.08784 L770.9389827867013 1515.49767 L770.9389827867013 1330.49767 L770.9389827867013 1330.49767 L770.9389827867013 1336.08784 L770.9389827867013 1406.08784 L770.9389827867013 1409.54276 L770.9389827867013 1544.54276 z"/>
<path fill="#4682b4" stroke="#4682b4" d="M752.93898 1409.5427565492496 L752.93898 1544.5427565492496 L770.93898 1544.5427565492496 L770.93898 1409.5427565492496 z"/>
<path fill="#4682b4" stroke="#4682b4" d="M770.93898 1330.497671232391 L752.93898 1330.497671232391 L752.93898 1336.0878393696141 L770.93898 1336.0878393696141 z"/>
<path fill="#4682b4" stroke="#4682b4" d="M752.93898 1330.497671399732 L752.93898 1330.497671399732 L770.93898 1330.497671399732 L770.93898 1330.497671399732 z"/>
<path fill="#4682b4" stroke="#4682b4" d="M855.87791 1387.54276 L855.87791 1369.54276 L650.00006 1369.54276 L650.00006 1387.54276 z"/>
<path fill="#4682b4" stroke="#4682b4" d="M650.0000553958517 1369.54276 L648.1837016468255 1369.54276 L648.1837016468255 1387.54276 L650.0000553958517 1387.54276 z"/>
<path fill="#4682b4" stroke="#4682b4" d="M734.93898 1387.5427563716069 L770.93898 1387.5427563716069 L770.93898 1387.5427563716069 L770.93898 1387.5427563716069 L770.93898 1387.5427563716069 L770.93898 1387.5427563716069 L770.93898 1387.5427563716069 L787.93898 1387.5427563716069 L792.69427 1387.5427563716069 L857.69427 1387.5427563716069 L855.87791 1387.5427563716069 L650.00006 1387.5427563716069 L648.1837 1387.5427563716069 L713.1837 1387.5427563716069 L717.93898 1387.5427563716069 L734.93898 1387.5427563716069 L734.93898 1387.5427563716069 L734.93898 1387.5427563716069 L734.93898 1387.5427563716069 L734.93898 1387.5427563716069 z"/>
<path fill="#4682b4" stroke="#4682b4" d="M713.1836977066367 1387.54276 L713.1836977066367 1369.54276 L717.9389809627816 1369.54276 L717.9389809627816 1387.54276 z"/>
<path fill="#4682b4" stroke="#4682b4" d="M734.93898 1373.91418 L734.93898 1387.54276 L717.93898 1387.54276 L717.93898 1369.54276 L734.93898 1369.54276 L734.93898 1371.79276 z"/>
<path fill="#4682b4" stroke="#4682b4" d="M770.93898 1385.29276 L770.93898 1383.17133 L770.93898 1369.54276 L787.93898 1369.54276 L787.93898 1387.54276 L770.93898 1387.54276 z"/>
<path fill="#4682b4" stroke="#4682b4" d="M792.6942707640114 1387.54276 L787.9389809627816 1387.54276 L787.9389809627816 1369.54276 L792.6942707640114 1369.54276 z"/>
<path fill="#4682b4" stroke="#4682b4" d="M770.93898 1369.5427563716069 L734.93898 1369.5427563716069 L734.93898 1369.5427563716069 L734.93898 1369.5427563716069 L734.93898 1369.5427563716069 L734.93898 1369.5427563716069 L734.93898 1369.5427563716069 L717.93898 1369.5427563716069 L713.1837 1369.5427563716069 L648.1837 1369.5427563716069 L650.00006 1369.5427563716069 L855.87791 1369.5427563716069 L857.69427 1369.5427563716069 L792.69427 1369.5427563716069 L787.93898 1369.5427563716069 L770.93898 1369.5427563716069 L770.93898 1369.5427563716069 L770.93898 1369.5427563716069 L770.93898 1369.5427563716069 L770.93898 1369.5427563716069 z"/>
<path fill="#4682b4" stroke="#4682b4" d="M770.9389827867013 1387.54276 L770.9389827867013 1369.54276 L770.9389827867013 1369.54276 L770.9389827867013 1369.54276 L770.9389827867013 1369.54276 L770.9389827867013 1369.54276 L770.9389827867013 1369.54276 L770.9389827867013 1383.17133 L770.9389827867013 1385.29276 L770.9389827867013 1387.54276 L770.9389827867013 1387.54276 L770.9389827867013 1387.54276 L770.9389827867013 1387.54276 L770.9389827867013 1387.54276 z"/>
<path fill="#4682b4" stroke="#4682b4" d="M855.8779106002532 1387.54276 L857.6942643492795 1387.54276 L857.6942643492795 1369.54276 L855.8779106002532 1369.54276 z"/>
<path fill="#4682b4" stroke="#4682b4" d="M792.6942701700258 1369.54276 L857.6942701700258 1369.54276 L857.6942701700258 1387.54276 L792.6942701700258 1387.54276 z"/>
<path fill="#4682b4" stroke="#4682b4" d="M734.9389827867013 1369.54276 L734.9389827867013 1387.54276 L734.9389827867013 1387.54276 L734.9389827867013 1387.54276 L734.9389827867013 1387.54276 L734.9389827867013 1387.54276 L734.9389827867013 1387.54276 L734.9389827867013 1373.91418 L734.9389827867013 1371.79276 L734.9389827867013 1369.54276 L734.9389827867013 1369.54276 L734.9389827867013 1369.54276 L734.9389827867013 1369.54276 L734.9389827867013 1369.54276 z"/>
<path fill="#4682b4" stroke="#4682b4" d="M713.1836976166754 1369.54276 L713.1836976166754 1387.54276 L648.1836976166754 1387.54276 L648.1836976166754 1369.54276 z"/>
<path fill="#4682b4" stroke="#4682b4" d="M770.93898 1369.54276 L770.93898 1387.54276 L734.93898 1387.54276 L734.93898 1369.54276 z"/>
<path fill="#4682b4" stroke="#4682b4" d="M855.87791 1351.54276 L650.00006 1351.54276 L650.00006 1369.54276 L855.87791 1369.54276 z"/>
<path fill="#4682b4" stroke="#4682b4" d="M650.0000553958517 1351.54276 L648.1837016468255 1351.54276 L648.1837016468255 1369.54276 L650.0000553958517 1369.54276 z"/>
<path fill="#4682b4" stroke="#4682b4" d="M734.93898 1369.5427563716069 L770.93898 1369.5427563716069 L770.93898 1369.5427563716069 L770.93898 1369.5427563716069 L770.93898 1369.5427563716069 L770.93898 1369.5427563716069 L770.93898 1369.5427563716069 L787.93898 1369.5427563716069 L792.69427 1369.5427563716069 L857.69427 1369.5427563716069 L855.87791 1369.5427563716069 L650.00006 1369.5427563716069 L648.1837 1369.5427563716069 L713.1837 1369.5427563716069 L717.93898 1369.5427563716069 L734.93898 1369.5427563716069 L734.93898 1369.5427563716069 L734.93898 1369.5427563716069 L734.93898 1369.5427563716069 L734.93898 1369.5427563716069 z"/>
<path fill="#4682b4" stroke="#4682b4" d="M713.1836977066367 1369.54276 L713.1836977066367 1351.54276 L717.9389809627816 1351.54276 L717.9389809627816 1369.54276 z"/>
<path fill="#4682b4" stroke="#4682b4" d="M734.93898 1355.91418 L734.93898 1369.54276 L717.93898 1369.54276 L717.93898 1351.54276 L734.93898 1351.54276 L734.93898 1353.79276 z"/>
<path fill="#4682b4" stroke="#4682b4" d="M770.93898 1367.29276 L770.93898 1365.17133 L770.93898 1351.54276 L787.93898 1351.54276 L787.93898 1369.54276 L770.93898 1369.54276 z"/>
<path fill="#4682b4" stroke="#4682b4" d="M792.6942707640114 1369.54276 L787.9389809627816 1369.54276 L787.9389809627816 1351.54276 L792.6942707640114 1351.54276 z"/>
<path fill="#4682b4" stroke="#4682b4" d="M770.93898 1351.5427563716069 L734.93898 1351.5427563716069 L734.93898 1351.5427563716069 L734.93898 1351.5427563716069 L734.93898 1351.5427563716069 L734.93898 1351.5427563716069 L734.93898 1351.5427563716069 L717.93898 1351.5427563716069 L713.1837 1351.5427563716069 L648.1837 1351.5427563716069 L650.00006 1351.5427563716069 L855.87791 1351.5427563716069 L857.69427 1351.5427563716069 L792.69427 1351.5427563716069 L787.93898 1351.5427563716069 L770.93898 1351.5427563716069 L770.93898 1351.5427563716069 L770.93898 1351.5427563716069 L770.93898 1351.5427563716069 L770.93898 1351.5427563716069 z"/>
<path fill="#4682b4" stroke="#4682b4" d="M770.9389827867013 1369.54276 L770.9389827867013 1351.54276 L770.9389827867013 1351.54276 L770.9389827867013 1351.54276 L770.9389827867013 1351.54276 L770.9389827867013 1351.54276 L770.9389827867013 1351.54276 L770.9389827867013 1365.17133 L770.9389827867013 1367.29276 L770.9389827867013 1369.54276 L770.9389827867013 1369.54276 L770.9389827867013 1369.54276 L770.9389827867013 1369.54276 L770.9389827867013 1369.54276 z"/>
<path fill="#4682b4" stroke="#4682b4" d="M855.8779106002532 1369.54276 L857.6942643492795 1369.54276 L857.6942643492795 1351.54276 L855.8779106002532 1351.54276 z"/>
<path fill="#4682b4" stroke="#4682b4" d="M792.6942701700258 1351.54276 L857.6942701700258 1351.54276 L857.6942701700258 1369.54276 L792.6942701700258 1369.54276 z"/>
<path fill="#4682b4" stroke="#4682b4" d="M734.9389827867013 1351.54276 L734.9389827867013 1369.54276 L734.9389827867013 1369.54276 L734.9389827867013 1369.54276 L734.9389827867013 1369.54276 L734.9389827867013 1369.54276 L734.9389827867013 1369.54276 L734.9389827867013 1355.91418 L734.9389827867013 1353.79276 L734.9389827867013 1351.54276 L734.9389827867013 1351.54276 L734.9389827867013 1351.54276 L734.9389827867013 1351.54276 L734.9389827867013 1351.54276 z"/>
<path fill="#4682b4" stroke="#4682b4" d="M648.1836976166754 1351.54276 L713.1836976166754 1351.54276 L713.1836976166754 1369.54276 L648.1836976166754 1369.54276 z"/>
<path fill="#4682b4" stroke="#4682b4" d="M770.93898 1351.54276 L770.93898 1369.54276 L734.93898 1369.54276 L734.93898 1351.54276 z"/>
<path fill="#4682b4" stroke="#4682b4" d="M294.46839320548565 583.6604018534282 L297.45932891060386 585.3897793701054 L288.44934112422334 600.9724606500316 L285.4584076777256 599.243088657249 z"/>
<path fill="#4682b4" stroke="#4682b4" d="M349.04867910386156 636.0113115498624 L353.88811203163567 638.8094964863061 L410.1589216371918 671.3455671684931 L410.1589216371918 671.3455671684931 L405.31948870941756 668.5473822320492 L232.1785291316393 568.436391501821 L229.18759959274988 566.707020704335 L285.4584091983059 599.2430913865219 L288.4493387371953 600.9724621840079 z"/>
<path fill="#4682b4" stroke="#4682b4" d="M358.05867 620.42862 L349.04868 636.01131 L288.44934 600.97246 L297.45933 585.38978 z"/>
<path fill="#4682b4" stroke="#4682b4" d="M229.18759708191854 566.7070183127504 L238.19758301558772 551.1243317436282 L294.46839344086777 583.6604019895274 L285.45840750719856 599.2430885586494 z"/>
<path fill="#4682b4" stroke="#4682b4" d="M419.16890958719426 655.7628807139432 L362.89809998163827 623.2268100317564 L358.0586670538641 620.4286250953126 L297.4593310205259 585.3897782350106 L294.46838965386087 583.6604005986441 L238.19758004830484 551.1243299164571 L241.18852141496984 552.8537075528237 L414.3294766594201 652.9646957774995 L419.16890958719426 655.7628807139432 z"/>
<path fill="#4682b4" stroke="#4682b4" d="M414.32948052352776 652.9646903027065 L405.31949043269447 668.5473802501862 L410.15891919442294 671.3455695342111 L419.1689092852562 655.7628795867314 z"/>
<path fill="#4682b4" stroke="#4682b4" d="M410.1589215247174 671.3455708815993 L419.1689124759357 655.7628814315987 L419.1689124759357 655.7628814315987 L410.1589215247174 671.3455708815993 z"/>
<path fill="#4682b4" stroke="#4682b4" d="M405.31949 668.54738 L414.32948 652.96469 L241.18852 552.85371 L232.17853 568.43639 z"/>
<path fill="#4682b4" stroke="#4682b4" d="M229.18759728153796 566.7070184281713 L232.17853072803575 568.4363904209539 L241.18851851441624 552.8537091410278 L238.19758280929807 551.1243316243505 z"/>
<path fill="#4682b4" stroke="#4682b4" d="M362.89809983475817 623.2268099044563 L419.1689102600382 655.7628801503554 L410.15891959174104 671.3455697639424 L353.888109166461 638.8094995180434 z"/>
<path fill="#4682b4" stroke="#4682b4" d="M358.0586704657248 620.4286202692845 L362.89809922745314 623.2268095533094 L353.8881091366199 638.8094995007891 L349.0486803748915 636.0113102167642 z"/>
<path fill="#4682b4" stroke="#4682b4" d="M362.89809998163827 623.2268100317564 L362.89809998163827 623.2268100317564 L202.74272085941496 530.6241485136503 L197.90328043719327 527.8259592438785 L180.58918854275112 517.8148625202973 L177.59825150941418 516.0854873894832 L294.46838965386087 583.6604005986441 L297.4593310205259 585.3897782350106 L358.0586670538641 620.4286250953126 z"/>
<path fill="#4682b4" stroke="#4682b4" d="M349.04868 636.01131 L358.05867 620.42862 L297.45933 585.38978 L288.44934 600.97246 z"/>
<path fill="#4682b4" stroke="#4682b4" d="M180.58918772832982 517.8148586865085 L171.5791971057493 533.3975483265294 L168.58826140063115 531.6681708098521 L177.59824918701165 516.085489529926 z"/>
<path fill="#4682b4" stroke="#4682b4" d="M294.46839320548565 583.6604018534282 L285.4584076777256 599.243088657249 L288.44934112422334 600.9724606500316 L297.45932891060386 585.3897793701054 z"/>
<path fill="#4682b4" stroke="#4682b4" d="M188.89329 543.40865 L171.5792 533.39755 L180.58919 517.81486 L197.90328 527.82596 z"/>
<path fill="#4682b4" stroke="#4682b4" d="M353.88810992075975 638.8094999541828 L193.73273042015262 546.2068302429343 L202.74271733618258 530.6241484597671 L362.89810078812627 623.2268104556987 z"/>
<path fill="#4682b4" stroke="#4682b4" d="M188.8932907290495 543.4086504215401 L197.90328081988275 527.8259604740604 L202.7427188659551 530.6241493442893 L193.73272918891786 546.206829531028 z"/>
<path fill="#4682b4" stroke="#4682b4" d="M171.57920059274863 533.397548974847 L188.89329248719073 543.4086456984284 L193.73272857608444 546.2068324626476 L353.88811203163567 638.8094964863061 L353.88811203163567 638.8094964863061 L349.04867910386156 636.0113115498624 L288.4493387371953 600.9724621840079 L285.4584091983059 599.2430913865219 L168.58825922608364 531.6681713384805 z"/>
<path fill="#4682b4" stroke="#4682b4" d="M294.46839465776713 583.6604026931448 L177.598248818678 516.0854893169536 L168.58826203520283 531.6681711767648 L285.4584066255929 599.2430880489005 z"/>
<path fill="#4682b4" stroke="#4682b4" d="M353.8881091366199 638.8094995007891 L362.89809922745314 623.2268095533094 L358.0586704657248 620.4286202692845 L349.0486803748915 636.0113102167642 z"/>
<path fill="#4682b4" stroke="#4682b4" d="M362.89810187061494 623.2268110815991 L362.89810187061494 623.2268110815991 L353.88811091939664 638.8095005315997 L353.88811091939664 638.8095005315997 z"/>
<path fill="#4682b4" stroke="#4682b4" d="M285.4584076777256 599.243088657249 L288.44934112422334 600.9724606500316 L279.4393505016428 616.5551502900524 L276.44841705514506 614.8257782972697 z"/>
<path fill="#4682b4" stroke="#4682b4" d="M349.04868 636.01131 L340.03869 651.594 L279.43935 616.55515 L288.44934 600.97246 z"/>
<path fill="#4682b4" stroke="#4682b4" d="M340.038691153859 651.5939980044122 L344.87811974830527 654.3921804353035 L401.14892935386126 686.9282511174904 L401.14892935386126 686.9282511174904 L396.30950075941513 684.1300686865991 L223.1685411816368 584.0190779563709 L220.17760730941933 582.2897046533324 L276.44842124830336 614.8257778410717 L279.43935078719284 616.5551486385577 z"/>
<path fill="#4682b4" stroke="#4682b4" d="M276.4484168389014 614.8257781722365 L220.1776094580864 582.2896996866627 L229.18759708191854 566.7070183127504 L285.45840750719856 599.2430885586494 z"/>
<path fill="#4682b4" stroke="#4682b4" d="M410.1589216371918 671.3455671684931 L353.88811203163567 638.8094964863061 L349.04867910386156 636.0113115498624 L288.4493387371953 600.9724621840079 L285.4584091983059 599.2430913865219 L229.18759959274988 566.707020704335 L232.1785291316393 568.436391501821 L405.31948870941756 668.5473822320492 L410.1589216371918 671.3455671684931 z"/>
<path fill="#4682b4" stroke="#4682b4" d="M410.15891919442294 671.3455695342111 L405.31949043269447 668.5473802501862 L396.3095003418612 684.1300701976659 L401.1489295173856 686.9282497209499 z"/>
<path fill="#4682b4" stroke="#4682b4" d="M410.1589215247174 671.3455708815993 L410.1589215247174 671.3455708815993 L401.14893490682704 686.9282528371525 L401.14893490682704 686.9282528371525 z"/>
<path fill="#4682b4" stroke="#4682b4" d="M396.3095 684.13007 L405.31949 668.54738 L232.17853 568.43639 L223.16854 584.01908 z"/>
<path fill="#4682b4" stroke="#4682b4" d="M220.17760949515747 582.2896997080975 L223.16854010545526 584.0190800609747 L232.17853072803575 568.4363904209539 L229.18759728153796 566.7070184281713 z"/>
<path fill="#4682b4" stroke="#4682b4" d="M353.888109166461 638.8094995180434 L410.15891959174104 671.3455697639424 L401.1489319679089 686.928251137855 L344.87812154262883 654.392180891956 z"/>
<path fill="#4682b4" stroke="#4682b4" d="M340.0386902840582 651.5940001642439 L349.0486803748915 636.0113102167642 L353.8881091366199 638.8094995007891 L344.87811945958265 654.3921796875279 z"/>
<path fill="#4682b4" stroke="#4682b4" d="M353.88811203163567 638.8094964863061 L353.88811203163567 638.8094964863061 L193.73272857608444 546.2068324626476 L188.89329248719073 543.4086456984284 L171.57920059274863 533.397548974847 L168.58825922608364 531.6681713384805 L285.4584091983059 599.2430913865219 L288.4493387371953 600.9724621840079 L349.04867910386156 636.0113115498624 z"/>
<path fill="#4682b4" stroke="#4682b4" d="M340.03869 651.594 L349.04868 636.01131 L288.44934 600.97246 L279.43935 616.55515 z"/>
<path fill="#4682b4" stroke="#4682b4" d="M162.5692093193688 548.9802296064555 L159.5782707780507 547.2508604498728 L168.58826140063115 531.6681708098521 L171.5791971057493 533.3975483265294 z"/>
<path fill="#4682b4" stroke="#4682b4" d="M285.4584076777256 599.243088657249 L276.44841705514506 614.8257782972697 L279.4393505016428 616.5551502900524 L288.44934112422334 600.9724606500316 z"/>
<path fill="#4682b4" stroke="#4682b4" d="M179.8833 558.99133 L162.56921 548.98023 L171.5792 533.39755 L188.89329 543.40865 z"/>
<path fill="#4682b4" stroke="#4682b4" d="M179.88330105201223 558.9913306082788 L188.8932907290495 543.4086504215401 L193.73272918891786 546.206829531028 L184.72273909808456 561.7895194785078 z"/>
<path fill="#4682b4" stroke="#4682b4" d="M353.88810992075975 638.8094999541828 L344.87812300472973 654.3921817373501 L184.722739552786 561.7895197414185 L193.73273042015262 546.2068302429343 z"/>
<path fill="#4682b4" stroke="#4682b4" d="M162.56920830941812 548.9802329238445 L179.8833002038602 558.9913296474257 L184.72274062608193 561.7895189171975 L344.87811974830527 654.3921804353035 L344.87811974830527 654.3921804353035 L340.038691153859 651.5939980044122 L279.43935078719284 616.5551486385577 L276.44842124830336 614.8257778410717 L159.57827127608113 547.2508577930304 z"/>
<path fill="#4682b4" stroke="#4682b4" d="M285.4584066255929 599.2430880489005 L168.58826203520283 531.6681711767648 L159.57827113055527 547.2508606536928 L276.4484157209453 614.8257775258286 z"/>
<path fill="#4682b4" stroke="#4682b4" d="M353.8881091366199 638.8094995007891 L349.0486803748915 636.0113102167642 L340.0386902840582 651.5940001642439 L344.87811945958265 654.3921796875279 z"/>
<path fill="#4682b4" stroke="#4682b4" d="M353.88811091939664 638.8095005315997 L353.88811091939664 638.8095005315997 L344.87812430150626 654.3921824871529 L344.87812430150626 654.3921824871529 z"/>
<path fill="#4682b4" stroke="#4682b4" d="M268.56001 708.38001 L371.61318 530.15057 L356.0305 521.14058 L252.97732 699.37002 z"/>
<path fill="#4682b4" stroke="#4682b4" d="M371.6131828663115 530.1505650427428 L372.5223698730318 528.5781402195902 L356.9396803705108 519.5681493592051 L356.03050109749705 521.1405781018897 z"/>
<path fill="#4682b4" stroke="#4682b4" d="M313.5139005642183 594.6726103262339 L295.4939229951096 625.8379817317877 L295.4939229951096 625.8379817317877 L295.4939229951096 625.8379817317877 L295.4939229951096 625.8379817317877 L295.4939229951096 625.8379817317877 L295.4939229951096 625.8379817317877 L286.98448618284897 640.5549677929037 L284.6042064038391 644.6716379206813 L252.0681357216522 700.9424475262373 L252.97732103502335 699.3700205984558 L356.0304981909766 521.1405789540133 L356.9396835043477 519.5681520262317 L324.40361282216077 575.8389616317878 L322.0233330431509 579.9556317595654 L313.5139005642183 594.6726103262339 L313.5139005642183 594.6726103262339 L313.5139005642183 594.6726103262339 L313.5139005642183 594.6726103262339 L313.5139005642183 594.6726103262339 z"/>
<path fill="#4682b4" stroke="#4682b4" d="M324.40361148341975 575.8389574344403 L339.98630129339966 584.8489477630781 L337.6060199706234 588.9656200508064 L322.0233301606435 579.9556297221686 z"/>
<path fill="#4682b4" stroke="#4682b4" d="M325.31222 601.49446 L313.5139 594.67261 L322.02333 579.95563 L337.60602 588.96562 L329.09659 603.6826 L327.14875 602.55635 z"/>
<path fill="#4682b4" stroke="#4682b4" d="M297.44176 626.96423 L299.27829 628.02612 L311.07661 634.84797 L302.56717 649.56495 L286.98449 640.55497 L295.49392 625.83798 z"/>
<path fill="#4682b4" stroke="#4682b4" d="M284.6042092294239 644.6716413327036 L286.98449055220004 640.5549690449755 L302.56716973069905 649.5649504657531 L300.1868884079228 653.6816227534814 z"/>
<path fill="#4682b4" stroke="#4682b4" d="M311.07660944965943 634.8479696817902 L329.0965870187681 603.6825982762364 L329.0965870187681 603.6825982762364 L329.0965870187681 603.6825982762364 L329.0965870187681 603.6825982762364 L329.0965870187681 603.6825982762364 L329.0965870187681 603.6825982762364 L337.6060194977008 588.9656197095679 L339.98629927671067 584.8489495817903 L372.52236995889757 528.5781399762343 L371.6131821399739 530.1505712373439 L268.56000748957314 708.3800085484582 L267.6508240039775 709.9524323151203 L300.18689468616446 653.6816227095642 L302.56717446517433 649.5649525817867 L311.07660944965943 634.8479696817902 L311.07660944965943 634.8479696817902 L311.07660944965943 634.8479696817902 L311.07660944965943 634.8479696817902 L311.07660944965943 634.8479696817902 z"/>
<path fill="#4682b4" stroke="#4682b4" d="M295.49391874830644 625.8379821647915 L311.07660819830716 634.8479731160098 L311.07660819830716 634.8479731160098 L311.07660819830716 634.8479731160098 L311.07660819830716 634.8479731160098 L311.07660819830716 634.8479731160098 L311.07660819830716 634.8479731160098 L299.27828782052984 628.0261237693719 L297.4417582816404 626.9642329718857 L295.49391874830644 625.8379821647915 L295.49391874830644 625.8379821647915 L295.49391874830644 625.8379821647915 L295.49391874830644 625.8379821647915 L295.49391874830644 625.8379821647915 z"/>
<path fill="#4682b4" stroke="#4682b4" d="M252.97732076875172 699.3700186704514 L252.06814149573796 700.942447413136 L267.6508193450204 709.9524311327806 L268.56001027127263 708.3800095308364 z"/>
<path fill="#4682b4" stroke="#4682b4" d="M300.1868881642745 653.6816231748688 L267.6508179892747 709.9524334775293 L252.0681391781621 700.9424514213604 L284.60420935316193 644.6716411187 z"/>
<path fill="#4682b4" stroke="#4682b4" d="M329.09658843164016 603.6826027124625 L313.51389898163944 594.6726117612442 L313.51389898163944 594.6726117612442 L313.51389898163944 594.6726117612442 L313.51389898163944 594.6726117612442 L313.51389898163944 594.6726117612442 L313.51389898163944 594.6726117612442 L325.3122193594168 601.4944611078822 L327.1487488983062 602.5563519053683 L329.09658843164016 603.6826027124625 L329.09658843164016 603.6826027124625 L329.09658843164016 603.6826027124625 L329.09658843164016 603.6826027124625 L329.09658843164016 603.6826027124625 z"/>
<path fill="#4682b4" stroke="#4682b4" d="M372.52237157847514 528.5781372700428 L339.9863014034754 584.8489475727032 L324.40361167847504 575.8389570970941 L356.93968185347484 519.5681467944337 z"/>
<path fill="#4682b4" stroke="#4682b4" d="M311.07661 634.84797 L295.49392 625.83798 L313.5139 594.67261 L329.09659 603.6826 z"/>
<path fill="#4682b4" stroke="#4682b4" d="M268.56001 708.38001 L284.14269 717.39 L387.19587 539.16056 L371.61318 530.15057 z"/>
<path fill="#4682b4" stroke="#4682b4" d="M329.0965870187681 603.6825982762364 L311.07660944965943 634.8479696817902 L311.07660944965943 634.8479696817902 L311.07660944965943 634.8479696817902 L311.07660944965943 634.8479696817902 L311.07660944965943 634.8479696817902 L311.07660944965943 634.8479696817902 L302.56717446517433 649.5649525817867 L300.18689468616446 653.6816227095642 L267.6508240039775 709.9524323151203 L268.56000748957314 708.3800085484582 L371.6131821399739 530.1505712373439 L372.52236995889757 528.5781399762343 L339.98629927671067 584.8489495817903 L337.6060194977008 588.9656197095679 L329.0965870187681 603.6825982762364 L329.0965870187681 603.6825982762364 L329.0965870187681 603.6825982762364 L329.0965870187681 603.6825982762364 L329.0965870187681 603.6825982762364 z"/>
<path fill="#4682b4" stroke="#4682b4" d="M387.19587236883245 539.1605559031278 L388.1050593755527 537.5881310799753 L372.5223698730318 528.5781402195902 L371.6131828663115 530.1505650427428 z"/>
<path fill="#4682b4" stroke="#4682b4" d="M339.98630129339966 584.8489477630781 L355.5689911033795 593.8589380917159 L353.18870978060335 597.9756103794442 L337.6060199706234 588.9656200508064 z"/>
<path fill="#4682b4" stroke="#4682b4" d="M340.8949 610.50445 L329.09659 603.6826 L337.60602 588.96562 L353.18871 597.97561 L344.67927 612.69259 L342.73144 611.56634 z"/>
<path fill="#4682b4" stroke="#4682b4" d="M313.02444 635.97422 L314.86097 637.03611 L326.65929 643.85796 L318.14986 658.57494 L302.56717 649.56495 L311.07661 634.84797 z"/>
<path fill="#4682b4" stroke="#4682b4" d="M300.1868884079228 653.6816227534814 L302.56716973069905 649.5649504657531 L318.14985954067896 658.5749407943911 L315.76957821790273 662.6916130821193 z"/>
<path fill="#4682b4" stroke="#4682b4" d="M326.65929339865676 643.8579619651208 L344.67927096776543 612.692590559567 L344.67927096776543 612.692590559567 L344.67927096776543 612.692590559567 L344.67927096776543 612.692590559567 L344.67927096776543 612.692590559567 L344.67927096776543 612.692590559567 L353.1887059522506 597.9756076595704 L355.56898573126045 593.8589375317929 L388.10505641344736 537.5881279262368 L387.19586859452374 539.1605591873464 L284.1426914385705 717.3900008317888 L283.2335104585274 718.9624202651228 L315.76958114071425 662.6916106595668 L318.1498609197241 658.5749405317891 L326.65929339865676 643.8579619651208 L326.65929339865676 643.8579619651208 L326.65929339865676 643.8579619651208 L326.65929339865676 643.8579619651208 L326.65929339865676 643.8579619651208 z"/>
<path fill="#4682b4" stroke="#4682b4" d="M311.07660819830716 634.8479731160098 L326.6592901538603 643.8579597339001 L326.6592901538603 643.8579597339001 L326.6592901538603 643.8579597339001 L326.6592901538603 643.8579597339001 L326.6592901538603 643.8579597339001 L326.6592901538603 643.8579597339001 L314.860969776083 637.0361103872622 L313.0244402371935 635.9742195897761 L311.07660819830716 634.8479731160098 L311.07660819830716 634.8479731160098 L311.07660819830716 634.8479731160098 L311.07660819830716 634.8479731160098 L311.07660819830716 634.8479731160098 z"/>
<path fill="#4682b4" stroke="#4682b4" d="M268.56001027127263 708.3800095308364 L267.6508193450204 709.9524311327806 L283.2335088475413 718.9624219931657 L284.1426920400871 717.3899964716895 z"/>
<path fill="#4682b4" stroke="#4682b4" d="M315.76957788927484 662.6916136504781 L283.23350771427505 718.9624239531385 L267.6508179892747 709.9524334775293 L300.1868881642745 653.6816231748688 z"/>
<path fill="#4682b4" stroke="#4682b4" d="M344.6792703871933 612.6925893303529 L329.09658843164016 603.6826027124625 L329.09658843164016 603.6826027124625 L329.09658843164016 603.6826027124625 L329.09658843164016 603.6826027124625 L329.09658843164016 603.6826027124625 L329.09658843164016 603.6826027124625 L340.89490131496996 610.5044477257725 L342.73143834830694 611.5663428565866 L344.6792703871933 612.6925893303529 L344.6792703871933 612.6925893303529 L344.6792703871933 612.6925893303529 L344.6792703871933 612.6925893303529 L344.6792703871933 612.6925893303529 z"/>
<path fill="#4682b4" stroke="#4682b4" d="M355.5689911284757 593.8589380483124 L339.9863014034754 584.8489475727032 L372.52237157847514 528.5781372700428 L388.10506130347545 537.5881277456521 z"/>
<path fill="#4682b4" stroke="#4682b4" d="M326.65929 643.85796 L311.07661 634.84797 L329.09659 603.6826 L344.67927 612.69259 z"/>
<path fill="#4682b4" stroke="#4682b4" d="M737.2828604546231 1738.5308939072586 L737.2828604546231 1738.5308939072586 L749.7629699648879 1737.07878969823 L749.7629699648879 1737.07878969823 z"/>
<path fill="#4682b4" stroke="#4682b4" d="M762.1272698023395 1734.8459189054747 L762.1272698023395 1734.8459189054747 L749.7629699007397 1737.0787894503558 L749.7629699007397 1737.0787894503558 z"/>
<path fill="#4682b4" stroke="#4682b4" d="M1481.3942 477.55758 L1483.62707 489.92188 L1485.07917 502.40199 L1485.74478 514.94865 L1485.62126 527.51235 L1484.70911 540.0435 L1483.01191 552.49264 L1480.53638 564.81066 L1477.29228 576.94892 L1258.20238 1396.70475 L1254.20251 1408.61537 L1249.46266 1420.25133 L1244.00153 1431.56671 L1237.84069 1442.51685 L1231.00443 1453.05855 L1223.51975 1463.15019 L1215.41617 1472.75195 L1206.72569 1481.82594 L1197.4826 1490.33634 L1187.72337 1498.24957 L1177.48652 1505.53439 L1166.81246 1512.16207 L820.53055 1712.38404 L809.46139 1718.32841 L798.04083 1723.56601 L786.31393 1728.07617 L774.32697 1731.84109 L762.12727 1734.84592 L749.76297 1737.07879 L737.28286 1738.53089 L724.7362 1739.1965 L712.1725 1739.07298 L699.64135 1738.16083 L687.1922 1736.46363 L674.87419 1733.9881 L662.73592 1730.744 L650.82531 1726.74413 L639.18935 1722.00428 L627.87397 1716.54315 L616.92382 1710.38231 L606.38213 1703.54605 L596.29048 1696.06137 L586.68872 1687.95779 L577.61474 1679.26731 L569.10434 1670.02422 L561.19111 1660.26499 L553.90628 1650.02814 L547.27861 1639.35408 L6.67927 704.39292 L0.7349 693.32377 L-4.50269 681.9032 L-9.01285 670.1763 L-12.77778 658.18935 L-15.7826 645.98964 L-18.01547 633.62534 L-19.46758 621.14523 L-20.13319 608.59857 L-20.00967 596.03487 L-19.09751 583.50373 L-17.40032 571.05458 L-14.92479 558.73657 L-11.68068 546.5983 L-7.68081 534.68768 L-2.94096 523.05172 L2.52016 511.73634 L8.68101 500.7862 L15.51726 490.2445 L23.00195 480.15286 L31.10552 470.5511 L39.796 461.47711 L49.0391 452.96671 L508.39537 48.74918 L518.1546 40.83595 L528.39144 33.55112 L539.06551 26.92344 L550.13467 20.97908 L561.55523 15.74148 L573.28213 11.23132 L585.26908 7.4664 L597.46879 4.46157 L609.83309 2.2287 L622.3132 0.77659 L634.85986 0.11099 L647.42356 0.23451 L659.95471 1.14666 L672.40385 2.84386 L684.72187 5.31939 L696.86013 8.56349 L708.77075 12.56336 L720.40671 17.30321 L731.72209 22.76433 L1378.33696 341.96522 L1389.28711 348.12607 L1399.8288 354.96232 L1409.92044 362.44701 L1419.52221 370.55058 L1428.59619 379.24107 L1437.10659 388.48416 L1445.01982 398.24339 L1452.30465 408.48023 L1458.93232 419.1543 L1464.87669 430.22346 L1470.11429 441.64402 L1474.62445 453.37092 L1478.38937 465.35787 z"/>
<path fill="#4682b4" stroke="#4682b4" d="M561.1911095102848 1660.2649903970832 L569.104339707173 1670.0242202374372 L569.104339707173 1670.0242202374372 L561.1911095102848 1660.2649903970832 z"/>
<path fill="#4682b4" stroke="#4682b4" d="M-11.68068 546.5983 L-14.92479 558.73657 L-17.40032 571.05458 L-19.09751 583.50373 L-20.00967 596.03487 L-20.13319 608.59857 L-19.46758 621.14523 L-18.01547 633.62534 L-15.7826 645.98964 L-12.77778 658.18935 L-9.01285 670.1763 L-4.50269 681.9032 L0.7349 693.32377 L6.67927 704.39292 L547.27861 1639.35408 L553.90628 1650.02814 L561.19111 1660.26499 L569.10434 1670.02422 L577.61474 1679.26731 L586.68872 1687.95779 L596.29048 1696.06137 L606.38213 1703.54605 L616.92382 1710.38231 L627.87397 1716.54315 L639.18935 1722.00428 L650.82531 1726.74413 L662.73592 1730.744 L674.87419 1733.9881 L687.1922 1736.46363 L699.64135 1738.16083 L712.1725 1739.07298 L724.7362 1739.1965 L737.28286 1738.53089 L749.76297 1737.07879 L762.12727 1734.84592 L774.32697 1731.84109 L786.31393 1728.07617 L798.04083 1723.56601 L809.46139 1718.32841 L820.53055 1712.38404 L1166.81246 1512.16207 L1177.48652 1505.53439 L1187.72337 1498.24957 L1197.4826 1490.33634 L1206.72569 1481.82594 L1215.41617 1472.75195 L1223.51975 1463.15019 L1231.00443 1453.05855 L1237.84069 1442.51685 L1244.00153 1431.56671 L1249.46266 1420.25133 L1254.20251 1408.61537 L1258.20238 1396.70475 L1477.29228 576.94892 L1480.53638 564.81066 L1483.01191 552.49264 L1484.70911 540.0435 L1485.62126 527.51235 L1485.74478 514.94865 L1485.07917 502.40199 L1483.62707 489.92188 L1481.3942 477.55758 L1478.38937 465.35787 L1474.62445 453.37092 L1470.11429 441.64402 L1464.87669 430.22346 L1458.93232 419.1543 L1452.30465 408.48023 L1445.01982 398.24339 L1437.10659 388.48416 L1428.59619 379.24107 L1419.52221 370.55058 L1409.92044 362.44701 L1399.8288 354.96232 L1389.28711 348.12607 L1378.33696 341.96522 L731.72209 22.76433 L720.40671 17.30321 L708.77075 12.56336 L696.86013 8.56349 L684.72187 5.31939 L672.40385 2.84386 L659.95471 1.14666 L647.42356 0.23451 L634.85986 0.11099 L622.3132 0.77659 L609.83309 2.2287 L597.46879 4.46157 L585.26908 7.4664 L573.28213 11.23132 L561.55523 15.74148 L550.13467 20.97908 L539.06551 26.92344 L528.39144 33.55112 L518.1546 40.83595 L508.39537 48.74918 L49.0391 452.96671 L39.796 461.47711 L31.10552 470.5511 L23.00195 480.15286 L15.51726 490.2445 L8.68101 500.7862 L2.52016 511.73634 L-2.94096 523.05172 L-7.68081 534.68768 z"/>
<path fill="#4682b4" stroke="#4682b4" d="M577.6147380665457 1679.2673117801905 L577.6147380665457 1679.2673117801905 L569.1043399774558 1670.024220020757 L569.1043399774558 1670.024220020757 z"/>
<path fill="#4682b4" stroke="#4682b4" d="M547.2786078189546 1639.3540812610916 L547.2786078189546 1639.3540812610916 L6.6792697790409115 704.3929201277597 L6.6792697790409115 704.3929201277597 z"/>
<path fill="#4682b4" stroke="#4682b4" d="M0.734905109998427 693.3237672558247 L0.734905109998427 693.3237672558247 L6.679269862371566 704.3929200739093 L6.679269862371566 704.3929200739093 z"/>
<path fill="#4682b4" stroke="#4682b4" d="M731.7220885551707 22.764332993667843 L720.4067102422193 17.303209498124385 L720.4067102422193 17.303209498124385 L731.7220885551707 22.764332993667843 z"/>
<path fill="#4682b4" stroke="#4682b4" d="M1474.6244498764825 453.37092004750474 L1470.1142893538715 441.6440202485007 L1470.1142893538715 441.6440202485007 L1474.6244498764825 453.37092004750474 z"/>
<path fill="#4682b4" stroke="#4682b4" d="M1464.8766918818887 430.22345913694465 L1470.1142893974843 441.64402027632036 L1470.1142893974843 441.64402027632036 L1464.8766918818887 430.22345913694465 z"/>
<path fill="#4682b4" stroke="#4682b4" d="M508.3953677178704 48.74917718549486 L518.1545975582245 40.83594698860682 L518.1545975582245 40.83594698860682 L508.3953677178704 48.74917718549486 z"/>
<path fill="#4682b4" stroke="#4682b4" d="M508.39536768759115 48.7491773721588 L49.03910034487373 452.96671039191745 L49.03910034487373 452.96671039191745 L508.39536768759115 48.7491773721588 z"/>
<path fill="#4682b4" stroke="#4682b4" d="M1258.202377934976 1396.704749448097 L1258.202377934976 1396.704749448097 L1477.2922788220567 576.94891968518 L1480.5363791556606 564.8106597743398 L1480.5363791556606 564.8106597743398 L1477.2922788220567 576.94891968518 z"/>
<path fill="#4682b4" stroke="#4682b4" d="M547.2786079881521 1639.3540812491842 L553.9062797030975 1650.0281401843506 L553.9062797030975 1650.0281401843506 L547.2786079881521 1639.3540812491842 z"/>
<path fill="#4682b4" stroke="#4682b4" d="M731.7220885343418 22.76433296902796 L1378.3369598301672 341.9652203440355 L1378.3369598301672 341.9652203440355 L731.7220885343418 22.76433296902796 z"/>
<path fill="#4682b4" stroke="#4682b4" d="M1389.2871100899206 348.1260698401771 L1378.3369598826478 341.96522020857884 L1378.3369598826478 341.96522020857884 L1389.2871100899206 348.1260698401771 z"/>
<path fill="#4682b4" stroke="#4682b4" d="M586.688719665317 1687.957790349452 L586.688719665317 1687.957790349452 L577.6147382441487 1679.2673118333353 L577.6147382441487 1679.2673118333353 z"/>
<path fill="#4682b4" stroke="#4682b4" d="M1458.932322942446 419.1542981729942 L1458.932322942446 419.1542981729942 L1452.3046467460956 408.4802320203944 L1452.3046467460956 408.4802320203944 z"/>
<path fill="#4682b4" stroke="#4682b4" d="M1452.3046467191402 408.48023233475175 L1445.0198217684115 398.24338874154864 L1445.0198217684115 398.24338874154864 L1452.3046467191402 408.48023233475175 z"/>
<path fill="#4682b4" stroke="#4682b4" d="M-20.133185335866767 608.5985700458548 L-20.133185335866767 608.5985700458548 L-20.009666760040457 596.0348700318532 L-20.009666760040457 596.0348700318532 z"/>
<path fill="#4682b4" stroke="#4682b4" d="M1485.0791739981921 502.401989787894 L1485.7447801961112 514.9486499895962 L1485.7447801961112 514.9486499895962 L1485.0791739981921 502.401989787894 z"/>
<path fill="#4682b4" stroke="#4682b4" d="M1483.6270697570826 489.92188002826424 L1485.0791739661115 502.40198953852905 L1485.0791739661115 502.40198953852905 L1483.6270697570826 489.92188002826424 z"/>
<path fill="#4682b4" stroke="#4682b4" d="M528.3914410660411 33.55112171689041 L528.3914410660411 33.55112171689041 L539.0655117000458 26.923442737973428 L539.0655117000458 26.923442737973428 z"/>
<path fill="#4682b4" stroke="#4682b4" d="M639.1893498575506 1722.0042803497017 L639.1893498575506 1722.0042803497017 L650.8253098420145 1726.7441303878418 L650.8253098420145 1726.7441303878418 z"/>
<path fill="#4682b4" stroke="#4682b4" d="M650.825309931013 1726.744130205426 L662.7359208976976 1730.7439973268788 L662.7359208976976 1730.7439973268788 L650.825309931013 1726.744130205426 z"/>
<path fill="#4682b4" stroke="#4682b4" d="M674.8741899359039 1733.9881002398242 L674.8741899359039 1733.9881002398242 L662.7359206917356 1730.7439974117729 L662.7359206917356 1730.7439974117729 z"/>
<path fill="#4682b4" stroke="#4682b4" d="M596.2904826776315 1696.0613668273284 L586.6887194755022 1687.9577906214665 L586.6887194755022 1687.9577906214665 L596.2904826776315 1696.0613668273284 z"/>
<path fill="#4682b4" stroke="#4682b4" d="M-14.924786613161912 558.7365709051744 L-11.680683118438443 546.5982991665586 L-11.680683118438443 546.5982991665586 L-14.924786613161912 558.7365709051744 z"/>
<path fill="#4682b4" stroke="#4682b4" d="M-17.400318012372036 571.0545803994505 L-14.924786200183943 558.7365707636433 L-14.924786200183943 558.7365707636433 L-17.400318012372036 571.0545803994505 z"/>
<path fill="#4682b4" stroke="#4682b4" d="M1485.6212614551603 527.5123501059226 L1485.6212614551603 527.5123501059226 L1484.7091055862127 540.0434996787156 L1484.7091055862127 540.0434996787156 z"/>
<path fill="#4682b4" stroke="#4682b4" d="M1484.7091053984134 540.0434993726652 L1483.0119129469178 552.4926404017535 L1483.0119129469178 552.4926404017535 L1484.7091053984134 540.0434993726652 z"/>
<path fill="#4682b4" stroke="#4682b4" d="M539.0655116207652 26.923443018068184 L550.1346680323174 20.979076335928326 L550.1346680323174 20.979076335928326 L539.0655116207652 26.923443018068184 z"/>
<path fill="#4682b4" stroke="#4682b4" d="M774.3269709734654 1731.8410930993693 L774.3269709734654 1731.8410930993693 L786.3139297541857 1728.0761692173635 L786.3139297541857 1728.0761692173635 z"/>
<path fill="#4682b4" stroke="#4682b4" d="M687.1921995866077 1736.4636320570003 L674.8741899508004 1733.9881002448124 L674.8741899508004 1733.9881002448124 L687.1921995866077 1736.4636320570003 z"/>
<path fill="#4682b4" stroke="#4682b4" d="M687.1921996810311 1736.4636323396803 L699.6413505276518 1738.1608261296008 L699.6413505276518 1738.1608261296008 L687.1921996810311 1736.4636323396803 z"/>
<path fill="#4682b4" stroke="#4682b4" d="M8.681006547627172 500.7861977611473 L15.517262501190524 490.24450162201396 L15.517262501190524 490.24450162201396 L8.681006547627172 500.7861977611473 z"/>
<path fill="#4682b4" stroke="#4682b4" d="M23.00194778929605 480.15285836038356 L15.51726235258001 490.2445017448418 L15.51726235258001 490.2445017448418 L23.00194778929605 480.15285836038356 z"/>
<path fill="#4682b4" stroke="#4682b4" d="M820.5305510848265 1712.384042020083 L820.5305510848265 1712.384042020083 L809.4613905051248 1718.3284109406056 L809.4613905051248 1718.3284109406056 z"/>
<path fill="#4682b4" stroke="#4682b4" d="M798.0408292882147 1723.5660084479548 L809.4613904275903 1718.328410932359 L809.4613904275903 1718.328410932359 L798.0408292882147 1723.5660084479548 z"/>
<path fill="#4682b4" stroke="#4682b4" d="M1237.8406889951282 1442.516849434632 L1237.8406889951282 1442.516849434632 L1244.0015319488434 1431.5667110964719 L1244.0015319488434 1431.5667110964719 z"/>
<path fill="#4682b4" stroke="#4682b4" d="M659.9547098212062 1.146662456259105 L659.9547098212062 1.146662456259105 L647.4235602484132 0.23450658731130558 L647.4235602484132 0.23450658731130558 z"/>
<path fill="#4682b4" stroke="#4682b4" d="M634.8598600217389 0.11098778882133734 L647.4235600357405 0.2345063646476452 L647.4235600357405 0.2345063646476452 L634.8598600217389 0.11098778882133734 z"/>
<path fill="#4682b4" stroke="#4682b4" d="M712.1724998547963 1739.0729819947996 L712.1724998547963 1739.0729819947996 L699.6413502820034 1738.1608261258518 L699.6413502820034 1738.1608261258518 z"/>
<path fill="#4682b4" stroke="#4682b4" d="M561.1911093146424 1660.2649904877194 L553.9062796399279 1650.028140256237 L553.9062796399279 1650.028140256237 L561.1911093146424 1660.2649904877194 z"/>
<path fill="#4682b4" stroke="#4682b4" d="M2.5201611623618203 511.7363406539761 L8.681006520462345 500.7861980423183 L8.681006520462345 500.7861980423183 L2.5201611623618203 511.7363406539761 z"/>
<path fill="#4682b4" stroke="#4682b4" d="M627.8739672026411 1716.5431549719601 L627.8739672026411 1716.5431549719601 L616.923821268866 1710.3823077447469 L616.923821268866 1710.3823077447469 z"/>
<path fill="#4682b4" stroke="#4682b4" d="M606.3821277337221 1703.546053494663 L616.9238213984357 1710.3823078435732 L616.9238213984357 1710.3823078435732 L606.3821277337221 1703.546053494663 z"/>
<path fill="#4682b4" stroke="#4682b4" d="M-19.097511267520066 583.5037299077358 L-19.097511267520066 583.5037299077358 L-20.00966646509982 596.0348702573091 L-20.00966646509982 596.0348702573091 z"/>
<path fill="#4682b4" stroke="#4682b4" d="M49.0391003307266 452.96671035920014 L39.79600315929085 461.47711343128657 L39.79600315929085 461.47711343128657 L49.0391003307266 452.96671035920014 z"/>
<path fill="#4682b4" stroke="#4682b4" d="M-19.0975115074403 583.5037297944905 L-17.40031789998741 571.0545802862948 L-17.40031789998741 571.0545802862948 L-19.0975115074403 583.5037297944905 z"/>
<path fill="#4682b4" stroke="#4682b4" d="M820.5305510870296 1712.3840418800069 L1166.8124584148106 1512.1620672584309 L1166.8124584148106 1512.1620672584309 L820.5305510870296 1712.3840418800069 z"/>
<path fill="#4682b4" stroke="#4682b4" d="M1197.482596976158 1490.3363362707557 L1197.482596976158 1490.3363362707557 L1187.723367135804 1498.2495664676437 L1187.723367135804 1498.2495664676437 z"/>
<path fill="#4682b4" stroke="#4682b4" d="M1187.7233673582584 1498.2495662877493 L1177.4865218507616 1505.534392600743 L1177.4865218507616 1505.534392600743 L1187.7233673582584 1498.2495662877493 z"/>
<path fill="#4682b4" stroke="#4682b4" d="M1483.0119130750136 552.4926406179809 L1480.5363793311574 564.8106598655837 L1480.5363793311574 564.8106598655837 L1483.0119130750136 552.4926406179809 z"/>
<path fill="#4682b4" stroke="#4682b4" d="M1399.8287992060336 354.9623210705091 L1399.8287992060336 354.9623210705091 L1409.920442590492 362.4470065072251 L1409.920442590492 362.4470065072251 z"/>
<path fill="#4682b4" stroke="#4682b4" d="M609.8330896985765 2.2286983308977515 L597.4687897969767 4.461568875778911 L597.4687897969767 4.461568875778911 L609.8330896985765 2.2286983308977515 z"/>
<path fill="#4682b4" stroke="#4682b4" d="M585.269079236492 7.46639690013013 L597.468789680521 4.4615687029040245 L597.468789680521 4.4615687029040245 L585.269079236492 7.46639690013013 z"/>
<path fill="#4682b4" stroke="#4682b4" d="M606.3821274403933 1703.5460534511317 L596.290482389383 1696.0613667783812 L596.290482389383 1696.0613667783812 L606.3821274403933 1703.5460534511317 z"/>
<path fill="#4682b4" stroke="#4682b4" d="M1419.5222067198972 370.5505834248508 L1419.5222067198972 370.5505834248508 L1428.596193136407 379.24106672518593 L1428.596193136407 379.24106672518593 z"/>
<path fill="#4682b4" stroke="#4682b4" d="M1428.5961932432751 379.24106701381686 L1437.1065913323653 388.48415877325044 L1437.1065913323653 388.48415877325044 L1428.5961932432751 379.24106701381686 z"/>
<path fill="#4682b4" stroke="#4682b4" d="M573.2821293524594 11.231318316325222 L573.2821293524594 11.231318316325222 L561.5552295534554 15.741478838936292 L561.5552295534554 15.741478838936292 z"/>
<path fill="#4682b4" stroke="#4682b4" d="M550.1346683443447 20.979076389850025 L561.5552294837204 15.741478874254266 L561.5552294837204 15.741478874254266 L550.1346683443447 20.979076389850025 z"/>
<path fill="#4682b4" stroke="#4682b4" d="M-18.01547503889179 633.6253405862926 L-19.467579381493568 621.1452299280345 L-19.467579381493568 621.1452299280345 L-18.01547503889179 633.6253405862926 z"/>
<path fill="#4682b4" stroke="#4682b4" d="M-2.9409623753046197 523.0517188536104 L-2.9409623753046197 523.0517188536104 L2.520161120238846 511.7363405406591 L2.520161120238846 511.7363405406591 z"/>
<path fill="#4682b4" stroke="#4682b4" d="M1254.2025079177565 1408.615369300733 L1258.2023780570973 1396.704749347527 L1258.2023780570973 1396.704749347527 L1254.2025079177565 1408.615369300733 z"/>
<path fill="#4682b4" stroke="#4682b4" d="M1254.2025078165016 1408.6153691105628 L1249.4626577783617 1420.251329095027 L1249.4626577783617 1420.251329095027 L1254.2025078165016 1408.6153691105628 z"/>
<path fill="#4682b4" stroke="#4682b4" d="M1244.0015322789097 1431.5667110998668 L1244.0015322789097 1431.5667110998668 L1249.4626576636942 1420.2513288724324 L1249.4626576636942 1420.2513288724324 z"/>
<path fill="#4682b4" stroke="#4682b4" d="M0.7349051935827664 693.3237676181645 L-4.502694373421655 681.9032020057002 L-4.502694373421655 681.9032020057002 L0.7349051935827664 693.3237676181645 z"/>
<path fill="#4682b4" stroke="#4682b4" d="M1464.8766920263456 430.2234589118102 L1458.9323231058231 419.1542983321084 L1458.9323231058231 419.1542983321084 L1464.8766920263456 430.2234589118102 z"/>
<path fill="#4682b4" stroke="#4682b4" d="M-9.012854996879483 670.1763019217975 L-4.5026944742685115 681.9032017208016 L-4.5026944742685115 681.9032017208016 L-9.012854996879483 670.1763019217975 z"/>
<path fill="#4682b4" stroke="#4682b4" d="M-7.680812981672563 534.6876789986832 L-7.680812981672563 534.6876789986832 L-11.680683121013441 546.5982989518892 L-11.680683121013441 546.5982989518892 z"/>
<path fill="#4682b4" stroke="#4682b4" d="M1481.3941993716319 477.557580154769 L1481.3941993716319 477.557580154769 L1478.3893711744056 465.35786971074003 L1478.3893711744056 465.35786971074003 z"/>
<path fill="#4682b4" stroke="#4682b4" d="M708.7707502566351 12.563359369980864 L720.406710241099 17.303209408120708 L720.406710241099 17.303209408120708 L708.7707502566351 12.563359369980864 z"/>
<path fill="#4682b4" stroke="#4682b4" d="M696.8601302747396 8.563489181893512 L696.8601302747396 8.563489181893512 L708.7707502279457 12.563359321234351 L708.7707502279457 12.563359321234351 z"/>
<path fill="#4682b4" stroke="#4682b4" d="M528.3914413187507 33.55112185314622 L518.1545977255478 40.83594680387499 L518.1545977255478 40.83594680387499 L528.3914413187507 33.55112185314622 z"/>
<path fill="#4682b4" stroke="#4682b4" d="M609.8330897972896 2.22869825780698 L622.3132004555478 0.7765939152050945 L622.3132004555478 0.7765939152050945 L609.8330897972896 2.22869825780698 z"/>
<path fill="#4682b4" stroke="#4682b4" d="M-19.467579241125083 621.1452299597412 L-20.13318543904388 608.598569758039 L-20.13318543904388 608.598569758039 L-19.467579241125083 621.1452299597412 z"/>
<path fill="#4682b4" stroke="#4682b4" d="M1478.3893708677972 465.35786972743784 L1474.6244498446194 453.37092004880265 L1474.6244498446194 453.37092004880265 L1478.3893708677972 465.35786972743784 z"/>
<path fill="#4682b4" stroke="#4682b4" d="M1485.7447802287957 514.9486500022493 L1485.6212616529692 527.5123500162509 L1485.6212616529692 527.5123500162509 L1485.7447802287957 514.9486500022493 z"/>
<path fill="#4682b4" stroke="#4682b4" d="M786.3139296463947 1728.0761690805887 L798.0408294453988 1723.5660085579775 L798.0408294453988 1723.5660085579775 L786.3139296463947 1728.0761690805887 z"/>
<path fill="#4682b4" stroke="#4682b4" d="M659.9547096340718 1.146662684133241 L672.4038506631601 2.843855135628705 L672.4038506631601 2.843855135628705 L659.9547096340718 1.146662684133241 z"/>
<path fill="#4682b4" stroke="#4682b4" d="M622.3132002112532 0.776593982117629 L622.3132002112532 0.776593982117629 L634.8598598839395 0.1109878122633469 L634.8598598839395 0.1109878122633469 z"/>
<path fill="#4682b4" stroke="#4682b4" d="M1197.4825966757662 1490.3363363895699 L1206.7256884351996 1481.8259383004797 L1206.7256884351996 1481.8259383004797 L1197.4825966757662 1490.3363363895699 z"/>
<path fill="#4682b4" stroke="#4682b4" d="M1215.416171965518 1472.7519518824474 L1206.7256884540598 1481.8259385193974 L1206.7256884540598 1481.8259385193974 L1215.416171965518 1472.7519518824474 z"/>
<path fill="#4682b4" stroke="#4682b4" d="M1177.4865217141403 1505.5343927606732 L1166.812458297569 1512.1620672581853 L1166.812458297569 1512.1620672581853 L1177.4865217141403 1505.5343927606732 z"/>
<path fill="#4682b4" stroke="#4682b4" d="M1223.5197482649328 1463.1501887131499 L1223.5197482649328 1463.1501887131499 L1231.0044301529422 1453.0585501134328 L1231.0044301529422 1453.0585501134328 z"/>
<path fill="#4682b4" stroke="#4682b4" d="M1231.004430310565 1453.0585502014005 L1237.840689224592 1442.5168494971504 L1237.840689224592 1442.5168494971504 L1231.004430310565 1453.0585502014005 z"/>
<path fill="#4682b4" stroke="#4682b4" d="M1483.6270697061623 489.9218800530641 L1481.394199161281 477.55758015146426 L1481.394199161281 477.55758015146426 L1483.6270697061623 489.9218800530641 z"/>
<path fill="#4682b4" stroke="#4682b4" d="M1215.416172186781 1472.7519518455722 L1223.519748392643 1463.150188643443 L1223.519748392643 1463.150188643443 L1215.416172186781 1472.7519518455722 z"/>
<path fill="#4682b4" stroke="#4682b4" d="M585.2690791390706 7.466397258928833 L573.2821294604355 11.231318282106555 L573.2821294604355 11.231318282106555 L585.2690791390706 7.466397258928833 z"/>
<path fill="#4682b4" stroke="#4682b4" d="M1389.2871100118118 348.1260699817857 L1399.8287991114087 354.9623213702323 L1399.8287991114087 354.9623213702323 L1389.2871100118118 348.1260699817857 z"/>
<path fill="#4682b4" stroke="#4682b4" d="M1445.0198216998447 398.243388621688 L1437.1065915029565 388.484158781334 L1437.1065915029565 388.484158781334 L1445.0198216998447 398.243388621688 z"/>
<path fill="#4682b4" stroke="#4682b4" d="M1419.522207016809 370.5505835347224 L1419.522207016809 370.5505835347224 L1409.9204429034248 362.44700655979074 L1409.9204429034248 362.44700655979074 z"/>
<path fill="#4682b4" stroke="#4682b4" d="M639.1893497676245 1722.0042804814789 L639.1893497676245 1722.0042804814789 L627.8739675401902 1716.5431550966944 L627.8739675401902 1716.5431550966944 z"/>
<path fill="#4682b4" stroke="#4682b4" d="M31.105519926534033 470.551099929639 L31.105519926534033 470.551099929639 L39.79600343799241 461.477113292689 L39.79600343799241 461.477113292689 z"/>
<path fill="#4682b4" stroke="#4682b4" d="M-15.782604658306889 645.989641147356 L-15.782604658306889 645.989641147356 L-12.77777703303584 658.189349269227 L-12.77777703303584 658.189349269227 z"/>
<path fill="#4682b4" stroke="#4682b4" d="M-9.01285506914318 670.1763015921417 L-9.01285506914318 670.1763015921417 L-12.777776990235978 658.1893490546782 L-12.777776990235978 658.1893490546782 z"/>
<path fill="#4682b4" stroke="#4682b4" d="M-15.782604467152247 645.9896408067235 L-18.015475012033423 633.6253409051237 L-18.015475012033423 633.6253409051237 L-15.782604467152247 645.9896408067235 z"/>
<path fill="#4682b4" stroke="#4682b4" d="M672.403850992343 2.8438550621959795 L684.7218702399458 5.319388806052036 L684.7218702399458 5.319388806052036 L672.403850992343 2.8438550621959795 z"/>
<path fill="#4682b4" stroke="#4682b4" d="M684.7218702539158 5.319389049938011 L696.860130164756 8.56348938354199 L696.860130164756 8.56348938354199 L684.7218702539158 5.319389049938011 z"/>
<path fill="#4682b4" stroke="#4682b4" d="M774.3269707512958 1731.8410930502882 L774.3269707512958 1731.8410930502882 L762.1272697353116 1734.8459189253563 L762.1272697353116 1734.8459189253563 z"/>
<path fill="#4682b4" stroke="#4682b4" d="M712.1724999803863 1739.0729819950004 L712.1724999803863 1739.0729819950004 L724.736199994388 1739.196500570827 L724.736199994388 1739.196500570827 z"/>
<path fill="#4682b4" stroke="#4682b4" d="M724.7362000179094 1739.1965003375906 L737.2828602196115 1738.5308941396718 L737.2828602196115 1738.5308941396718 L724.7362000179094 1739.1965003375906 z"/>
<path fill="#4682b4" stroke="#4682b4" d="M23.001947964528767 480.15285828212836 L23.001947964528767 480.15285828212836 L31.105520010553075 470.5511000089065 L31.105520010553075 470.5511000089065 z"/>
<path fill="#4682b4" stroke="#4682b4" d="M-7.680812722301716 534.6876788910839 L-7.680812722301716 534.6876788910839 L-2.940962684161807 523.0517189066201 L-2.940962684161807 523.0517189066201 z"/>
</svg>