<svg viewBox="-250 -250 500 500" width="500" height="500" xmlns="http://www.w3.org/2000/svg"><path d="M-33.31660049499869,-9.203953476207841L-35.84229056324716,-6.552249733038942L-33.16759223400719,-9.205313941748464zM-33.16759223400719,-9.205313941748464L-35.69878525661336,-6.5531848439482205L-33.01076764404054,-9.206745963445847zM-33.01076764404054,-9.206745963445847L-35.54865478826497,-6.554163157570644L-32.84669444034055,-9.208243984390894zM-32.84669444034055,-9.208243984390894L-35.39242419762287,-6.555181267348153L-32.67594987707314,-9.20980308628826zM-32.67594987707314,-9.20980308628826L-35.23062516976642,-6.556235649115829L-32.49911850909961,-9.211417703553918zM-32.49911850909961,-9.211417703553918L-35.063794449924224,-6.557322775425415L-32.31678208382758,-9.21308258656521zM-32.31678208382758,-9.21308258656521L-34.89246539005285,-6.558439230123357L-32.129522998079835,-9.214792479814019zM-32.129522998079835,-9.214792479814019L-34.71717589169329,-6.559581478230362L-31.93792324292472,-9.216541799435404zM-33.31660049499869,-9.203953476207841L-35.97864311395635,-6.551361114398897L-35.84229056324716,-6.552249733038942zM-33.16759223400719,-9.205313941748464L-35.84229056324716,-6.552249733038942L-35.69878525661336,-6.5531848439482205zM-33.01076764404054,-9.206745963445847L-35.69878525661336,-6.5531848439482205L-35.54865478826497,-6.554163157570644zM-32.84669444034055,-9.208243984390894L-35.54865478826497,-6.554163157570644L-35.39242419762287,-6.555181267348153zM-32.67594987707314,-9.20980308628826L-35.39242419762287,-6.555181267348153L-35.23062516976642,-6.556235649115829zM-32.49911850909961,-9.211417703553918L-35.23062516976642,-6.556235649115829L-35.063794449924224,-6.557322775425415zM-32.31678208382758,-9.21308258656521L-35.063794449924224,-6.557322775425415L-34.89246539005285,-6.558439230123357zM-32.129522998079835,-9.214792479814019L-34.89246539005285,-6.558439230123357L-34.71717589169329,-6.559581478230362zM-39.48056638743296,-3.8748722740007002L-36.8674425758242,-6.54556932232446L-36.88166572588407,-6.545476577504056zM-39.46766002691038,-3.8749221570633225L-36.84093351759776,-6.545741994991653L-36.8674425758242,-6.54556932232446zM-39.443615767468444,-3.87501518934386L-36.80242980870363,-6.545992890413092L-36.84093351759776,-6.545741994991653zM-39.408690008114725,-3.875150220000786L-36.75225578233584,-6.546319850551595L-36.80242980870363,-6.545992890413092zM-39.36317716054108,-3.8753263048575732L-36.69075948349554,-6.546720607366531L-36.75225578233584,-6.546319850551595zM-39.30739365425397,-3.8755420255109434L-36.61833197576914,-6.547192553119971L-36.69075948349554,-6.546720607366531zM-39.24169408050324,-3.8757961696687278L-36.535379765931395,-6.547733083319806L-36.61833197576914,-6.547192553119971zM-39.16645660424035,-3.876087186257138L-36.442341844081874,-6.548339366965136L-36.535379765931395,-6.547733083319806zM-39.08206432699935,-3.8764135935360553L-36.33966993391823,-6.549008460396872L-36.442341844081874,-6.548339366965136zM-38.98893531889921,-3.8767737745150295L-36.22783543115576,-6.54973730661193L-36.33966993391823,-6.549008460396872zM-38.88750053253659,-3.87716604468262L-36.10732596801846,-6.550522505222583L-36.22783543115576,-6.54973730661193zM-38.778201360360775,-3.8775888560997274L-35.97864311395635,-6.551361114398897L-36.10732596801846,-6.550522505222583zM-38.661484254063275,-3.878040251975796L-35.84229056324716,-6.552249733038942L-35.97864311395635,-6.551361114398897zM-38.53782136129768,-3.8785185477308337L-35.69878525661336,-6.5531848439482205L-35.84229056324716,-6.552249733038942zM-38.407669897697524,-3.879021921879848L-35.54865478826497,-6.554163157570644L-35.69878525661336,-6.5531848439482205zM-39.48056638743296,-3.8748722740007002L-39.46766002691038,-3.8749221570633225L-36.8674425758242,-6.54556932232446zM-38.27151705471186,-3.879548552053544L-35.39242419762287,-6.555181267348153L-35.54865478826497,-6.554163157570644zM-39.46766002691038,-3.8749221570633225L-39.443615767468444,-3.87501518934386L-36.84093351759776,-6.545741994991653zM-39.443615767468444,-3.87501518934386L-39.408690008114725,-3.875150220000786L-36.80242980870363,-6.545992890413092zM-39.408690008114725,-3.875150220000786L-39.36317716054108,-3.8753263048575732L-36.75225578233584,-6.546319850551595zM-39.36317716054108,-3.8753263048575732L-39.30739365425397,-3.8755420255109434L-36.69075948349554,-6.546720607366531zM-38.12983591510581,-3.8800965465339847L-35.23062516976642,-6.556235649115829L-35.39242419762287,-6.555181267348153zM-39.30739365425397,-3.8755420255109434L-39.24169408050324,-3.8757961696687278L-36.61833197576914,-6.547192553119971zM-39.24169408050324,-3.8757961696687278L-39.16645660424035,-3.876087186257138L-36.535379765931395,-6.547733083319806zM-37.98310678390264,-3.880664012199517L-35.063794449924224,-6.557322775425415L-35.23062516976642,-6.556235649115829zM-31.93792324292472,-9.216541799435404L-34.71717589169329,-6.559581478230362L-28.429055760227005,-6.600558150291326zM-39.16645660424035,-3.876087186257138L-39.08206432699935,-3.8764135935360553L-36.442341844081874,-6.548339366965136zM-39.08206432699935,-3.8764135935360553L-38.98893531889921,-3.8767737745150295L-36.33966993391823,-6.549008460396872zM-37.83182086543349,-3.881249190877475L-34.89246539005285,-6.558439230123357L-35.063794449924224,-6.557322775425415zM-38.98893531889921,-3.8767737745150295L-38.88750053253659,-3.87716604468262L-36.22783543115576,-6.54973730661193zM-37.6764557022077,-3.881850049587123L-34.71717589169329,-6.559581478230362L-34.89246539005285,-6.558439230123357zM-38.88750053253659,-3.87716604468262L-38.778201360360775,-3.8775888560997274L-36.10732596801846,-6.550522505222583zM-38.778201360360775,-3.8775888560997274L-38.661484254063275,-3.878040251975796L-35.97864311395635,-6.551361114398897zM-38.661484254063275,-3.878040251975796L-38.53782136129768,-3.8785185477308337L-35.84229056324716,-6.552249733038942zM-38.53782136129768,-3.8785185477308337L-38.407669897697524,-3.879021921879848L-35.69878525661336,-6.5531848439482205zM-38.407669897697524,-3.879021921879848L-38.27151705471186,-3.879548552053544L-35.54865478826497,-6.554163157570644zM-31.93792324292472,-9.216541799435404L-28.429055760227005,-6.600558150291326L-25.06090417282388,-9.279334799520083zM-38.27151705471186,-3.879548552053544L-38.12983591510581,-3.8800965465339847L-35.39242419762287,-6.555181267348153zM-38.12983591510581,-3.8800965465339847L-37.98310678390264,-3.880664012199517L-35.23062516976642,-6.556235649115829zM-37.98310678390264,-3.880664012199517L-37.83182086543349,-3.881249190877475L-35.063794449924224,-6.557322775425415zM-37.83182086543349,-3.881249190877475L-37.6764557022077,-3.881850049587123L-34.89246539005285,-6.558439230123357zM-37.6764557022077,-3.881850049587123L-37.51750802852707,-3.882464826508013L-34.71717589169329,-6.559581478230362zM-37.51750802852707,-3.882464826508013L-28.429055760227005,-6.600558150291326L-34.71717589169329,-6.559581478230362zM-28.27745291940717,-6.601546118406617L-24.89500894027773,-9.280849518985871L-25.06090417282388,-9.279334799520083zM-28.121601019749306,-6.602561760653165L-24.724455364758146,-9.282406856598882L-24.89500894027773,-9.280849518985871zM-27.961974431486823,-6.603601955841306L-24.549768097955948,-9.284001791899852L-24.724455364758146,-9.282406856598882zM-27.79905263252904,-6.604663579421389L-24.371473711487557,-9.28562978863729L-24.549768097955948,-9.284001791899852z" style="fill:rgb(82,237,172)"/><path d="M35.82558514124482,-28.04839107473082L34.402126898198816,-31.699080155676775L30.660235291038973,-28.765768180746075z" style="fill:rgb(217,127,217)"/><path d="M-27.633318435704417,-6.605743619880602L-24.190096272116758,-9.287285978047992L-24.371473711487557,-9.28562978863729zM-27.46526066224271,-6.6068387121262395L-24.006165123976977,-9.288965484963397L-24.190096272116758,-9.287285978047992zM-28.27745291940717,-6.601546118406617L-25.06090417282388,-9.279334799520083L-28.429055760227005,-6.600558150291326zM-27.295366096511277,-6.60794595360162L-23.820219086247423,-9.290663263974816L-24.006165123976977,-9.288965484963397zM-28.121601019749306,-6.602561760653165L-24.89500894027773,-9.280849518985871L-28.27745291940717,-6.601546118406617zM-27.124122029533964,-6.6090618543343425L-23.632789414651356,-9.292374589772708L-23.820219086247423,-9.290663263974816zM-27.961974431486823,-6.603601955841306L-24.724455364758146,-9.282406856598882L-28.121601019749306,-6.602561760653165zM-26.95201603628156,-6.610183386807914L-23.44441729297247,-9.294094730214109L-23.632789414651356,-9.292374589772708z" style="fill:rgb(82,237,172)"/><path d="M34.402126898198816,-31.699080155676775L33.97940846303796,-32.78320700863144L30.266640043413197,-29.770318982536587zM35.82558514124482,-28.04839107473082L30.660235291038973,-28.765768180746075L32.12644043551979,-25.023628374590334z" style="fill:rgb(217,127,217)"/><path d="M-27.79905263252904,-6.604663579421389L-24.549768097955948,-9.284001791899852L-27.961974431486823,-6.603601955841306zM-26.779546885799327,-6.611307285803527L-23.25563657586117,-9.295818454978049L-23.44441729297247,-9.294094730214109zM-27.633318435704417,-6.605743619880602L-24.371473711487557,-9.28562978863729L-27.79905263252904,-6.604663579421389zM-26.60720712522873,-6.612430281668664L-23.06698963014309,-9.297540853601891L-23.25563657586117,-9.295818454978049zM-27.46526066224271,-6.6068387121262395L-24.190096272116758,-9.287285978047992L-27.633318435704417,-6.605743619880602zM-26.435488611107036,-6.613549334092173L-22.879020026376722,-9.299257172207886L-23.06698963014309,-9.297540853601891zM-27.295366096511277,-6.60794595360162L-24.006165123976977,-9.288965484963397L-27.46526066224271,-6.6068387121262395zM-26.264891658174932,-6.614661047863562L-22.692269024877493,-9.300962322069164L-22.879020026376722,-9.299257172207886zM-27.124122029533964,-6.6090618543343425L-23.820219086247423,-9.290663263974816L-27.295366096511277,-6.60794595360162zM-26.095906677250632,-6.6157622571890835L-22.50728177206577,-9.302651535030705L-22.692269024877493,-9.300962322069164zM-37.51750802852707,-3.882464826508013L-31.818927643770305,-3.904505481834764L-28.429055760227005,-6.600558150291326zM-26.95201603628156,-6.610183386807914L-23.632789414651356,-9.292374589772708L-27.124122029533964,-6.6090618543343425zM-25.92903576566528,-6.6168496751408075L-22.32460069742225,-9.304319544033797L-22.50728177206577,-9.302651535030705z" style="fill:rgb(82,237,172)"/><path d="M34.402126898198816,-31.699080155676775L30.266640043413197,-29.770318982536587L30.660235291038973,-28.765768180746075z" style="fill:rgb(217,127,217)"/><path d="M-26.779546885799327,-6.611307285803527L-23.44441729297247,-9.294094730214109L-26.95201603628156,-6.610183386807914zM-25.76477244946475,-6.617920010627977L-22.144770175448286,-9.305961567032167L-22.32460069742225,-9.304319544033797zM-26.60720712522873,-6.612430281668664L-23.25563657586117,-9.295818454978049L-26.779546885799327,-6.611307285803527zM-25.60361637381239,-6.618970202716234L-21.968334514603264,-9.30757248732666L-22.144770175448286,-9.305961567032167zM-26.435488611107036,-6.613549334092173L-23.06698963014309,-9.297540853601891L-26.60720712522873,-6.612430281668664zM-25.446064542114698,-6.619996952694932L-21.795839492658693,-9.30914751014776L-21.968334514603264,-9.30757248732666zM-26.264891658174932,-6.614661047863562L-22.879020026376722,-9.299257172207886L-26.435488611107036,-6.613549334092173zM-25.29260529453128,-6.620996958233061L-21.62782655048975,-9.310681670764266L-21.795839492658693,-9.30914751014776zM-31.818927643770305,-3.904505481834764L-28.27745291940717,-6.601546118406617L-28.429055760227005,-6.600558150291326zM-26.095906677250632,-6.6157622571890835L-22.692269024877493,-9.300962322069164L-26.264891658174932,-6.614661047863562zM-25.14373944044987,-6.621967030817457L-21.464830840557585,-9.312169998931175L-21.62782655048975,-9.310681670764266zM-31.681618530694745,-3.9050365665159035L-28.121601019749306,-6.602561760653165L-28.27745291940717,-6.601546118406617zM-25.92903576566528,-6.6168496751408075L-22.50728177206577,-9.302651535030705L-26.095906677250632,-6.6157622571890835zM-24.999954426693815,-6.622903978977132L-21.307394578585235,-9.313607354979103L-21.464830840557585,-9.312169998931175zM-31.54046241898062,-3.9055825214731956L-27.961974431486823,-6.603601955841306L-28.121601019749306,-6.602561760653165zM-25.76477244946475,-6.617920010627977L-22.32460069742225,-9.304319544033797L-25.92903576566528,-6.6168496751408075zM-24.86173393811017,-6.623804725840095L-21.15604819530064,-9.314989252175758L-21.307394578585235,-9.313607354979103zM-31.395894436185714,-3.9061416993957234L-27.79905263252904,-6.604663579421389L-27.961974431486823,-6.603601955841306zM-24.729561565564662,-6.624666075047937L-21.01132407321925,-9.316310871455306L-21.15604819530064,-9.314989252175758zM-25.60361637381239,-6.618970202716234L-22.144770175448286,-9.305961567032167L-25.76477244946475,-6.617920010627977zM-31.248344413902487,-3.906712313016888L-27.633318435704417,-6.605743619880602L-27.79905263252904,-6.604663579421389zM-24.603909674266653,-6.625484828274136L-20.873738123373272,-9.317567061527388L-21.01132407321925,-9.316310871455306zM-25.446064542114698,-6.619996952694932L-21.968334514603264,-9.30757248732666L-25.60361637381239,-6.618970202716234zM-31.09825637813235,-3.9072928499789956L-27.46526066224271,-6.6068387121262395L-27.633318435704417,-6.605743619880602zM-24.48525403455125,-6.626258020301409L-20.743806081376192,-9.31875349096366L-20.873738123373272,-9.317567061527388zM-25.29260529453128,-6.620996958233061L-21.795839492658693,-9.30914751014776L-25.446064542114698,-6.619996952694932zM-30.946065153088703,-3.9078814502015353L-27.295366096511277,-6.60794595360162L-27.46526066224271,-6.6068387121262395zM-24.374049823686143,-6.626982684968297L-20.62202896793914,-9.319865333201829L-20.743806081376192,-9.31875349096366zM-25.14373944044987,-6.621967030817457L-21.62782655048975,-9.310681670764266L-25.29260529453128,-6.620996958233061zM-24.270745382684947,-6.6276558555883875L-20.508902104767976,-9.320898254426893L-20.62202896793914,-9.319865333201829zM-30.7922151860238,-3.9084765284231144L-27.124122029533964,-6.6090618543343425L-27.295366096511277,-6.60794595360162zM-31.818927643770305,-3.904505481834764L-31.681618530694745,-3.9050365665159035L-28.27745291940717,-6.601546118406617zM-24.175773778128665,-6.628274800222571L-20.40490242200782,-9.321847920885954L-20.508902104767976,-9.320898254426893zM-24.999954426693815,-6.622903978977132L-21.464830840557585,-9.312169998931175L-25.14373944044987,-6.621967030817457z" style="fill:rgb(82,237,172)"/><path d="M32.12644043551979,-25.023628374590334L30.660235291038973,-28.765768180746075L26.89042839267957,-25.810570695020356z" style="fill:rgb(217,127,217)"/><path d="M-24.089564837159646,-6.628836552618012L-20.310495264003283,-9.322709999638885L-20.40490242200782,-9.321847920885954zM-30.63714518566396,-3.909076289743554L-26.95201603628156,-6.610183386807914L-27.124122029533964,-6.6090618543343425zM-31.681618530694745,-3.9050365665159035L-31.54046241898062,-3.9055825214731956L-28.121601019749306,-6.602561760653165zM-24.01251535549417,-6.629338617192057L-20.226118557513118,-9.323480324067617L-20.310495264003283,-9.322709999638885zM-24.86173393811017,-6.623804725840095L-21.307394578585235,-9.313607354979103L-24.999954426693815,-6.622903978977132zM-23.945017269243014,-6.6297785000009055L-20.152195272457366,-9.324155389052946L-20.226118557513118,-9.323480324067617zM-31.54046241898062,-3.9055825214731956L-31.395894436185714,-3.9061416993957234L-27.961974431486823,-6.603601955841306zM-30.481304711409884,-3.909679075658933L-26.779546885799327,-6.611307285803527L-26.95201603628156,-6.610183386807914zM-23.887432634982414,-6.6301538266763105L-20.089128520910172,-9.324731198878151L-20.152195272457366,-9.324155389052946zM-24.729561565564662,-6.624666075047937L-21.15604819530064,-9.314989252175758L-24.86173393811017,-6.623804725840095zM-23.840097735393893,-6.630462225464867L-20.037290514269856,-9.325204585938938L-20.089128520910172,-9.324731198878151zM-23.803326996734807,-6.630701797693894L-19.997022628662304,-9.325572223177957L-20.037290514269856,-9.325204585938938zM-31.395894436185714,-3.9061416993957234L-31.248344413902487,-3.906712313016888L-27.79905263252904,-6.604663579421389zM-30.32513817134207,-3.910283087032387L-26.60720712522873,-6.612430281668664L-26.779546885799327,-6.611307285803527zM-23.777404721366818,-6.630870765860761L-19.96863248723663,-9.325831448750014L-19.997022628662304,-9.325572223177957zM-24.603909674266653,-6.625484828274136L-21.01132407321925,-9.316310871455306L-24.729561565564662,-6.624666075047937zM-31.248344413902487,-3.906712313016888L-31.09825637813235,-3.9072928499789956L-27.633318435704417,-6.605743619880602zM-24.48525403455125,-6.626258020301409L-20.873738123373272,-9.317567061527388L-24.603909674266653,-6.625484828274136zM-30.169091069403546,-3.910886591830586L-26.435488611107036,-6.613549334092173L-26.60720712522873,-6.612430281668664zM-24.374049823686143,-6.626982684968297L-20.743806081376192,-9.31875349096366L-24.48525403455125,-6.626258020301409zM-31.09825637813235,-3.9072928499789956L-30.946065153088703,-3.9078814502015353L-27.46526066224271,-6.6068387121262395zM-30.013614608365295,-3.91148792522647L-26.264891658174932,-6.614661047863562L-26.435488611107036,-6.613549334092173z" style="fill:rgb(82,237,172)"/><path d="M30.660235291038973,-28.765768180746075L30.266640043413197,-29.770318982536587L26.526403868503092,-26.735136771910334zM32.12644043551979,-25.023628374590334L26.89042839267957,-25.810570695020356L28.399974655358925,-21.97652273517894z" style="fill:rgb(217,127,217)"/><path d="M-24.270745382684947,-6.6276558555883875L-20.62202896793914,-9.319865333201829L-24.374049823686143,-6.626982684968297zM-30.946065153088703,-3.9078814502015353L-30.7922151860238,-3.9084765284231144L-27.295366096511277,-6.60794595360162zM-24.175773778128665,-6.628274800222571L-20.508902104767976,-9.320898254426893L-24.270745382684947,-6.6276558555883875zM-29.859155386367032,-3.9120853509849254L-26.095906677250632,-6.6157622571890835L-26.264891658174932,-6.614661047863562zM-24.089564837159646,-6.628836552618012L-20.40490242200782,-9.321847920885954L-24.175773778128665,-6.628274800222571zM-30.7922151860238,-3.9084765284231144L-30.63714518566396,-3.909076289743554L-27.124122029533964,-6.6090618543343425zM-29.706162324938408,-3.9126770613826523L-25.92903576566528,-6.6168496751408075L-26.095906677250632,-6.6157622571890835zM-24.01251535549417,-6.629338617192057L-20.310495264003283,-9.322709999638885L-24.089564837159646,-6.628836552618012zM-23.945017269243014,-6.6297785000009055L-20.226118557513118,-9.323480324067617L-24.01251535549417,-6.629338617192057zM-30.63714518566396,-3.909076289743554L-30.481304711409884,-3.909679075658933L-26.95201603628156,-6.610183386807914zM-23.887432634982414,-6.6301538266763105L-20.152195272457366,-9.324155389052946L-23.945017269243014,-6.6297785000009055zM-29.5550882455779,-3.9132613853687L-25.76477244946475,-6.617920010627977L-25.92903576566528,-6.6168496751408075zM-23.840097735393893,-6.630462225464867L-20.089128520910172,-9.324731198878151L-23.887432634982414,-6.6301538266763105zM-23.803326996734807,-6.630701797693894L-20.037290514269856,-9.325204585938938L-23.840097735393893,-6.630462225464867zM-30.481304711409884,-3.909679075658933L-30.32513817134207,-3.910283087032387L-26.779546885799327,-6.611307285803527zM-23.777404721366818,-6.630870765860761L-19.997022628662304,-9.325572223177957L-23.803326996734807,-6.630701797693894zM-29.406381338649126,-3.913836580545113L-25.60361637381239,-6.618970202716234L-25.76477244946475,-6.617920010627977zM-30.32513817134207,-3.910283087032387L-30.169091069403546,-3.910886591830586L-26.60720712522873,-6.612430281668664zM-29.260487463480164,-3.914400833136304L-25.446064542114698,-6.619996952694932L-25.60361637381239,-6.618970202716234zM-30.169091069403546,-3.910886591830586L-30.013614608365295,-3.91148792522647L-26.435488611107036,-6.613549334092173zM-29.117860924958855,-3.9149524663820086L-25.29260529453128,-6.620996958233061L-25.446064542114698,-6.619996952694932zM-30.013614608365295,-3.91148792522647L-29.859155386367032,-3.9120853509849254L-26.264891658174932,-6.614661047863562zM-28.978947228453627,-3.915489801863821L-25.14373944044987,-6.621967030817457L-25.29260529453128,-6.620996958233061z" style="fill:rgb(82,237,172)"/><path d="M30.660235291038973,-28.765768180746075L26.526403868503092,-26.735136771910334L26.89042839267957,-25.810570695020356z" style="fill:rgb(217,127,217)"/><path d="M-29.859155386367032,-3.9120853509849254L-29.706162324938408,-3.9126770613826523L-26.095906677250632,-6.6157622571890835zM-28.844190748615286,-3.9160109511044836L-24.999954426693815,-6.622903978977132L-25.14373944044987,-6.621967030817457zM-28.714036496217066,-3.9165143716124797L-24.86173393811017,-6.623804725840095L-24.999954426693815,-6.622903978977132zM-29.706162324938408,-3.9126770613826523L-29.5550882455779,-3.9132613853687L-25.92903576566528,-6.6168496751408075zM-28.588925962011988,-3.916998311154725L-24.729561565564662,-6.624666075047937L-24.86173393811017,-6.623804725840095zM-29.5550882455779,-3.9132613853687L-29.406381338649126,-3.913836580545113L-25.76477244946475,-6.617920010627977zM-28.46929168947614,-3.917461016324693L-24.603909674266653,-6.625484828274136L-24.729561565564662,-6.624666075047937zM-29.406381338649126,-3.913836580545113L-29.260487463480164,-3.914400833136304L-25.60361637381239,-6.618970202716234zM-28.355562853212554,-3.9179008718681247L-24.48525403455125,-6.626258020301409L-24.603909674266653,-6.625484828274136zM-29.260487463480164,-3.914400833136304L-29.117860924958855,-3.9149524663820086L-25.446064542114698,-6.619996952694932zM-28.248166496599136,-3.9183162618537675L-24.374049823686143,-6.626982684968297L-24.48525403455125,-6.626258020301409zM-28.14751773219432,-3.9187055002668876L-24.270745382684947,-6.6276558555883875L-24.374049823686143,-6.626982684968297zM-29.117860924958855,-3.9149524663820086L-28.978947228453627,-3.915489801863821L-25.29260529453128,-6.620996958233061zM-28.05402218173378,-3.9190671792207556L-24.175773778128665,-6.628274800222571L-24.270745382684947,-6.6276558555883875zM-28.978947228453627,-3.915489801863821L-28.844190748615286,-3.9160109511044836L-25.14373944044987,-6.621967030817457zM-27.968069596267554,-3.91939961242084L-24.089564837159646,-6.628836552618012L-24.175773778128665,-6.628274800222571zM-27.890044723623237,-3.919701392241722L-24.01251535549417,-6.629338617192057L-24.089564837159646,-6.628836552618012zM-28.844190748615286,-3.9160109511044836L-28.714036496217066,-3.9165143716124797L-24.999954426693815,-6.622903978977132zM-27.820315496976413,-3.919971041947967L-23.945017269243014,-6.6297785000009055L-24.01251535549417,-6.629338617192057zM-27.75923081609202,-3.920207364147162L-23.887432634982414,-6.6301538266763105L-23.945017269243014,-6.6297785000009055zM-28.714036496217066,-3.9165143716124797L-28.588925962011988,-3.916998311154725L-24.86173393811017,-6.623804725840095zM-27.707114209900432,-3.92040888388959L-23.840097735393893,-6.630462225464867L-23.887432634982414,-6.6301538266763105zM-27.664275644311804,-3.9205745454286376L-23.803326996734807,-6.630701797693894L-23.840097735393893,-6.630462225464867zM-27.63100155358923,-3.920703294593703L-23.777404721366818,-6.630870765860761L-23.803326996734807,-6.630701797693894zM-28.588925962011988,-3.916998311154725L-28.46929168947614,-3.917461016324693L-24.729561565564662,-6.624666075047937zM-28.46929168947614,-3.917461016324693L-28.355562853212554,-3.9179008718681247L-24.603909674266653,-6.625484828274136zM-28.355562853212554,-3.9179008718681247L-28.248166496599136,-3.9183162618537675L-24.48525403455125,-6.626258020301409zM-28.248166496599136,-3.9183162618537675L-28.14751773219432,-3.9187055002668876L-24.374049823686143,-6.626982684968297zM-28.14751773219432,-3.9187055002668876L-28.05402218173378,-3.9190671792207556L-24.270745382684947,-6.6276558555883875zM-28.05402218173378,-3.9190671792207556L-27.968069596267554,-3.91939961242084L-24.175773778128665,-6.628274800222571zM-27.968069596267554,-3.91939961242084L-27.890044723623237,-3.919701392241722L-24.089564837159646,-6.628836552618012zM-27.890044723623237,-3.919701392241722L-27.820315496976413,-3.919971041947967L-24.01251535549417,-6.629338617192057zM-27.820315496976413,-3.919971041947967L-27.75923081609202,-3.920207364147162L-23.945017269243014,-6.6297785000009055zM-27.75923081609202,-3.920207364147162L-27.707114209900432,-3.92040888388959L-23.887432634982414,-6.6301538266763105zM-27.707114209900432,-3.92040888388959L-27.664275644311804,-3.9205745454286376L-23.840097735393893,-6.630462225464867zM-27.664275644311804,-3.9205745454286376L-27.63100155358923,-3.920703294593703L-23.803326996734807,-6.630701797693894zM-27.63100155358923,-3.920703294593703L-27.60754041434631,-3.920794009310423L-23.777404721366818,-6.630870765860761zM-39.48056638743296,-3.8748722740007002L-65.58805673963757,22.952951440941483L-39.46766002691038,-3.8749221570633225zM-39.46766002691038,-3.8749221570633225L-65.58805673963757,22.952951440941483L-39.443615767468444,-3.87501518934386zM-39.443615767468444,-3.87501518934386L-65.58805673963757,22.952951440941483L-39.408690008114725,-3.875150220000786zM-39.408690008114725,-3.875150220000786L-65.58805673963757,22.952951440941483L-39.36317716054108,-3.8753263048575732zM-39.36317716054108,-3.8753263048575732L-65.58805673963757,22.952951440941483L-39.30739365425397,-3.8755420255109434zM-39.30739365425397,-3.8755420255109434L-65.58805673963757,22.952951440941483L-39.24169408050324,-3.8757961696687278zM-39.24169408050324,-3.8757961696687278L-65.58805673963757,22.952951440941483L-39.16645660424035,-3.876087186257138zM-39.16645660424035,-3.876087186257138L-65.58805673963757,22.952951440941483L-39.08206432699935,-3.8764135935360553zM-39.08206432699935,-3.8764135935360553L-65.58805673963757,22.952951440941483L-38.98893531889921,-3.8767737745150295zM-38.98893531889921,-3.8767737745150295L-65.58805673963757,22.952951440941483L-38.88750053253659,-3.87716604468262zM-38.88750053253659,-3.87716604468262L-65.58805673963757,22.952951440941483L-38.778201360360775,-3.8775888560997274zM-38.778201360360775,-3.8775888560997274L-65.58805673963757,22.952951440941483L-38.661484254063275,-3.878040251975796zM-38.661484254063275,-3.878040251975796L-65.58805673963757,22.952951440941483L-38.53782136129768,-3.8785185477308337zM-38.53782136129768,-3.8785185477308337L-65.58805673963757,22.952951440941483L-38.407669897697524,-3.879021921879848zM-38.407669897697524,-3.879021921879848L-65.58805673963757,22.952951440941483L-38.27151705471186,-3.879548552053544zM-38.27151705471186,-3.879548552053544L-65.58805673963757,22.952951440941483L-38.12983591510581,-3.8800965465339847zM-38.12983591510581,-3.8800965465339847L-65.58805673963757,22.952951440941483L-37.98310678390264,-3.880664012199517zM-37.98310678390264,-3.880664012199517L-65.58805673963757,22.952951440941483L-37.83182086543349,-3.881249190877475zM-37.83182086543349,-3.881249190877475L-65.58805673963757,22.952951440941483L-37.6764557022077,-3.881850049587123zM-37.6764557022077,-3.881850049587123L-65.58805673963757,22.952951440941483L-37.51750802852707,-3.882464826508013zM26.526403868503092,-26.735136771910334L-19.96863248723663,-9.325831448750014L5.357977097762978,-9.557084349818386z" style="fill:rgb(82,237,172)"/><path d="M28.399974655358925,-21.97652273517894L26.89042839267957,-25.810570695020356L5.550297467204705,-9.081786070112594z" style="fill:rgb(217,127,217)"/><path d="M-37.51750802852707,-3.882464826508013L-65.58805673963757,22.952951440941483L-31.818927643770305,-3.904505481834764zM1.9586885396585199,-6.798580651268117L-19.96863248723663,-9.325831448750014L-23.777404721366818,-6.630870765860761z" style="fill:rgb(82,237,172)"/><path d="M26.89042839267957,-25.810570695020356L26.526403868503092,-26.735136771910334L5.357977097762978,-9.557084349818386z" style="fill:rgb(217,127,217)"/><path d="M-31.818927643770305,-3.904505481834764L-65.58805673963757,22.952951440941483L-31.681618530694745,-3.9050365665159035zM-27.60754041434631,-3.920794009310423L1.9586885396585199,-6.798580651268117L-23.777404721366818,-6.630870765860761zM-31.681618530694745,-3.9050365665159035L-65.58805673963757,22.952951440941483L-31.54046241898062,-3.9055825214731956zM-31.54046241898062,-3.9055825214731956L-65.58805673963757,22.952951440941483L-31.395894436185714,-3.9061416993957234zM-31.395894436185714,-3.9061416993957234L-65.58805673963757,22.952951440941483L-31.248344413902487,-3.906712313016888zM-31.248344413902487,-3.906712313016888L-65.58805673963757,22.952951440941483L-31.09825637813235,-3.9072928499789956zM-31.09825637813235,-3.9072928499789956L-65.58805673963757,22.952951440941483L-30.946065153088703,-3.9078814502015353zM-30.946065153088703,-3.9078814502015353L-65.58805673963757,22.952951440941483L-30.7922151860238,-3.9084765284231144zM-30.7922151860238,-3.9084765284231144L-65.58805673963757,22.952951440941483L-30.63714518566396,-3.909076289743554zM-30.63714518566396,-3.909076289743554L-65.58805673963757,22.952951440941483L-30.481304711409884,-3.909679075658933zM-30.481304711409884,-3.909679075658933L-65.58805673963757,22.952951440941483L-30.32513817134207,-3.910283087032387zM-30.32513817134207,-3.910283087032387L-65.58805673963757,22.952951440941483L-30.169091069403546,-3.910886591830586zM-30.169091069403546,-3.910886591830586L-65.58805673963757,22.952951440941483L-30.013614608365295,-3.91148792522647zM-30.013614608365295,-3.91148792522647L-65.58805673963757,22.952951440941483L-29.859155386367032,-3.9120853509849254zM-29.859155386367032,-3.9120853509849254L-65.58805673963757,22.952951440941483L-29.706162324938408,-3.9126770613826523zM-29.706162324938408,-3.9126770613826523L-65.58805673963757,22.952951440941483L-29.5550882455779,-3.9132613853687zM-29.5550882455779,-3.9132613853687L-65.58805673963757,22.952951440941483L-29.406381338649126,-3.913836580545113zM-29.406381338649126,-3.913836580545113L-65.58805673963757,22.952951440941483L-29.260487463480164,-3.914400833136304zM-29.260487463480164,-3.914400833136304L-65.58805673963757,22.952951440941483L-29.117860924958855,-3.9149524663820086zM-29.117860924958855,-3.9149524663820086L-65.58805673963757,22.952951440941483L-28.978947228453627,-3.915489801863821zM-28.978947228453627,-3.915489801863821L-65.58805673963757,22.952951440941483L-28.844190748615286,-3.9160109511044836zM-28.844190748615286,-3.9160109511044836L-65.58805673963757,22.952951440941483L-28.714036496217066,-3.9165143716124797zM-28.714036496217066,-3.9165143716124797L-65.58805673963757,22.952951440941483L-28.588925962011988,-3.916998311154725zM-28.588925962011988,-3.916998311154725L-65.58805673963757,22.952951440941483L-28.46929168947614,-3.917461016324693zM-28.46929168947614,-3.917461016324693L-65.58805673963757,22.952951440941483L-28.355562853212554,-3.9179008718681247zM-28.355562853212554,-3.9179008718681247L-65.58805673963757,22.952951440941483L-28.248166496599136,-3.9183162618537675zM-28.248166496599136,-3.9183162618537675L-65.58805673963757,22.952951440941483L-28.14751773219432,-3.9187055002668876zM-28.14751773219432,-3.9187055002668876L-65.58805673963757,22.952951440941483L-28.05402218173378,-3.9190671792207556zM-28.05402218173378,-3.9190671792207556L-65.58805673963757,22.952951440941483L-27.968069596267554,-3.91939961242084zM-27.968069596267554,-3.91939961242084L-65.58805673963757,22.952951440941483L-27.890044723623237,-3.919701392241722zM-27.890044723623237,-3.919701392241722L-65.58805673963757,22.952951440941483L-27.820315496976413,-3.919971041947967zM-27.820315496976413,-3.919971041947967L-65.58805673963757,22.952951440941483L-27.75923081609202,-3.920207364147162zM-27.75923081609202,-3.920207364147162L-65.58805673963757,22.952951440941483L-27.707114209900432,-3.92040888388959zM-27.707114209900432,-3.92040888388959L-65.58805673963757,22.952951440941483L-27.664275644311804,-3.9205745454286376zM-27.664275644311804,-3.9205745454286376L-65.58805673963757,22.952951440941483L-27.63100155358923,-3.920703294593703zM-27.63100155358923,-3.920703294593703L-65.58805673963757,22.952951440941483L-27.60754041434631,-3.920794009310423z" style="fill:rgb(82,237,172)"/><path d="M28.399974655358925,-21.97652273517894L5.550297467204705,-9.081786070112594L7.3104551810624745,-4.731767791419644z" style="fill:rgb(217,127,217)"/><path d="M-65.58805673963757,22.952951440941483L-62.656973866405814,11.266459507206214L-63.567184757100854,12.179733760902202z" style="fill:rgb(82,237,172)"/><path d="M26.89042839267957,-25.810570695020356L5.357977097762978,-9.557084349818386L5.550297467204705,-9.081786070112594z" style="fill:rgb(217,127,217)"/><path d="M1.9586885396585199,-6.798580651268117L5.357977097762978,-9.557084349818386L-19.96863248723663,-9.325831448750014zM-65.58805673963757,22.952951440941483L-63.567184757100854,12.179733760902202L-64.39090504997291,13.082873476475383zM-65.58805673963757,22.952951440941483L-64.39090504997291,13.082873476475383L-65.12489661257015,13.972682755581264zM-65.58805673963757,22.952951440941483L-65.12489661257015,13.972682755581264L-65.76620970867968,14.845983144502915zM-65.58805673963757,22.952951440941483L-65.76620970867968,14.845983144502915L-66.31215962040632,15.69962841168333zM-65.58805673963757,22.952951440941483L-66.31215962040632,15.69962841168333L-66.76038813117574,16.530504683770413zM-27.60754041434631,-3.920794009310423L-1.4629813662761117,-4.02191430357343L1.9586885396585199,-6.798580651268117zM-65.58805673963757,22.952951440941483L-66.76038813117574,16.530504683770413L-67.10883492352376,17.335552906023413zM-65.58805673963757,22.952951440941483L-67.10883492352376,17.335552906023413L-67.3557787471001,18.111770591148982z" style="fill:rgb(82,237,172)"/><path d="M3.923985710462245,-1.9626766696669937L7.3104551810624745,-4.731767791419644L5.550297467204705,-9.081786070112594z" style="fill:rgb(217,127,217)"/><path d="M-65.58805673963757,22.952951440941483L-67.3557787471001,18.111770591148982L-67.49984051307462,18.856228990680037z" style="fill:rgb(82,237,172)"/><path d="M2.122747717478037,-6.39488846438328L5.550297467204705,-9.081786070112594L5.357977097762978,-9.557084349818386z" style="fill:rgb(217,127,217)"/><path d="M-64.93595131409981,26.244653746472455L-67.30625449069476,20.871106220831578L-65.21301795756574,25.64776502305449z" style="fill:rgb(11,76,136)"/><path d="M-65.58805673963757,22.952951440941483L-67.49984051307462,18.856228990680037L-67.53998735609959,19.56608300937336z" style="fill:rgb(82,237,172)"/><path d="M3.923985710462245,-1.9626766696669937L5.550297467204705,-9.081786070112594L2.122747717478037,-6.39488846438328zM2.122747717478037,-6.39488846438328L5.357977097762978,-9.557084349818386L1.9586885396585199,-6.798580651268117z" style="fill:rgb(217,127,217)"/><path d="M-64.93595131409981,26.244653746472455L-67.03216874944137,21.46111250760534L-67.30625449069476,20.871106220831578z" style="fill:rgb(11,76,136)"/><path d="M-65.58805673963757,22.952951440941483L-67.53998735609959,19.56608300937336L-67.47555531735959,20.238589346876086z" style="fill:rgb(82,237,172)"/><path d="M-64.55479476961956,26.79670035953575L-67.03216874944137,21.46111250760534L-64.93595131409981,26.244653746472455z" style="fill:rgb(12,73,144)"/><path d="M-27.60754041434631,-3.920794009310423L-17.340021494785436,8.862211582510067L-1.4629813662761117,-4.02191430357343zM-65.58805673963757,22.952951440941483L-67.47555531735959,20.238589346876086L-67.30625449069476,20.871106220831578z" style="fill:rgb(82,237,172)"/><path d="M-1.327562016587996,-3.690149032307681L3.923985710462245,-1.9626766696669937L2.122747717478037,-6.39488846438328z" style="fill:rgb(217,127,217)"/><path d="M-27.60754041434631,-3.920794009310423L-65.58805673963757,22.952951440941483L-17.340021494785436,8.862211582510067z" style="fill:rgb(82,237,172)"/><path d="M-64.55479476961956,26.79670035953575L-66.65379164855732,22.006226555333697L-67.03216874944137,21.46111250760534z" style="fill:rgb(12,73,144)"/><path d="M-1.327562016587996,-3.690149032307681L0.5152645513462105,0.8246120489325072L3.923985710462245,-1.9626766696669937zM-1.4629813662761117,-4.02191430357343L2.122747717478037,-6.39488846438328L1.9586885396585199,-6.798580651268117z" style="fill:rgb(217,127,217)"/><path d="M-65.58805673963757,22.952951440941483L-67.30625449069476,20.871106220831578L-67.03216874944137,21.46111250760534z" style="fill:rgb(82,237,172)"/><path d="M-64.55479476961956,26.79670035953575L-64.07044741549805,27.30164166315083L-66.1719958847094,22.50419810516424zM-64.55479476961956,26.79670035953575L-66.1719958847094,22.50419810516424L-66.65379164855732,22.006226555333697z" style="fill:rgb(15,71,151)"/><path d="M-1.4629813662761117,-4.02191430357343L-1.327562016587996,-3.690149032307681L2.122747717478037,-6.39488846438328z" style="fill:rgb(217,127,217)"/><path d="M-65.58805673963757,22.952951440941483L-67.03216874944137,21.46111250760534L-66.65379164855732,22.006226555333697z" style="fill:rgb(82,237,172)"/><path d="M-65.58805673963757,22.952951440941483L-64.07044741549805,27.30164166315083L-63.484191397340126,27.75736231035418zM-65.58805673963757,22.952951440941483L-66.1719958847094,22.50419810516424L-64.07044741549805,27.30164166315083z" style="fill:rgb(17,70,158)"/><path d="M-65.58805673963757,22.952951440941483L-66.65379164855732,22.006226555333697L-66.1719958847094,22.50419810516424z" style="fill:rgb(82,237,172)"/><path d="M-65.58805673963757,22.952951440941483L-63.484191397340126,27.75736231035418L-62.797724482603016,28.161920133328216zM-65.58805673963757,22.952951440941483L-62.797724482603016,28.161920133328216L-64.9036566219269,23.350562652238413z" style="fill:rgb(20,68,165)"/><path d="M-64.12088767838887,23.69529114444225L-62.797724482603016,28.161920133328216L-62.013134345268725,28.513551154366347zM-64.12088767838887,23.69529114444225L-64.9036566219269,23.350562652238413L-62.797724482603016,28.161920133328216z" style="fill:rgb(24,67,171)"/><path d="M-65.58805673963757,22.952951440941483L-64.9036566219269,23.350562652238413L-64.12088767838887,23.69529114444225z" style="fill:rgb(82,237,172)"/><path d="M-1.327562016587996,-3.690149032307681L-15.30113567445993,13.75757286251151L0.5152645513462105,0.8246120489325072z" style="fill:rgb(217,127,217)"/><path d="M-64.12088767838887,23.69529114444225L-62.013134345268725,28.513551154366347L-61.132919281993196,28.81068084143001z" style="fill:rgb(28,66,178)"/><path d="M-65.58805673963757,22.952951440941483L-64.12088767838887,23.69529114444225L-63.24222522372831,23.985587937341712z" style="fill:rgb(82,237,172)"/><path d="M-1.4629813662761117,-4.02191430357343L-17.340021494785436,8.862211582510067L-1.327562016587996,-3.690149032307681z" style="fill:rgb(217,127,217)"/><path d="M-64.12088767838887,23.69529114444225L-61.132919281993196,28.81068084143001L-63.24222522372831,23.985587937341712z" style="fill:rgb(28,66,178)"/><path d="M-65.58805673963757,22.952951440941483L-63.24222522372831,23.985587937341712L-62.27056950025789,24.220106997579503z" style="fill:rgb(82,237,172)"/><path d="M-62.27056950025789,24.220106997579503L-61.132919281993196,28.81068084143001L-60.159987223674484,29.051932767848zM-62.27056950025789,24.220106997579503L-63.24222522372831,23.985587937341712L-61.132919281993196,28.81068084143001z" style="fill:rgb(32,65,184)"/><path d="M-65.58805673963757,22.952951440941483L-62.27056950025789,24.220106997579503L-61.20919490756284,24.397698689327026z" style="fill:rgb(82,237,172)"/><path d="M-59.097604925608685,29.23613401555034L-62.27056950025789,24.220106997579503L-60.159987223674484,29.051932767848z" style="fill:rgb(36,64,191)"/><path d="M-65.58805673963757,22.952951440941483L-61.20919490756284,24.397698689327026L-60.061766997443335,24.517441752150777zM-65.58805673963757,22.952951440941483L-60.061766997443335,24.517441752150777L-58.83233593198582,24.578638620524547z" style="fill:rgb(82,237,172)"/><path d="M-59.097604925608685,29.23613401555034L-61.20919490756284,24.397698689327026L-62.27056950025789,24.220106997579503z" style="fill:rgb(36,64,191)"/><path d="M-59.097604925608685,29.23613401555034L-57.949457666896734,29.362340518444594L-60.061766997443335,24.517441752150777z" style="fill:rgb(41,64,197)"/><path d="M-65.58805673963757,22.952951440941483L-58.83233593198582,24.578638620524547L-57.52531243638592,24.580816692166145z" style="fill:rgb(82,237,172)"/><path d="M-59.097604925608685,29.23613401555034L-60.061766997443335,24.517441752150777L-61.20919490756284,24.397698689327026z" style="fill:rgb(41,64,197)"/><path d="M-1.327562016587996,-3.690149032307681L-17.340021494785436,8.862211582510067L-15.30113567445993,13.75757286251151z" style="fill:rgb(217,127,217)"/><path d="M-65.58805673963757,22.952951440941483L-57.52531243638592,24.580816692166145L-56.14544959534233,24.52374871471816z" style="fill:rgb(82,237,172)"/><path d="M-58.83233593198582,24.578638620524547L-57.949457666896734,29.362340518444594L-56.71959498207865,29.429822742888707zM-58.83233593198582,24.578638620524547L-60.061766997443335,24.517441752150777L-57.949457666896734,29.362340518444594z" style="fill:rgb(46,63,202)"/><path d="M-65.58805673963757,22.952951440941483L-56.14544959534233,24.52374871471816L-54.69784281948837,24.407442882070395zM-65.58805673963757,22.952951440941483L-18.568267525286732,9.826041709940881L-17.340021494785436,8.862211582510067z" style="fill:rgb(82,237,172)"/><path d="M-58.83233593198582,24.578638620524547L-56.71959498207865,29.429822742888707L-55.412430625663575,29.43809306058095z" style="fill:rgb(52,63,208)"/><path d="M-65.58805673963757,22.952951440941483L-54.69784281948837,24.407442882070395L-53.18789976629438,24.232150951800364zM-65.58805673963757,22.952951440941483L-19.874767437917534,10.78758647771792L-18.568267525286732,9.826041709940881zM-65.58805673963757,22.952951440941483L-53.18789976629438,24.232150951800364L-51.62131898508933,23.99838129014872zM-65.58805673963757,22.952951440941483L-21.25464681158878,11.743084500549227L-19.874767437917534,10.78758647771792z" style="fill:rgb(82,237,172)"/><path d="M-58.83233593198582,24.578638620524547L-55.412430625663575,29.43809306058095L-57.52531243638592,24.580816692166145z" style="fill:rgb(52,63,208)"/><path d="M-57.52531243638592,24.580816692166145L-55.412430625663575,29.43809306058095L-54.03271929271457,29.386890901400506z" style="fill:rgb(57,64,213)"/><path d="M-65.58805673963757,22.952951440941483L-51.62131898508933,23.99838129014872L-50.00407702938803,23.70687755329066zM-65.58805673963757,22.952951440941483L-22.70270736311386,12.68877436127527L-21.25464681158878,11.743084500549227zM-65.58805673963757,22.952951440941483L-50.00407702938803,23.70687755329066L-48.34237755273963,23.35863379518116zM-65.58805673963757,22.952951440941483L-24.21342862802798,13.620920996010108L-22.70270736311386,12.68877436127527z" style="fill:rgb(82,237,172)"/><path d="M-57.52531243638592,24.580816692166145L-54.03271929271457,29.386890901400506L-56.14544959534233,24.52374871471816z" style="fill:rgb(57,64,213)"/><path d="M-65.58805673963757,22.952951440941483L-48.34237755273963,23.35863379518116L-46.64265431759138,22.954888272403014zM-65.58805673963757,22.952951440941483L-25.781005964354076,14.535825222846082L-24.21342862802798,13.620920996010108z" style="fill:rgb(82,237,172)"/><path d="M-54.69784281948837,24.407442882070395L-54.03271929271457,29.386890901400506L-52.585561568844646,29.276208435363436z" style="fill:rgb(63,64,218)"/><path d="M-16.52480981941751,14.724837715555845L-15.30113567445993,13.75757286251151L-17.340021494785436,8.862211582510067z" style="fill:rgb(215,125,219)"/><path d="M-65.58805673963757,22.952951440941483L-46.64265431759138,22.954888272403014L-44.91152922974299,22.49712594434637zM-65.58805673963757,22.952951440941483L-27.399369918274356,15.429846825696282L-25.781005964354076,14.535825222846082z" style="fill:rgb(82,237,172)"/><path d="M-54.69784281948837,24.407442882070395L-56.14544959534233,24.52374871471816L-54.03271929271457,29.386890901400506z" style="fill:rgb(63,64,218)"/><path d="M-65.58805673963757,22.952951440941483L-44.91152922974299,22.49712594434637L-43.155770270605984,21.98704689593737zM-65.58805673963757,22.952951440941483L-29.062219036219926,16.29942571230831L-27.399369918274356,15.429846825696282z" style="fill:rgb(82,237,172)"/><path d="M-54.69784281948837,24.407442882070395L-52.585561568844646,29.276208435363436L-51.07635449024967,29.10627267370076z" style="fill:rgb(70,65,222)"/><path d="M-65.58805673963757,22.952951440941483L-43.155770270605984,21.98704689593737L-41.382289648122786,21.426600515286736zM-65.58805673963757,22.952951440941483L-30.763032768935755,17.14108934762524L-29.062219036219926,16.29942571230831zM-65.58805673963757,22.952951440941483L-41.382289648122786,21.426600515286736L-39.598071959561956,20.817940777679052zM-65.58805673963757,22.952951440941483L-32.49512212109841,17.95148188622317L-30.763032768935755,17.14108934762524z" style="fill:rgb(82,237,172)"/><path d="M-16.52480981941751,14.724837715555845L-17.340021494785436,8.862211582510067L-18.568267525286732,9.826041709940881z" style="fill:rgb(215,125,219)"/><path d="M-17.82674495539881,15.689422312702286L-16.52480981941751,14.724837715555845L-18.568267525286732,9.826041709940881z" style="fill:rgb(210,121,224)"/><path d="M-65.58805673963757,22.952951440941483L-39.598071959561956,20.817940777679052L-37.81017628578953,20.163438665946646zM-65.58805673963757,22.952951440941483L-34.2516550989757,18.727369301702602L-32.49512212109841,17.95148188622317zM-65.58805673963757,22.952951440941483L-37.81017628578953,20.163438665946646L-36.02568062832495,19.465665254714896zM-65.58805673963757,22.952951440941483L-36.02568062832495,19.465665254714896L-34.2516550989757,18.727369301702602z" style="fill:rgb(82,237,172)"/><path d="M-54.69784281948837,24.407442882070395L-51.07635449024967,29.10627267370076L-53.18789976629438,24.232150951800364z" style="fill:rgb(70,65,222)"/><path d="M-53.18789976629438,24.232150951800364L-51.07635449024967,29.10627267370076L-49.51079906778273,28.87756812115996z" style="fill:rgb(76,66,226)"/><path d="M-17.82674495539881,15.689422312702286L-18.568267525286732,9.826041709940881L-19.874767437917534,10.78758647771792z" style="fill:rgb(210,121,224)"/><path d="M-17.82674495539881,15.689422312702286L-21.25464681158878,11.743084500549227L-19.202084643880163,16.64755927688168z" style="fill:rgb(204,117,228)"/><path d="M-53.18789976629438,24.232150951800364L-49.51079906778273,28.87756812115996L-51.62131898508933,23.99838129014872z" style="fill:rgb(76,66,226)"/><path d="M-17.82674495539881,15.689422312702286L-19.874767437917534,10.78758647771792L-21.25464681158878,11.743084500549227z" style="fill:rgb(204,117,228)"/><path d="M-50.00407702938803,23.70687755329066L-49.51079906778273,28.87756812115996L-47.89486817765639,28.590822779453255z" style="fill:rgb(83,67,230)"/><path d="M-20.645649901072968,17.59547403198127L-19.202084643880163,16.64755927688168L-21.25464681158878,11.743084500549227z" style="fill:rgb(199,114,232)"/><path d="M-50.00407702938803,23.70687755329066L-51.62131898508933,23.99838129014872L-49.51079906778273,28.87756812115996z" style="fill:rgb(83,67,230)"/><path d="M-46.23476047248734,28.24701140436468L-50.00407702938803,23.70687755329066L-47.89486817765639,28.590822779453255z" style="fill:rgb(89,68,234)"/><path d="M-20.645649901072968,17.59547403198127L-21.25464681158878,11.743084500549227L-22.70270736311386,12.68877436127527z" style="fill:rgb(199,114,232)"/><path d="M-20.645649901072968,17.59547403198127L-24.21342862802798,13.620920996010108L-22.151937348535,18.529421525976502z" style="fill:rgb(193,110,235)"/><path d="M-46.23476047248734,28.24701140436468L-48.34237755273963,23.35863379518116L-50.00407702938803,23.70687755329066z" style="fill:rgb(89,68,234)"/><path d="M-20.645649901072968,17.59547403198127L-22.70270736311386,12.68877436127527L-24.21342862802798,13.620920996010108z" style="fill:rgb(193,110,235)"/><path d="M-46.23476047248734,28.24701140436468L-44.53690341553562,27.847351667554967L-46.64265431759138,22.954888272403014z" style="fill:rgb(96,70,237)"/><path d="M-24.21342862802798,13.620920996010108L-23.71516090378331,19.445694094796146L-22.151937348535,18.529421525976502z" style="fill:rgb(187,106,238)"/><path d="M-46.23476047248734,28.24701140436468L-46.64265431759138,22.954888272403014L-48.34237755273963,23.35863379518116z" style="fill:rgb(96,70,237)"/><path d="M-44.53690341553562,27.847351667554967L-42.80790560529826,27.393304119856744L-44.91152922974299,22.49712594434637z" style="fill:rgb(103,71,239)"/><path d="M-25.3292690355677,20.340650875632928L-23.71516090378331,19.445694094796146L-25.781005964354076,14.535825222846082z" style="fill:rgb(180,103,240)"/><path d="M-24.21342862802798,13.620920996010108L-25.781005964354076,14.535825222846082L-23.71516090378331,19.445694094796146z" style="fill:rgb(187,106,238)"/><path d="M-41.05454317517878,26.886569308023812L-44.91152922974299,22.49712594434637L-42.80790560529826,27.393304119856744z" style="fill:rgb(110,73,242)"/><path d="M-44.53690341553562,27.847351667554967L-44.91152922974299,22.49712594434637L-46.64265431759138,22.954888272403014z" style="fill:rgb(103,71,239)"/><path d="M-29.062219036219926,16.29942571230831L-26.987978070327866,21.210722999448482L-25.3292690355677,20.340650875632928z" style="fill:rgb(174,99,242)"/><path d="M-25.3292690355677,20.340650875632928L-25.781005964354076,14.535825222846082L-27.399369918274356,15.429846825696282z" style="fill:rgb(180,103,240)"/><path d="M-41.382289648122786,21.426600515286736L-41.05454317517878,26.886569308023812L-39.283698915168905,26.32906921300589z" style="fill:rgb(118,76,243)"/><path d="M-29.062219036219926,16.29942571230831L-28.684784813047116,22.052436074623735L-26.987978070327866,21.210722999448482z" style="fill:rgb(167,96,244)"/><path d="M-41.382289648122786,21.426600515286736L-39.283698915168905,26.32906921300589L-37.50235675830533,25.722958060951083z" style="fill:rgb(125,78,245)"/><path d="M-41.05454317517878,26.886569308023812L-43.155770270605984,21.98704689593737L-44.91152922974299,22.49712594434637z" style="fill:rgb(110,73,242)"/><path d="M-29.062219036219926,16.29942571230831L-25.3292690355677,20.340650875632928L-27.399369918274356,15.429846825696282z" style="fill:rgb(174,99,242)"/><path d="M-28.684784813047116,22.052436074623735L-32.49512212109841,17.95148188622317L-30.413017186025428,22.862436593597383z" style="fill:rgb(160,92,245)"/><path d="M-41.382289648122786,21.426600515286736L-43.155770270605984,21.98704689593737L-41.05454317517878,26.886569308023812z" style="fill:rgb(118,76,243)"/><path d="M-37.50235675830533,25.722958060951083L-35.717561096522694,25.07058288180373L-37.81017628578953,20.163438665946646z" style="fill:rgb(132,81,246)"/><path d="M-34.2516550989757,18.727369301702602L-32.16585963918989,23.637484866800776L-30.413017186025428,22.862436593597383z" style="fill:rgb(153,89,246)"/><path d="M-37.81017628578953,20.163438665946646L-35.717561096522694,25.07058288180373L-33.9363760930309,24.374508867340726z" style="fill:rgb(139,83,246)"/><path d="M-34.2516550989757,18.727369301702602L-33.9363760930309,24.374508867340726L-32.16585963918989,23.637484866800776z" style="fill:rgb(146,86,246)"/><path d="M-29.062219036219926,16.29942571230831L-30.763032768935755,17.14108934762524L-28.684784813047116,22.052436074623735z" style="fill:rgb(167,96,244)"/><path d="M-41.382289648122786,21.426600515286736L-37.50235675830533,25.722958060951083L-39.598071959561956,20.817940777679052z" style="fill:rgb(125,78,245)"/><path d="M-28.684784813047116,22.052436074623735L-30.763032768935755,17.14108934762524L-32.49512212109841,17.95148188622317z" style="fill:rgb(160,92,245)"/><path d="M-37.50235675830533,25.722958060951083L-37.81017628578953,20.163438665946646L-39.598071959561956,20.817940777679052z" style="fill:rgb(132,81,246)"/><path d="M-34.2516550989757,18.727369301702602L-30.413017186025428,22.862436593597383L-32.49512212109841,17.95148188622317z" style="fill:rgb(153,89,246)"/><path d="M-37.81017628578953,20.163438665946646L-33.9363760930309,24.374508867340726L-36.02568062832495,19.465665254714896z" style="fill:rgb(139,83,246)"/><path d="M-34.2516550989757,18.727369301702602L-36.02568062832495,19.465665254714896L-33.9363760930309,24.374508867340726z" style="fill:rgb(146,86,246)"/></svg>