<?xml version="1.0" encoding="UTF-8"?>
<!-- Generated by jsxcad -->
<!DOCTYPE svg PUBLIC "-//W3C//DTD SVG 1.1 Tiny//EN" "http://www.w3.org/Graphics/SVG/1.1/DTD/svg11-tiny.dtd">
<svg baseProfile="tiny" height="2 mm" width="2 mm" viewBox="0 0 2 2" version="1.1" stroke="black" stroke-width=".1" fill="none" xmlns="http://www.w3.org/2000/svg">
<path d="M1.83147 1 L1.81549 0.80491 L1.69352 0.80491 z"/>
<path d="M1.83147 1 L1.69352 0.80491 L1.70711 1 z"/>
<path d="M1.92388 1 L1.90613 0.80491 L1.81549 0.80491 z"/>
<path d="M1.92388 1 L1.81549 0.80491 L1.83147 1 z"/>
<path d="M0.80866 0.80491 L0.80491 1 L1 1 z"/>
<path d="M0.80866 0.80491 L1 1 L1 0.80491 z"/>
<path d="M0.61732 1 L0.80491 1 L0.80866 0.80491 z"/>
<path d="M0.61732 1 L0.80866 0.80491 L0.62467 0.80491 z"/>
<path d="M0.4551 0.80491 L0.30648 0.80491 L0.29289 1 z"/>
<path d="M0.4551 0.80491 L0.29289 1 L0.44443 1 z"/>
<path d="M0.4551 0.80491 L0.44443 1 L0.61732 1 z"/>
<path d="M0.4551 0.80491 L0.61732 1 L0.62467 0.80491 z"/>
<path d="M1 1.19509 L1 1 L0.80491 1 z"/>
<path d="M1 1.19509 L0.80491 1 L0.80866 1.19509 z"/>
<path d="M1.19134 0.80491 L1 0.80491 L1 1 z"/>
<path d="M1.19134 0.80491 L1 1 L1.19509 1 z"/>
<path d="M1.5449 0.80491 L1.55557 1 L1.70711 1 z"/>
<path d="M1.5449 0.80491 L1.70711 1 L1.69352 0.80491 z"/>
<path d="M1.96194 0.80491 L1.90613 0.80491 L1.92388 1 z"/>
<path d="M1.96194 0.80491 L1.92388 1 L1.98079 1 z"/>
<path d="M1.96194 0.80491 L1.98079 1 L2 1 z"/>
<path d="M1.96194 0.80491 L2 1 L1.98079 0.80491 z"/>
<path d="M1 0.61732 L1 0.80491 L1.19134 0.80491 z"/>
<path d="M1 0.61732 L1.19134 0.80491 L1.18024 0.61732 z"/>
<path d="M0.62467 1.19509 L0.80866 1.19509 L0.80491 1 z"/>
<path d="M0.62467 1.19509 L0.80491 1 L0.61732 1 z"/>
<path d="M0.62467 1.19509 L0.61732 1 L0.44443 1 z"/>
<path d="M0.62467 1.19509 L0.44443 1 L0.4551 1.19509 z"/>
<path d="M0.30866 0.44443 L0.23182 0.61732 L0.34672 0.61732 z"/>
<path d="M0.30866 0.44443 L0.34672 0.61732 L0.41206 0.44443 z"/>
<path d="M0.5 0.29289 L0.41206 0.29289 L0.30866 0.44443 z"/>
<path d="M0.5 0.29289 L0.30866 0.44443 L0.41206 0.44443 z"/>
<path d="M0.03806 0.80491 L0.01921 1 L0.07612 1 z"/>
<path d="M0.03806 0.80491 L0.07612 1 L0.09387 0.80491 z"/>
<path d="M1.16221 0.44443 L1.18024 0.61732 L1.35355 0.61732 z"/>
<path d="M1.16221 0.44443 L1.35355 0.61732 L1.31819 0.44443 z"/>
<path d="M1.19509 1 L1.19134 1.19509 L1 1.19509 z"/>
<path d="M1.19509 1 L1 1.19509 L1 1 z"/>
<path d="M1.19509 1 L1 1 L1 0.80491 z"/>
<path d="M1.19509 1 L1 0.80491 L1.19134 0.80491 z"/>
<path d="M0.5 1.70711 L0.41206 1.70711 L0.30866 1.55557 z"/>
<path d="M0.5 1.70711 L0.30866 1.55557 L0.41206 1.55557 z"/>
<path d="M0.80866 1.19509 L0.80491 1 L1 1 z"/>
<path d="M0.80866 1.19509 L1 1 L1 1.19509 z"/>
<path d="M0.4551 0.80491 L0.48672 0.61732 L0.64645 0.61732 z"/>
<path d="M0.4551 0.80491 L0.64645 0.61732 L0.62467 0.80491 z"/>
<path d="M1.37533 0.80491 L1.38268 1 L1.19509 1 z"/>
<path d="M1.37533 0.80491 L1.19509 1 L1.19134 0.80491 z"/>
<path d="M0.16853 1 L0.07612 1 L0.09387 1.19509 z"/>
<path d="M0.16853 1 L0.09387 1.19509 L0.18451 1.19509 z"/>
<path d="M0.30648 1.19509 L0.4551 1.19509 L0.44443 1 z"/>
<path d="M0.30648 1.19509 L0.44443 1 L0.29289 1 z"/>
<path d="M0.30648 1.19509 L0.29289 1 L0.16853 1 z"/>
<path d="M0.30648 1.19509 L0.16853 1 L0.18451 1.19509 z"/>
<path d="M0.30648 1.19509 L0.34672 1.38268 L0.48672 1.38268 z"/>
<path d="M0.30648 1.19509 L0.48672 1.38268 L0.4551 1.19509 z"/>
<path d="M0.23182 1.38268 L0.34672 1.38268 L0.30648 1.19509 z"/>
<path d="M0.23182 1.38268 L0.30648 1.19509 L0.18451 1.19509 z"/>
<path d="M0.23182 1.38268 L0.18451 1.19509 L0.09387 1.19509 z"/>
<path d="M0.23182 1.38268 L0.09387 1.19509 L0.14645 1.38268 z"/>
<path d="M0.23182 1.38268 L0.30866 1.55557 L0.41206 1.55557 z"/>
<path d="M0.23182 1.38268 L0.41206 1.55557 L0.34672 1.38268 z"/>
<path d="M1.37533 0.80491 L1.19134 0.80491 L1.19509 1 z"/>
<path d="M1.37533 0.80491 L1.19509 1 L1.38268 1 z"/>
<path d="M1.37533 0.80491 L1.38268 1 L1.55557 1 z"/>
<path d="M1.37533 0.80491 L1.55557 1 L1.5449 0.80491 z"/>
<path d="M1.37533 0.80491 L1.35355 0.61732 L1.18024 0.61732 z"/>
<path d="M1.37533 0.80491 L1.18024 0.61732 L1.19134 0.80491 z"/>
<path d="M1.51328 0.61732 L1.35355 0.61732 L1.37533 0.80491 z"/>
<path d="M1.51328 0.61732 L1.37533 0.80491 L1.5449 0.80491 z"/>
<path d="M1.51328 0.61732 L1.5449 0.80491 L1.69352 0.80491 z"/>
<path d="M1.51328 0.61732 L1.69352 0.80491 L1.65328 0.61732 z"/>
<path d="M1.51328 0.61732 L1.65328 0.61732 L1.58794 0.44443 z"/>
<path d="M1.51328 0.61732 L1.58794 0.44443 L1.46194 0.44443 z"/>
<path d="M1.51328 0.61732 L1.46194 0.44443 L1.31819 0.44443 z"/>
<path d="M1.51328 0.61732 L1.31819 0.44443 L1.35355 0.61732 z"/>
<path d="M1.85355 0.61732 L1.90613 0.80491 L1.96194 0.80491 z"/>
<path d="M1.85355 0.61732 L1.96194 0.80491 L1.90613 0.61732 z"/>
<path d="M1.81549 0.44443 L1.76818 0.44443 L1.85355 0.61732 z"/>
<path d="M1.81549 0.44443 L1.85355 0.61732 L1.90613 0.61732 z"/>
<path d="M1.92388 0.61732 L1.83147 0.44443 L1.81549 0.44443 z"/>
<path d="M1.92388 0.61732 L1.81549 0.44443 L1.90613 0.61732 z"/>
<path d="M1.92388 0.61732 L1.90613 0.61732 L1.96194 0.80491 z"/>
<path d="M1.92388 0.61732 L1.96194 0.80491 L1.98079 0.80491 z"/>
<path d="M1.5 0.29289 L1.39285 0.29289 L1.46194 0.44443 z"/>
<path d="M1.5 0.29289 L1.46194 0.44443 L1.58794 0.44443 z"/>
<path d="M1.69134 0.44443 L1.76818 0.44443 L1.65328 0.29289 z"/>
<path d="M1.69134 0.44443 L1.65328 0.29289 L1.58794 0.29289 z"/>
<path d="M1.69134 0.44443 L1.58794 0.29289 L1.5 0.29289 z"/>
<path d="M1.69134 0.44443 L1.5 0.29289 L1.58794 0.44443 z"/>
<path d="M1.98079 1.19509 L1.96194 1.19509 L1.98079 1 z"/>
<path d="M1.98079 1.19509 L1.98079 1 L2 1 z"/>
<path d="M1.98079 1.19509 L2 1 L1.98079 1 z"/>
<path d="M1.98079 1.19509 L1.98079 1 L1.96194 1.19509 z"/>
<path d="M1.90613 1.38268 L1.85355 1.38268 L1.90613 1.19509 z"/>
<path d="M1.90613 1.38268 L1.90613 1.19509 L1.96194 1.19509 z"/>
<path d="M1.90613 1.38268 L1.96194 1.19509 L1.98079 1.19509 z"/>
<path d="M1.90613 1.38268 L1.98079 1.19509 L1.92388 1.38268 z"/>
<path d="M0.64645 1.38268 L0.62467 1.19509 L0.4551 1.19509 z"/>
<path d="M0.64645 1.38268 L0.4551 1.19509 L0.48672 1.38268 z"/>
<path d="M0.18451 0.80491 L0.30648 0.80491 L0.34672 0.61732 z"/>
<path d="M0.18451 0.80491 L0.34672 0.61732 L0.23182 0.61732 z"/>
<path d="M0.18451 0.80491 L0.09387 0.80491 L0.07612 1 z"/>
<path d="M0.18451 0.80491 L0.07612 1 L0.16853 1 z"/>
<path d="M0.18451 0.80491 L0.16853 1 L0.29289 1 z"/>
<path d="M0.18451 0.80491 L0.29289 1 L0.30648 0.80491 z"/>
<path d="M0.14645 0.61732 L0.09387 0.61732 L0.03806 0.80491 z"/>
<path d="M0.14645 0.61732 L0.03806 0.80491 L0.09387 0.80491 z"/>
<path d="M0.14645 0.61732 L0.09387 0.80491 L0.18451 0.80491 z"/>
<path d="M0.14645 0.61732 L0.18451 0.80491 L0.23182 0.61732 z"/>
<path d="M0.14645 0.61732 L0.23182 0.61732 L0.30866 0.44443 z"/>
<path d="M0.14645 0.61732 L0.30866 0.44443 L0.23182 0.44443 z"/>
<path d="M0.81976 0.61732 L0.64645 0.61732 L0.62467 0.80491 z"/>
<path d="M0.81976 0.61732 L0.62467 0.80491 L0.80866 0.80491 z"/>
<path d="M0.81976 0.61732 L0.80866 0.80491 L1 0.80491 z"/>
<path d="M0.81976 0.61732 L1 0.80491 L1 0.61732 z"/>
<path d="M0.68181 0.44443 L0.64645 0.61732 L0.81976 0.61732 z"/>
<path d="M0.68181 0.44443 L0.81976 0.61732 L0.83779 0.44443 z"/>
<path d="M0.68181 0.44443 L0.83779 0.44443 L0.86205 0.29289 z"/>
<path d="M0.68181 0.44443 L0.86205 0.29289 L0.7294 0.29289 z"/>
<path d="M0.89161 0.16853 L0.78739 0.16853 L0.7294 0.29289 z"/>
<path d="M0.89161 0.16853 L0.7294 0.29289 L0.86205 0.29289 z"/>
<path d="M1.37533 1.19509 L1.5449 1.19509 L1.55557 1 z"/>
<path d="M1.37533 1.19509 L1.55557 1 L1.38268 1 z"/>
<path d="M1.13795 0.01921 L1 0 L1.10839 0.01921 z"/>
<path d="M1.13795 0.01921 L1.2706 0.07612 L1.31819 0.07612 z"/>
<path d="M1.13795 0.01921 L1.31819 0.07612 L1.16221 0.01921 z"/>
<path d="M1.13795 0.01921 L1.16221 0.01921 L1 0 z"/>
<path d="M1.10839 0.16853 L1.21261 0.16853 L1.14645 0.07612 z"/>
<path d="M1.10839 0.16853 L1.14645 0.07612 L1.07466 0.07612 z"/>
<path d="M1.2706 0.29289 L1.39285 0.29289 L1.30866 0.16853 z"/>
<path d="M1.2706 0.29289 L1.30866 0.16853 L1.21261 0.16853 z"/>
<path d="M1.2706 0.29289 L1.21261 0.16853 L1.10839 0.16853 z"/>
<path d="M1.2706 0.29289 L1.10839 0.16853 L1.13795 0.29289 z"/>
<path d="M1.2706 0.29289 L1.13795 0.29289 L1.16221 0.44443 z"/>
<path d="M1.2706 0.29289 L1.16221 0.44443 L1.31819 0.44443 z"/>
<path d="M1.2706 0.29289 L1.31819 0.44443 L1.46194 0.44443 z"/>
<path d="M1.2706 0.29289 L1.46194 0.44443 L1.39285 0.29289 z"/>
<path d="M0.01921 0.80491 L0.03806 0.80491 L0.09387 0.61732 z"/>
<path d="M0.01921 0.80491 L0.09387 0.61732 L0.07612 0.61732 z"/>
<path d="M0.01921 0.80491 L0 1 L0.01921 1 z"/>
<path d="M0.01921 0.80491 L0.01921 1 L0.03806 0.80491 z"/>
<path d="M0.09387 0.61732 L0.14645 0.61732 L0.09387 0.80491 z"/>
<path d="M0.09387 0.61732 L0.09387 0.80491 L0.03806 0.80491 z"/>
<path d="M0.09387 0.61732 L0.03806 0.80491 L0.01921 0.80491 z"/>
<path d="M0.09387 0.61732 L0.01921 0.80491 L0.07612 0.61732 z"/>
<path d="M1 0.44443 L0.83779 0.44443 L0.81976 0.61732 z"/>
<path d="M1 0.44443 L0.81976 0.61732 L1 0.61732 z"/>
<path d="M1 0.44443 L1 0.61732 L1.18024 0.61732 z"/>
<path d="M1 0.44443 L1.18024 0.61732 L1.16221 0.44443 z"/>
<path d="M0.01921 1 L0 1 L0.01921 0.80491 z"/>
<path d="M0.01921 1 L0.01921 0.80491 L0.03806 0.80491 z"/>
<path d="M0.23182 1.55557 L0.14645 1.38268 L0.23182 1.38268 z"/>
<path d="M0.23182 1.55557 L0.23182 1.38268 L0.30866 1.55557 z"/>
<path d="M1.37533 1.19509 L1.19134 1.19509 L1.19509 1 z"/>
<path d="M1.37533 1.19509 L1.19509 1 L1.38268 1 z"/>
<path d="M1.37533 1.19509 L1.38268 1 L1.55557 1 z"/>
<path d="M1.37533 1.19509 L1.55557 1 L1.5449 1.19509 z"/>
<path d="M1 1.38268 L1 1.19509 L1.19134 1.19509 z"/>
<path d="M1 1.38268 L1.19134 1.19509 L1.18024 1.38268 z"/>
<path d="M1 1.38268 L1.18024 1.38268 L1.16221 1.55557 z"/>
<path d="M1 1.38268 L1.16221 1.55557 L1 1.55557 z"/>
<path d="M1.21261 1.92388 L1.30866 1.83147 L1.39285 1.83147 z"/>
<path d="M1.21261 1.92388 L1.39285 1.83147 L1.2706 1.92388 z"/>
<path d="M0.53806 1.83147 L0.60715 1.83147 L0.7294 1.92388 z"/>
<path d="M0.53806 1.83147 L0.7294 1.92388 L0.68181 1.92388 z"/>
<path d="M0.53806 1.83147 L0.41206 1.70711 L0.5 1.70711 z"/>
<path d="M0.53806 1.83147 L0.5 1.70711 L0.60715 1.83147 z"/>
<path d="M0.60715 1.70711 L0.5 1.70711 L0.41206 1.55557 z"/>
<path d="M0.60715 1.70711 L0.41206 1.55557 L0.53806 1.55557 z"/>
<path d="M0.60715 1.70711 L0.53806 1.55557 L0.68181 1.55557 z"/>
<path d="M0.60715 1.70711 L0.68181 1.55557 L0.7294 1.70711 z"/>
<path d="M0.86205 1.70711 L0.89161 1.83147 L0.78739 1.83147 z"/>
<path d="M0.86205 1.70711 L0.78739 1.83147 L0.7294 1.70711 z"/>
<path d="M1 1.83147 L0.89161 1.83147 L0.86205 1.70711 z"/>
<path d="M1 1.83147 L0.86205 1.70711 L1 1.70711 z"/>
<path d="M1.13795 1.70711 L1 1.70711 L1 1.55557 z"/>
<path d="M1.13795 1.70711 L1 1.55557 L1.16221 1.55557 z"/>
<path d="M0.18451 0.80491 L0.09387 0.80491 L0.14645 0.61732 z"/>
<path d="M0.18451 0.80491 L0.14645 0.61732 L0.23182 0.61732 z"/>
<path d="M0.34672 0.61732 L0.48672 0.61732 L0.4551 0.80491 z"/>
<path d="M0.34672 0.61732 L0.4551 0.80491 L0.30648 0.80491 z"/>
<path d="M0.34672 0.61732 L0.30648 0.80491 L0.18451 0.80491 z"/>
<path d="M0.34672 0.61732 L0.18451 0.80491 L0.23182 0.61732 z"/>
<path d="M0.34672 0.61732 L0.41206 0.44443 L0.53806 0.44443 z"/>
<path d="M0.34672 0.61732 L0.53806 0.44443 L0.48672 0.61732 z"/>
<path d="M1.39285 0.16853 L1.30866 0.16853 L1.39285 0.29289 z"/>
<path d="M1.39285 0.16853 L1.39285 0.29289 L1.5 0.29289 z"/>
<path d="M1.5 0.29289 L1.58794 0.29289 L1.69134 0.44443 z"/>
<path d="M1.5 0.29289 L1.69134 0.44443 L1.58794 0.44443 z"/>
<path d="M0.80866 0.80491 L1 0.80491 L1 1 z"/>
<path d="M0.80866 0.80491 L1 1 L0.80491 1 z"/>
<path d="M0.86205 0.29289 L1 0.29289 L1 0.44443 z"/>
<path d="M0.86205 0.29289 L1 0.44443 L0.83779 0.44443 z"/>
<path d="M0.29289 1 L0.30648 0.80491 L0.4551 0.80491 z"/>
<path d="M0.29289 1 L0.4551 0.80491 L0.44443 1 z"/>
<path d="M0.29289 1 L0.16853 1 L0.18451 0.80491 z"/>
<path d="M0.29289 1 L0.18451 0.80491 L0.30648 0.80491 z"/>
<path d="M0.4551 1.19509 L0.30648 1.19509 L0.29289 1 z"/>
<path d="M0.4551 1.19509 L0.29289 1 L0.44443 1 z"/>
<path d="M0.61732 1 L0.62467 1.19509 L0.4551 1.19509 z"/>
<path d="M0.61732 1 L0.4551 1.19509 L0.44443 1 z"/>
<path d="M0.61732 1 L0.44443 1 L0.4551 0.80491 z"/>
<path d="M0.61732 1 L0.4551 0.80491 L0.62467 0.80491 z"/>
<path d="M0.61732 1 L0.62467 0.80491 L0.80866 0.80491 z"/>
<path d="M0.61732 1 L0.80866 0.80491 L0.80491 1 z"/>
<path d="M0.61732 1 L0.80491 1 L0.80866 1.19509 z"/>
<path d="M0.61732 1 L0.80866 1.19509 L0.62467 1.19509 z"/>
<path d="M0.64645 1.38268 L0.68181 1.55557 L0.53806 1.55557 z"/>
<path d="M0.64645 1.38268 L0.53806 1.55557 L0.48672 1.38268 z"/>
<path d="M0.64645 1.38268 L0.48672 1.38268 L0.4551 1.19509 z"/>
<path d="M0.64645 1.38268 L0.4551 1.19509 L0.62467 1.19509 z"/>
<path d="M0.68181 0.44443 L0.64645 0.61732 L0.48672 0.61732 z"/>
<path d="M0.68181 0.44443 L0.48672 0.61732 L0.53806 0.44443 z"/>
<path d="M0.68181 0.44443 L0.7294 0.29289 L0.86205 0.29289 z"/>
<path d="M0.68181 0.44443 L0.86205 0.29289 L0.83779 0.44443 z"/>
<path d="M1.18024 0.61732 L1.35355 0.61732 L1.37533 0.80491 z"/>
<path d="M1.18024 0.61732 L1.37533 0.80491 L1.19134 0.80491 z"/>
<path d="M1.18024 0.61732 L1.19134 0.80491 L1 0.80491 z"/>
<path d="M1.18024 0.61732 L1 0.80491 L1 0.61732 z"/>
<path d="M1.46194 0.44443 L1.51328 0.61732 L1.35355 0.61732 z"/>
<path d="M1.46194 0.44443 L1.35355 0.61732 L1.31819 0.44443 z"/>
<path d="M1.46194 0.44443 L1.31819 0.44443 L1.2706 0.29289 z"/>
<path d="M1.46194 0.44443 L1.2706 0.29289 L1.39285 0.29289 z"/>
<path d="M1.46194 0.44443 L1.39285 0.29289 L1.5 0.29289 z"/>
<path d="M1.46194 0.44443 L1.5 0.29289 L1.58794 0.44443 z"/>
<path d="M1.18024 0.01921 L1.16221 0.01921 L1.31819 0.07612 z"/>
<path d="M1.18024 0.01921 L1.31819 0.07612 L1.35355 0.07612 z"/>
<path d="M1.18024 0.01921 L1 0 L1.16221 0.01921 z"/>
<path d="M1.18024 0.01921 L1.16221 0.01921 L1 0 z"/>
<path d="M1.30866 0.16853 L1.21261 0.16853 L1.14645 0.07612 z"/>
<path d="M1.30866 0.16853 L1.14645 0.07612 L1.21261 0.07612 z"/>
<path d="M1.30866 0.16853 L1.39285 0.16853 L1.5 0.29289 z"/>
<path d="M1.30866 0.16853 L1.5 0.29289 L1.39285 0.29289 z"/>
<path d="M1.30866 0.16853 L1.39285 0.29289 L1.2706 0.29289 z"/>
<path d="M1.30866 0.16853 L1.2706 0.29289 L1.21261 0.16853 z"/>
<path d="M1.31819 0.07612 L1.16221 0.01921 L1.18024 0.01921 z"/>
<path d="M1.31819 0.07612 L1.18024 0.01921 L1.35355 0.07612 z"/>
<path d="M0.4551 0.16853 L0.62467 0.07612 L0.64645 0.07612 z"/>
<path d="M0.4551 0.16853 L0.64645 0.07612 L0.48672 0.16853 z"/>
<path d="M0.30866 0.44443 L0.41206 0.44443 L0.34672 0.61732 z"/>
<path d="M0.30866 0.44443 L0.34672 0.61732 L0.23182 0.61732 z"/>
<path d="M0.5 0.29289 L0.41206 0.44443 L0.30866 0.44443 z"/>
<path d="M0.5 0.29289 L0.30866 0.44443 L0.41206 0.29289 z"/>
<path d="M0.53806 0.16853 L0.48672 0.16853 L0.64645 0.07612 z"/>
<path d="M0.53806 0.16853 L0.64645 0.07612 L0.68181 0.07612 z"/>
<path d="M0.53806 0.16853 L0.68181 0.07612 L0.7294 0.07612 z"/>
<path d="M0.53806 0.16853 L0.7294 0.07612 L0.60715 0.16853 z"/>
<path d="M0.53806 0.16853 L0.60715 0.16853 L0.5 0.29289 z"/>
<path d="M0.53806 0.16853 L0.5 0.29289 L0.41206 0.29289 z"/>
<path d="M0.53806 0.16853 L0.41206 0.29289 L0.34672 0.29289 z"/>
<path d="M0.53806 0.16853 L0.34672 0.29289 L0.48672 0.16853 z"/>
<path d="M1.69352 0.29289 L1.65328 0.29289 L1.76818 0.44443 z"/>
<path d="M1.69352 0.29289 L1.76818 0.44443 L1.81549 0.44443 z"/>
<path d="M1.76818 0.44443 L1.69134 0.44443 L1.58794 0.29289 z"/>
<path d="M1.76818 0.44443 L1.58794 0.29289 L1.65328 0.29289 z"/>
<path d="M1.96194 0.80491 L1.98079 0.80491 L2 1 z"/>
<path d="M1.96194 0.80491 L2 1 L1.98079 1 z"/>
<path d="M1.76818 0.61732 L1.85355 0.61732 L1.76818 0.44443 z"/>
<path d="M1.76818 0.61732 L1.76818 0.44443 L1.69134 0.44443 z"/>
<path d="M1.76818 0.61732 L1.69134 0.44443 L1.58794 0.44443 z"/>
<path d="M1.76818 0.61732 L1.58794 0.44443 L1.65328 0.61732 z"/>
<path d="M1.76818 0.61732 L1.65328 0.61732 L1.69352 0.80491 z"/>
<path d="M1.76818 0.61732 L1.69352 0.80491 L1.81549 0.80491 z"/>
<path d="M1.76818 0.61732 L1.81549 0.80491 L1.90613 0.80491 z"/>
<path d="M1.76818 0.61732 L1.90613 0.80491 L1.85355 0.61732 z"/>
<path d="M1.92388 1 L1.98079 1 L1.96194 1.19509 z"/>
<path d="M1.92388 1 L1.96194 1.19509 L1.90613 1.19509 z"/>
<path d="M1.69352 1.19509 L1.5449 1.19509 L1.55557 1 z"/>
<path d="M1.69352 1.19509 L1.55557 1 L1.70711 1 z"/>
<path d="M1.5 1.70711 L1.39285 1.83147 L1.30866 1.83147 z"/>
<path d="M1.5 1.70711 L1.30866 1.83147 L1.39285 1.70711 z"/>
<path d="M1.5 1.70711 L1.39285 1.70711 L1.46194 1.55557 z"/>
<path d="M1.5 1.70711 L1.46194 1.55557 L1.58794 1.55557 z"/>
<path d="M1.76818 1.38268 L1.69134 1.55557 L1.58794 1.55557 z"/>
<path d="M1.76818 1.38268 L1.58794 1.55557 L1.65328 1.38268 z"/>
<path d="M1.76818 1.38268 L1.65328 1.38268 L1.69352 1.19509 z"/>
<path d="M1.76818 1.38268 L1.69352 1.19509 L1.81549 1.19509 z"/>
<path d="M1.76818 1.38268 L1.81549 1.19509 L1.90613 1.19509 z"/>
<path d="M1.76818 1.38268 L1.90613 1.19509 L1.85355 1.38268 z"/>
<path d="M1.76818 1.55557 L1.69134 1.55557 L1.76818 1.38268 z"/>
<path d="M1.76818 1.55557 L1.76818 1.38268 L1.85355 1.38268 z"/>
<path d="M1.69352 1.19509 L1.81549 1.19509 L1.83147 1 z"/>
<path d="M1.69352 1.19509 L1.83147 1 L1.70711 1 z"/>
<path d="M1.69352 1.19509 L1.70711 1 L1.55557 1 z"/>
<path d="M1.69352 1.19509 L1.55557 1 L1.5449 1.19509 z"/>
<path d="M1.90613 1.19509 L1.96194 1.19509 L1.98079 1 z"/>
<path d="M1.90613 1.19509 L1.98079 1 L1.92388 1 z"/>
<path d="M1.90613 1.19509 L1.92388 1 L1.83147 1 z"/>
<path d="M1.90613 1.19509 L1.83147 1 L1.81549 1.19509 z"/>
<path d="M0.48672 0.61732 L0.34672 0.61732 L0.30648 0.80491 z"/>
<path d="M0.48672 0.61732 L0.30648 0.80491 L0.4551 0.80491 z"/>
<path d="M0.48672 0.61732 L0.4551 0.80491 L0.62467 0.80491 z"/>
<path d="M0.48672 0.61732 L0.62467 0.80491 L0.64645 0.61732 z"/>
<path d="M1.19134 1.19509 L1.37533 1.19509 L1.38268 1 z"/>
<path d="M1.19134 1.19509 L1.38268 1 L1.19509 1 z"/>
<path d="M1.19134 1.19509 L1.19509 1 L1 1 z"/>
<path d="M1.19134 1.19509 L1 1 L1 1.19509 z"/>
<path d="M1.76818 1.38268 L1.85355 1.38268 L1.90613 1.19509 z"/>
<path d="M1.76818 1.38268 L1.90613 1.19509 L1.81549 1.19509 z"/>
<path d="M1.76818 1.38268 L1.81549 1.19509 L1.69352 1.19509 z"/>
<path d="M1.76818 1.38268 L1.69352 1.19509 L1.65328 1.38268 z"/>
<path d="M1.76818 1.38268 L1.69134 1.55557 L1.76818 1.55557 z"/>
<path d="M1.76818 1.38268 L1.76818 1.55557 L1.85355 1.38268 z"/>
<path d="M0.81976 1.38268 L0.64645 1.38268 L0.68181 1.55557 z"/>
<path d="M0.81976 1.38268 L0.68181 1.55557 L0.83779 1.55557 z"/>
<path d="M0.81976 1.38268 L1 1.38268 L1 1.19509 z"/>
<path d="M0.81976 1.38268 L1 1.19509 L0.80866 1.19509 z"/>
<path d="M0.81976 1.38268 L0.80866 1.19509 L0.62467 1.19509 z"/>
<path d="M0.81976 1.38268 L0.62467 1.19509 L0.64645 1.38268 z"/>
<path d="M1.18024 1.38268 L1.35355 1.38268 L1.37533 1.19509 z"/>
<path d="M1.18024 1.38268 L1.37533 1.19509 L1.19134 1.19509 z"/>
<path d="M1.18024 1.38268 L1.19134 1.19509 L1 1.19509 z"/>
<path d="M1.18024 1.38268 L1 1.19509 L1 1.38268 z"/>
<path d="M1 1.55557 L1.16221 1.55557 L1.18024 1.38268 z"/>
<path d="M1 1.55557 L1.18024 1.38268 L1 1.38268 z"/>
<path d="M1 1.55557 L1 1.38268 L0.81976 1.38268 z"/>
<path d="M1 1.55557 L0.81976 1.38268 L0.83779 1.55557 z"/>
<path d="M0.60715 0.16853 L0.7294 0.07612 L0.68181 0.07612 z"/>
<path d="M0.60715 0.16853 L0.68181 0.07612 L0.53806 0.16853 z"/>
<path d="M0.60715 0.16853 L0.53806 0.16853 L0.41206 0.29289 z"/>
<path d="M0.60715 0.16853 L0.41206 0.29289 L0.5 0.29289 z"/>
<path d="M0.34672 0.29289 L0.23182 0.44443 L0.30866 0.44443 z"/>
<path d="M0.34672 0.29289 L0.30866 0.44443 L0.41206 0.29289 z"/>
<path d="M0.18451 0.44443 L0.23182 0.44443 L0.34672 0.29289 z"/>
<path d="M0.18451 0.44443 L0.34672 0.29289 L0.30648 0.29289 z"/>
<path d="M0.18451 0.44443 L0.16853 0.44443 L0.07612 0.61732 z"/>
<path d="M0.18451 0.44443 L0.07612 0.61732 L0.09387 0.61732 z"/>
<path d="M0.18451 0.44443 L0.09387 0.61732 L0.14645 0.61732 z"/>
<path d="M0.18451 0.44443 L0.14645 0.61732 L0.23182 0.44443 z"/>
<path d="M0.92534 0.01921 L0.96194 0.01921 L1 0 z"/>
<path d="M0.92534 0.07612 L0.96194 0.01921 L0.92534 0.01921 z"/>
<path d="M0.92534 0.07612 L0.92534 0.01921 L0.85355 0.07612 z"/>
<path d="M0.92534 0.07612 L0.85355 0.07612 L0.78739 0.16853 z"/>
<path d="M0.92534 0.07612 L0.78739 0.16853 L0.89161 0.16853 z"/>
<path d="M1.21261 0.07612 L1.14645 0.07612 L1.21261 0.16853 z"/>
<path d="M1.21261 0.07612 L1.21261 0.16853 L1.30866 0.16853 z"/>
<path d="M1.21261 0.07612 L1.30866 0.16853 L1.39285 0.16853 z"/>
<path d="M1.21261 0.07612 L1.39285 0.16853 L1.2706 0.07612 z"/>
<path d="M1.21261 0.07612 L1.2706 0.07612 L1.13795 0.01921 z"/>
<path d="M1.21261 0.07612 L1.13795 0.01921 L1.10839 0.01921 z"/>
<path d="M0.53806 0.44443 L0.68181 0.44443 L0.7294 0.29289 z"/>
<path d="M0.53806 0.44443 L0.7294 0.29289 L0.60715 0.29289 z"/>
<path d="M0.53806 0.44443 L0.60715 0.29289 L0.5 0.29289 z"/>
<path d="M0.53806 0.44443 L0.5 0.29289 L0.41206 0.44443 z"/>
<path d="M0.53806 0.44443 L0.41206 0.44443 L0.34672 0.61732 z"/>
<path d="M0.53806 0.44443 L0.34672 0.61732 L0.48672 0.61732 z"/>
<path d="M0.53806 0.44443 L0.48672 0.61732 L0.64645 0.61732 z"/>
<path d="M0.53806 0.44443 L0.64645 0.61732 L0.68181 0.44443 z"/>
<path d="M0.18451 0.44443 L0.09387 0.61732 L0.07612 0.61732 z"/>
<path d="M0.18451 0.44443 L0.07612 0.61732 L0.16853 0.44443 z"/>
<path d="M1 0.29289 L0.86205 0.29289 L0.83779 0.44443 z"/>
<path d="M1 0.29289 L0.83779 0.44443 L1 0.44443 z"/>
<path d="M1 0.29289 L1 0.44443 L1.16221 0.44443 z"/>
<path d="M1 0.29289 L1.16221 0.44443 L1.13795 0.29289 z"/>
<path d="M1 0.29289 L1.13795 0.29289 L1.10839 0.16853 z"/>
<path d="M1 0.29289 L1.10839 0.16853 L1 0.16853 z"/>
<path d="M1 0.29289 L1 0.16853 L0.89161 0.16853 z"/>
<path d="M1 0.29289 L0.89161 0.16853 L0.86205 0.29289 z"/>
<path d="M0.07612 1 L0.09387 1.19509 L0.03806 1.19509 z"/>
<path d="M0.07612 1 L0.03806 1.19509 L0.01921 1 z"/>
<path d="M0.07612 1 L0.01921 1 L0.03806 0.80491 z"/>
<path d="M0.07612 1 L0.03806 0.80491 L0.09387 0.80491 z"/>
<path d="M0.07612 1 L0.09387 0.80491 L0.18451 0.80491 z"/>
<path d="M0.07612 1 L0.18451 0.80491 L0.16853 1 z"/>
<path d="M0.18451 1.19509 L0.23182 1.38268 L0.14645 1.38268 z"/>
<path d="M0.18451 1.19509 L0.14645 1.38268 L0.09387 1.19509 z"/>
<path d="M0.18451 1.19509 L0.09387 1.19509 L0.07612 1 z"/>
<path d="M0.18451 1.19509 L0.07612 1 L0.16853 1 z"/>
<path d="M0.18451 1.19509 L0.16853 1 L0.29289 1 z"/>
<path d="M0.18451 1.19509 L0.29289 1 L0.30648 1.19509 z"/>
<path d="M0.34672 1.38268 L0.48672 1.38268 L0.53806 1.55557 z"/>
<path d="M0.34672 1.38268 L0.53806 1.55557 L0.41206 1.55557 z"/>
<path d="M0.34672 1.38268 L0.41206 1.55557 L0.30866 1.55557 z"/>
<path d="M0.34672 1.38268 L0.30866 1.55557 L0.23182 1.38268 z"/>
<path d="M0.34672 1.38268 L0.23182 1.38268 L0.18451 1.19509 z"/>
<path d="M0.34672 1.38268 L0.18451 1.19509 L0.30648 1.19509 z"/>
<path d="M0.34672 1.38268 L0.30648 1.19509 L0.4551 1.19509 z"/>
<path d="M0.34672 1.38268 L0.4551 1.19509 L0.48672 1.38268 z"/>
<path d="M0.23182 1.55557 L0.34672 1.70711 L0.41206 1.70711 z"/>
<path d="M0.23182 1.55557 L0.41206 1.70711 L0.30866 1.55557 z"/>
<path d="M0.23182 1.55557 L0.30866 1.55557 L0.23182 1.38268 z"/>
<path d="M0.23182 1.55557 L0.23182 1.38268 L0.14645 1.38268 z"/>
<path d="M0.34672 1.70711 L0.23182 1.55557 L0.30866 1.55557 z"/>
<path d="M0.34672 1.70711 L0.30866 1.55557 L0.41206 1.70711 z"/>
<path d="M0.34672 1.70711 L0.41206 1.70711 L0.53806 1.83147 z"/>
<path d="M0.34672 1.70711 L0.53806 1.83147 L0.48672 1.83147 z"/>
<path d="M0.01921 1.19509 L0 1 L0.01921 1 z"/>
<path d="M0.01921 1.19509 L0.01921 1 L0.03806 1.19509 z"/>
<path d="M0.09387 1.38268 L0.07612 1.38268 L0.01921 1.19509 z"/>
<path d="M0.09387 1.38268 L0.01921 1.19509 L0.03806 1.19509 z"/>
<path d="M0.09387 1.38268 L0.03806 1.19509 L0.09387 1.19509 z"/>
<path d="M0.09387 1.38268 L0.09387 1.19509 L0.14645 1.38268 z"/>
<path d="M0.81976 1.98079 L0.80866 1.98079 L1 2 z"/>
<path d="M0.80491 1.98079 L1 2 L0.80866 1.98079 z"/>
<path d="M0.5 1.70711 L0.41206 1.55557 L0.30866 1.55557 z"/>
<path d="M0.5 1.70711 L0.30866 1.55557 L0.41206 1.70711 z"/>
<path d="M0.53806 1.55557 L0.41206 1.55557 L0.5 1.70711 z"/>
<path d="M0.53806 1.55557 L0.5 1.70711 L0.60715 1.70711 z"/>
<path d="M0.53806 1.55557 L0.60715 1.70711 L0.7294 1.70711 z"/>
<path d="M0.53806 1.55557 L0.7294 1.70711 L0.68181 1.55557 z"/>
<path d="M0.53806 1.55557 L0.68181 1.55557 L0.64645 1.38268 z"/>
<path d="M0.53806 1.55557 L0.64645 1.38268 L0.48672 1.38268 z"/>
<path d="M0.53806 1.55557 L0.48672 1.38268 L0.34672 1.38268 z"/>
<path d="M0.53806 1.55557 L0.34672 1.38268 L0.41206 1.55557 z"/>
<path d="M1.10839 1.98079 L1.21261 1.92388 L1.2706 1.92388 z"/>
<path d="M1.10839 1.98079 L1.2706 1.92388 L1.13795 1.98079 z"/>
<path d="M1.10839 1.98079 L1.13795 1.98079 L1 2 z"/>
<path d="M1.07466 1.98079 L1.03806 1.98079 L1 2 z"/>
<path d="M0.96194 1.98079 L1 1.98079 L1 2 z"/>
<path d="M0.86205 1.98079 L0.89161 1.98079 L1 2 z"/>
<path d="M1.35355 1.38268 L1.31819 1.55557 L1.16221 1.55557 z"/>
<path d="M1.35355 1.38268 L1.16221 1.55557 L1.18024 1.38268 z"/>
<path d="M1.35355 1.38268 L1.18024 1.38268 L1.19134 1.19509 z"/>
<path d="M1.35355 1.38268 L1.19134 1.19509 L1.37533 1.19509 z"/>
<path d="M0.4551 1.83147 L0.48672 1.83147 L0.34672 1.70711 z"/>
<path d="M0.4551 1.83147 L0.34672 1.70711 L0.30648 1.70711 z"/>
<path d="M0.4551 1.83147 L0.30648 1.70711 L0.29289 1.70711 z"/>
<path d="M0.4551 1.83147 L0.29289 1.70711 L0.44443 1.83147 z"/>
<path d="M0.69134 1.83147 L0.60715 1.70711 L0.7294 1.70711 z"/>
<path d="M0.69134 1.83147 L0.7294 1.70711 L0.78739 1.83147 z"/>
<path d="M0.69134 1.83147 L0.60715 1.83147 L0.5 1.70711 z"/>
<path d="M0.69134 1.83147 L0.5 1.70711 L0.60715 1.70711 z"/>
<path d="M1.2706 1.70711 L1.39285 1.70711 L1.30866 1.83147 z"/>
<path d="M1.2706 1.70711 L1.30866 1.83147 L1.21261 1.83147 z"/>
<path d="M1.2706 1.70711 L1.13795 1.70711 L1.16221 1.55557 z"/>
<path d="M1.2706 1.70711 L1.16221 1.55557 L1.31819 1.55557 z"/>
<path d="M1.2706 1.70711 L1.31819 1.55557 L1.46194 1.55557 z"/>
<path d="M1.2706 1.70711 L1.46194 1.55557 L1.39285 1.70711 z"/>
<path d="M1.46194 0.16853 L1.31819 0.07612 L1.35355 0.07612 z"/>
<path d="M1.46194 0.16853 L1.35355 0.07612 L1.51328 0.16853 z"/>
<path d="M1.46194 0.16853 L1.51328 0.16853 L1.65328 0.29289 z"/>
<path d="M1.46194 0.16853 L1.65328 0.29289 L1.58794 0.29289 z"/>
<path d="M1.46194 0.16853 L1.58794 0.29289 L1.5 0.29289 z"/>
<path d="M1.46194 0.16853 L1.5 0.29289 L1.39285 0.16853 z"/>
<path d="M0.81976 0.61732 L1 0.61732 L1 0.80491 z"/>
<path d="M0.81976 0.61732 L1 0.80491 L0.80866 0.80491 z"/>
<path d="M0.81976 0.61732 L0.80866 0.80491 L0.62467 0.80491 z"/>
<path d="M0.81976 0.61732 L0.62467 0.80491 L0.64645 0.61732 z"/>
<path d="M0.81976 0.61732 L0.64645 0.61732 L0.68181 0.44443 z"/>
<path d="M0.81976 0.61732 L0.68181 0.44443 L0.83779 0.44443 z"/>
<path d="M0.81976 0.61732 L0.83779 0.44443 L1 0.44443 z"/>
<path d="M0.81976 0.61732 L1 0.44443 L1 0.61732 z"/>
<path d="M0.89161 0.16853 L1 0.16853 L1 0.29289 z"/>
<path d="M0.89161 0.16853 L1 0.29289 L0.86205 0.29289 z"/>
<path d="M0.89161 0.16853 L0.86205 0.29289 L0.7294 0.29289 z"/>
<path d="M0.89161 0.16853 L0.7294 0.29289 L0.78739 0.16853 z"/>
<path d="M0.81976 1.38268 L0.64645 1.38268 L0.62467 1.19509 z"/>
<path d="M0.81976 1.38268 L0.62467 1.19509 L0.80866 1.19509 z"/>
<path d="M0.81976 1.38268 L0.80866 1.19509 L1 1.19509 z"/>
<path d="M0.81976 1.38268 L1 1.19509 L1 1.38268 z"/>
<path d="M1.16221 0.44443 L1.31819 0.44443 L1.35355 0.61732 z"/>
<path d="M1.16221 0.44443 L1.35355 0.61732 L1.18024 0.61732 z"/>
<path d="M1.16221 0.44443 L1.18024 0.61732 L1 0.61732 z"/>
<path d="M1.16221 0.44443 L1 0.61732 L1 0.44443 z"/>
<path d="M1.16221 0.44443 L1 0.44443 L1 0.29289 z"/>
<path d="M1.16221 0.44443 L1 0.29289 L1.13795 0.29289 z"/>
<path d="M1.16221 0.44443 L1.13795 0.29289 L1.2706 0.29289 z"/>
<path d="M1.16221 0.44443 L1.2706 0.29289 L1.31819 0.44443 z"/>
<path d="M1.65328 0.61732 L1.51328 0.61732 L1.46194 0.44443 z"/>
<path d="M1.65328 0.61732 L1.46194 0.44443 L1.58794 0.44443 z"/>
<path d="M1.10839 0.16853 L1.21261 0.16853 L1.2706 0.29289 z"/>
<path d="M1.10839 0.16853 L1.2706 0.29289 L1.13795 0.29289 z"/>
<path d="M1.10839 0.16853 L1.13795 0.29289 L1 0.29289 z"/>
<path d="M1.10839 0.16853 L1 0.29289 L1 0.16853 z"/>
<path d="M1.10839 0.16853 L1 0.16853 L1 0.07612 z"/>
<path d="M1.10839 0.16853 L1 0.07612 L1.07466 0.07612 z"/>
<path d="M1.10839 0.16853 L1.07466 0.07612 L1.14645 0.07612 z"/>
<path d="M1.10839 0.16853 L1.14645 0.07612 L1.21261 0.16853 z"/>
<path d="M1.19134 0.01921 L1.19509 0.01921 L1 0 z"/>
<path d="M1.19134 0.01921 L1 0 L1.18024 0.01921 z"/>
<path d="M1.19134 0.01921 L1.18024 0.01921 L1.35355 0.07612 z"/>
<path d="M1.19134 0.01921 L1.35355 0.07612 L1.37533 0.07612 z"/>
<path d="M1.19134 0.01921 L1.37533 0.07612 L1.38268 0.07612 z"/>
<path d="M1.19134 0.01921 L1.38268 0.07612 L1.19509 0.01921 z"/>
<path d="M1.19134 0.01921 L1.18024 0.01921 L1 0 z"/>
<path d="M1.19134 0.01921 L1 0 L1.19509 0.01921 z"/>
<path d="M1.5449 0.16853 L1.69352 0.29289 L1.65328 0.29289 z"/>
<path d="M1.5449 0.16853 L1.65328 0.29289 L1.51328 0.16853 z"/>
<path d="M1.2706 0.07612 L1.31819 0.07612 L1.46194 0.16853 z"/>
<path d="M1.2706 0.07612 L1.46194 0.16853 L1.39285 0.16853 z"/>
<path d="M1.2706 0.07612 L1.39285 0.16853 L1.30866 0.16853 z"/>
<path d="M1.2706 0.07612 L1.30866 0.16853 L1.21261 0.07612 z"/>
<path d="M1.03806 0.01921 L1 0 L1.07466 0.01921 z"/>
<path d="M1.03806 0.01921 L1.07466 0.01921 L1.14645 0.07612 z"/>
<path d="M1.03806 0.01921 L1.14645 0.07612 L1.07466 0.07612 z"/>
<path d="M0.61732 0.07612 L0.62467 0.07612 L0.4551 0.16853 z"/>
<path d="M0.61732 0.07612 L0.4551 0.16853 L0.44443 0.16853 z"/>
<path d="M0.60715 0.29289 L0.5 0.29289 L0.60715 0.16853 z"/>
<path d="M0.60715 0.29289 L0.60715 0.16853 L0.69134 0.16853 z"/>
<path d="M0.60715 0.29289 L0.69134 0.16853 L0.78739 0.16853 z"/>
<path d="M0.60715 0.29289 L0.78739 0.16853 L0.7294 0.29289 z"/>
<path d="M0.60715 0.29289 L0.7294 0.29289 L0.68181 0.44443 z"/>
<path d="M0.60715 0.29289 L0.68181 0.44443 L0.53806 0.44443 z"/>
<path d="M0.60715 0.29289 L0.53806 0.44443 L0.41206 0.44443 z"/>
<path d="M0.60715 0.29289 L0.41206 0.44443 L0.5 0.29289 z"/>
<path d="M1.70711 0.29289 L1.69352 0.29289 L1.5449 0.16853 z"/>
<path d="M1.70711 0.29289 L1.5449 0.16853 L1.55557 0.16853 z"/>
<path d="M1.70711 0.29289 L1.69352 0.29289 L1.81549 0.44443 z"/>
<path d="M1.70711 0.29289 L1.81549 0.44443 L1.83147 0.44443 z"/>
<path d="M1.81549 0.44443 L1.76818 0.44443 L1.65328 0.29289 z"/>
<path d="M1.81549 0.44443 L1.65328 0.29289 L1.69352 0.29289 z"/>
<path d="M1.81549 0.44443 L1.69352 0.29289 L1.70711 0.29289 z"/>
<path d="M1.81549 0.44443 L1.70711 0.29289 L1.83147 0.44443 z"/>
<path d="M1.83147 1 L1.92388 1 L1.90613 1.19509 z"/>
<path d="M1.83147 1 L1.90613 1.19509 L1.81549 1.19509 z"/>
<path d="M1.83147 1 L1.81549 1.19509 L1.69352 1.19509 z"/>
<path d="M1.83147 1 L1.69352 1.19509 L1.70711 1 z"/>
<path d="M1.58794 1.70711 L1.65328 1.70711 L1.51328 1.83147 z"/>
<path d="M1.58794 1.70711 L1.51328 1.83147 L1.46194 1.83147 z"/>
<path d="M1.58794 1.70711 L1.46194 1.83147 L1.39285 1.83147 z"/>
<path d="M1.58794 1.70711 L1.39285 1.83147 L1.5 1.70711 z"/>
<path d="M1.58794 1.70711 L1.5 1.70711 L1.58794 1.55557 z"/>
<path d="M1.58794 1.70711 L1.58794 1.55557 L1.69134 1.55557 z"/>
<path d="M1.58794 1.70711 L1.69134 1.55557 L1.76818 1.55557 z"/>
<path d="M1.58794 1.70711 L1.76818 1.55557 L1.65328 1.70711 z"/>
<path d="M1.81549 1.55557 L1.69352 1.70711 L1.65328 1.70711 z"/>
<path d="M1.81549 1.55557 L1.65328 1.70711 L1.76818 1.55557 z"/>
<path d="M1.81549 1.55557 L1.76818 1.55557 L1.85355 1.38268 z"/>
<path d="M1.81549 1.55557 L1.85355 1.38268 L1.90613 1.38268 z"/>
<path d="M1.81549 1.55557 L1.90613 1.38268 L1.92388 1.38268 z"/>
<path d="M1.81549 1.55557 L1.92388 1.38268 L1.83147 1.55557 z"/>
<path d="M1.90613 1.38268 L1.92388 1.38268 L1.98079 1.19509 z"/>
<path d="M1.90613 1.38268 L1.98079 1.19509 L1.96194 1.19509 z"/>
<path d="M1.90613 1.38268 L1.96194 1.19509 L1.90613 1.19509 z"/>
<path d="M1.90613 1.38268 L1.90613 1.19509 L1.85355 1.38268 z"/>
<path d="M1.13795 1.70711 L1.16221 1.55557 L1 1.55557 z"/>
<path d="M1.13795 1.70711 L1 1.55557 L1 1.70711 z"/>
<path d="M0.69134 0.16853 L0.78739 0.07612 L0.7294 0.07612 z"/>
<path d="M0.69134 0.16853 L0.7294 0.07612 L0.60715 0.16853 z"/>
<path d="M0.69134 0.16853 L0.60715 0.16853 L0.5 0.29289 z"/>
<path d="M0.69134 0.16853 L0.5 0.29289 L0.60715 0.29289 z"/>
<path d="M0.69134 0.16853 L0.60715 0.29289 L0.7294 0.29289 z"/>
<path d="M0.69134 0.16853 L0.7294 0.29289 L0.78739 0.16853 z"/>
<path d="M0.69134 0.16853 L0.78739 0.16853 L0.85355 0.07612 z"/>
<path d="M0.69134 0.16853 L0.85355 0.07612 L0.78739 0.07612 z"/>
<path d="M0.48672 0.16853 L0.34672 0.29289 L0.41206 0.29289 z"/>
<path d="M0.48672 0.16853 L0.41206 0.29289 L0.53806 0.16853 z"/>
<path d="M0.48672 0.16853 L0.53806 0.16853 L0.68181 0.07612 z"/>
<path d="M0.48672 0.16853 L0.68181 0.07612 L0.64645 0.07612 z"/>
<path d="M0.89161 0.01921 L0.78739 0.07612 L0.85355 0.07612 z"/>
<path d="M0.89161 0.01921 L0.85355 0.07612 L0.92534 0.01921 z"/>
<path d="M0.89161 0.01921 L0.92534 0.01921 L1 0 z"/>
<path d="M0.89161 0.01921 L1 0 L0.86205 0.01921 z"/>
<path d="M0.89161 0.01921 L0.86205 0.01921 L0.7294 0.07612 z"/>
<path d="M0.89161 0.01921 L0.7294 0.07612 L0.78739 0.07612 z"/>
<path d="M1 0.07612 L0.92534 0.07612 L0.89161 0.16853 z"/>
<path d="M1 0.07612 L0.89161 0.16853 L1 0.16853 z"/>
<path d="M1 0.07612 L1 0.16853 L1.10839 0.16853 z"/>
<path d="M1 0.07612 L1.10839 0.16853 L1.07466 0.07612 z"/>
<path d="M1.07466 0.01921 L1 0 L1.03806 0.01921 z"/>
<path d="M1.07466 0.01921 L1.03806 0.01921 L1.07466 0.07612 z"/>
<path d="M1.07466 0.01921 L1.07466 0.07612 L1.14645 0.07612 z"/>
<path d="M1.07466 0.01921 L1.14645 0.07612 L1.21261 0.07612 z"/>
<path d="M1.07466 0.01921 L1.21261 0.07612 L1.10839 0.01921 z"/>
<path d="M1.07466 0.01921 L1.10839 0.01921 L1 0 z"/>
<path d="M1 0.01921 L0.96194 0.01921 L0.92534 0.07612 z"/>
<path d="M1 0.01921 L0.92534 0.07612 L1 0.07612 z"/>
<path d="M1 0.01921 L1 0.07612 L1.07466 0.07612 z"/>
<path d="M1 0.01921 L1.07466 0.07612 L1.03806 0.01921 z"/>
<path d="M1 0.01921 L1.03806 0.01921 L1 0 z"/>
<path d="M1 0.01921 L1 0 L0.96194 0.01921 z"/>
<path d="M0.30648 0.29289 L0.4551 0.16853 L0.48672 0.16853 z"/>
<path d="M0.30648 0.29289 L0.48672 0.16853 L0.34672 0.29289 z"/>
<path d="M0.23182 0.44443 L0.30866 0.44443 L0.23182 0.61732 z"/>
<path d="M0.23182 0.44443 L0.23182 0.61732 L0.14645 0.61732 z"/>
<path d="M0.23182 0.44443 L0.14645 0.61732 L0.09387 0.61732 z"/>
<path d="M0.23182 0.44443 L0.09387 0.61732 L0.18451 0.44443 z"/>
<path d="M0.23182 0.44443 L0.18451 0.44443 L0.30648 0.29289 z"/>
<path d="M0.23182 0.44443 L0.30648 0.29289 L0.34672 0.29289 z"/>
<path d="M0.23182 0.44443 L0.34672 0.29289 L0.41206 0.29289 z"/>
<path d="M0.23182 0.44443 L0.41206 0.29289 L0.30866 0.44443 z"/>
<path d="M0.30648 1.70711 L0.34672 1.70711 L0.48672 1.83147 z"/>
<path d="M0.30648 1.70711 L0.48672 1.83147 L0.4551 1.83147 z"/>
<path d="M0.30648 1.70711 L0.4551 1.83147 L0.44443 1.83147 z"/>
<path d="M0.30648 1.70711 L0.44443 1.83147 L0.29289 1.70711 z"/>
<path d="M0.18451 1.55557 L0.16853 1.55557 L0.07612 1.38268 z"/>
<path d="M0.18451 1.55557 L0.07612 1.38268 L0.09387 1.38268 z"/>
<path d="M0.18451 1.55557 L0.09387 1.38268 L0.14645 1.38268 z"/>
<path d="M0.18451 1.55557 L0.14645 1.38268 L0.23182 1.55557 z"/>
<path d="M0.18451 1.55557 L0.23182 1.55557 L0.34672 1.70711 z"/>
<path d="M0.18451 1.55557 L0.34672 1.70711 L0.30648 1.70711 z"/>
<path d="M0.18451 1.55557 L0.30648 1.70711 L0.29289 1.70711 z"/>
<path d="M0.18451 1.55557 L0.29289 1.70711 L0.16853 1.55557 z"/>
<path d="M1 1.98079 L0.96194 1.98079 L1 2 z"/>
<path d="M1 1.98079 L1 2 L1.03806 1.98079 z"/>
<path d="M0.89161 1.98079 L0.86205 1.98079 L1 2 z"/>
<path d="M0.64645 1.92388 L0.48672 1.83147 L0.4551 1.83147 z"/>
<path d="M0.64645 1.92388 L0.4551 1.83147 L0.62467 1.92388 z"/>
<path d="M0.64645 1.92388 L0.62467 1.92388 L0.80866 1.98079 z"/>
<path d="M0.64645 1.92388 L0.80866 1.98079 L0.81976 1.98079 z"/>
<path d="M0.83779 1.98079 L0.68181 1.92388 L0.64645 1.92388 z"/>
<path d="M0.83779 1.98079 L0.64645 1.92388 L0.81976 1.98079 z"/>
<path d="M0.83779 1.98079 L0.81976 1.98079 L1 2 z"/>
<path d="M0.83779 1.98079 L1 2 L0.86205 1.98079 z"/>
<path d="M0.69134 1.83147 L0.60715 1.70711 L0.5 1.70711 z"/>
<path d="M0.69134 1.83147 L0.5 1.70711 L0.60715 1.83147 z"/>
<path d="M0.69134 1.83147 L0.78739 1.92388 L0.85355 1.92388 z"/>
<path d="M0.69134 1.83147 L0.85355 1.92388 L0.78739 1.83147 z"/>
<path d="M0.69134 1.83147 L0.78739 1.83147 L0.7294 1.70711 z"/>
<path d="M0.69134 1.83147 L0.7294 1.70711 L0.60715 1.70711 z"/>
<path d="M0.53806 1.83147 L0.48672 1.83147 L0.64645 1.92388 z"/>
<path d="M0.53806 1.83147 L0.64645 1.92388 L0.68181 1.92388 z"/>
<path d="M0.53806 1.83147 L0.60715 1.83147 L0.5 1.70711 z"/>
<path d="M0.53806 1.83147 L0.5 1.70711 L0.41206 1.70711 z"/>
<path d="M0.53806 1.83147 L0.41206 1.70711 L0.34672 1.70711 z"/>
<path d="M0.53806 1.83147 L0.34672 1.70711 L0.48672 1.83147 z"/>
<path d="M0.7294 1.92388 L0.78739 1.92388 L0.69134 1.83147 z"/>
<path d="M0.7294 1.92388 L0.69134 1.83147 L0.60715 1.83147 z"/>
<path d="M0.7294 1.92388 L0.60715 1.83147 L0.53806 1.83147 z"/>
<path d="M0.7294 1.92388 L0.53806 1.83147 L0.68181 1.92388 z"/>
<path d="M0.7294 1.92388 L0.68181 1.92388 L0.83779 1.98079 z"/>
<path d="M0.7294 1.92388 L0.83779 1.98079 L0.86205 1.98079 z"/>
<path d="M0.7294 1.92388 L0.86205 1.98079 L0.89161 1.98079 z"/>
<path d="M0.7294 1.92388 L0.89161 1.98079 L0.78739 1.92388 z"/>
<path d="M0.86205 1.70711 L1 1.70711 L1 1.55557 z"/>
<path d="M0.86205 1.70711 L1 1.55557 L0.83779 1.55557 z"/>
<path d="M0.86205 1.70711 L0.83779 1.55557 L0.68181 1.55557 z"/>
<path d="M0.86205 1.70711 L0.68181 1.55557 L0.7294 1.70711 z"/>
<path d="M0.92534 1.98079 L0.96194 1.98079 L1 2 z"/>
<path d="M0.92534 1.98079 L1 2 L0.89161 1.98079 z"/>
<path d="M0.83779 1.98079 L0.68181 1.92388 L0.7294 1.92388 z"/>
<path d="M0.83779 1.98079 L0.7294 1.92388 L0.86205 1.98079 z"/>
<path d="M0.83779 1.98079 L0.86205 1.98079 L1 2 z"/>
<path d="M0.83779 1.98079 L1 2 L0.81976 1.98079 z"/>
<path d="M1.51328 1.38268 L1.65328 1.38268 L1.58794 1.55557 z"/>
<path d="M1.51328 1.38268 L1.58794 1.55557 L1.46194 1.55557 z"/>
<path d="M1.51328 1.38268 L1.46194 1.55557 L1.31819 1.55557 z"/>
<path d="M1.51328 1.38268 L1.31819 1.55557 L1.35355 1.38268 z"/>
<path d="M1.51328 1.38268 L1.35355 1.38268 L1.37533 1.19509 z"/>
<path d="M1.51328 1.38268 L1.37533 1.19509 L1.5449 1.19509 z"/>
<path d="M1.51328 1.38268 L1.5449 1.19509 L1.69352 1.19509 z"/>
<path d="M1.51328 1.38268 L1.69352 1.19509 L1.65328 1.38268 z"/>
<path d="M0.61732 1.92388 L0.44443 1.83147 L0.4551 1.83147 z"/>
<path d="M0.61732 1.92388 L0.4551 1.83147 L0.62467 1.92388 z"/>
<path d="M0.61732 1.92388 L0.80491 1.98079 L0.80866 1.98079 z"/>
<path d="M0.61732 1.92388 L0.80866 1.98079 L0.62467 1.92388 z"/>
<path d="M0.61732 1.92388 L0.62467 1.92388 L0.4551 1.83147 z"/>
<path d="M0.61732 1.92388 L0.4551 1.83147 L0.44443 1.83147 z"/>
<path d="M0.80866 1.98079 L0.80491 1.98079 L0.61732 1.92388 z"/>
<path d="M0.80866 1.98079 L0.61732 1.92388 L0.62467 1.92388 z"/>
<path d="M0.80866 1.98079 L0.81976 1.98079 L1 2 z"/>
<path d="M0.80866 1.98079 L1 2 L0.80491 1.98079 z"/>
<path d="M0.64645 1.92388 L0.68181 1.92388 L0.83779 1.98079 z"/>
<path d="M0.64645 1.92388 L0.83779 1.98079 L0.81976 1.98079 z"/>
<path d="M0.64645 1.92388 L0.81976 1.98079 L0.80866 1.98079 z"/>
<path d="M0.64645 1.92388 L0.80866 1.98079 L0.62467 1.92388 z"/>
<path d="M0.64645 1.92388 L0.62467 1.92388 L0.4551 1.83147 z"/>
<path d="M0.64645 1.92388 L0.4551 1.83147 L0.48672 1.83147 z"/>
<path d="M0.64645 1.92388 L0.48672 1.83147 L0.53806 1.83147 z"/>
<path d="M0.64645 1.92388 L0.53806 1.83147 L0.68181 1.92388 z"/>
<path d="M0.78739 1.92388 L0.69134 1.83147 L0.78739 1.83147 z"/>
<path d="M0.78739 1.92388 L0.78739 1.83147 L0.85355 1.92388 z"/>
<path d="M0.78739 1.92388 L0.85355 1.92388 L0.92534 1.98079 z"/>
<path d="M0.78739 1.92388 L0.92534 1.98079 L0.89161 1.98079 z"/>
<path d="M0.78739 1.92388 L0.89161 1.98079 L0.86205 1.98079 z"/>
<path d="M0.78739 1.92388 L0.86205 1.98079 L0.7294 1.92388 z"/>
<path d="M0.78739 1.92388 L0.7294 1.92388 L0.60715 1.83147 z"/>
<path d="M0.78739 1.92388 L0.60715 1.83147 L0.69134 1.83147 z"/>
<path d="M0.92534 1.92388 L0.96194 1.98079 L0.92534 1.98079 z"/>
<path d="M0.92534 1.92388 L0.92534 1.98079 L0.85355 1.92388 z"/>
<path d="M0.92534 1.92388 L0.85355 1.92388 L0.78739 1.83147 z"/>
<path d="M0.92534 1.92388 L0.78739 1.83147 L0.89161 1.83147 z"/>
<path d="M1.10839 1.83147 L1 1.83147 L1 1.70711 z"/>
<path d="M1.10839 1.83147 L1 1.70711 L1.13795 1.70711 z"/>
<path d="M1.10839 1.83147 L1.13795 1.70711 L1.2706 1.70711 z"/>
<path d="M1.10839 1.83147 L1.2706 1.70711 L1.21261 1.83147 z"/>
<path d="M1.03806 1.98079 L1 2 L1 1.98079 z"/>
<path d="M1.46194 0.16853 L1.39285 0.16853 L1.5 0.29289 z"/>
<path d="M1.46194 0.16853 L1.5 0.29289 L1.58794 0.29289 z"/>
<path d="M1.46194 0.16853 L1.58794 0.29289 L1.65328 0.29289 z"/>
<path d="M1.46194 0.16853 L1.65328 0.29289 L1.51328 0.16853 z"/>
<path d="M1.46194 0.16853 L1.51328 0.16853 L1.35355 0.07612 z"/>
<path d="M1.46194 0.16853 L1.35355 0.07612 L1.31819 0.07612 z"/>
<path d="M1.46194 0.16853 L1.31819 0.07612 L1.2706 0.07612 z"/>
<path d="M1.46194 0.16853 L1.2706 0.07612 L1.39285 0.16853 z"/>
<path d="M1.5449 0.16853 L1.55557 0.16853 L1.38268 0.07612 z"/>
<path d="M1.5449 0.16853 L1.38268 0.07612 L1.37533 0.07612 z"/>
<path d="M1.5449 0.16853 L1.37533 0.07612 L1.35355 0.07612 z"/>
<path d="M1.5449 0.16853 L1.35355 0.07612 L1.51328 0.16853 z"/>
<path d="M1.5449 0.16853 L1.51328 0.16853 L1.65328 0.29289 z"/>
<path d="M1.5449 0.16853 L1.65328 0.29289 L1.69352 0.29289 z"/>
<path d="M1.5449 0.16853 L1.69352 0.29289 L1.70711 0.29289 z"/>
<path d="M1.5449 0.16853 L1.70711 0.29289 L1.55557 0.16853 z"/>
<path d="M0.83779 1.55557 L0.68181 1.55557 L0.64645 1.38268 z"/>
<path d="M0.83779 1.55557 L0.64645 1.38268 L0.81976 1.38268 z"/>
<path d="M0.83779 1.55557 L0.81976 1.38268 L1 1.38268 z"/>
<path d="M0.83779 1.55557 L1 1.38268 L1 1.55557 z"/>
<path d="M0.83779 1.55557 L1 1.55557 L1 1.70711 z"/>
<path d="M0.83779 1.55557 L1 1.70711 L0.86205 1.70711 z"/>
<path d="M0.83779 1.55557 L0.86205 1.70711 L0.7294 1.70711 z"/>
<path d="M0.83779 1.55557 L0.7294 1.70711 L0.68181 1.55557 z"/>
<path d="M1.69352 0.80491 L1.81549 0.80491 L1.83147 1 z"/>
<path d="M1.69352 0.80491 L1.83147 1 L1.70711 1 z"/>
<path d="M0.92534 0.07612 L1 0.07612 L1 0.16853 z"/>
<path d="M0.92534 0.07612 L1 0.16853 L0.89161 0.16853 z"/>
<path d="M0.92534 0.07612 L0.89161 0.16853 L0.78739 0.16853 z"/>
<path d="M0.92534 0.07612 L0.78739 0.16853 L0.85355 0.07612 z"/>
<path d="M1.37533 0.07612 L1.35355 0.07612 L1.18024 0.01921 z"/>
<path d="M1.37533 0.07612 L1.18024 0.01921 L1.19134 0.01921 z"/>
<path d="M1.37533 0.07612 L1.19134 0.01921 L1.19509 0.01921 z"/>
<path d="M1.37533 0.07612 L1.19509 0.01921 L1.38268 0.07612 z"/>
<path d="M1.37533 0.07612 L1.38268 0.07612 L1.55557 0.16853 z"/>
<path d="M1.37533 0.07612 L1.55557 0.16853 L1.5449 0.16853 z"/>
<path d="M1.37533 0.07612 L1.5449 0.16853 L1.51328 0.16853 z"/>
<path d="M1.37533 0.07612 L1.51328 0.16853 L1.35355 0.07612 z"/>
<path d="M1.13795 0.01921 L1.16221 0.01921 L1.31819 0.07612 z"/>
<path d="M1.13795 0.01921 L1.31819 0.07612 L1.2706 0.07612 z"/>
<path d="M1.13795 0.01921 L1 0 L1.16221 0.01921 z"/>
<path d="M1 0.01921 L1 0 L1.03806 0.01921 z"/>
<path d="M1 0.01921 L1.03806 0.01921 L1.07466 0.07612 z"/>
<path d="M1 0.01921 L1.07466 0.07612 L1 0.07612 z"/>
<path d="M1 0.01921 L1 0.07612 L0.92534 0.07612 z"/>
<path d="M1 0.01921 L0.92534 0.07612 L0.96194 0.01921 z"/>
<path d="M1 0.01921 L0.96194 0.01921 L1 0 z"/>
<path d="M0.92534 0.01921 L1 0 L0.96194 0.01921 z"/>
<path d="M0.92534 0.01921 L0.96194 0.01921 L0.92534 0.07612 z"/>
<path d="M0.92534 0.01921 L0.92534 0.07612 L0.85355 0.07612 z"/>
<path d="M0.83779 0.01921 L1 0 L0.86205 0.01921 z"/>
<path d="M0.83779 0.01921 L0.86205 0.01921 L0.7294 0.07612 z"/>
<path d="M0.83779 0.01921 L0.7294 0.07612 L0.68181 0.07612 z"/>
<path d="M0.80866 0.01921 L0.80491 0.01921 L0.61732 0.07612 z"/>
<path d="M0.80866 0.01921 L0.61732 0.07612 L0.62467 0.07612 z"/>
<path d="M0.80866 0.01921 L0.62467 0.07612 L0.64645 0.07612 z"/>
<path d="M0.80866 0.01921 L0.64645 0.07612 L0.81976 0.01921 z"/>
<path d="M0.80866 0.01921 L0.81976 0.01921 L1 0 z"/>
<path d="M0.80866 0.01921 L1 0 L0.80491 0.01921 z"/>
<path d="M0.83779 0.01921 L0.86205 0.01921 L1 0 z"/>
<path d="M0.83779 0.01921 L1 0 L0.81976 0.01921 z"/>
<path d="M0.83779 0.01921 L0.81976 0.01921 L0.64645 0.07612 z"/>
<path d="M0.83779 0.01921 L0.64645 0.07612 L0.68181 0.07612 z"/>
<path d="M0.83779 0.01921 L0.68181 0.07612 L0.7294 0.07612 z"/>
<path d="M0.83779 0.01921 L0.7294 0.07612 L0.86205 0.01921 z"/>
<path d="M1.76818 0.61732 L1.65328 0.61732 L1.58794 0.44443 z"/>
<path d="M1.76818 0.61732 L1.58794 0.44443 L1.69134 0.44443 z"/>
<path d="M1.76818 0.61732 L1.69134 0.44443 L1.76818 0.44443 z"/>
<path d="M1.76818 0.61732 L1.76818 0.44443 L1.85355 0.61732 z"/>
<path d="M1.76818 0.61732 L1.81549 0.80491 L1.69352 0.80491 z"/>
<path d="M1.76818 0.61732 L1.69352 0.80491 L1.65328 0.61732 z"/>
<path d="M1.90613 0.80491 L1.81549 0.80491 L1.76818 0.61732 z"/>
<path d="M1.90613 0.80491 L1.76818 0.61732 L1.85355 0.61732 z"/>
<path d="M1.90613 0.80491 L1.96194 0.80491 L1.98079 1 z"/>
<path d="M1.90613 0.80491 L1.98079 1 L1.92388 1 z"/>
<path d="M1.90613 0.80491 L1.92388 1 L1.83147 1 z"/>
<path d="M1.90613 0.80491 L1.83147 1 L1.81549 0.80491 z"/>
<path d="M1.90613 0.61732 L1.92388 0.61732 L1.98079 0.80491 z"/>
<path d="M1.90613 0.61732 L1.98079 0.80491 L1.96194 0.80491 z"/>
<path d="M1.90613 0.61732 L1.96194 0.80491 L1.90613 0.80491 z"/>
<path d="M1.90613 0.61732 L1.90613 0.80491 L1.85355 0.61732 z"/>
<path d="M1.90613 0.61732 L1.85355 0.61732 L1.76818 0.44443 z"/>
<path d="M1.90613 0.61732 L1.76818 0.44443 L1.81549 0.44443 z"/>
<path d="M1.90613 0.61732 L1.81549 0.44443 L1.83147 0.44443 z"/>
<path d="M1.90613 0.61732 L1.83147 0.44443 L1.92388 0.61732 z"/>
<path d="M1.58794 1.55557 L1.69134 1.55557 L1.76818 1.38268 z"/>
<path d="M1.58794 1.55557 L1.76818 1.38268 L1.65328 1.38268 z"/>
<path d="M0.4551 0.16853 L0.30648 0.29289 L0.34672 0.29289 z"/>
<path d="M0.4551 0.16853 L0.34672 0.29289 L0.48672 0.16853 z"/>
<path d="M0.4551 0.16853 L0.48672 0.16853 L0.64645 0.07612 z"/>
<path d="M0.4551 0.16853 L0.64645 0.07612 L0.62467 0.07612 z"/>
<path d="M0.4551 0.16853 L0.62467 0.07612 L0.61732 0.07612 z"/>
<path d="M0.4551 0.16853 L0.61732 0.07612 L0.44443 0.16853 z"/>
<path d="M0.29289 0.29289 L0.30648 0.29289 L0.4551 0.16853 z"/>
<path d="M0.29289 0.29289 L0.4551 0.16853 L0.44443 0.16853 z"/>
<path d="M0.29289 0.29289 L0.44443 0.16853 L0.4551 0.16853 z"/>
<path d="M0.29289 0.29289 L0.4551 0.16853 L0.30648 0.29289 z"/>
<path d="M0.29289 0.29289 L0.30648 0.29289 L0.18451 0.44443 z"/>
<path d="M0.29289 0.29289 L0.18451 0.44443 L0.16853 0.44443 z"/>
<path d="M0.29289 0.29289 L0.16853 0.44443 L0.18451 0.44443 z"/>
<path d="M0.29289 0.29289 L0.18451 0.44443 L0.30648 0.29289 z"/>
<path d="M0.18451 1.55557 L0.23182 1.55557 L0.14645 1.38268 z"/>
<path d="M0.18451 1.55557 L0.14645 1.38268 L0.09387 1.38268 z"/>
<path d="M0.18451 1.55557 L0.09387 1.38268 L0.07612 1.38268 z"/>
<path d="M0.18451 1.55557 L0.07612 1.38268 L0.16853 1.55557 z"/>
<path d="M0.18451 1.55557 L0.16853 1.55557 L0.29289 1.70711 z"/>
<path d="M0.18451 1.55557 L0.29289 1.70711 L0.30648 1.70711 z"/>
<path d="M0.18451 1.55557 L0.30648 1.70711 L0.34672 1.70711 z"/>
<path d="M0.18451 1.55557 L0.34672 1.70711 L0.23182 1.55557 z"/>
<path d="M0.03806 1.19509 L0.01921 1.19509 L0.07612 1.38268 z"/>
<path d="M0.03806 1.19509 L0.07612 1.38268 L0.09387 1.38268 z"/>
<path d="M0.03806 1.19509 L0.09387 1.38268 L0.14645 1.38268 z"/>
<path d="M0.03806 1.19509 L0.14645 1.38268 L0.09387 1.19509 z"/>
<path d="M0.03806 1.19509 L0.09387 1.19509 L0.07612 1 z"/>
<path d="M0.03806 1.19509 L0.07612 1 L0.01921 1 z"/>
<path d="M0.03806 1.19509 L0.01921 1 L0 1 z"/>
<path d="M0.03806 1.19509 L0 1 L0.01921 1.19509 z"/>
<path d="M1 1.92388 L0.92534 1.92388 L0.96194 1.98079 z"/>
<path d="M1 1.92388 L0.96194 1.98079 L1 1.98079 z"/>
<path d="M0.92534 1.98079 L0.96194 1.98079 L0.92534 1.92388 z"/>
<path d="M0.92534 1.98079 L0.92534 1.92388 L0.85355 1.92388 z"/>
<path d="M0.92534 1.98079 L0.85355 1.92388 L0.78739 1.92388 z"/>
<path d="M0.92534 1.98079 L0.78739 1.92388 L0.89161 1.98079 z"/>
<path d="M0.92534 1.98079 L0.89161 1.98079 L1 2 z"/>
<path d="M0.92534 1.98079 L1 2 L0.96194 1.98079 z"/>
<path d="M1.10839 1.83147 L1.21261 1.83147 L1.2706 1.70711 z"/>
<path d="M1.10839 1.83147 L1.2706 1.70711 L1.13795 1.70711 z"/>
<path d="M1.10839 1.83147 L1.13795 1.70711 L1 1.70711 z"/>
<path d="M1.10839 1.83147 L1 1.70711 L1 1.83147 z"/>
<path d="M0.89161 1.83147 L1 1.83147 L1 1.70711 z"/>
<path d="M0.89161 1.83147 L1 1.70711 L0.86205 1.70711 z"/>
<path d="M0.89161 1.83147 L0.86205 1.70711 L0.7294 1.70711 z"/>
<path d="M0.89161 1.83147 L0.7294 1.70711 L0.78739 1.83147 z"/>
<path d="M0.89161 1.83147 L0.78739 1.83147 L0.85355 1.92388 z"/>
<path d="M0.89161 1.83147 L0.85355 1.92388 L0.92534 1.92388 z"/>
<path d="M0.89161 1.83147 L0.92534 1.92388 L1 1.92388 z"/>
<path d="M0.89161 1.83147 L1 1.92388 L1 1.83147 z"/>
<path d="M1 1.92388 L1.07466 1.92388 L1.03806 1.98079 z"/>
<path d="M1 1.92388 L1.03806 1.98079 L1 1.98079 z"/>
<path d="M1 1.92388 L1 1.98079 L0.96194 1.98079 z"/>
<path d="M1 1.92388 L0.96194 1.98079 L0.92534 1.92388 z"/>
<path d="M1 1.92388 L0.92534 1.92388 L0.89161 1.83147 z"/>
<path d="M1 1.92388 L0.89161 1.83147 L1 1.83147 z"/>
<path d="M1 1.92388 L1 1.83147 L1.10839 1.83147 z"/>
<path d="M1 1.92388 L1.10839 1.83147 L1.07466 1.92388 z"/>
<path d="M1.14645 1.92388 L1.07466 1.92388 L1.10839 1.83147 z"/>
<path d="M1.14645 1.92388 L1.10839 1.83147 L1.21261 1.83147 z"/>
<path d="M1.14645 1.92388 L1.21261 1.83147 L1.30866 1.83147 z"/>
<path d="M1.14645 1.92388 L1.30866 1.83147 L1.21261 1.92388 z"/>
<path d="M1.5449 0.80491 L1.37533 0.80491 L1.35355 0.61732 z"/>
<path d="M1.5449 0.80491 L1.35355 0.61732 L1.51328 0.61732 z"/>
<path d="M1.5449 0.80491 L1.51328 0.61732 L1.65328 0.61732 z"/>
<path d="M1.5449 0.80491 L1.65328 0.61732 L1.69352 0.80491 z"/>
<path d="M1.5449 0.80491 L1.69352 0.80491 L1.70711 1 z"/>
<path d="M1.5449 0.80491 L1.70711 1 L1.55557 1 z"/>
<path d="M1.5449 0.80491 L1.55557 1 L1.38268 1 z"/>
<path d="M1.5449 0.80491 L1.38268 1 L1.37533 0.80491 z"/>
<path d="M1.10839 0.01921 L1.07466 0.01921 L1 0 z"/>
<path d="M1.10839 0.01921 L1 0 L1.13795 0.01921 z"/>
<path d="M1.10839 0.01921 L1.13795 0.01921 L1.2706 0.07612 z"/>
<path d="M1.10839 0.01921 L1.2706 0.07612 L1.21261 0.07612 z"/>
<path d="M1.10839 0.01921 L1.21261 0.07612 L1.14645 0.07612 z"/>
<path d="M1.10839 0.01921 L1.14645 0.07612 L1.07466 0.01921 z"/>
<path d="M0.78739 0.07612 L0.85355 0.07612 L0.78739 0.16853 z"/>
<path d="M0.78739 0.07612 L0.78739 0.16853 L0.69134 0.16853 z"/>
<path d="M0.78739 0.07612 L0.69134 0.16853 L0.60715 0.16853 z"/>
<path d="M0.78739 0.07612 L0.60715 0.16853 L0.7294 0.07612 z"/>
<path d="M0.80866 0.01921 L0.80491 0.01921 L1 0 z"/>
<path d="M0.80866 0.01921 L0.62467 0.07612 L0.61732 0.07612 z"/>
<path d="M0.80866 0.01921 L0.61732 0.07612 L0.80491 0.01921 z"/>
<path d="M1.81549 1.55557 L1.83147 1.55557 L1.92388 1.38268 z"/>
<path d="M1.81549 1.55557 L1.92388 1.38268 L1.90613 1.38268 z"/>
<path d="M1.81549 1.55557 L1.90613 1.38268 L1.85355 1.38268 z"/>
<path d="M1.81549 1.55557 L1.85355 1.38268 L1.76818 1.55557 z"/>
<path d="M1.51328 1.38268 L1.65328 1.38268 L1.69352 1.19509 z"/>
<path d="M1.51328 1.38268 L1.69352 1.19509 L1.5449 1.19509 z"/>
<path d="M1.51328 1.38268 L1.5449 1.19509 L1.37533 1.19509 z"/>
<path d="M1.51328 1.38268 L1.37533 1.19509 L1.35355 1.38268 z"/>
<path d="M1.07466 1.92388 L1.14645 1.92388 L1.21261 1.83147 z"/>
<path d="M1.07466 1.92388 L1.21261 1.83147 L1.10839 1.83147 z"/>
<path d="M1.07466 1.92388 L1.10839 1.83147 L1 1.83147 z"/>
<path d="M1.07466 1.92388 L1 1.83147 L1 1.92388 z"/>
<path d="M1.07466 1.92388 L1 1.92388 L1 1.98079 z"/>
<path d="M1.07466 1.92388 L1 1.98079 L1.03806 1.98079 z"/>
<path d="M1.07466 1.92388 L1.03806 1.98079 L1.07466 1.98079 z"/>
<path d="M1.07466 1.92388 L1.07466 1.98079 L1.14645 1.92388 z"/>
<path d="M1.07466 1.98079 L1.03806 1.98079 L1.07466 1.92388 z"/>
<path d="M1.07466 1.98079 L1.07466 1.92388 L1.14645 1.92388 z"/>
<path d="M1.07466 1.98079 L1.14645 1.92388 L1.21261 1.92388 z"/>
<path d="M1.07466 1.98079 L1.21261 1.92388 L1.10839 1.98079 z"/>
<path d="M1.07466 1.98079 L1.10839 1.98079 L1 2 z"/>
<path d="M1.07466 1.98079 L1 2 L1.03806 1.98079 z"/>
<path d="M0.89161 0.01921 L0.92534 0.01921 L0.85355 0.07612 z"/>
<path d="M0.89161 0.01921 L0.85355 0.07612 L0.78739 0.07612 z"/>
<path d="M0.89161 0.01921 L0.78739 0.07612 L0.7294 0.07612 z"/>
<path d="M0.89161 0.01921 L0.7294 0.07612 L0.86205 0.01921 z"/>
<path d="M0.89161 0.01921 L0.86205 0.01921 L1 0 z"/>
<path d="M0.89161 0.01921 L1 0 L0.92534 0.01921 z"/>
<path d="M0.81976 0.01921 L0.83779 0.01921 L0.68181 0.07612 z"/>
<path d="M0.81976 0.01921 L0.68181 0.07612 L0.64645 0.07612 z"/>
<path d="M0.81976 0.01921 L0.64645 0.07612 L0.62467 0.07612 z"/>
<path d="M0.81976 0.01921 L0.62467 0.07612 L0.80866 0.01921 z"/>
<path d="M0.81976 0.01921 L0.80866 0.01921 L1 0 z"/>
<path d="M0.81976 0.01921 L1 0 L0.83779 0.01921 z"/>
<path d="M1.21261 1.92388 L1.2706 1.92388 L1.39285 1.83147 z"/>
<path d="M1.21261 1.92388 L1.39285 1.83147 L1.30866 1.83147 z"/>
<path d="M1.21261 1.92388 L1.30866 1.83147 L1.21261 1.83147 z"/>
<path d="M1.21261 1.92388 L1.21261 1.83147 L1.14645 1.92388 z"/>
<path d="M1.65328 1.70711 L1.51328 1.83147 L1.5449 1.83147 z"/>
<path d="M1.65328 1.70711 L1.5449 1.83147 L1.69352 1.70711 z"/>
<path d="M1.65328 1.70711 L1.69352 1.70711 L1.81549 1.55557 z"/>
<path d="M1.65328 1.70711 L1.81549 1.55557 L1.76818 1.55557 z"/>
<path d="M1.70711 1.70711 L1.69352 1.70711 L1.5449 1.83147 z"/>
<path d="M1.70711 1.70711 L1.5449 1.83147 L1.55557 1.83147 z"/>
<path d="M1.70711 1.70711 L1.69352 1.70711 L1.81549 1.55557 z"/>
<path d="M1.70711 1.70711 L1.81549 1.55557 L1.83147 1.55557 z"/>
<path d="M1.70711 1.70711 L1.83147 1.55557 L1.81549 1.55557 z"/>
<path d="M1.70711 1.70711 L1.81549 1.55557 L1.69352 1.70711 z"/>
<path d="M1.46194 1.55557 L1.58794 1.55557 L1.65328 1.38268 z"/>
<path d="M1.46194 1.55557 L1.65328 1.38268 L1.51328 1.38268 z"/>
<path d="M1.31819 1.92388 L1.46194 1.83147 L1.51328 1.83147 z"/>
<path d="M1.31819 1.92388 L1.51328 1.83147 L1.35355 1.92388 z"/>
<path d="M1.31819 1.92388 L1.2706 1.92388 L1.39285 1.83147 z"/>
<path d="M1.31819 1.92388 L1.39285 1.83147 L1.46194 1.83147 z"/>
<path d="M1.46194 1.83147 L1.39285 1.83147 L1.2706 1.92388 z"/>
<path d="M1.46194 1.83147 L1.2706 1.92388 L1.31819 1.92388 z"/>
<path d="M1.46194 1.83147 L1.31819 1.92388 L1.35355 1.92388 z"/>
<path d="M1.46194 1.83147 L1.35355 1.92388 L1.51328 1.83147 z"/>
<path d="M1.31819 1.55557 L1.16221 1.55557 L1.13795 1.70711 z"/>
<path d="M1.31819 1.55557 L1.13795 1.70711 L1.2706 1.70711 z"/>
<path d="M1.31819 1.55557 L1.46194 1.55557 L1.51328 1.38268 z"/>
<path d="M1.31819 1.55557 L1.51328 1.38268 L1.35355 1.38268 z"/>
<path d="M1.31819 1.55557 L1.35355 1.38268 L1.18024 1.38268 z"/>
<path d="M1.31819 1.55557 L1.18024 1.38268 L1.16221 1.55557 z"/>
<path d="M1.39285 1.70711 L1.5 1.70711 L1.58794 1.55557 z"/>
<path d="M1.39285 1.70711 L1.58794 1.55557 L1.46194 1.55557 z"/>
<path d="M1.39285 1.70711 L1.46194 1.55557 L1.31819 1.55557 z"/>
<path d="M1.39285 1.70711 L1.31819 1.55557 L1.2706 1.70711 z"/>
<path d="M1.39285 1.70711 L1.2706 1.70711 L1.21261 1.83147 z"/>
<path d="M1.39285 1.70711 L1.21261 1.83147 L1.30866 1.83147 z"/>
<path d="M1.39285 1.70711 L1.30866 1.83147 L1.39285 1.83147 z"/>
<path d="M1.39285 1.70711 L1.39285 1.83147 L1.5 1.70711 z"/>
<path d="M1.5449 1.83147 L1.51328 1.83147 L1.65328 1.70711 z"/>
<path d="M1.5449 1.83147 L1.65328 1.70711 L1.69352 1.70711 z"/>
<path d="M1.5449 1.83147 L1.69352 1.70711 L1.70711 1.70711 z"/>
<path d="M1.5449 1.83147 L1.70711 1.70711 L1.55557 1.83147 z"/>
<path d="M1.37533 1.92388 L1.38268 1.92388 L1.55557 1.83147 z"/>
<path d="M1.37533 1.92388 L1.55557 1.83147 L1.5449 1.83147 z"/>
<path d="M1.37533 1.92388 L1.5449 1.83147 L1.51328 1.83147 z"/>
<path d="M1.37533 1.92388 L1.51328 1.83147 L1.35355 1.92388 z"/>
<path d="M1.16221 1.98079 L1 2 L1.13795 1.98079 z"/>
<path d="M1.16221 1.98079 L1.13795 1.98079 L1.2706 1.92388 z"/>
<path d="M1.16221 1.98079 L1.2706 1.92388 L1.31819 1.92388 z"/>
<path d="M1.19509 1.98079 L1.19134 1.98079 L1 2 z"/>
<path d="M1.19509 1.98079 L1 2 L1.19134 1.98079 z"/>
<path d="M1.19509 1.98079 L1.38268 1.92388 L1.37533 1.92388 z"/>
<path d="M1.19509 1.98079 L1.37533 1.92388 L1.19134 1.98079 z"/>
<path d="M1.18024 1.98079 L1 2 L1.19134 1.98079 z"/>
<path d="M1.18024 1.98079 L1.19134 1.98079 L1.37533 1.92388 z"/>
<path d="M1.18024 1.98079 L1.37533 1.92388 L1.35355 1.92388 z"/>
<path d="M1.10839 1.98079 L1.07466 1.98079 L1 2 z"/>
<path d="M1.10839 1.98079 L1 2 L1.13795 1.98079 z"/>
<path d="M1.10839 1.98079 L1.13795 1.98079 L1.2706 1.92388 z"/>
<path d="M1.10839 1.98079 L1.2706 1.92388 L1.21261 1.92388 z"/>
<path d="M1.10839 1.98079 L1.21261 1.92388 L1.14645 1.92388 z"/>
<path d="M1.10839 1.98079 L1.14645 1.92388 L1.07466 1.98079 z"/>
<path d="M1.58794 1.70711 L1.5 1.70711 L1.39285 1.83147 z"/>
<path d="M1.58794 1.70711 L1.39285 1.83147 L1.46194 1.83147 z"/>
<path d="M1.58794 1.70711 L1.46194 1.83147 L1.51328 1.83147 z"/>
<path d="M1.58794 1.70711 L1.51328 1.83147 L1.65328 1.70711 z"/>
<path d="M1.58794 1.70711 L1.65328 1.70711 L1.76818 1.55557 z"/>
<path d="M1.58794 1.70711 L1.76818 1.55557 L1.69134 1.55557 z"/>
<path d="M1.58794 1.70711 L1.69134 1.55557 L1.58794 1.55557 z"/>
<path d="M1.58794 1.70711 L1.58794 1.55557 L1.5 1.70711 z"/>
<path d="M1.37533 1.92388 L1.35355 1.92388 L1.51328 1.83147 z"/>
<path d="M1.37533 1.92388 L1.51328 1.83147 L1.5449 1.83147 z"/>
<path d="M1.37533 1.92388 L1.5449 1.83147 L1.55557 1.83147 z"/>
<path d="M1.37533 1.92388 L1.55557 1.83147 L1.38268 1.92388 z"/>
<path d="M1.37533 1.92388 L1.38268 1.92388 L1.19509 1.98079 z"/>
<path d="M1.37533 1.92388 L1.19509 1.98079 L1.19134 1.98079 z"/>
<path d="M1.18024 1.98079 L1.19134 1.98079 L1 2 z"/>
<path d="M1.18024 1.98079 L1 2 L1.16221 1.98079 z"/>
<path d="M1.18024 1.98079 L1.16221 1.98079 L1.31819 1.92388 z"/>
<path d="M1.18024 1.98079 L1.31819 1.92388 L1.35355 1.92388 z"/>
<path d="M1.18024 1.98079 L1.35355 1.92388 L1.37533 1.92388 z"/>
<path d="M1.18024 1.98079 L1.37533 1.92388 L1.19134 1.98079 z"/>
<path d="M1.16221 1.98079 L1.13795 1.98079 L1 2 z"/>
<path d="M1.16221 1.98079 L1 2 L1.18024 1.98079 z"/>
<path d="M1.16221 1.98079 L1.18024 1.98079 L1.35355 1.92388 z"/>
<path d="M1.16221 1.98079 L1.35355 1.92388 L1.31819 1.92388 z"/>
<path d="M1.16221 1.98079 L1.31819 1.92388 L1.2706 1.92388 z"/>
<path d="M1.16221 1.98079 L1.2706 1.92388 L1.13795 1.98079 z"/>
</svg>